<svg width="240" height="240" viewBox="0 0 240 240" fill="none" xmlns="http://www.w3.org/2000/svg">
<circle cx="120" cy="120" r="120" fill="#FFE9AD"/>
<g clip-path="url(#clip0)">
<path d="M128.421 83.4494C128.393 89.8317 126.698 95.8576 124.397 101.728C122.113 107.564 119.679 113.345 117.306 119.154C116.344 120.062 115.872 121.058 116.122 122.49C116.355 123.826 115.8 125.169 115.466 126.488C115.344 126.722 115.172 126.906 114.955 127.04C113.716 126.366 113.232 127.068 113.388 128.126C113.599 129.552 113.354 130.832 112.787 132.102C112.598 132.52 112.376 133.238 112.093 133.216C109.57 133.027 110.386 135.171 109.831 136.346C109.092 137.872 107.391 138.373 106.352 139.71C105.151 141.258 104.162 139.944 103.784 138.535C103.406 137.137 103.162 135.694 101.189 136.881C100.055 137.064 99.0211 137.532 97.9707 137.967C95.3919 138.518 92.9465 139.548 90.3511 140.044C90.101 139.96 89.8898 139.821 89.712 139.621C89.1673 138.451 89.1451 137.154 88.9117 135.917C88.3837 133.127 90.779 132.241 92.4074 130.877C92.8409 130.548 93.3189 130.359 93.8635 130.387C95.9143 130.838 96.1867 128.571 97.5149 127.992C99.2878 127.224 98.4597 125.759 98.8432 124.645C99.7658 121.944 97.1037 120.903 97.0592 118.881C96.9091 118.758 97.3371 118.413 96.8758 118.413C96.6813 118.658 96.4923 118.898 96.27 119.104C96.0922 119.232 95.8921 119.299 95.6698 119.31C95.4642 119.26 95.2696 119.165 95.0918 119.048C94.9139 118.931 94.7417 118.808 94.5583 118.703C93.8913 118.435 93.2133 118.697 92.5353 118.664C87.639 117.862 82.8483 117.806 78.4521 120.624C76.4347 120.418 76.9849 122.055 76.7015 123.091C76.657 123.336 76.6014 123.576 76.5347 123.815C76.4125 125.274 76.607 126.644 77.6852 127.747C77.8797 127.87 78.0409 128.037 78.1743 128.22C78.4799 128.794 78.8968 129.318 79.069 129.958C78.969 130.086 78.8968 130.237 78.8467 130.393C78.9579 130.276 79.0579 130.142 79.2247 130.092C79.7638 130.125 80.2584 130.354 80.7808 130.448C81.0031 130.487 81.2199 130.543 81.4366 130.604C81.8923 130.721 82.3536 130.805 82.8094 130.944C83.3207 131.122 83.6486 131.479 83.8597 131.963C84.0821 132.598 84.5378 132.977 85.0713 133.394C86.7998 134.748 86.6164 137.009 84.7879 138.167C81.4922 140.25 78.7189 139.598 76.9571 136.045C76.218 134.558 75.4843 135.483 74.7174 135.628C73.8226 135.795 72.7611 135.505 72.8611 137.248C73.0279 140.178 72.172 140.801 69.0375 140.824C66.3753 139.437 64.419 137.354 63.0074 134.72C62.8295 134.241 62.685 133.751 62.5016 133.277C62.4016 133.043 62.3238 132.804 62.2571 132.559C62.0126 131.083 62.4572 129.217 60.173 128.911C59.6394 128.454 59.4727 127.842 59.4116 127.179C59.4449 126.076 59.5783 124.979 59.4227 123.876C59.3616 123.654 59.3171 123.42 59.2893 123.186C59.3282 122.958 59.4171 122.746 59.545 122.557C59.6117 122.467 59.6839 122.384 59.7506 122.295C59.8895 122.133 60.0396 121.977 60.1952 121.838C60.2675 121.771 60.3453 121.699 60.4175 121.632C60.5565 121.504 60.7121 121.387 60.8732 121.287C60.8621 121.287 61.1122 121.181 61.1011 121.181C61.09 121.181 61.3512 121.164 61.3401 121.159C61.3345 121.153 61.5679 121.103 61.5679 121.103C61.5679 121.103 61.5179 120.869 61.5179 120.864C61.5179 120.858 61.6291 120.63 61.6346 120.618C61.768 120.457 61.9125 120.323 62.0737 120.195C62.8351 119.638 63.4853 118.987 63.9911 118.19C64.5635 117.36 65.2305 116.653 66.2586 116.414C66.7255 116.308 67.1979 116.219 67.6647 116.102C67.9037 116.041 68.1482 116.007 68.3928 115.985C70.249 115.628 72.1942 115.495 73.567 113.919C73.7948 113.791 74.0338 113.69 74.2783 113.612C77.9797 112.231 81.9535 111.218 83.3095 106.745C83.454 106.539 83.6263 106.361 83.832 106.216C84.6156 106.044 85.2269 106.294 85.6549 106.957C85.7105 107.124 85.6716 107.28 85.5326 107.397C85.8716 107.547 85.3381 107.603 85.5882 107.33C85.7716 107.135 85.6827 106.862 85.616 106.612C85.3714 105.203 85.2103 103.811 85.8772 102.468C88.2836 101.143 87.7446 98.297 89.0117 96.3811C88.1447 96.3867 87.8668 95.7964 87.7668 95.0835C87.5612 93.6132 87.5556 92.1262 88.1225 90.7451C89.0951 88.3781 88.2336 86.6907 86.3329 85.3151C86.144 85.1424 85.9883 84.9475 85.855 84.7303C85.5215 84.1065 85.6326 83.3101 85.1047 82.7643C84.9324 82.6195 84.7823 82.4525 84.6545 82.2687C84.4211 81.89 84.2599 81.4834 84.2821 81.0267C84.3822 80.9042 84.51 80.7873 84.3766 80.609C84.4155 80.7873 84.321 80.8819 84.0932 80.8819C83.6541 80.765 83.3207 80.4754 82.9761 80.2025C82.7927 80.0633 82.6259 79.9129 82.4703 79.7514C82.3092 79.5843 82.1647 79.4061 82.0313 79.2167C81.9646 79.1221 81.8979 79.0218 81.8312 78.9327C81.2977 78.2644 80.5085 77.9525 79.8193 77.507C79.6026 77.3956 79.3969 77.2675 79.1913 77.145C78.869 76.9723 78.5522 76.7885 78.2465 76.5825C78.0409 76.4377 77.863 76.265 77.6963 76.0813C76.5737 74.1487 74.6062 74.3437 72.8 74.1209C72.2942 74.0318 71.8385 73.8536 71.4828 73.4749C71.1327 73.1463 71.0827 72.439 70.3435 72.6005C70.1101 72.6228 69.8878 72.5949 69.6655 72.5225C69.3098 72.3888 68.9985 72.1995 68.7318 71.9266C68.5817 71.7038 68.4706 71.4644 68.3928 71.2082C68.1649 69.9885 68.1649 68.7688 68.365 67.5492C68.9763 65.3159 71.6162 64.7701 72.3943 62.6817C73.039 61.6681 73.0668 60.376 73.8282 59.4125C74.923 58.5716 76.2513 58.6495 77.5129 58.3933C85.1602 56.8562 92.7465 57.1514 100.299 58.9725C100.566 59.0394 100.85 59.0394 101.122 59.0728C101.755 62.6984 104.273 64.9818 106.885 67.1983C107.03 67.3932 107.163 67.6049 107.28 67.8165C107.402 68.017 107.508 68.2286 107.602 68.4403C107.78 68.8468 107.93 69.2589 107.936 69.71C107.824 69.8548 107.797 70.0888 107.919 70.1222C108.069 70.1667 108.119 69.8381 108.341 69.8437C109.047 69.8103 109.681 70.0832 110.331 70.2837C112.982 71.6593 115.305 73.4749 117.439 75.541C117.739 75.9253 118.073 76.2762 118.406 76.6326C118.562 76.8164 118.695 77.0225 118.806 77.2397C119.601 78.5317 121.002 78.9828 122.202 79.6957C122.43 79.7514 122.652 79.8294 122.869 79.9185C123.186 80.0577 123.48 80.2303 123.758 80.4475C123.931 80.609 124.047 80.8095 124.119 81.0323C124.781 82.0236 125.948 81.5335 126.804 81.9457C127.554 82.2575 128.382 82.4358 128.421 83.4494Z" fill="white"/>
<path d="M71.6829 73.0849C71.933 73.4915 72.3276 73.575 72.7611 73.5639C74.8341 74.0929 76.8848 74.661 78.3632 76.3763L78.3298 76.3541C78.6577 76.6325 79.2524 76.4822 79.4025 77.0391L79.358 77.0057C80.4251 77.557 81.5588 78.0304 82.1424 79.1999L82.2647 79.0941L82.1368 79.1888C82.4814 79.2445 82.6815 79.445 82.7315 79.7903L82.6982 79.7624C83.882 80.3305 84.3043 81.5223 84.9601 82.5248L84.949 82.5192C85.9105 82.9091 85.6382 84.0062 86.155 84.6467L86.1606 84.6411C87.9001 86.8075 88.5226 89.1577 88.1725 92.0148C87.7834 95.2282 88.6171 98.6087 86.7275 101.599C85.2992 102.841 85.8438 105.342 83.8153 106.2L83.8208 106.205C81.7367 110.404 78.1853 112.721 73.8392 114.019L73.867 113.985C72.0441 115.322 69.9211 115.846 67.748 116.23L67.7703 116.219C67.5313 116.714 66.9644 116.592 66.5976 116.848C65.6639 117.065 65.0248 117.7 64.4357 118.396C63.6131 119.287 62.7128 120.095 61.718 120.785H61.7235C61.6013 121.047 61.4179 121.237 61.14 121.326L61.1455 121.303C60.9899 121.543 60.7954 121.732 60.5398 121.855L60.5731 121.827C60.4397 122.094 60.2508 122.306 59.9506 122.378L59.9895 122.339C59.8951 122.657 59.7061 122.868 59.3671 122.902L59.3782 122.874C59.3004 123.303 59.1503 123.325 58.9336 122.952C56.5716 116.971 54.2151 110.984 51.8364 105.008C50.1691 100.809 48.6852 96.5593 47.5793 92.1707C46.8568 89.297 46.8957 86.3397 46.3177 83.4548C46.0342 82.7086 46.6678 82.5081 47.0902 82.2296C52.7924 78.5038 58.5001 74.7891 63.7354 70.4061C64.0967 70.1054 64.5246 69.9383 65.0026 69.916C66.4253 70.3393 67.8481 70.757 68.8818 71.9265L68.8651 71.9098C69.2431 72.1159 69.7377 72.049 70.0434 72.4222H70.0378C70.538 72.7897 71.3272 72.3721 71.6829 73.0849Z" fill="#9B4F1F"/>
<path d="M128.421 83.449C127.938 82.9366 127.365 82.5858 126.682 82.4243C125.726 81.9286 124.614 81.678 123.942 80.7201L123.947 80.7256C123.653 80.4193 123.047 80.5753 122.908 80.0351L122.936 80.0573C121.046 79.5227 119.668 78.2418 118.356 76.8717L118.351 76.8662C118.078 76.5153 117.472 76.649 117.311 76.1366C114.983 74.243 112.665 72.3272 110.142 70.6954C109.147 70.0104 107.88 69.6707 107.33 68.4343L107.352 68.4566C107.068 68.3675 106.902 68.1392 106.718 67.9331C105.64 66.9362 104.584 65.9282 103.489 64.9536C101.728 63.383 100.722 61.5285 101.166 59.0891C102.867 56.1319 105.523 54.3887 108.652 53.3138C113.454 51.6653 118.312 50.2173 123.436 50.0447C134.173 49.6771 142.104 55.5137 144.877 65.9226C146.128 70.623 146.339 75.4182 145.489 80.2188C144.544 85.5319 140.737 87.832 135.535 86.4397C133.012 85.7602 130.85 84.2955 128.421 83.449Z" fill="#442814"/>
<path d="M65.0743 70.2991C60.2391 74.1865 55.2261 77.8287 50.0019 81.1758C48.7848 81.9555 47.551 82.713 46.3283 83.4759C44.0552 84.4728 41.9155 85.7649 39.4812 86.4165C34.1903 87.8255 30.4611 85.5923 29.5497 80.2012C28.3326 72.9779 29.005 65.9718 32.8509 59.5672C36.3856 53.6805 41.6932 50.5395 48.5402 50.1162C51.2968 49.9491 54.0812 49.8155 56.76 50.7734C62.9012 52.912 67.2195 57.7461 72.327 61.4106C72.8272 61.7726 73.2052 62.363 72.905 63.0925C72.127 65.0251 70.1095 65.8047 68.9424 67.3753C68.0365 68.8623 66.9472 70.0986 65.0743 70.2991Z" fill="#442814"/>
<path d="M63.3519 134.257C64.7969 136.663 66.6253 138.712 68.9818 140.26C70.8381 140.834 72.3886 142.076 74.1838 142.739C83.5484 146.214 92.8353 146.431 102.061 142.093C104.762 140.823 107.102 139.18 109.119 137.019C111.098 134.502 113.015 131.951 113.927 128.81C114.132 128.103 114.444 127.429 115.06 126.955H115.055C115.583 126.081 115.049 124.934 115.766 124.11C115.905 123.664 116.072 123.23 116.233 122.795C116.344 122.595 116.494 122.433 116.678 122.294C116.906 122.216 117.1 122.272 117.256 122.456C119.507 130.509 118.078 137.671 112.676 144.215C106.001 152.301 97.2036 154.362 87.3888 153.938C83.0594 153.749 78.7466 153.37 74.6284 151.789C69.7877 149.923 65.7361 147.027 62.396 143.028C57.9498 137.704 57.4774 131.712 59.0503 125.29C60.4508 125.329 59.4004 126.649 60.0006 127.111C60.0173 127.668 60.034 128.225 60.4897 128.649C61.7846 129.868 62.0125 131.634 62.7517 133.137L62.7294 133.104C63.2185 133.332 63.0907 133.9 63.3519 134.257Z" fill="#DD623B"/>
<path d="M72.9056 63.0985C72.0775 61.3107 70.2879 60.4531 68.8485 59.4339C64.7969 56.5769 61.1678 53.1239 56.755 50.7793C60.6954 51.3641 64.5024 52.4222 68.1427 54.0596C70.6547 55.1901 72.6833 56.8553 73.8615 59.4228C73.9449 60.7482 74.1005 62.1016 72.9056 63.0985Z" fill="#4A2F1B"/>
<path d="M116.228 123.57C115.739 124.667 115.822 125.959 115.055 126.956C115.005 125.953 114.944 124.951 115.355 123.987C115.611 123.38 115.605 122.74 115.527 122.099C115.272 120.011 115.272 120.011 117.306 119.153C117.145 119.911 116.983 120.674 116.822 121.431C116.956 121.793 117.072 122.15 116.611 122.378L116.594 122.428C116.4 122.784 116.444 123.219 116.228 123.57Z" fill="#F8F5F2"/>
<path d="M60.0007 127.118C59.6839 126.511 59.3671 125.904 59.0504 125.297C59.0115 124.523 58.9781 123.748 58.9392 122.974C59.0726 122.852 59.2226 122.83 59.3838 122.896C60.3064 124.2 60.1008 125.664 60.0007 127.118Z" fill="#F3F1EE"/>
<path d="M116.611 122.378C116.678 122.061 116.75 121.749 116.822 121.432C117.195 121.682 117.328 122.028 117.256 122.462C117.039 122.434 116.828 122.406 116.611 122.378Z" fill="#C49875"/>
<path d="M77.9853 120.317C81.9201 117.121 86.4996 117.182 91.168 117.694C91.8961 117.772 92.6186 117.923 93.3466 118.04C93.7246 118.608 94.6638 117.884 94.925 118.73L94.8972 118.708C95.2251 118.708 95.3974 118.942 95.5919 119.153H95.5864C98.6598 120.195 99.0711 122.846 98.7932 125.408C98.4931 128.192 96.32 129.752 93.8302 130.771C93.3967 130.793 93.0076 130.91 92.7687 131.317C91.7627 131.829 90.7901 132.408 89.6675 132.637C88.2503 133.104 86.8219 132.781 85.3992 132.681C84.6545 132.609 83.9264 132.503 83.454 131.818C83.1928 131.389 82.7649 131.361 82.3314 131.35C82.0034 131.06 81.4699 131.177 81.2031 130.776L81.1976 130.754C79.5747 130.492 78.7078 129.273 77.8296 128.075L77.8019 128.042C76.5291 126.828 76.0401 125.335 76.229 123.603L76.2235 123.637C76.6848 122.467 76.4069 120.897 77.9853 120.317Z" fill="#020303"/>
<path d="M83.454 131.807C84.1098 131.873 84.7656 131.94 85.4214 132.002C86.822 133.266 87.5611 137.192 86.5719 139.075C85.4604 141.191 83.4262 141.029 81.4699 140.768C79.2024 140.467 77.5407 138.891 75.4899 137.61C76.9182 140.4 80.6585 142.21 84.1821 141.625C86.4996 141.241 88.6949 141.341 91.0069 141.642C95.4252 142.216 98.5764 139.938 101 136.446C101.239 136.312 101.5 136.201 101.717 136.039C103.078 135.009 102.973 135.054 103.756 136.741C104.101 137.487 104.801 138.005 104.401 138.991C104.34 139.136 104.968 139.687 105.362 139.86C105.707 140.005 106.218 139.559 106.19 139.331C105.985 137.348 107.941 137.677 108.775 136.825C108.964 136.635 109.225 136.513 109.458 136.362C109.642 136.49 109.714 136.624 109.664 136.769C109.614 136.919 109.564 136.992 109.508 136.992C106.252 141.169 101.894 143.742 96.8702 144.967C89.6564 146.727 82.4147 146.693 75.3398 144.07C72.9945 143.201 70.8103 142.021 68.9874 140.261C70.2935 140.328 71.5495 140.372 72.2776 138.902C72.7722 137.905 72.2109 137.125 71.9663 136.273C71.6551 135.193 71.9108 134.53 73.1168 134.909C74.006 135.187 74.5562 135.059 75.3454 134.508C76.4014 133.773 77.2572 134.374 77.4295 135.694C77.5629 136.696 78.0186 137.61 79.0357 137.654C79.9749 137.699 80.5807 137.799 80.8864 138.785C81.0031 139.158 81.5478 139.158 81.8701 139.002C83.0039 138.451 84.171 137.922 85.2103 137.226C85.905 136.758 85.5159 135.85 85.6049 135.143C85.7382 134.084 85.1769 134.09 84.3044 134.006C82.8927 133.878 83.5374 132.636 83.454 131.807Z" fill="#F9F9F9"/>
<path d="M113.343 96.8878C112.96 98.3191 112.576 99.7504 112.193 101.182C111.17 103.187 110.359 105.509 107.302 104.601H107.296C105.64 104.312 104.712 103.164 103.979 101.789C103.239 99.7002 102.611 97.5951 102.6 95.3451C102.589 92.0147 103.362 88.9627 105.624 86.412C108.808 84.563 110.487 85.2592 112.221 89.1465L112.209 89.1243C113.871 90.0877 112.86 91.7975 113.315 93.0951C113.199 93.2622 113.21 93.4126 113.36 93.5518C113.799 94.6656 113.799 95.7795 113.343 96.8878Z" fill="#050607"/>
<path d="M100.994 136.452C101.439 137.627 100.788 138.429 100.005 139.108C96.8481 141.859 93.3356 143.374 89.084 142.077C88.0058 141.748 87.0054 141.709 85.8939 142.065C81.6534 143.419 78.1465 141.826 74.9675 139.119C74.6896 138.885 74.4618 138.579 74.2561 138.278C73.8616 137.71 73.6504 137.07 74.2506 136.541C74.8286 136.023 75.5011 136.173 75.9623 136.725C76.9961 137.961 78.3077 138.813 79.7471 139.442C81.47 140.2 83.2318 140.629 85.0992 139.849C85.6105 139.637 86.2274 139.587 86.2329 138.869C86.2385 136.841 86.2329 134.809 86.1551 132.781C86.144 132.514 85.6771 132.269 85.4215 132.013C86.8109 131.907 88.2059 132.553 89.5953 132.007C89.1952 134.614 88.506 137.242 90.0455 139.732C93.0633 140.384 95.4142 138.596 97.9763 137.565C98.9266 137.042 99.5658 135.655 100.994 136.452Z" fill="#121213"/>
<path d="M86.1662 101.906C86.7053 99.767 87.5223 97.7064 87.7779 95.4842C88.2059 91.7139 87.4945 88.144 86.1662 84.6465C87.9336 84.7857 88.3893 86.4788 89.3119 87.5202C89.9843 88.2832 89.3341 89.4694 88.9451 90.3939C88.2781 91.9812 88.4115 93.6352 88.3948 95.2837C88.3948 95.4564 88.9951 95.4007 89.5731 95.0721C88.9284 97.0269 89.612 99.1599 87.9447 100.675C88.3004 102.139 87.6446 102.652 86.2607 102.496C85.9161 102.351 85.8883 102.151 86.1662 101.906Z" fill="#F8F7F4"/>
<path d="M93.8302 130.766C94.7972 129.947 95.8532 129.212 96.7202 128.293C99.2989 125.553 99.2045 122.757 96.5423 120.112C96.22 119.794 95.9088 119.471 95.5864 119.154C96.3034 119.015 95.9032 117.199 97.2648 118.029C97.9651 119.354 98.054 121.053 99.7435 121.777C100.199 121.972 100.138 122.206 99.21 123.52C98.8654 124.01 99.0488 124.394 99.3045 124.695C99.9492 125.458 100.121 126.321 100.033 127.274C99.9714 127.925 99.9881 128.733 98.9655 128.053C98.4097 127.68 98.1874 128.076 97.8762 128.427C97.2648 129.106 96.3867 129.652 96.0366 130.443C95.3752 131.918 94.6638 131.378 93.8302 130.766Z" fill="#F5F5F5"/>
<path d="M109.503 136.997C109.486 136.785 109.469 136.579 109.453 136.368C109.503 133.7 109.503 133.7 110.486 131.645C111.52 131.784 110.414 132.876 111.153 133.137C112.748 131.366 112.949 130.425 112.621 126.104C113.365 126.605 114.482 125.992 115.06 126.956C114.093 130.793 112.337 134.196 109.503 136.997Z" fill="#F8F5F2"/>
<path d="M73.8503 114.029C77.9408 112.403 81.0531 109.518 83.8319 106.216C84.0931 107.447 83.0483 108.36 83.0816 109.635C83.1039 110.487 82.0979 111.373 80.9253 111.328C79.9026 111.289 78.969 111.768 78.541 112.47C77.3572 114.414 75.5899 114.063 73.8503 114.029Z" fill="#F6F5F4"/>
<path d="M65.0748 70.2998C66.4031 69.3753 67.4591 68.0944 68.943 67.376C68.9263 68.9019 68.9041 70.4279 68.8874 71.9539C67.4702 71.7311 66.153 71.2912 65.0748 70.2998Z" fill="#F1F0ED"/>
<path d="M97.9706 137.559C95.6753 139.553 93.2355 141.023 90.0398 139.726C90.7401 139.542 91.4348 139.247 92.1462 139.208C93.052 139.152 92.7186 138.818 92.6741 138.233C92.6297 137.648 93.6967 137.298 93.8635 137.637C94.6693 139.258 95.3085 138.228 96.0977 137.693C96.6479 137.32 97.3426 137.52 97.9706 137.559Z" fill="#F5F4F4"/>
<path d="M90.0453 139.72C89.4507 139.787 88.856 139.698 88.7949 139.007C88.6226 136.919 88.5559 134.819 88.8227 132.731C88.856 132.458 89.3284 132.241 89.5952 131.996C90.7456 132.19 91.6571 131.26 92.7742 131.311C92.4685 132.04 91.7404 132.397 91.1458 132.658C89.2895 133.471 89.1672 135.064 89.6007 136.518C89.9286 137.609 89.7341 138.684 90.0453 139.72Z" fill="#F5F4F4"/>
<path d="M67.7592 116.24C69.5932 114.937 71.7273 114.447 73.8781 113.996C73.2612 114.659 73.2335 115.995 71.9941 115.929C70.5602 115.856 69.2542 117.365 67.7592 116.24Z" fill="#F4F2EF"/>
<path d="M107.302 104.595C109.742 104.623 110.931 102.847 112.193 101.176C112.393 102.568 110.92 103.576 111.32 105.046C111.409 105.375 110.798 105.743 110.548 105.587C109.536 104.963 108.119 105.754 107.302 104.595Z" fill="#EDEFF1"/>
<path d="M112.221 89.1459C111.965 88.7784 111.72 88.4052 111.459 88.0544C109.631 85.6095 108.625 85.331 105.629 86.4114C105.918 85.4814 106.63 85.1695 107.513 85.2141C108.669 85.2698 110.131 84.7073 110.898 85.5482C111.709 86.4393 112.432 87.7035 112.221 89.1459Z" fill="#F4F3F3"/>
<path d="M86.1661 101.905C86.1939 102.1 86.2217 102.301 86.2551 102.496C85.8438 104.122 86.7219 105.915 85.6048 107.452C85.1769 106.795 84.4044 106.634 83.8208 106.21C84.6044 104.779 85.3881 103.342 86.1661 101.905Z" fill="#F6F5F4"/>
<path d="M62.7517 133.138C61.5124 131.885 60.8955 130.32 60.4897 128.649C60.9344 128.705 61.3734 128.8 61.818 128.805C63.0685 128.822 63.5631 129.702 63.0185 130.532C62.3905 131.484 63.1741 132.331 62.7517 133.138Z" fill="#F3EDE8"/>
<path d="M78.3632 76.3762C76.4959 75.4405 74.6285 74.5049 72.7611 73.5637C73.667 73.5247 74.5562 73.5581 75.4621 73.7141C77.0516 73.987 78.0965 74.7165 78.3632 76.3762Z" fill="#F8F5F1"/>
<path d="M118.356 76.8662C119.99 77.7684 121.568 78.7653 122.936 80.0518C122.208 80.1855 121.441 80.8092 120.852 79.7344C120.651 79.3724 120.168 78.8823 119.868 78.9157C118.084 79.1106 118.345 77.9188 118.356 76.8662Z" fill="#EFEFF0"/>
<path d="M76.2235 123.608C76.4069 125.207 76.996 126.666 77.7963 128.047C77.474 128.181 76.8738 128.454 76.8348 128.242C76.5848 126.705 75.0231 125.324 76.2235 123.608Z" fill="#EEEFEF"/>
<path d="M113.321 93.0949C112.954 91.7694 112.582 90.4495 112.215 89.124C113.632 89.1909 114.049 90.0374 113.827 91.3016C113.721 91.9086 113.493 92.499 113.321 93.0949Z" fill="#F4F3F3"/>
<path d="M77.8297 128.081C78.9524 128.972 80.075 129.863 81.1977 130.76C80.2251 131.595 79.6693 130.559 78.9413 130.264L78.9468 130.27C78.4022 129.624 77.5796 129.128 77.8297 128.081Z" fill="#EEEFEF"/>
<path d="M123.942 80.7197C124.986 81.0762 125.903 81.6331 126.681 82.4239C125.887 82.3627 125.086 82.2568 124.292 82.2624C123.808 82.2624 123.252 82.2735 123.225 81.7556C123.202 81.427 123.68 81.065 123.942 80.7197Z" fill="#EFEFF0"/>
<path d="M103.978 101.783C104.945 102.886 105.951 103.944 107.296 104.596C106.185 105.448 105.629 104.473 105.062 103.838C104.545 103.265 103.15 103.081 103.978 101.783Z" fill="#EDEFF1"/>
<path d="M77.9853 120.318C77.3962 121.426 76.8071 122.534 76.218 123.642C76.0791 123.002 76.368 122.306 76.2347 121.743C75.7845 119.867 76.946 120.217 77.9853 120.318Z" fill="#EEEFEF"/>
<path d="M107.33 68.4346C108.441 68.9692 109.397 69.7044 110.142 70.6957C109.292 70.8516 108.63 70.1388 107.808 70.1833L107.813 70.1889C107.574 69.6264 107.185 69.1029 107.33 68.4346Z" fill="#EAEAEA"/>
<path d="M82.1424 79.1996C81.1143 78.5982 80.1305 77.9354 79.358 77.0054C80.6641 76.6935 81.3088 78.0858 82.4425 78.2195C82.3425 78.5425 82.2425 78.8711 82.1424 79.1996Z" fill="#F8F5F1"/>
<path d="M84.9602 82.5297C84.0376 81.75 83.3207 80.7977 82.6982 79.7674C83.6486 79.4611 83.9098 80.4023 84.4934 80.7587C84.7379 81.3212 85.1436 81.8503 84.9602 82.5297Z" fill="#F6F2EF"/>
<path d="M61.7291 120.796C62.4127 119.744 63.3464 118.981 64.4468 118.407C63.9689 119.694 63.1574 120.596 61.7291 120.796Z" fill="#F3F1EE"/>
<path d="M113.343 96.8872C113.204 95.7734 113.21 94.6595 113.365 93.5457C113.682 93.49 114.349 93.3174 114.243 93.5457C113.749 94.6261 114.355 95.985 113.343 96.8872Z" fill="#F4F3F3"/>
<path d="M86.1606 84.6519C85.5215 84.0782 85.1547 83.3487 84.9546 82.5244C85.5659 82.2292 86.1662 81.9619 86.1606 83.0591C86.1606 83.5881 86.1606 84.1228 86.1606 84.6519Z" fill="#F6F2EF"/>
<path d="M71.6829 73.0843C71.0716 73.0341 70.4547 73.0063 70.0378 72.4494C71.2327 71.3021 71.2327 71.3021 71.6829 73.0843Z" fill="#F1F0ED"/>
<path d="M97.1092 131.618C96.8202 131.634 96.559 131.512 96.5423 131.233C96.5201 130.788 96.9425 130.732 97.2537 130.643C97.3649 130.61 97.6372 130.738 97.6483 130.821C97.7095 131.228 97.4427 131.456 97.1092 131.618Z" fill="#F5F5F5"/>
<path d="M94.9251 118.73C94.3304 118.658 93.7691 118.513 93.3467 118.04C93.8802 118.251 95.0529 116.998 94.9251 118.73Z" fill="#F5F5F5"/>
<path d="M78.9467 130.259C78.8133 130.587 78.6521 130.899 78.2742 130.972C78.2242 130.983 78.0463 130.732 78.0797 130.665C78.2353 130.287 78.6077 130.298 78.9467 130.259C78.9467 130.264 78.9467 130.259 78.9467 130.259Z" fill="#EEEFEF"/>
<path d="M82.4592 76.9382C82.4925 77.1498 82.3813 77.289 82.1813 77.2166C82.0534 77.1721 81.9756 76.9772 81.9034 76.8379C81.8867 76.8045 82.0368 76.643 82.0479 76.6486C82.1924 76.7321 82.3258 76.8379 82.4592 76.9382Z" fill="#F8F5F1"/>
<path d="M61.7458 121.358C62.0626 121.498 62.3794 121.659 62.4516 122.038C62.4627 122.088 62.2126 122.266 62.1459 122.233C61.768 122.071 61.7791 121.704 61.7402 121.364L61.7458 121.358Z" fill="#F3F1EE"/>
<path d="M63.352 134.257C62.9296 133.99 62.7462 133.595 62.7295 133.104C63.3297 133.277 63.4075 133.734 63.352 134.257Z" fill="#F3EDE8"/>
<path d="M122.908 80.0352C123.375 80.0797 123.764 80.2524 123.947 80.7257C123.425 80.7592 123.002 80.6478 122.908 80.0352Z" fill="#EFEFF0"/>
<path d="M81.2087 130.759C81.6867 130.748 82.0924 130.882 82.3369 131.333C81.8256 131.411 81.4088 131.294 81.2087 130.759Z" fill="#EEEFEF"/>
<path d="M85.9495 80.9098C85.8828 80.8875 85.7605 80.8653 85.7605 80.8374C85.7605 80.7595 85.805 80.6815 85.8328 80.6035C85.8994 80.6258 86.0217 80.6481 86.0217 80.6759C86.0217 80.7539 85.9773 80.8319 85.9495 80.9098Z" fill="#F6F2EF"/>
<path d="M117.311 76.1367C117.767 76.2258 118.173 76.3818 118.351 76.8663C117.834 76.8663 117.417 76.7271 117.311 76.1367Z" fill="#EFEFF0"/>
<path d="M79.4025 77.0383C78.9467 76.9715 78.5466 76.8044 78.3298 76.3533C78.8578 76.3143 79.2969 76.409 79.4025 77.0383Z" fill="#F8F5F1"/>
<path d="M70.0435 72.4496C69.5599 72.4885 69.132 72.405 68.8652 71.9372C69.3765 71.8425 69.8045 71.926 70.0435 72.4496Z" fill="#F1F0ED"/>
<path d="M66.6143 116.859C66.8588 116.374 67.2923 116.252 67.7869 116.229C67.6035 116.831 67.1422 116.903 66.6143 116.859Z" fill="#F4F2EF"/>
<path d="M97.2648 118.023C97.3092 117.945 97.3648 117.8 97.387 117.806C97.5705 117.845 97.526 117.934 97.2648 118.023Z" fill="#F5F5F5"/>
<path d="M95.5919 119.147C95.2585 119.158 95.0028 119.047 94.8972 118.702C95.2362 118.691 95.4585 118.852 95.5919 119.147Z" fill="#F5F5F5"/>
<path d="M61.1511 121.336C61.1956 120.991 61.3901 120.813 61.7347 120.796C61.7402 120.985 61.7402 121.169 61.7458 121.358L61.7402 121.364C61.5402 121.358 61.3456 121.347 61.1511 121.336Z" fill="#F3F1EE"/>
<path d="M60.5509 121.871C60.6232 121.542 60.8232 121.358 61.1567 121.319C61.0789 121.631 60.8788 121.821 60.5509 121.871Z" fill="#F3F1EE"/>
<path d="M59.9618 122.395C60.0229 122.044 60.2452 121.872 60.5843 121.844C60.5064 122.172 60.3008 122.362 59.9618 122.395Z" fill="#F3F1EE"/>
<path d="M59.3727 122.924C59.4505 122.59 59.6617 122.406 59.9951 122.361C59.9396 122.718 59.7339 122.907 59.3727 122.924Z" fill="#F3F1EE"/>
<path d="M85.6048 107.452C85.5603 107.53 85.5048 107.675 85.4825 107.669C85.2991 107.63 85.3436 107.547 85.6048 107.452C85.6104 107.458 85.6048 107.452 85.6048 107.452Z" fill="#F6F5F4"/>
<path d="M84.4989 80.7535C84.5434 80.6755 84.5989 80.5307 84.6212 80.5363C84.8046 80.5753 84.7601 80.6644 84.4989 80.7535Z" fill="#F6F2EF"/>
<path d="M82.7315 79.79C82.3869 79.7343 82.1924 79.5282 82.1368 79.1885C82.4981 79.2219 82.6982 79.428 82.7315 79.79Z" fill="#F6F2EF"/>
<path d="M107.808 70.1826C107.769 70.2606 107.708 70.4054 107.686 70.3998C107.502 70.3608 107.552 70.2773 107.813 70.1882C107.819 70.1882 107.808 70.1826 107.808 70.1826Z" fill="#EAEAEA"/>
<path d="M106.713 67.9277C107.046 67.9556 107.28 68.106 107.346 68.4512C107.013 68.4345 106.807 68.2452 106.713 67.9277Z" fill="#EAEAEA"/>
<path d="M72.3332 94.8491C72.361 97.8064 72.0331 100.346 70.338 102.485C68.1316 105.275 65.4639 105.252 63.641 102.256C60.9956 97.9122 61.1067 93.3454 63.0853 88.7675C63.302 88.2718 63.6632 87.8207 64.0245 87.403C66.0419 85.0639 68.7541 85.2032 70.4603 87.8096C71.9108 90.0317 72.55 92.51 72.3332 94.8491Z" fill="#030303"/>
<path d="M114.244 70.9182C119.646 64.3855 125.865 58.677 132.456 53.3584C131.344 56.0985 128.616 57.2736 126.732 59.2674C124.764 61.3447 122.73 63.3663 120.668 65.349C118.634 67.3093 116.856 69.5538 114.244 70.9182Z" fill="#4B2F1A"/>
<path d="M116.228 123.569C116.116 123.113 116.211 122.723 116.594 122.428C116.706 122.879 116.622 123.274 116.228 123.569Z" fill="#C49875"/>
</g>
<g clip-path="url(#clip1)">
<path d="M179.838 120.619C180.126 120.088 180.547 119.682 181.067 119.383L181.117 119.416C181.455 120.578 181.042 120.985 179.887 120.678L179.838 120.619Z" fill="#7DB5D9"/>
<path d="M134.943 190.228C134.109 189.547 133.268 188.875 132.434 188.194C130.792 186.8 129.133 185.422 127.491 184.028C125.749 182.526 123.901 181.107 123.34 178.683C122.093 175.446 120.558 172.326 119.428 169.039C117.695 166.483 119.411 163.935 119.444 161.379C119.733 160.856 119.486 159.951 120.468 159.918C121.59 162.184 121.598 164.665 121.689 167.097C121.747 168.599 121.92 169.919 122.869 171.147C124.553 173.33 124.998 176.036 125.84 178.567C126.872 180.426 128.91 181.248 130.189 182.849C130.742 183.239 131.171 183.779 131.733 184.152C132.376 184.567 133.119 184.75 133.779 185.107C134.266 185.364 134.687 185.704 135.133 186.028C135.867 186.568 134.522 188.294 136.552 188.203C137.732 188.153 138.318 189.597 139.119 190.435C139.457 190.792 139.886 191.091 140.381 191.066C143.113 190.9 145.457 191.979 147.652 193.406C151.201 195.714 155.244 195.498 159.173 195.73C162.251 195.913 165.346 195.714 168.424 195.788C170.652 195.846 172.542 195.05 174.432 193.987C176.14 193.025 177.791 191.846 179.862 191.722C180.605 191.763 181.323 191.879 181.859 192.469C182.297 193.705 181.249 193.896 180.572 193.954C179.606 194.037 179.384 194.635 179.111 195.324C176.281 197.415 173.211 198.378 169.604 198.452C163.316 198.577 157.035 198.56 150.755 198.179C149.567 198.104 148.461 197.888 147.421 197.299C143.27 194.917 138.921 192.9 134.943 190.228Z" fill="#131C27"/>
<path d="M134.943 190.228C138.904 192.361 142.89 194.46 146.827 196.651C148.246 197.44 149.699 197.838 151.308 197.921C158.29 198.278 165.263 198.187 172.245 197.979C174.944 197.896 176.924 196.27 179.062 194.942C179.631 194.054 180.424 193.688 181.463 193.888C181.637 194.062 181.653 194.244 181.513 194.444C176.9 198.012 171.535 198.851 165.907 198.983C160.757 199.108 155.649 198.535 150.507 198.544C149.6 198.544 148.725 198.303 147.941 197.88C144.029 195.763 140.134 193.63 136.247 191.464C135.727 191.174 135.1 190.933 134.943 190.228Z" fill="#698EAC"/>
<path d="M120.113 150.573C120.798 148.274 120.888 145.9 120.946 143.518C121.194 142.763 121.565 142.157 122.465 142.124C122.795 142.132 123.092 142.232 123.348 142.439C123.48 142.614 123.538 142.813 123.505 143.029C123.339 143.56 122.902 143.85 122.506 144.174C121.837 147.261 121.309 150.374 121.202 153.536C121.252 154.333 121.186 155.113 121.045 155.893C120.69 157.694 120.203 159.462 119.692 161.221C119.593 162.093 119.634 163.014 119.37 163.827C118.784 165.653 118.875 167.396 119.626 169.131C119.485 169.321 119.362 169.321 119.238 169.114C117.662 166.832 118.726 164.408 118.941 162.076C119.296 158.25 120.055 154.449 120.113 150.573Z" fill="#2F5067"/>
<path d="M119.254 169.131C119.386 169.131 119.51 169.131 119.642 169.147C120.822 172.351 122.696 175.281 123.339 178.692C121.631 175.654 120.261 172.467 119.254 169.131Z" fill="#42677B"/>
<path d="M127.491 184.036C129.397 185.115 131.114 186.418 132.434 188.202C130.486 187.165 128.795 185.829 127.491 184.036Z" fill="#5A809A"/>
<path d="M181.513 194.436C181.505 194.295 181.505 194.145 181.496 194.004C182.033 193.017 182.61 192.12 183.956 192.726C183.716 193.598 182.627 193.623 182.297 194.403C182.033 194.419 181.769 194.428 181.513 194.436Z" fill="#6C9EBF"/>
<path d="M122.473 103.365C125.617 102.228 128.019 103.905 129.909 105.922C133.268 109.532 136.239 113.516 139.457 117.267C141.677 119.856 143.476 122.853 146.373 124.828C147.437 125.857 148.849 125.982 150.177 126.313C150.276 126.488 150.301 126.679 150.252 126.878C148.956 127.924 147.685 127.5 146.472 126.737C145.193 125.932 144.087 124.894 143.047 123.832C143.468 124.496 143.79 125.193 143.204 125.973C142.494 126.28 142.156 125.749 141.925 125.284C139.746 120.844 136.098 117.499 133.268 113.549C131.691 111.474 130.074 109.441 128.44 107.407C127.837 106.66 127.119 106.254 126.187 106.154C125.832 106.03 125.477 105.855 125.13 105.664C124.52 105.117 123.826 105.133 123.067 105.249C122.44 105.349 121.557 105.532 121.318 104.768C121.095 104.029 121.862 103.664 122.473 103.365Z" fill="#1C2C36"/>
<path d="M122.473 103.365C122.225 103.83 121.606 104.037 121.549 104.826C122.943 104.618 124.379 103.813 125.485 105.249C124.091 106.328 123.051 108.005 120.979 107.963C120.286 107.739 120.047 107.208 120.038 106.527C120.055 106.386 120.063 106.245 120.08 106.112C120.327 105.548 120.484 104.95 120.831 104.428C121.103 103.855 121.606 103.523 122.11 103.199C122.242 103.224 122.366 103.274 122.473 103.365Z" fill="#8F9393"/>
<path d="M204.546 165.487C204.629 166.906 204.241 168.234 203.754 169.537C202.904 171.869 201.889 174.126 200.7 176.301C200.478 176.301 200.296 176.226 200.139 176.06C199.52 175.288 199.38 174.334 199.132 173.429C198.794 172.184 199.108 171.28 200.502 171.022C202.112 170.923 202.029 169.362 202.681 168.441C202.747 168.159 202.788 167.877 202.896 167.611C203.374 166.532 203.085 165.487 202.772 164.441C202.706 164.009 202.731 163.578 202.722 163.146C202.838 160.98 202.648 158.855 201.955 156.797C201.856 156.125 201.905 155.444 201.897 154.764C201.914 153.876 201.947 152.988 201.583 152.141C201.542 151.909 201.517 151.685 201.509 151.452C201.6 150.415 201.196 149.286 202.029 148.373C203.704 148.722 202.508 150.257 203.118 151.045C203.638 155.859 204.274 160.656 204.546 165.487Z" fill="#1B2D37"/>
<path d="M183.956 192.726C182.982 192.859 182.198 193.34 181.496 194.004C180.688 194.311 179.871 194.618 179.062 194.934C179.12 194.345 177.477 192.884 179.846 193.481C180.564 193.664 181.307 193.274 181.901 192.768C181.802 192.668 181.76 192.56 181.769 192.436C181.785 192.311 181.802 192.253 181.826 192.253C182.355 191.68 183.221 191.722 183.766 191.166C183.931 191.066 184.104 191 184.286 190.95C186.209 189.713 188.354 188.742 189.336 186.452C189.485 186.327 189.65 186.236 189.832 186.161C191.003 185.796 192.159 185.381 193.025 184.435C193.422 184.128 193.801 183.779 194.346 184.136C194.519 184.418 194.527 184.701 194.313 184.966C191.218 188.037 187.777 190.635 183.956 192.726Z" fill="#142535"/>
<path d="M200.04 178.252C199.925 178.401 199.809 178.55 199.694 178.691C198.753 179.505 198.893 181.123 197.54 181.63C197.011 181.771 196.5 181.729 196.021 181.43C195.65 181.14 195.493 180.65 195.74 180.343C197.086 178.708 198.117 176.708 200.42 176.144L200.568 176.26C200.824 177.04 200.667 177.712 200.04 178.252Z" fill="#1B2D37"/>
<path d="M197.581 181.165C198.786 180.775 198.307 178.932 199.694 178.691C199.066 181.787 196.69 183.372 194.313 184.958C194.305 184.659 194.296 184.368 194.296 184.069C194.321 183.978 194.346 183.887 194.371 183.796C195.221 182.65 196.425 181.937 197.581 181.165Z" fill="#2A3B4E"/>
<path d="M202.92 147.178C202.912 148.415 202.912 149.652 202.904 150.88C202.665 150.017 202.417 149.162 202.178 148.299C201.262 147.71 201.493 146.747 201.534 145.925C201.6 144.622 201.22 143.568 200.279 142.697C200.189 142.481 200.156 142.257 200.164 142.016C201.286 139.584 202.532 137.095 202.26 134.381C201.93 130.986 202.698 127.791 203.184 124.504C203.812 120.23 204.2 115.873 202.532 111.673C201.881 110.038 202.153 108.287 201.914 106.602C201.971 106.104 202.103 105.64 202.532 105.324C202.797 105.598 203.052 105.872 203.316 106.138C205.503 113.176 205.363 120.313 204.051 127.451C203.845 128.596 203.638 129.675 203.762 130.812C204.043 133.36 203.82 135.833 203.094 138.315C202.244 141.228 202.079 144.207 202.92 147.178Z" fill="#8DA2AA"/>
<path d="M120.038 106.527C120.319 106.942 120.6 107.357 120.88 107.772C120.905 107.88 120.93 107.98 120.954 108.088C121.169 109.125 120.69 109.997 120.303 110.893C119.609 112.279 119.403 113.74 119.419 115.283C119.461 119.806 119.164 124.355 120.946 128.67C121.078 128.986 121.128 129.367 121.037 129.683C120.253 132.488 120.971 135.268 121.169 138.057C121.012 138.771 121.186 139.601 120.468 140.124C119.56 137.028 118.759 133.916 119.552 130.687C119.997 128.87 118.99 127.334 118.66 125.699C117.802 121.533 118.074 117.366 118 113.2C117.984 112.146 118.289 111.117 118.858 110.27C119.576 109.225 119.708 108.137 119.626 106.951C119.766 106.81 119.906 106.668 120.038 106.527Z" fill="#8AA1AF"/>
<path d="M120.822 104.428C120.831 105.108 120.542 105.648 120.071 106.113C120.08 105.714 120.088 105.316 120.096 104.917C120.344 104.751 120.583 104.594 120.822 104.428Z" fill="#8AA1AF"/>
<path d="M150.153 126.463C150.953 126.305 151.655 125.633 152.562 125.99C157.638 125.616 162.713 125.89 167.789 125.849C169.447 125.533 171.081 125.757 172.674 126.189C174.209 126.604 175.447 126.355 176.619 125.234C178.748 123.201 181.034 121.309 182.412 118.62C183.295 117.981 183.923 117.126 184.418 116.163C186.407 114.503 187.744 112.287 189.361 110.312C189.873 109.324 190.822 108.719 191.424 107.814V107.822C191.862 107.034 192.547 106.444 193.108 105.764C195.567 103.855 198.059 102.104 201.369 103.78C201.682 104.818 200.907 104.942 200.238 105.042C196.813 105.548 194.189 107.183 192.316 110.188C190.508 113.092 187.95 115.441 186.06 118.304C185.383 119.159 184.69 120.006 183.824 120.686C182.264 121.317 182.198 123.458 180.522 123.981C179.953 124.114 179.557 124.488 179.194 124.911C177.246 127.218 174.729 128.015 171.808 127.65C165.428 126.845 159.065 127.367 152.703 127.774C151.729 127.841 150.755 127.907 150.161 126.878C150.153 126.728 150.153 126.596 150.153 126.463Z" fill="#1C2835"/>
<path d="M185.524 118.121C188.09 114.146 191.243 110.61 194.181 106.925C195.46 105.323 197.754 104.743 199.875 104.444C200.478 104.361 201.129 104.577 201.361 103.755C201.757 104.278 202.145 104.801 202.532 105.323C202.516 105.722 202.499 106.129 202.491 106.527C201.41 106.917 200.742 105.523 199.669 105.888C197.11 106.311 195.097 107.664 193.578 109.689C191.532 112.428 189.237 114.959 187.158 117.673C186.671 118.038 186.217 118.536 185.524 118.121Z" fill="#94908F"/>
<path d="M191.424 107.806C191.094 108.934 190.244 109.64 189.361 110.304C189.567 109.075 190.434 108.387 191.424 107.806Z" fill="#678DA4"/>
<path d="M193.108 105.747C192.893 106.718 192.2 107.299 191.424 107.805C191.507 106.726 192.233 106.179 193.108 105.747Z" fill="#678DA4"/>
<path opacity="0.87" d="M150.153 126.862C152.455 127.335 154.766 126.903 157.035 126.729C161.533 126.372 166.031 126.131 170.495 126.82C174.085 127.376 177.032 126.48 179.458 123.758C179.689 123.5 180.093 122.43 180.679 123.55C181.133 124.745 180.415 125.675 179.904 126.596C179.128 127.974 179.21 129.019 180.663 129.866C181.958 130.621 183.139 131.567 184.599 132.024C185.548 132.331 186.349 132.904 187.174 133.435C190.252 135.858 193.859 137.526 196.805 140.157C197.886 141.784 199.974 142.166 201.13 143.701C199.801 145.461 200.865 147.336 201.196 148.988C201.856 152.333 201.608 155.686 202.004 159.005C202.301 161.495 202.499 164.043 203.275 166.467C203.325 166.674 203.341 166.882 203.333 167.089C203.135 168.326 202.145 169.073 201.542 170.06C201.163 170.683 200.659 171.172 199.867 171.006C198.992 170.816 198.67 170.077 198.621 169.297C198.357 165.346 197.102 161.421 198.291 157.42C198.563 156.499 198.571 155.503 198.365 154.549C198.249 154.017 197.919 153.661 197.358 153.719C196.846 153.777 196.764 154.242 196.739 154.656C196.541 158.026 195.897 161.379 196.434 164.765C196.607 165.861 196.673 166.956 196.648 168.068C196.574 171.521 194.156 173.969 190.748 174.019C188.684 174.052 186.63 174.036 184.566 174.027C183.262 174.019 182.305 174.451 181.843 175.762C181.298 177.306 180.085 177.729 178.583 177.754C176.966 177.779 175.554 177.48 174.894 175.762C174.44 174.575 173.557 174.086 172.344 174.052C170.784 174.011 169.315 173.82 168.614 172.077C168.3 171.28 167.789 171.604 167.318 171.994C165.684 173.372 165.164 175.48 163.984 177.173C163.481 177.887 164.595 178.376 165.305 178.609C165.701 178.742 166.105 178.459 166.509 178.41C168.011 178.227 168.465 178.692 168.02 180.128C167.797 180.85 167.813 181.389 168.102 182.078C168.705 183.555 167.912 184.435 166.278 184.153C165.098 183.945 164.124 183.256 163.184 182.559C162.069 181.729 161.096 181.763 160.023 182.626C159.065 183.406 158.059 184.169 156.755 184.277C155.368 184.393 154.081 184.211 153.602 182.634C153.247 181.455 154.403 179.638 155.69 179.19C156.152 179.032 156.647 179.098 157.11 178.982C158.81 178.559 159.214 177.322 158.496 175.754C157.11 172.708 154.403 171.015 151.754 168.857C152.323 170.774 151.448 171.579 149.905 172.293C148.221 173.073 147.14 174.733 145.836 176.053C143.971 177.937 142.956 177.995 141.223 176.061C139.927 174.617 138.434 173.886 136.503 174.036C136.024 174.069 135.545 174.044 135.058 174.036C130.825 174.019 129.463 172.758 129.075 168.459C129.034 168.044 129.075 167.629 129.009 167.222C128.918 166.624 128.993 165.935 128.299 165.612C127.969 165.462 127.573 165.471 127.342 165.745C126.83 166.35 126.929 167.114 127.276 167.695C128.712 170.094 129.356 172.625 128.877 175.413C128.803 175.853 129.067 176.202 129.306 176.542C130.123 177.704 130.247 178.858 129.149 179.887C127.961 181.007 126.872 180.285 125.815 179.572C125.642 179.455 125.527 179.273 125.419 179.107C124.305 177.48 124.421 175.405 123.463 173.704C123.183 173.198 123.232 172.5 122.729 172.06C120.996 170.55 120.971 168.691 121.021 166.492C121.07 164.392 120.319 162.234 120.476 160.043C119.956 158.649 120.303 157.246 120.443 155.843C120.468 155.03 120.501 154.208 120.525 153.395C120.864 151.943 121.037 150.49 121.829 149.121C122.836 147.378 122.49 145.394 122.126 143.485C122.523 143.328 122.91 143.162 123.307 143.004C123.925 142.348 124.577 141.726 125.081 140.971C128.275 138.373 131.815 136.265 135.215 133.974C137.707 132.298 140.093 130.43 142.766 129.019C144.59 128.322 142.824 127.185 143.088 126.305C143.097 126.214 143.113 126.115 143.13 126.023C143.286 124.654 142.048 123.699 141.941 122.098C144.722 123.924 146.29 127.459 150.153 126.862Z" fill="#171717"/>
<path opacity="0.87" d="M125.411 179.388C126.112 179.654 126.797 180.003 127.524 180.16C128.382 180.343 128.943 179.853 129.29 179.081C129.579 178.434 129.562 177.853 128.91 177.488C127.837 176.89 127.944 176.085 128.151 175.056C128.506 173.247 128.563 171.438 127.251 169.836C126.657 169.114 126.352 168.201 126.211 167.221C126.022 165.977 126.277 165.18 127.68 165.163C128.861 165.147 129.801 165.288 129.793 166.923C129.785 168.209 129.867 169.512 130.222 170.848C130.808 173.048 131.873 173.977 134.142 173.712C135.091 173.604 136.082 173.77 137.031 173.678C139.193 173.471 140.711 174.442 141.941 176.069C143.171 177.695 143.691 177.679 145.118 176.168C146.29 174.932 147.52 173.737 148.741 172.541C149.03 172.259 149.368 171.844 149.707 171.819C151.531 171.703 152.067 171.155 150.78 169.57C150.458 169.172 150.697 168.5 151.275 168.184C151.778 167.91 152.364 168.06 152.546 168.491C153.511 170.757 156.21 171.106 157.572 173.064C158.43 174.293 158.793 175.878 160.147 176.841C160.741 177.272 160.147 178.069 159.684 178.384C158.81 178.99 158.512 180.683 157.027 180.102C155.979 179.687 155.409 180.028 154.972 180.783C154.584 181.455 153.833 182.119 154.262 182.99C154.733 183.953 155.707 183.862 156.614 183.862C158.232 183.854 159.23 182.667 160.303 181.795C161.417 180.891 162.218 181.065 163.225 181.787C164.166 182.459 165.139 183.115 166.154 183.663C166.757 183.986 167.59 184.111 168.028 183.455C168.432 182.849 167.698 182.484 167.302 182.194C166.32 181.472 166.088 180.924 167.442 180.401C167.855 180.235 168.094 179.787 167.855 179.388C167.524 178.816 167.071 179.131 166.617 179.347C165.494 179.878 163.448 179.173 162.895 178.11C162.73 177.795 162.573 177.314 162.845 177.173C165.131 175.994 165.032 173.114 166.955 171.711C167.392 171.388 167.838 171.064 168.317 170.79C169.084 170.35 169.645 170.666 169.472 171.462C169.092 173.239 170.066 173.728 171.51 173.654C173.714 173.537 175.323 173.911 176.008 176.426C176.462 178.085 178.261 177.156 179.466 177.322C180.357 177.446 181.1 177.181 181.265 176.11C181.587 174.077 182.916 173.521 184.847 173.654C186.497 173.761 188.214 173.405 189.798 173.737C192.505 174.301 194.23 172.807 195.617 171.147C196.838 169.678 196.343 167.578 195.996 165.827C195.245 162.009 196.277 158.275 196.211 154.498C196.194 153.685 196.789 153.245 197.606 153.378C198.612 153.544 199.396 153.967 199.479 155.179C199.611 157.096 199.141 158.947 198.893 160.814C198.67 162.507 198.406 164.093 199.248 165.752C199.834 166.914 199.396 168.292 199.471 169.578C199.504 170.126 199.462 170.757 200.073 170.981C200.775 171.238 200.981 170.574 201.286 170.151C201.922 169.288 202.557 168.425 203.193 167.562C203.952 167.529 203.878 167.91 203.605 168.375C203.597 168.632 203.589 168.898 203.58 169.155C203.176 169.495 202.557 169.72 202.598 170.359C202.673 171.404 201.864 171.512 201.179 171.77C199.075 171.919 197.416 173.288 195.452 173.844C194.659 174.068 194.511 175.064 194.61 175.778C194.874 177.679 194.503 179.729 195.881 181.389C196.211 182.717 195.245 183.439 194.511 184.269L194.519 184.277C194.23 184.534 193.941 184.8 193.661 185.057C192.365 185.48 191.045 185.845 189.955 186.709C188.767 188.991 185.961 189.53 184.558 191.58C184.426 191.58 184.294 191.589 184.162 191.597C183.543 192.012 182.85 192.178 182.115 192.236C181.438 192.543 180.679 191.887 180.027 192.41C178.022 192.46 176.693 193.962 175.01 194.693C173.392 195.39 171.907 196.46 170.066 196.469C164.149 196.485 158.224 196.709 152.339 196.021C149.773 195.722 147.421 194.411 145.349 192.95C144.045 192.029 142.444 191.763 141.38 191.921C139.49 192.195 138.813 191.439 137.996 190.178C137.435 189.315 136.833 188.352 135.397 188.974C134.514 189.356 134.093 188.51 133.614 187.937C133.812 187.14 134.86 187.871 135.075 187.049C134.208 185.638 132.236 185.862 131.196 184.667C131.097 183.945 131.452 182.783 129.95 183.447C128.365 182.194 126.616 181.09 125.411 179.388Z" fill="#191919"/>
<path d="M129.95 183.232C129.678 182.617 129.768 182.169 130.503 182.036C130.99 181.953 131.543 182.012 131.741 182.485C132.038 183.223 132.219 184.045 131.196 184.468C130.643 184.194 130.222 183.779 129.95 183.232Z" fill="#171717"/>
<path d="M120.435 155.818C120.443 157.221 120.459 158.615 120.468 160.018C120.212 160.425 119.956 160.831 119.7 161.246C119.642 159.387 119.956 157.594 120.435 155.818Z" fill="#16232F"/>
<path d="M179.846 192.352C180.44 191.73 181.207 192.004 181.909 191.937C182.173 192.079 182.173 192.211 181.909 192.352C181.909 192.493 181.909 192.626 181.901 192.767C181.216 192.626 180.531 192.485 179.846 192.352Z" fill="#131D28"/>
<path d="M120.459 140.116C120.459 139.427 120.459 138.73 120.468 138.041C121.871 138.663 122.399 140.116 123.331 141.178C123.835 141.759 123.174 142.257 122.547 142.473C121.879 142.606 121.384 143.012 120.946 143.51C120.756 142.39 121.128 141.178 120.459 140.116Z" fill="#8D9DA4"/>
<path d="M122.547 142.481C122.828 141.999 123.604 141.443 122.613 141.028C121.243 140.455 120.921 139.227 120.468 138.04C120.336 135.185 119.997 132.38 120.294 129.467C120.484 127.575 119.23 125.574 119.015 123.525C118.635 119.964 118.784 116.404 118.924 112.851C118.957 111.955 119.279 110.951 120.055 110.27C120.864 110.171 121.062 110.735 121.227 111.341C120.022 113.972 120.03 116.76 119.972 119.599C119.923 122.163 121.285 124.338 121.408 126.869C121.524 129.21 121.681 131.55 121.648 133.899C121.631 135.293 121.945 136.405 122.993 137.401C124.181 138.53 124.825 139.974 124.561 141.7C124.247 142.173 124.074 142.862 123.265 142.613C123.034 142.564 122.787 142.522 122.547 142.481Z" fill="#9B9B98"/>
<path d="M122.118 143.452C124 145.817 123.826 146.631 121.4 150.274C120.864 151.079 121.062 152.399 120.517 153.37C120.847 150.308 121.177 147.245 121.507 144.174C121.549 143.809 121.738 143.543 122.118 143.452Z" fill="#16232F"/>
<path d="M123.273 142.605C123.579 142.331 123.876 142.065 124.181 141.791C124.528 141.459 124.833 140.986 125.411 141.41C125.048 142.397 124.28 142.837 123.298 142.97C123.315 142.846 123.306 142.729 123.273 142.605Z" fill="#16232F"/>
<path d="M125.411 141.418C124.998 141.543 124.594 141.675 124.181 141.8C123.744 139.933 123.488 137.99 121.375 137.086C120.6 136.754 120.888 135.874 120.888 135.218C120.872 131.865 121.062 128.479 120.418 125.176C119.997 123.002 119.048 121.001 119.147 118.644C119.263 115.972 119.147 113.358 120.864 111.1C120.335 109.996 120.6 108.892 120.864 107.789L120.872 107.772C122.646 107.382 123.554 105.374 125.477 105.249C125.733 105.39 125.989 105.54 126.244 105.681C126.707 106.237 127.821 106.295 127.573 107.407C127.07 108.021 126.409 108.054 125.708 107.88C125.221 107.755 124.742 107.672 124.495 108.27C124.371 108.561 124.495 108.801 124.709 109C125.097 109.374 125.543 109.424 126.038 109.266C126.698 109.05 127.21 108.552 127.878 108.37C128.225 108.27 128.555 108.303 128.877 108.469C130.263 110.254 131.279 112.42 133.655 113.183C137.146 117.209 140.645 121.226 143.138 126.006L143.113 126.056C143.27 127.16 145.135 128.239 143.154 129.376C137.716 133.011 132.269 136.638 126.839 140.281C126.335 140.613 125.881 141.036 125.411 141.418Z" fill="#A4988C"/>
<path d="M127.466 107.374C127.243 106.677 126.236 106.553 126.244 105.689C127.301 105.573 128.184 106.013 128.795 106.785C130.462 108.876 132.038 111.043 133.647 113.175C130.404 113.4 129.57 110.976 128.695 108.611C128.258 108.229 127.16 108.511 127.466 107.374Z" fill="#9C9992"/>
<path d="M167.789 125.849C162.713 126.23 157.638 125.965 152.562 125.99C157.629 125.45 162.713 125.707 167.789 125.849Z" fill="#1C2C36"/>
<path d="M195.518 181.157C194.173 180.402 193.355 179.605 193.941 177.737C194.263 176.692 193.289 175.38 193.818 174.052C194.057 173.463 194.123 172.766 194.8 172.658C196.871 172.351 198.678 170.948 200.874 171.197C200.981 171.289 201.014 171.38 200.981 171.471C200.948 171.563 200.915 171.612 200.882 171.612C199.751 171.596 199.223 171.895 199.76 173.189C200.139 174.111 200.213 175.148 200.42 176.136C199.116 177.372 198.109 178.899 196.582 179.912C196.17 180.186 195.963 180.634 195.939 181.14C195.798 181.29 195.658 181.281 195.518 181.157Z" fill="#272729"/>
<path d="M202.937 166.649C202.26 166.052 202.079 165.271 202.12 164.417C202.169 163.379 201.98 162.375 201.732 161.371C201.278 159.454 201.039 157.578 201.187 155.536C201.443 152.084 200.964 148.614 199.314 145.461C198.901 144.672 198.943 144.324 199.859 144.274C200.395 144.249 200.775 144.05 200.874 143.469C202.326 144.174 201.715 145.369 201.443 146.365C201.303 146.905 200.981 147.361 201.072 147.652C200.981 147.511 200.997 147.121 201.55 146.672C202.392 148.349 201.476 150.158 202.103 151.752C202.103 151.884 202.103 152.026 202.112 152.158C202.623 152.93 202.021 153.885 202.499 154.665C202.508 155.345 202.516 156.034 202.524 156.715C203.085 158.897 202.747 161.188 203.333 163.363C203.341 163.769 203.349 164.184 203.349 164.591C203.647 165.354 203.803 166.101 202.937 166.649Z" fill="#191919"/>
<path d="M202.112 151.734C201.245 150.34 202.004 148.763 201.592 147.302C201.022 147.394 201.509 148.058 201.014 148.307C200.461 146.688 202.07 144.995 200.882 143.451C199.017 143.028 197.498 142.065 196.368 140.497C196.582 140.273 196.846 140.206 197.143 140.239C197.424 140.289 197.68 140.405 197.919 140.563C198.786 141.202 199.768 141.709 200.486 142.547C201.484 142.754 202.004 143.319 202.013 144.406C202.021 145.701 202.128 147.004 202.186 148.298C202.153 149.444 202.128 150.589 202.112 151.734Z" fill="#142631"/>
<path d="M203.333 163.345C202.153 161.237 202.615 158.938 202.524 156.697C203.548 158.822 203.341 161.096 203.333 163.345Z" fill="#142631"/>
<path d="M200.882 171.621C200.882 171.48 200.882 171.338 200.874 171.206C201.418 170.741 202.211 170.533 202.161 169.546C202.12 168.807 202.764 168.749 203.325 168.683C202.458 169.62 202.772 171.554 200.882 171.621Z" fill="#142631"/>
<path d="M202.937 166.649C203.316 166.002 203.382 165.305 203.349 164.574C203.968 165.678 203.968 166.79 203.349 167.894C203.209 167.62 203.077 167.338 202.937 167.064C202.945 166.923 202.937 166.782 202.937 166.649Z" fill="#142631"/>
<path d="M202.499 154.648C201.864 153.893 202.194 152.98 202.112 152.142C202.788 152.889 202.433 153.801 202.499 154.648Z" fill="#142631"/>
<path d="M184.368 191.506C184.129 191.016 184.178 190.576 184.632 190.252C186.332 189.007 188.041 187.779 189.749 186.551C189.122 189.48 186.423 190.144 184.368 191.506Z" fill="#131D28"/>
<path d="M189.741 186.543C190.492 184.916 191.82 184.56 193.438 184.867C192.365 185.788 191.325 186.759 189.741 186.543Z" fill="#131D28"/>
<path d="M181.909 192.352C181.909 192.211 181.909 192.07 181.909 191.937C182.594 191.796 183.287 191.664 183.972 191.522C183.535 192.435 182.709 192.352 181.909 192.352Z" fill="#131C27"/>
<path d="M195.518 181.156C195.658 181.156 195.798 181.156 195.939 181.156C196.492 181.156 197.036 181.165 197.589 181.165C196.921 182.625 195.674 183.43 194.288 184.061C194.42 182.974 195.113 182.127 195.518 181.156Z" fill="#131D28"/>
<path d="M199.644 105.29C200.882 105.041 201.641 105.896 202.491 106.535C203.63 113.108 205.545 119.806 203.556 126.321C202.433 129.981 203.63 133.475 202.665 136.978C202.153 138.853 201.559 140.596 200.502 142.198C198.563 141.65 198.563 141.634 199.966 139.808C200.824 139.16 200.577 138.082 200.94 137.243C201.583 135.218 202.211 133.243 201.616 131.027C201.286 129.807 201.674 128.545 202.037 127.242C203.308 122.728 203.911 118.088 202.384 113.482C201.823 111.797 201.715 109.98 200.907 108.378C200.585 107.315 199.33 106.627 199.644 105.29Z" fill="#959C9D"/>
<path d="M200.461 140.116C200.502 140.813 198.324 141.543 200.494 142.199C200.486 142.315 200.486 142.431 200.478 142.548C199.174 142.614 198.464 141.577 197.523 140.962C198.291 139.942 199.174 139.302 200.461 140.116Z" fill="#A09A8E"/>
<path d="M120.872 107.789C120.872 108.893 120.872 109.997 120.872 111.101C120.6 110.827 120.327 110.544 120.055 110.271C120.319 109.441 120.303 108.519 120.872 107.789Z" fill="#8F9393"/>
<path d="M184.476 132.596C182.454 132.065 180.877 130.737 179.252 129.525C178.591 129.036 178.253 128.372 178.847 127.409C179.59 126.197 180.077 124.836 180.679 123.533C181.777 122.554 181.785 120.603 183.568 120.222C183.807 120.562 183.659 120.894 183.535 121.226C183.378 121.541 183.205 121.84 183.023 122.139C182.586 122.678 182.272 123.292 182.008 123.932C181.942 124.098 181.859 124.255 181.76 124.405C181.092 125.575 180.646 126.878 179.813 127.957C179.854 128.09 179.029 127.998 179.722 128.314C179.895 128.388 180.044 128.505 180.192 128.621C180.696 129.119 181.331 129.426 181.917 129.808C182.858 130.671 184.434 130.92 184.476 132.596Z" fill="#363634"/>
<path d="M183.172 121.151C183.304 120.844 183.436 120.537 183.568 120.23C184.22 119.525 184.872 118.819 185.524 118.122C185.969 117.848 186.407 117.582 186.852 117.309C187.966 117.632 187.306 118.412 187.29 119.027C187.059 119.616 186.72 120.147 186.299 120.612C185.697 121.151 185.194 121.79 184.533 122.255C184.112 122.554 183.634 123.068 183.122 122.604C182.685 122.214 182.841 121.633 183.172 121.151Z" fill="#9D9796"/>
<path d="M186.852 118.977C186.712 118.421 187.224 117.865 186.852 117.317C189.188 113.956 191.713 110.735 194.503 107.764C195.79 106.395 197.507 105.225 199.644 105.299C200.04 106.229 201.229 106.636 201.295 107.789C201.732 109.499 201.732 111.292 202.343 112.96C201.163 113.532 200.684 114.545 200.61 115.806C200.436 116.055 200.205 116.221 199.892 116.255C198.769 116.006 198.695 115.076 198.563 114.18C198.472 113.574 198.513 112.927 198.159 112.387C197.886 111.972 197.531 111.615 196.987 111.706C196.343 111.806 196.351 112.346 196.335 112.827C196.302 113.715 196.582 114.611 196.244 115.491C195.509 116.927 196.269 118.645 195.419 120.056C194.23 119.981 194.23 119.981 194.032 118.147C193.421 119.118 192.629 119.682 191.457 119.525C190.739 118.686 191.416 118.147 191.895 117.607C192.439 116.985 192.926 116.338 193.248 115.574C193.43 115.134 193.694 114.636 193.223 114.254C192.712 113.839 192.151 114.08 191.746 114.47C190.715 115.466 189.766 116.528 188.907 117.69C188.412 118.346 187.999 119.284 186.852 118.977Z" fill="#A5978C"/>
<path d="M186.852 118.977C188.486 117.79 189.246 115.865 190.665 114.454C191.672 113.458 192.571 112.719 193.818 113.483C195.113 114.279 193.892 115.226 193.735 116.147C193.479 117.707 191.606 117.915 191.391 119.384C191.738 119.674 191.837 120.089 191.771 120.496C191.441 122.72 192.522 124.264 194.172 125.65C194.882 123.874 193.694 121.799 195.097 120.214C195.097 119.085 195.097 117.948 195.105 116.819C195.113 116.155 195.014 115.433 195.922 115.242C196.805 114.96 197.267 115.433 197.589 116.172C197.952 119.989 197.754 123.807 197.729 127.625C194.362 131.434 195.724 135.493 197.127 139.551C197.259 139.941 197.474 140.307 197.127 140.688C196.871 140.622 196.615 140.556 196.351 140.497C193.207 138.29 190.054 136.09 186.91 133.883C189.295 131.551 189.312 128.43 186.778 125.284C185.482 123.674 185.012 122.097 186.019 120.214C186.299 119.807 186.58 119.392 186.852 118.977Z" fill="#A4998A"/>
<path d="M161.508 166.624C163.687 166.649 165.816 167.587 168.11 167.529C169.414 167.495 168.894 168.276 168.391 168.832C167.112 170.226 165.255 171.114 164.545 173.015C164.124 174.135 163.505 175.056 162.647 175.886C161.723 176.766 160.98 176.7 160.279 175.704C159.924 175.197 159.445 174.691 159.338 174.127C158.9 171.927 156.986 171.089 155.566 169.811C155.079 169.371 154.205 169.23 154.411 168.342C154.609 167.471 155.418 167.23 156.152 167.139C157.902 166.906 159.668 166.79 161.508 166.624Z" fill="#070808"/>
<path d="M186.027 120.222C185.557 122.811 187.141 124.637 188.445 126.513C189.922 128.646 189.246 130.837 188.891 133.044C188.693 134.281 187.653 133.791 186.91 133.891C186.093 133.459 185.284 133.036 184.467 132.604C183.733 131.476 182.33 131.169 181.488 130.181C181.059 129.509 180.374 129.252 179.681 128.994C179.334 128.778 178.855 128.629 179.235 128.065C179.953 127.666 180.25 126.073 181.579 127.368C181.991 127.774 183.056 127.89 183.378 127.143C183.725 126.355 183.18 125.65 182.33 125.484C181.348 125.293 180.993 124.886 181.48 123.94L181.472 123.948C182.016 123.326 182.247 122.521 182.709 121.84C182.742 121.533 182.858 121.276 183.163 121.16C183.32 121.558 182.635 122.977 184.03 121.865C184.707 121.326 185.127 120.479 186.027 120.222Z" fill="#A5978C"/>
<path d="M188.09 161.677C186.753 160.474 186.365 156.955 187.331 154.739C187.463 154.432 187.562 154.108 187.678 153.801C189.138 153.61 190.277 154.457 190.723 156.216C191.003 157.345 191.127 158.548 190.995 159.693C190.805 161.362 189.658 161.893 188.09 161.677Z" fill="#19151E"/>
<path d="M188.09 161.677C189.823 161.362 190.64 160.416 190.591 158.54C190.517 155.66 189.997 154.664 187.678 153.801C187.628 153.751 187.587 153.693 187.529 153.66C186.753 153.154 186.753 155.17 186.027 154.216C185.309 153.278 186.729 152.979 186.993 152.249C187.298 151.394 188.057 152.124 188.495 152.431C190.31 153.71 191.02 155.66 191.292 157.727C191.441 158.872 191.68 159.835 192.563 160.623C193.322 161.304 193.372 162.333 193.628 163.246C193.809 163.893 193.941 164.557 193.149 164.773C192.53 164.939 192.035 164.391 191.961 163.876C191.631 161.685 190.624 161.221 188.734 162.333C188.156 162.681 187.834 162.374 188.09 161.677Z" fill="#191919"/>
<path d="M136.494 154.199C135.719 155.976 136.379 157.611 136.775 159.262C136.965 160.067 137.287 161.096 136.305 161.412C135.355 161.719 135.215 160.607 134.951 159.951C134.431 158.689 134.002 157.395 133.251 156.233C132.822 155.577 132.665 154.855 133.185 154.116C133.779 153.278 134.621 152.78 135.595 152.747C136.569 152.714 136.503 153.544 136.494 154.199Z" fill="#16151E"/>
<path d="M174.473 153.328C174.556 152.606 175.059 152.366 175.653 152.067C178.476 150.648 182.693 151.32 184.484 153.528C186.258 155.727 185.945 159.346 183.749 162.035C181.315 165.006 178.055 165.487 175.389 163.255C175.695 162.906 176.099 162.806 176.536 162.798C178.814 163.122 181.018 163.238 182.734 161.238C184.137 159.603 184.55 157.735 183.947 155.702C183.262 153.378 181.315 152.415 178.203 152.706C177.576 152.764 177.023 153.013 176.437 153.187C175.785 153.171 175.166 153.826 174.473 153.328Z" fill="#191919"/>
<path d="M148.147 153.768C148.395 153.925 148.634 154.075 148.882 154.233C149.517 155.079 150.062 155.959 149.946 157.088C149.872 157.66 150.12 158.274 149.732 158.806C148.939 159.046 148.774 158.241 148.296 157.951C147.941 157.859 147.71 158.067 147.479 158.283C147.248 158.698 146.835 159.063 146.992 159.586C147.322 160.706 146.835 161.32 145.787 161.503C144.574 161.71 144.277 160.889 144.178 159.901C144.227 158.698 144.83 157.627 144.937 156.44C145.465 153.876 146.109 153.336 148.147 153.768Z" fill="#E1CF90"/>
<path d="M148.552 161.802C146.076 164.508 142.502 164.475 140.233 161.727C139.68 160.69 138.392 159.96 138.846 158.482C140.159 157.885 140.447 159.188 141.05 159.761C143.278 161.893 144.97 162.118 147.371 160.449C147.677 160.134 148.048 160.018 148.477 160.076C148.675 160.134 148.857 160.234 149.005 160.375C149.138 160.939 148.659 161.313 148.552 161.802Z" fill="#E1CF90"/>
<path d="M148.147 153.768C146.274 153.884 145.572 155.021 145.581 156.764C144.722 156.789 144.499 156.084 144.161 155.511C143.377 154.374 142.065 155.229 141.116 154.706C140.852 154.474 140.761 154.175 140.769 153.835C142.114 151.66 144.161 152.349 146.084 152.507C147.025 152.532 147.726 152.913 148.147 153.768Z" fill="#DCCC83"/>
<path d="M146.092 152.506C144.326 152.797 142.131 151.784 141.083 154.208C139.861 155.32 139.977 157.104 139.02 158.349C138.599 159.768 140.167 160.474 140.233 161.719C138.252 160.034 137.641 156.332 139.003 154.291C140.365 152.241 143.872 151.361 146.092 152.506Z" fill="#DDC88A"/>
<path d="M173.697 161.254C172.938 161.511 172.765 158.83 171.527 160.872C171.238 161.353 170.817 160.299 170.471 159.951C169.918 159.386 170.009 158.839 170.586 158.357C170.883 158.108 171.106 157.453 171.618 158.283C172.229 159.278 171.94 158.15 172.006 158.042C172.748 156.855 172.435 155.195 173.664 154.216C173.896 154.432 174.036 154.697 174.077 155.013C174.102 155.627 173.805 156.183 173.797 156.789C173.095 158.05 173.805 159.229 174.028 160.44C174.028 160.756 173.937 161.038 173.697 161.254Z" fill="#191919"/>
<path d="M152.637 159.967C152.719 159.428 152.513 158.308 153.47 158.332C154.774 158.357 155.195 159.594 155.327 160.706C155.434 161.586 154.873 162.109 153.932 162.059C152.678 161.993 152.612 161.096 152.637 159.967Z" fill="#171427"/>
<path d="M170.669 165.403C169.629 165.403 168.705 165.312 168.779 164.017C168.812 163.42 169.051 163.013 169.86 163.237C170.883 163.528 172.542 162.797 172.583 164.582C172.608 165.719 171.329 165.279 170.669 165.403Z" fill="#191919"/>
<path d="M163.274 182.136C163.299 185.049 162.936 186.385 162.54 185.513C161.789 183.862 160.419 186.609 160.246 181.289C160.171 178.973 160.609 176.633 161.384 176.741C162.408 176.882 162.812 180.144 163.274 182.136Z" fill="#070808"/>
<path d="M170.042 154.374C169.332 154.316 168.845 153.975 168.911 153.378C169.01 152.515 169.678 152.141 170.512 152.199C171.23 152.257 171.601 152.73 171.535 153.444C171.428 154.44 170.487 154.058 170.042 154.374Z" fill="#1A1525"/>
<path d="M184.608 162.54C185.375 163.262 185.194 164.125 186.044 164.158C186.283 164.167 186.737 163.876 186.803 164.366C186.828 164.582 186.63 164.88 186.456 165.055C186.085 165.412 185.713 165.221 185.392 164.93C184.797 164.391 184.682 163.694 184.608 162.54Z" fill="#191919"/>
<path d="M148.552 161.802C148.667 161.346 148.791 160.889 148.906 160.433C148.585 159.761 148.717 159.196 149.336 158.773C149.864 158.283 149.674 157.603 149.798 157.005C149.963 156.931 150.07 156.972 150.128 157.146C150.227 158.914 150.095 160.599 148.552 161.802Z" fill="#DACD7F"/>
<path d="M186.58 161.852C186.861 162.441 187.191 163.08 187.455 163.752C187.471 163.802 187.067 164.018 186.852 164.159C186.563 163.545 185.928 163.113 185.895 162.374C185.887 162.076 186.093 161.893 186.58 161.852Z" fill="#191919"/>
<path d="M143.154 129.368C144.516 128.239 142.931 127.16 143.113 126.048C143.823 127.085 145.275 127.965 143.831 129.451C143.608 129.675 143.344 129.65 143.154 129.368Z" fill="#4B453C"/>
<path d="M173.697 161.254C173.689 160.972 173.689 160.69 173.681 160.408C173.739 159.52 173.351 158.665 173.499 157.768C173.59 157.312 173.689 156.855 174.143 156.606C175.868 157.685 175.175 159.279 175.01 160.756C174.795 161.196 174.548 161.586 173.962 161.437C173.887 161.362 173.797 161.304 173.697 161.254Z" fill="#E2CF87"/>
<path d="M201.138 166.366C200.552 165.237 200.18 164.366 201.138 163.171C201.138 164.283 201.138 165.146 201.138 166.366Z" fill="#191919"/>
<path d="M173.97 161.436C174.143 161.362 174.316 161.279 174.498 161.204C174.993 161.212 175.356 161.486 175.736 161.76C176.157 162.208 176.9 162.499 176.553 163.345C176.165 163.312 175.785 163.287 175.398 163.254L175.373 163.279C174.762 163.063 174.391 162.59 174.077 162.059C174.036 161.86 174.003 161.644 173.97 161.436Z" fill="#9E975D"/>
<path d="M173.698 155.113C173.689 154.814 173.681 154.515 173.664 154.216C173.937 153.918 174.209 153.627 174.473 153.328C175.059 153.121 175.422 152.382 176.19 152.606C176.017 154.109 175.224 154.972 173.698 155.113Z" fill="#645835"/>
<path d="M150.128 157.146C150.012 157.121 149.897 157.071 149.798 157.004C149.897 155.942 149.08 155.195 148.873 154.232C150.037 154.88 150.326 155.909 150.128 157.146Z" fill="#675D3D"/>
<path d="M174.647 164.524C174.63 164.955 174.457 165.204 174.16 165.071C173.962 164.988 173.797 164.681 173.747 164.449C173.689 164.175 173.871 163.876 174.193 164.009C174.407 164.092 174.531 164.391 174.647 164.524Z" fill="#191919"/>
<path d="M174.069 162.067C174.663 162.3 175.026 162.773 175.365 163.287C174.539 163.304 174.143 162.856 174.069 162.067Z" fill="#191919"/>
<path d="M141.19 125.807C141.058 125.997 140.951 126.271 140.744 126.421C140.456 126.645 140.266 126.396 140.109 126.155C139.432 125.118 138.582 124.703 137.32 125.134C136.709 125.342 136.032 125.051 135.71 124.47C134.918 123.026 134.852 121.126 133.078 120.287C133.02 120.263 133.111 119.781 133.218 119.549C133.358 119.242 133.622 119.233 133.886 119.449C134.943 120.321 135.694 121.947 137.542 120.926C137.625 120.885 138.054 121.499 138.335 121.798C139.374 122.885 139.407 124.753 141.066 125.375C141.141 125.408 141.141 125.624 141.19 125.807Z" fill="#A49184"/>
<path d="M127.466 107.374C127.878 107.789 128.291 108.195 128.704 108.61C127.87 108.635 127.449 109.357 126.83 109.747C125.774 110.411 124.8 110.461 123.95 109.415C123.562 108.942 122.671 108.486 123.678 107.838C124.305 107.44 124.635 105.755 125.791 107.133C126.352 107.797 126.929 107.191 127.466 107.374Z" fill="#A99482"/>
<path d="M197.135 140.697C195.179 137.36 194.511 133.866 195.402 130.015C195.674 128.837 196.277 128.447 197.168 128.09C198.538 127.31 198.852 128.305 199.033 129.285C199.273 130.555 199.19 131.858 199.05 133.136C198.951 134.032 199.215 134.887 199.264 135.758C199.256 135.966 199.215 136.157 199.141 136.356C198.893 136.738 198.546 137.078 199.174 137.501C199.66 137.833 199.991 137.908 200.321 137.352C200.56 136.945 200.816 136.505 201.418 136.821C201.509 137.111 201.534 137.393 201.303 137.634C201.245 138.539 201.559 139.56 200.477 140.116C199.363 139.941 198.645 141.145 197.54 140.962C197.391 140.879 197.259 140.788 197.135 140.697Z" fill="#A39890"/>
<path d="M201.295 137.634C201.295 137.352 201.295 137.078 201.286 136.796C200.263 135.883 200.478 134.638 200.511 133.501C200.568 131.376 200.189 129.393 199.132 127.534C198.645 124.313 199.165 121.101 199.256 117.89C199.273 117.201 199.429 116.52 200.048 116.064C200.189 115.923 200.321 115.79 200.461 115.649C202.079 115.707 201.947 117.001 202.046 118.031C202.285 120.487 201.864 122.944 201.955 124.894C202.037 122.604 202.153 119.798 202.161 117.001C202.161 115.723 201.435 114.445 202.112 113.159C201.295 111.449 200.973 109.656 201.286 107.772C202.409 110.486 203.424 113.3 203.663 116.18C204.018 120.321 203.977 124.529 202.244 128.505C201.839 129.426 202.161 130.513 202.318 131.55C202.648 133.667 202.466 135.75 201.295 137.634Z" fill="#A09A8E"/>
<path d="M181.48 123.932C181.604 124.255 181.29 124.836 181.991 124.811C183.485 124.77 184.698 126.222 184.352 127.642C184.187 128.322 181.158 128.828 180.919 128.123C180.283 126.231 179.747 128.48 179.235 128.048C179.97 126.67 180.448 125.152 181.48 123.932Z" fill="#9B9688"/>
<path d="M182.709 121.84C182.602 122.728 182.322 123.5 181.472 123.948C181.562 123.052 181.983 122.346 182.709 121.84Z" fill="#9B9688"/>
<path d="M179.681 128.986C180.531 129.011 181.29 129.161 181.488 130.173C180.795 129.916 180.159 129.567 179.681 128.986Z" fill="#9B9688"/>
<path d="M200.048 116.072C199.916 119.939 199.776 123.807 199.644 127.683C198.472 128.073 197.977 127.683 197.804 126.181C197.498 123.608 197.597 121.018 197.581 118.437C197.573 117.632 197.721 116.794 197.176 116.072C196.764 115.798 196.351 115.516 195.939 115.242C195.806 114.578 195.592 113.914 195.575 113.25C195.551 112.229 195.138 110.86 196.797 110.735C198.241 110.627 199 111.532 199.231 112.918C199.396 113.997 198.744 115.292 200.048 116.072Z" fill="#A39794"/>
<path d="M195.105 120.213C195.105 122.072 195.113 123.939 195.097 125.799C195.089 126.33 195.262 127.052 194.651 127.276C193.908 127.55 193.9 126.687 193.595 126.296C193.298 125.923 193.1 125.433 192.736 125.159C190.673 123.599 190.731 121.574 191.4 119.391C192.233 118.686 193.413 118.528 194.131 117.632C195.179 118.246 194.255 119.566 195.105 120.213Z" fill="#A69691"/>
<path d="M202.112 113.167C203.754 117.549 202.805 121.923 202.26 126.645C201.295 124.761 201.295 124.761 201.295 122.362C201.295 120.985 201.319 119.607 201.286 118.229C201.27 117.3 201.567 116.246 200.469 115.656C200.197 115.109 200.007 114.553 200.147 113.905C200.428 112.619 200.973 112.121 202.112 113.167Z" fill="#A89882"/>
<path d="M197.168 116.072C198.225 116.33 197.977 117.201 197.985 117.906C198.026 120.562 197.812 123.243 198.431 125.857C198.604 126.571 198.233 127.758 199.644 127.675C201.245 128.555 201.138 130.198 201.253 131.65C201.394 133.352 201.286 135.078 201.286 136.796C199.958 139.178 199.512 139.236 198.249 137.394C197.597 136.447 198.579 136.68 198.81 136.381C199.009 136.572 198.753 136.323 198.943 136.514C198.901 136.464 198.852 136.423 198.81 136.381C197.663 134.232 198.621 131.957 198.414 129.75C198.332 128.87 198.365 128.04 197.16 128.09C197.168 124.09 197.168 120.081 197.168 116.072Z" fill="#A8968A"/>
<path d="M190.426 135.003C190.343 135.111 190.244 135.343 190.129 135.352C189.683 135.393 189.411 135.069 189.246 134.713C189.114 134.43 189.246 134.148 189.576 134.181C189.997 134.223 190.219 134.563 190.426 135.003Z" fill="#A5978C"/>
<path d="M192.811 136.879C192.712 136.929 192.555 137.07 192.505 137.036C192.357 136.937 192.258 136.771 192.142 136.63C192.258 136.572 192.373 136.464 192.481 136.472C192.695 136.489 192.877 136.597 192.811 136.879Z" fill="#A5978C"/>
<path d="M173.698 155.113C174.531 154.274 175.365 153.444 176.198 152.606C177.18 152.357 178.063 151.776 179.169 151.934C181.315 152.249 183.568 152.615 184.401 154.913C185.194 157.088 185.177 159.387 183.518 161.346C181.628 163.578 179.351 164.342 176.553 163.337C176.14 162.922 175.736 162.499 175.323 162.084C176.124 161.337 176.462 160.507 176.091 159.37C175.769 158.383 175.835 157.345 176.413 156.407C176.933 155.918 177.221 154.814 178.261 155.694C178.641 156.748 178.096 157.926 178.69 158.955C178.781 159.785 179.144 160.449 179.838 160.931C180.316 161.445 180.77 161.279 181.216 160.872C182.396 159.76 183.898 158.789 183.023 156.756C181.397 153.536 179.672 153.121 175.967 155.071C175.843 155.196 175.703 155.304 175.563 155.411C175.109 155.636 174.77 155.992 174.465 156.391C174.333 156.49 174.209 156.598 174.094 156.714C174.085 157.129 174.077 157.536 174.069 157.951C173.029 158.059 173.532 157.121 173.252 156.714C173.037 156.075 173.541 155.644 173.698 155.113Z" fill="#DFCC91"/>
<path d="M149.336 158.764C149.369 159.361 149.195 159.909 148.906 160.424C148.774 160.424 148.634 160.416 148.502 160.407C147.99 160.067 147.569 159.909 147.677 160.822C143.583 163.03 142.585 162.739 139.02 158.341C139.127 156.672 138.483 154.614 141.083 154.199C141.215 154.332 141.355 154.473 141.487 154.606C142.387 156.166 142.213 158.117 143.328 159.586C143.427 159.702 143.534 159.818 143.658 159.909C143.806 159.926 143.947 159.942 144.095 159.918C144.31 159.851 144.532 159.801 144.755 159.884C144.813 160.615 144.854 161.304 145.935 160.913C146.67 160.648 146.629 160.407 146.29 159.743C145.77 158.731 146.785 158.191 147.281 157.511C147.842 157.818 148.122 157.295 148.51 157.096C149.022 157.544 149.253 158.117 149.336 158.764Z" fill="#E2D083"/>
<path d="M144.755 159.909C144.623 160.05 144.491 160.191 144.351 160.332C143.98 160.797 143.6 160.764 143.212 160.349L143.163 160.374C142.865 159.619 142.618 158.847 142.354 158.091C141.743 156.324 142.89 154.938 144.78 155.037C144.821 155.718 145.085 156.299 145.581 156.764C145.919 157.975 144.871 158.814 144.755 159.909Z" fill="#483920"/>
<path d="M148.502 157.113C148.444 157.611 148.213 157.976 147.693 158.034C147.363 158.076 147.305 157.785 147.272 157.528C147.718 157.486 147.9 156.665 148.502 157.113Z" fill="#DACD7F"/>
<path d="M147.677 160.831C147.132 160.25 147.19 159.627 147.916 159.444C148.609 159.262 148.436 160.001 148.502 160.424C148.23 160.557 147.949 160.698 147.677 160.831Z" fill="#DACD7F"/>
<path d="M144.78 155.038C143.022 155.412 142.486 156.657 142.709 158.242C142.808 158.947 143.179 159.628 143.162 160.383C142.205 158.582 140.827 156.906 141.487 154.623C142.676 154.042 143.823 153.793 144.78 155.038Z" fill="#DDC88A"/>
<path d="M173.252 156.715C173.524 157.13 173.797 157.536 174.069 157.951C173.97 158.773 174.349 159.678 173.681 160.416C172.666 159.279 172.806 158.01 173.252 156.715Z" fill="#DBC8A1"/>
<path d="M176.949 156.69C176.256 157.702 176.404 158.79 176.875 159.777C177.741 161.57 177.073 162.159 175.315 162.084C174.911 161.91 174.614 161.636 174.49 161.196C174.292 159.702 174.894 158.142 174.085 156.706C174.085 156.565 174.085 156.416 174.085 156.275C174.374 155.76 174.779 155.354 175.282 155.055L175.323 155.03C177.164 154.308 176.933 155.627 176.949 156.69Z" fill="#E6D37E"/>
<path d="M198.819 136.389C199.223 136.438 199.66 136.488 199.76 136.978C199.776 137.078 199.495 137.36 199.405 137.335C198.91 137.235 198.868 136.795 198.819 136.389Z" fill="#A39890"/>
<path d="M176.949 156.69C176.561 155.984 176.561 154.897 175.323 155.022C178.501 151.918 182.223 152.673 183.551 156.69C183.543 156.781 183.535 156.872 183.526 156.972C183.436 157.42 182.932 157.918 182.759 157.694C182.025 156.74 180.547 157.412 179.961 156.3C179.672 156.026 179.458 155.644 178.979 155.686C178.666 155.76 178.36 155.876 178.038 155.876C177.106 155.362 177.486 156.648 176.949 156.69Z" fill="#E2CF87"/>
<path d="M178.047 155.876C178.393 155.527 177.997 154.639 178.897 154.697C179.524 155.162 179.912 155.859 180.514 156.349C180.943 156.946 181.24 157.585 181.1 158.349C180.853 159.162 180.597 159.976 179.928 160.565C178.682 160.98 178.583 159.926 178.212 159.212C177.37 158.141 177.403 157.021 178.047 155.876Z" fill="#463E23"/>
<path d="M179.796 160.357C179.763 159.552 180.118 158.905 180.613 158.316C182.123 157.461 182.289 157.577 182.652 159.743C182.388 160.341 181.785 160.673 181.505 161.262C180.861 163.329 180.151 162.183 179.441 161.312C179.392 160.93 179.598 160.648 179.796 160.357Z" fill="#E2D584"/>
<path d="M181.496 161.262C181.513 160.673 181.793 160.258 182.313 160.009C182.462 158.814 182.949 157.743 183.543 156.706L183.551 156.689C184.608 159.013 183.089 160.15 181.496 161.262Z" fill="#E2CF87"/>
<path d="M179.796 160.358C179.912 160.765 179.739 161.064 179.433 161.304C178.756 160.765 178.038 160.25 178.212 159.213C178.649 159.727 178.971 160.391 179.796 160.358Z" fill="#B4A462"/>
<path d="M175.29 155.055C175.034 155.602 174.622 155.993 174.094 156.275C174.127 155.511 174.531 155.104 175.29 155.055Z" fill="#E2CF87"/>
<path d="M143.212 160.35C143.592 160.341 143.971 160.333 144.351 160.333C144.252 160.723 144.079 161.08 143.616 161.055C143.187 161.038 143.196 160.682 143.212 160.35Z" fill="#BAB465"/>
<path d="M183.551 156.714C183.419 157.918 183.196 159.088 182.322 160.017C181.925 159.27 182.371 157.677 180.613 158.324C180.572 157.644 180.646 156.938 180.234 156.324C180.036 156.133 180.069 155.984 180.324 155.876C181.315 156.457 182.099 157.86 183.551 156.714Z" fill="#DBC872"/>
<path d="M180.316 155.868C180.283 156.017 180.258 156.167 180.225 156.316C179.565 155.959 179.227 155.337 178.897 154.706C179.664 154.731 179.879 155.428 180.316 155.868Z" fill="#B4A25C"/>
<path d="M157.877 187.049C155.178 188.095 153.866 188.402 154.609 187.895C156.012 186.949 153.206 187.273 158.125 185.298C160.262 184.443 162.523 183.82 162.556 184.227C162.606 184.767 159.643 186.119 157.877 187.049Z" fill="#070808"/>
<path d="M166.996 185.297C169.662 186.426 170.817 187.123 169.934 186.966C168.276 186.675 170.512 188.393 165.61 186.385C163.472 185.513 161.426 184.384 161.673 184.069C162.012 183.637 165.082 184.733 166.996 185.297Z" fill="#070808"/>
</g>
<defs>
<clipPath id="clip0">
<rect width="117" height="104" fill="white" transform="translate(29 50)"/>
</clipPath>
<clipPath id="clip1">
<rect width="87" height="96" fill="white" transform="translate(118 103)"/>
</clipPath>
</defs>
</svg>
