<svg width="128" height="110" viewBox="0 0 128 110" fill="none" xmlns="http://www.w3.org/2000/svg">
<circle cx="68.5" cy="49.5" r="49.5" fill="#FFE9AD"/>
<g clip-path="url(#clip0)">
<path d="M72.229 25.4433C72.2089 30.1073 70.9774 34.5108 69.3058 38.8004C67.6463 43.0656 65.8779 47.2901 64.1538 51.5349C63.4553 52.1983 63.1121 52.9268 63.2938 53.9728C63.4634 54.9495 63.0596 55.9304 62.8173 56.8949C62.7285 57.0658 62.6034 57.2002 62.4459 57.2978C61.5455 56.8054 61.1942 57.3182 61.3073 58.0914C61.4607 59.1333 61.283 60.0694 60.8712 60.9973C60.7339 61.3025 60.5724 61.8275 60.3665 61.8113C58.5334 61.6729 59.127 63.2398 58.7232 64.0985C58.1862 65.2136 56.9507 65.5799 56.1956 66.5567C55.3235 67.6881 54.6048 66.7276 54.3303 65.698C54.0557 64.6764 53.8781 63.6223 52.4447 64.4892C51.621 64.6235 50.87 64.9654 50.1069 65.2828C48.2335 65.6857 46.4569 66.4387 44.5713 66.8009C44.3896 66.7398 44.2362 66.6381 44.107 66.4916C43.7113 65.6369 43.6952 64.6886 43.5256 63.7851C43.142 61.7462 44.8822 61.0991 46.0653 60.1019C46.3802 59.8618 46.7274 59.7234 47.1231 59.7438C48.613 60.0735 48.8108 58.417 49.7758 57.9938C51.0638 57.4321 50.4622 56.3618 50.7408 55.5478C51.4111 53.5739 49.477 52.8129 49.4447 51.3355C49.3357 51.246 49.6466 50.9937 49.3115 50.9937C49.1702 51.1727 49.0329 51.3477 48.8714 51.4983C48.7422 51.5919 48.5968 51.6408 48.4353 51.6489C48.2859 51.6123 48.1446 51.5431 48.0154 51.4576C47.8862 51.3722 47.7611 51.2826 47.6278 51.2053C47.1433 51.0099 46.6507 51.2012 46.1581 51.1768C42.601 50.5907 39.1205 50.55 35.9268 52.6094C34.4611 52.4588 34.8609 53.6553 34.6549 54.4123C34.6226 54.5914 34.5823 54.7664 34.5338 54.9414C34.445 56.0077 34.5863 57.0089 35.3696 57.8147C35.5109 57.9042 35.628 58.0263 35.7249 58.1606C35.947 58.5798 36.2498 58.9624 36.375 59.4304C36.3023 59.524 36.2498 59.6339 36.2135 59.7479C36.2942 59.6624 36.3669 59.5647 36.488 59.5281C36.8797 59.5525 37.239 59.7194 37.6185 59.7886C37.7801 59.8171 37.9375 59.8577 38.095 59.9025C38.4261 59.988 38.7612 60.049 39.0923 60.1508C39.4637 60.281 39.702 60.5415 39.8554 60.8956C40.0169 61.3595 40.348 61.6363 40.7356 61.9415C41.9913 62.9305 41.8581 64.5828 40.5297 65.4293C38.1354 66.9515 36.1206 66.4753 34.8407 63.8787C34.3037 62.7921 33.7707 63.4677 33.2135 63.5735C32.5634 63.6956 31.7923 63.484 31.8649 64.7578C31.9861 66.8986 31.3643 67.3544 29.0871 67.3707C27.153 66.3573 25.7318 64.8352 24.7062 62.9101C24.577 62.5601 24.4721 62.202 24.3388 61.856C24.2661 61.6851 24.2096 61.5101 24.1612 61.331C23.9835 60.2525 24.3065 58.8891 22.647 58.6653C22.2594 58.3316 22.1383 57.8839 22.0939 57.3996C22.1181 56.5937 22.215 55.792 22.102 54.9862C22.0576 54.8234 22.0253 54.6524 22.0051 54.4815C22.0333 54.3146 22.0979 54.16 22.1908 54.0216C22.2392 53.9565 22.2917 53.8954 22.3402 53.8303C22.4411 53.7123 22.5501 53.5984 22.6632 53.4966C22.7157 53.4478 22.7722 53.3949 22.8247 53.346C22.9256 53.2524 23.0387 53.1669 23.1558 53.0937C23.1477 53.0937 23.3294 53.0164 23.3213 53.0164C23.3133 53.0164 23.503 53.0042 23.4949 53.0001C23.4909 52.996 23.6605 52.9594 23.6605 52.9594C23.6605 52.9594 23.6242 52.7885 23.6242 52.7844C23.6242 52.7803 23.7049 52.6135 23.7089 52.6053C23.8058 52.4873 23.9108 52.3896 24.0279 52.296C24.5811 51.889 25.0535 51.4129 25.4209 50.8309C25.8368 50.2245 26.3213 49.7076 27.0682 49.5326C27.4074 49.4553 27.7506 49.3901 28.0898 49.3047C28.2634 49.2599 28.441 49.2355 28.6187 49.2192C29.9673 48.9587 31.3804 48.8611 32.3777 47.7093C32.5433 47.6157 32.7169 47.5424 32.8945 47.4855C35.5836 46.4761 38.4705 45.7354 39.4557 42.4674C39.5606 42.3168 39.6858 42.1865 39.8352 42.0807C40.4045 41.9546 40.8486 42.1377 41.1595 42.622C41.1999 42.7441 41.1717 42.8581 41.0707 42.9435C41.317 43.0534 40.9294 43.0941 41.1111 42.8947C41.2443 42.7523 41.1797 42.5528 41.1313 42.3697C40.9536 41.34 40.8365 40.3226 41.321 39.3417C43.0693 38.3731 42.6777 36.2934 43.5983 34.8934C42.9684 34.8975 42.7665 34.4661 42.6938 33.9451C42.5444 32.8707 42.5404 31.7841 42.9522 30.7747C43.6588 29.0451 43.033 27.8119 41.6521 26.8067C41.5149 26.6805 41.4018 26.5381 41.3049 26.3793C41.0626 25.9235 41.1434 25.3415 40.7598 24.9427C40.6347 24.8369 40.5256 24.7148 40.4328 24.5805C40.2632 24.3037 40.1461 24.0066 40.1623 23.6729C40.2349 23.5834 40.3278 23.4979 40.2309 23.3677C40.2592 23.4979 40.1905 23.5671 40.025 23.5671C39.706 23.4816 39.4637 23.27 39.2134 23.0706C39.0802 22.9688 38.959 22.8589 38.846 22.7409C38.7289 22.6188 38.6239 22.4886 38.527 22.3502C38.4786 22.281 38.4301 22.2078 38.3817 22.1426C37.994 21.6543 37.4207 21.4263 36.92 21.1008C36.7626 21.0194 36.6132 20.9258 36.4638 20.8362C36.2296 20.7101 35.9995 20.5757 35.7774 20.4252C35.628 20.3193 35.4988 20.1932 35.3777 20.0589C34.5621 18.6467 33.1328 18.7891 31.8205 18.6263C31.4531 18.5612 31.122 18.4309 30.8636 18.1542C30.6092 17.9141 30.5729 17.3972 30.0359 17.5152C29.8663 17.5315 29.7048 17.5112 29.5433 17.4583C29.2849 17.3606 29.0588 17.2222 28.865 17.0228C28.756 16.86 28.6752 16.685 28.6187 16.4978C28.4531 15.6065 28.4531 14.7152 28.5985 13.8239C29.0426 12.1919 30.9605 11.7931 31.5258 10.2669C31.9941 9.52616 32.0143 8.58196 32.5675 7.87788C33.3629 7.26333 34.3279 7.32031 35.2444 7.1331C40.8002 6.00983 46.3115 6.22553 51.7987 7.55636C51.9925 7.6052 52.1984 7.6052 52.3962 7.62962C52.8565 10.2791 54.6856 11.9477 56.5833 13.5675C56.6882 13.7099 56.7851 13.8646 56.8699 14.0193C56.9588 14.1658 57.0355 14.3204 57.1041 14.4751C57.2333 14.7722 57.3423 15.0733 57.3464 15.403C57.2656 15.5088 57.2454 15.6797 57.3343 15.7042C57.4433 15.7367 57.4796 15.4966 57.6411 15.5007C58.1539 15.4763 58.6142 15.6757 59.0866 15.8222C61.0125 16.8274 62.7003 18.1542 64.2507 19.6641C64.4687 19.9449 64.711 20.2013 64.9532 20.4618C65.0663 20.5961 65.1632 20.7467 65.244 20.9054C65.8213 21.8496 66.8388 22.1793 67.7109 22.7002C67.8765 22.7409 68.038 22.7979 68.1955 22.863C68.4256 22.9647 68.6396 23.0909 68.8415 23.2496C68.9666 23.3677 69.0514 23.5142 69.1039 23.677C69.5844 24.4014 70.4323 24.0432 71.0541 24.3444C71.5992 24.5723 72.2008 24.7026 72.229 25.4433Z" fill="white"/>
<path d="M31.009 17.8695C31.1907 18.1666 31.4773 18.2276 31.7923 18.2195C33.2983 18.6061 34.7882 19.0212 35.8622 20.2747L35.838 20.2585C36.0762 20.462 36.5082 20.3521 36.6172 20.7591L36.5849 20.7346C37.3601 21.1375 38.1838 21.4835 38.6078 22.3381L38.6966 22.2608L38.6037 22.33C38.8541 22.3707 38.9994 22.5172 39.0358 22.7696L39.0115 22.7492C39.8715 23.1643 40.1784 24.0353 40.6548 24.7678L40.6468 24.7638C41.3453 25.0487 41.1474 25.8504 41.5229 26.3184L41.527 26.3144C42.7907 27.8975 43.243 29.615 42.9886 31.7028C42.706 34.0511 43.3116 36.5215 41.9388 38.707C40.9011 39.6146 41.2968 41.4419 39.8231 42.0687L39.8271 42.0728C38.313 45.1414 35.733 46.8345 32.5756 47.7827L32.5958 47.7583C31.2714 48.7351 29.729 49.1176 28.1503 49.3984L28.1665 49.3903C27.9929 49.7525 27.581 49.663 27.3145 49.8502C26.6362 50.0089 26.1719 50.4729 25.7439 50.9816C25.1463 51.6328 24.4922 52.2229 23.7695 52.7276H23.7736C23.6847 52.9188 23.5515 53.0572 23.3496 53.1223L23.3536 53.1061C23.2406 53.2811 23.0993 53.4194 22.9135 53.509L22.9378 53.4886C22.8409 53.684 22.7036 53.8386 22.4855 53.8915L22.5138 53.863C22.4452 54.095 22.3079 54.2497 22.0616 54.2741L22.0697 54.2538C22.0131 54.5671 21.9041 54.5834 21.7467 54.3107C20.0307 49.9397 18.3187 45.5647 16.5906 41.1977C15.3793 38.1291 14.3013 35.0238 13.4978 31.8168C12.9729 29.7167 13.0012 27.5557 12.5813 25.4475C12.3753 24.9021 12.8356 24.7556 13.1425 24.5521C17.2851 21.8294 21.4317 19.1148 25.2352 15.9119C25.4976 15.6921 25.8085 15.57 26.1557 15.5537C27.1894 15.863 28.223 16.1683 28.974 17.023L28.9619 17.0107C29.2365 17.1613 29.5958 17.1125 29.8179 17.3852H29.8138C30.1772 17.6538 30.7506 17.3485 31.009 17.8695Z" fill="#9B4F1F"/>
<path d="M72.229 25.4433C71.8778 25.0689 71.4619 24.8125 70.9653 24.6945C70.2708 24.3322 69.4633 24.1491 68.9747 23.4491L68.9787 23.4532C68.7647 23.2293 68.3246 23.3433 68.2237 22.9485L68.2439 22.9648C66.8711 22.5741 65.8698 21.638 64.9169 20.6368L64.9129 20.6328C64.715 20.3764 64.2749 20.474 64.1578 20.0996C62.4661 18.7159 60.7824 17.3159 58.9493 16.1234C58.2266 15.6228 57.306 15.3746 56.9063 14.471L56.9224 14.4873C56.7165 14.4222 56.5954 14.2553 56.4621 14.1048C55.6788 13.3763 54.9117 12.6396 54.1163 11.9274C52.8363 10.7797 52.1055 9.42446 52.4285 7.64188C53.664 5.4808 55.594 4.20694 57.8672 3.42146C61.3557 2.21679 64.8846 1.15864 68.6073 1.03247C76.408 0.763866 82.1697 5.02905 84.1844 12.6356C85.0929 16.0705 85.2463 19.5746 84.6286 23.0828C83.9422 26.9654 81.1764 28.6463 77.3972 27.6288C75.5641 27.1323 73.9935 26.0619 72.229 25.4433Z" fill="#442814"/>
<path d="M26.2081 15.8343C22.6954 18.675 19.0534 21.3367 15.2581 23.7827C14.3738 24.3525 13.4775 24.906 12.5892 25.4635C10.9378 26.192 9.38332 27.1362 7.61485 27.6124C3.77103 28.6421 1.06179 27.0101 0.399617 23.0705C-0.484622 17.7919 0.00392986 12.672 2.79796 7.99174C5.36589 3.68993 9.22182 1.39454 14.1962 1.08524C16.1988 0.963143 18.2217 0.865467 20.1678 1.56548C24.6294 3.12829 27.7666 6.66091 31.4772 9.33885C31.8406 9.60339 32.1151 10.0348 31.8971 10.5679C31.3318 11.9802 29.8662 12.55 29.0183 13.6976C28.3601 14.7843 27.5688 15.6878 26.2081 15.8343Z" fill="#442814"/>
<path d="M24.9566 62.5723C26.0063 64.3305 27.3347 65.8282 29.0467 66.9596C30.3952 67.3788 31.5217 68.2863 32.8259 68.7706C39.6293 71.3102 46.3761 71.4689 53.0786 68.2985C55.0409 67.3706 56.7407 66.17 58.2064 64.5909C59.6438 62.7514 61.0367 60.8874 61.6989 58.592C61.8483 58.0751 62.0744 57.5827 62.5226 57.2367H62.5185C62.9021 56.5978 62.5145 55.7594 63.0354 55.1571C63.1363 54.8315 63.2574 54.514 63.3745 54.1966C63.4553 54.0501 63.5643 53.932 63.6975 53.8303C63.8631 53.7733 64.0044 53.814 64.1174 53.9483C65.7527 59.8333 64.715 65.0671 60.7904 69.8491C55.9413 75.7585 49.5497 77.2644 42.4193 76.9551C39.274 76.8167 36.1408 76.54 33.1489 75.3841C29.6321 74.0207 26.6887 71.9044 24.2621 68.9823C21.032 65.0915 20.6888 60.7124 21.8314 56.0199C22.8489 56.0484 22.0858 57.0129 22.5219 57.3507C22.534 57.7577 22.5461 58.1647 22.8772 58.474C23.8179 59.3653 23.9835 60.6554 24.5205 61.7543L24.5043 61.7298C24.8597 61.8967 24.7668 62.3118 24.9566 62.5723Z" fill="#DD623B"/>
<path d="M31.8972 10.5721C31.2956 9.26569 29.9955 8.63894 28.9497 7.89416C26.0063 5.80633 23.3698 3.28304 20.1639 1.56964C23.0266 1.99697 25.7923 2.77024 28.437 3.96677C30.262 4.79295 31.7357 6.00983 32.5917 7.88602C32.6522 8.85464 32.7653 9.84361 31.8972 10.5721Z" fill="#4A2F1B"/>
<path d="M63.3704 54.7625C63.0151 55.5642 63.0757 56.5084 62.5185 57.2369C62.4822 56.5043 62.4378 55.7718 62.7365 55.0677C62.9223 54.6241 62.9182 54.156 62.8617 53.688C62.676 52.1618 62.676 52.1618 64.1538 51.5351C64.0367 52.0886 63.9196 52.6461 63.8025 53.1996C63.8994 53.4642 63.9842 53.7246 63.649 53.8915L63.6369 53.9281C63.4956 54.1886 63.5279 54.5061 63.3704 54.7625Z" fill="#F8F5F2"/>
<path d="M22.5219 57.355C22.2918 56.9114 22.0616 56.4678 21.8315 56.0242C21.8032 55.4585 21.779 54.8928 21.7507 54.327C21.8476 54.2375 21.9567 54.2212 22.0737 54.2701C22.744 55.2224 22.5946 56.2928 22.5219 57.355Z" fill="#F3F1EE"/>
<path d="M63.6491 53.8915C63.6976 53.6595 63.75 53.4316 63.8025 53.1996C64.0731 53.3828 64.17 53.6351 64.1175 53.9526C63.96 53.9322 63.8066 53.9119 63.6491 53.8915Z" fill="#C49875"/>
<path d="M35.5876 52.3855C38.4463 50.0495 41.7733 50.0942 45.1649 50.4686C45.6938 50.5256 46.2187 50.6355 46.7476 50.721C47.0222 51.1361 47.7045 50.607 47.8943 51.2256L47.8741 51.2094C48.1123 51.2094 48.2375 51.3803 48.3788 51.5349H48.3748C50.6076 52.296 50.9064 54.2332 50.7045 56.1054C50.4865 58.1403 48.9078 59.2798 47.0989 60.0246C46.784 60.0409 46.5013 60.1264 46.3277 60.4235C45.5969 60.7979 44.8903 61.2211 44.0747 61.388C43.0451 61.7299 42.0075 61.4938 40.9738 61.4206C40.4328 61.3677 39.9039 61.2903 39.5607 60.7897C39.3709 60.4764 39.06 60.456 38.7451 60.4479C38.5068 60.2362 38.1192 60.3217 37.9254 60.0287L37.9214 60.0124C36.7424 59.8211 36.1125 58.9298 35.4746 58.0548L35.4544 58.0304C34.5298 57.1432 34.1745 56.0525 34.3118 54.7867L34.3077 54.8112C34.6428 53.9565 34.441 52.8088 35.5876 52.3855Z" fill="#020303"/>
<path d="M39.5606 60.7815C40.037 60.8304 40.5135 60.8792 40.9899 60.924C42.0074 61.8478 42.5444 64.7171 41.8257 66.0927C41.0182 67.6392 39.5404 67.5212 38.1192 67.3299C36.4718 67.1101 35.2646 65.9583 33.7747 65.0223C34.8123 67.0613 37.5297 68.384 40.0895 67.9566C41.7732 67.6758 43.3681 67.7491 45.0477 67.9688C48.2576 68.388 50.547 66.7235 52.3074 64.1717C52.481 64.074 52.6707 63.9926 52.8282 63.8746C53.8174 63.1217 53.7407 63.1542 54.31 64.3874C54.5603 64.9328 55.0691 65.3112 54.7784 66.0316C54.734 66.1374 55.1902 66.5403 55.4769 66.6665C55.7272 66.7723 56.0987 66.4467 56.0785 66.2799C55.9291 64.831 57.3503 65.0711 57.956 64.4484C58.0933 64.3101 58.283 64.2205 58.4526 64.1106C58.5859 64.2043 58.6383 64.3019 58.602 64.4077C58.5657 64.5176 58.5293 64.5705 58.489 64.5705C56.1229 67.6229 52.9574 69.5032 49.3074 70.3985C44.0666 71.6846 38.8056 71.6602 33.6657 69.7433C31.9618 69.1084 30.375 68.2456 29.0507 66.9595C29.9995 67.0084 30.912 67.0409 31.4409 65.9665C31.8003 65.238 31.3925 64.6682 31.2148 64.0455C30.9887 63.256 31.1744 62.7717 32.0506 63.0484C32.6966 63.2519 33.0964 63.1583 33.6697 62.7554C34.4368 62.2182 35.0586 62.6577 35.1838 63.6223C35.2807 64.3548 35.6118 65.0223 36.3507 65.0548C37.033 65.0874 37.4731 65.1607 37.6952 65.881C37.78 66.1537 38.1757 66.1537 38.4099 66.0397C39.2335 65.6368 40.0814 65.2502 40.8365 64.7415C41.3412 64.3996 41.0585 63.7362 41.1231 63.2194C41.22 62.4461 40.8122 62.4502 40.1783 62.3891C39.1528 62.2955 39.6212 61.3879 39.5606 60.7815Z" fill="#F9F9F9"/>
<path d="M61.275 35.2639C60.9964 36.3098 60.7178 37.3557 60.4392 38.4017C59.6963 39.8668 59.1068 41.564 56.8861 40.9006H56.882C55.6788 40.6889 55.0045 39.8506 54.4716 38.8453C53.9346 37.3191 53.4783 35.7807 53.4702 34.1365C53.4622 31.7028 54.0234 29.4725 55.6667 27.6085C57.9803 26.2573 59.1996 26.7661 60.4594 29.6068L60.4513 29.5905C61.6585 30.2946 60.9237 31.544 61.2548 32.4923C61.17 32.6144 61.1781 32.7243 61.2871 32.826C61.606 33.64 61.606 34.454 61.275 35.2639Z" fill="#050607"/>
<path d="M52.3034 64.176C52.6264 65.0347 52.154 65.6208 51.5847 66.1173C49.2913 68.1278 46.7395 69.2348 43.6507 68.2865C42.8674 68.0464 42.1407 68.0179 41.3331 68.2784C38.2524 69.2674 35.7047 68.1034 33.3952 66.1255C33.1933 65.9545 33.0278 65.7307 32.8784 65.5109C32.5917 65.0958 32.4383 64.6278 32.8743 64.2411C33.2942 63.8626 33.7828 63.9725 34.1179 64.3754C34.8689 65.2789 35.8218 65.9016 36.8675 66.3615C38.1192 66.915 39.3991 67.2284 40.7558 66.6586C41.1272 66.504 41.5754 66.4673 41.5794 65.9423C41.5835 64.4609 41.5794 62.9754 41.5229 61.494C41.5148 61.2986 41.1757 61.1196 40.9899 60.9324C41.9994 60.855 43.0128 61.3271 44.0222 60.9283C43.7315 62.833 43.2308 64.7539 44.3492 66.5731C46.5417 67.0493 48.2496 65.7429 50.1109 64.99C50.8014 64.6074 51.2657 63.594 52.3034 64.176Z" fill="#121213"/>
<path d="M41.531 38.9308C41.9227 37.368 42.5162 35.8622 42.7019 34.2383C43.0128 31.483 42.496 28.8743 41.531 26.3184C42.815 26.4202 43.146 27.6574 43.8163 28.4185C44.3048 28.976 43.8324 29.8429 43.5498 30.5185C43.0653 31.6784 43.1622 32.8871 43.1501 34.0918C43.1501 34.218 43.5861 34.1773 44.0061 33.9371C43.5377 35.3656 44.0343 36.9244 42.823 38.0314C43.0814 39.1017 42.605 39.4762 41.5996 39.3622C41.3493 39.2564 41.3291 39.1099 41.531 38.9308Z" fill="#F8F7F4"/>
<path d="M47.0989 60.0206C47.8014 59.4224 48.5686 58.8852 49.1984 58.2136C51.0719 56.2113 51.0032 54.1682 49.0692 52.235C48.835 52.0031 48.6089 51.767 48.3748 51.535C48.8956 51.4333 48.6049 50.1065 49.5941 50.7129C50.1029 51.6816 50.1675 52.9229 51.3949 53.4519C51.726 53.5944 51.6816 53.7653 51.0073 54.7258C50.757 55.0839 50.8902 55.3647 51.0759 55.5845C51.5443 56.1421 51.6695 56.7729 51.6049 57.4689C51.5604 57.945 51.5726 58.5351 50.8296 58.0386C50.4259 57.7659 50.2644 58.0549 50.0383 58.3113C49.5941 58.8078 48.9562 59.2067 48.7018 59.7846C48.2213 60.8631 47.7045 60.4683 47.0989 60.0206Z" fill="#F5F5F5"/>
<path d="M58.485 64.5747C58.4728 64.42 58.4607 64.2695 58.4486 64.1148C58.4849 62.1654 58.4849 62.1654 59.1996 60.6636C59.9506 60.7653 59.1471 61.563 59.6841 61.7543C60.8429 60.4601 60.9883 59.7723 60.7501 56.6141C61.2911 56.9804 62.1027 56.5327 62.5226 57.2368C61.82 60.0409 60.5441 62.5276 58.485 64.5747Z" fill="#F8F5F2"/>
<path d="M32.5836 47.7907C35.5553 46.6023 37.8164 44.4942 39.8352 42.0807C40.025 42.9802 39.2659 43.6476 39.2901 44.5796C39.3063 45.2023 38.5755 45.8494 37.7235 45.8168C36.9806 45.7884 36.3023 46.1384 35.9914 46.6512C35.1314 48.0715 33.8474 47.8151 32.5836 47.7907Z" fill="#F6F5F4"/>
<path d="M26.2083 15.8344C27.1732 15.1589 27.9404 14.2228 29.0184 13.6978C29.0063 14.8129 28.9902 15.928 28.9781 17.0432C27.9485 16.8804 26.9916 16.5589 26.2083 15.8344Z" fill="#F1F0ED"/>
<path d="M50.1069 64.9859C48.4394 66.4429 46.6669 67.5173 44.3452 66.569C44.854 66.4347 45.3587 66.219 45.8755 66.1906C46.5336 66.1499 46.2914 65.9057 46.259 65.4783C46.2267 65.051 47.002 64.7946 47.1231 65.0429C47.7086 66.2272 48.1729 65.4743 48.7462 65.0836C49.146 64.8109 49.6507 64.9574 50.1069 64.9859Z" fill="#F5F4F4"/>
<path d="M44.3493 66.5648C43.9172 66.6136 43.4852 66.5485 43.4408 66.0438C43.3156 64.5177 43.2672 62.9833 43.461 61.4571C43.4852 61.2577 43.8284 61.099 44.0222 60.9199C44.858 61.0624 45.5202 60.3827 46.3317 60.4193C46.1097 60.9525 45.5807 61.213 45.1487 61.4042C43.8002 61.9984 43.7113 63.1624 44.0263 64.2246C44.2645 65.0223 44.1232 65.8078 44.3493 66.5648Z" fill="#F5F4F4"/>
<path d="M28.1584 49.4065C29.4908 48.4542 31.0412 48.096 32.6038 47.7664C32.1556 48.2507 32.1354 49.2274 31.2351 49.1786C30.1933 49.1257 29.2445 50.2286 28.1584 49.4065Z" fill="#F4F2EF"/>
<path d="M56.886 40.8963C58.6586 40.9167 59.5226 39.6184 60.4392 38.3975C60.5845 39.4149 59.5145 40.1516 59.8053 41.226C59.8699 41.4661 59.4257 41.7347 59.244 41.6208C58.5092 41.1649 57.4796 41.7429 56.886 40.8963Z" fill="#EDEFF1"/>
<path d="M60.4593 29.6068C60.2736 29.3381 60.0959 29.0655 59.9062 28.8091C58.5778 27.0224 57.847 26.8189 55.6707 27.6085C55.8807 26.9288 56.3975 26.7009 57.0395 26.7335C57.8793 26.7742 58.9412 26.3631 59.4984 26.9776C60.0879 27.6288 60.6127 28.5527 60.4593 29.6068Z" fill="#F4F3F3"/>
<path d="M41.531 38.9307C41.5512 39.0732 41.5713 39.2197 41.5956 39.3621C41.2968 40.5505 41.9347 41.861 41.1232 42.9843C40.8123 42.504 40.251 42.386 39.8271 42.0767C40.3964 41.0308 40.9657 39.9807 41.531 38.9307Z" fill="#F6F5F4"/>
<path d="M24.5204 61.7544C23.6201 60.8387 23.1719 59.6951 22.8771 58.4742C23.2001 58.5148 23.5191 58.584 23.8421 58.5881C24.7506 58.6003 25.1099 59.2434 24.7142 59.8498C24.258 60.5457 24.8273 61.1643 24.5204 61.7544Z" fill="#F3EDE8"/>
<path d="M35.8622 20.2747C34.5055 19.5909 33.1489 18.9072 31.7922 18.2194C32.4504 18.1909 33.0964 18.2153 33.7545 18.3293C34.9093 18.5287 35.6684 19.0619 35.8622 20.2747Z" fill="#F8F5F1"/>
<path d="M64.9169 20.6328C66.104 21.2921 67.2507 22.0206 68.2439 22.9607C67.715 23.0584 67.1578 23.5142 66.7298 22.7287C66.5845 22.4642 66.2332 22.1061 66.0152 22.1305C64.7191 22.2729 64.9089 21.402 64.9169 20.6328Z" fill="#EFEFF0"/>
<path d="M34.3077 54.7909C34.4409 55.959 34.8689 57.0253 35.4503 58.0346C35.2162 58.1323 34.7801 58.3317 34.7518 58.177C34.5701 57.0538 33.4356 56.0444 34.3077 54.7909Z" fill="#EEEFEF"/>
<path d="M61.2588 32.4923C60.9923 31.5237 60.7218 30.5592 60.4553 29.5905C61.4849 29.6394 61.7877 30.258 61.6262 31.1818C61.5495 31.6255 61.384 32.0569 61.2588 32.4923Z" fill="#F4F3F3"/>
<path d="M35.4746 58.0589C36.2902 58.7101 37.1058 59.3612 37.9214 60.0165C37.2148 60.627 36.811 59.87 36.2821 59.6543L36.2861 59.6584C35.8904 59.1862 35.2929 58.824 35.4746 58.0589Z" fill="#EEEFEF"/>
<path d="M68.9747 23.4491C69.7338 23.7096 70.4 24.1166 70.9653 24.6945C70.3879 24.6497 69.8065 24.5724 69.2291 24.5764C68.8778 24.5764 68.474 24.5846 68.4539 24.2061C68.4377 23.966 68.7849 23.7014 68.9747 23.4491Z" fill="#EFEFF0"/>
<path d="M54.4716 38.8412C55.1741 39.647 55.9049 40.4202 56.882 40.8964C56.0745 41.5191 55.6708 40.8069 55.2589 40.3429C54.8834 39.9237 53.87 39.7894 54.4716 38.8412Z" fill="#EDEFF1"/>
<path d="M35.5877 52.3856C35.1597 53.1955 34.7317 54.0054 34.3037 54.8153C34.2028 54.3473 34.4127 53.8386 34.3158 53.4275C33.9888 52.056 34.8326 52.3124 35.5877 52.3856Z" fill="#EEEFEF"/>
<path d="M56.9062 14.4709C57.7138 14.8616 58.4082 15.3988 58.9493 16.1233C58.3315 16.2372 57.851 15.7163 57.2535 15.7488L57.2575 15.7529C57.0839 15.3419 56.8013 14.9593 56.9062 14.4709Z" fill="#EAEAEA"/>
<path d="M38.6078 22.3381C37.8609 21.8986 37.1462 21.4143 36.585 20.7346C37.5338 20.5067 38.0022 21.5242 38.8258 21.6218C38.7532 21.8579 38.6805 22.098 38.6078 22.3381Z" fill="#F8F5F1"/>
<path d="M40.6548 24.7718C39.9846 24.202 39.4637 23.5061 39.0115 22.7532C39.702 22.5293 39.8917 23.2171 40.3157 23.4776C40.4933 23.8887 40.7881 24.2753 40.6548 24.7718Z" fill="#F6F2EF"/>
<path d="M23.7776 52.7356C24.2742 51.9664 24.9525 51.4089 25.752 50.9897C25.4047 51.9298 24.8153 52.5891 23.7776 52.7356Z" fill="#F3F1EE"/>
<path d="M61.275 35.2639C61.174 34.4499 61.1781 33.6359 61.2911 32.822C61.5213 32.7813 62.0058 32.6551 61.9291 32.822C61.5697 33.6115 62.0098 34.6046 61.275 35.2639Z" fill="#F4F3F3"/>
<path d="M41.5269 26.3224C41.0626 25.9033 40.7961 25.3701 40.6508 24.7678C41.0949 24.5521 41.531 24.3567 41.5269 25.1585C41.5269 25.5451 41.5269 25.9358 41.5269 26.3224Z" fill="#F6F2EF"/>
<path d="M31.0089 17.8693C30.5648 17.8326 30.1166 17.8123 29.8138 17.4053C30.6819 16.5669 30.6819 16.5669 31.0089 17.8693Z" fill="#F1F0ED"/>
<path d="M49.481 60.6434C49.271 60.6556 49.0813 60.5661 49.0692 60.3626C49.053 60.037 49.3599 59.9963 49.586 59.9312C49.6667 59.9067 49.8646 60.0003 49.8726 60.0614C49.9171 60.3585 49.7233 60.5254 49.481 60.6434Z" fill="#F5F5F5"/>
<path d="M47.8942 51.2256C47.4622 51.1727 47.0544 51.0669 46.7476 50.7209C47.1352 50.8756 47.9871 49.9599 47.8942 51.2256Z" fill="#F5F5F5"/>
<path d="M36.2861 59.6502C36.1892 59.8903 36.0721 60.1182 35.7976 60.1711C35.7612 60.1793 35.632 59.9961 35.6563 59.9473C35.7693 59.6705 36.0398 59.6787 36.2861 59.6502C36.2861 59.6502 36.2861 59.6542 36.2861 59.6502Z" fill="#EEEFEF"/>
<path d="M38.8379 20.6858C38.8621 20.8405 38.7813 20.9422 38.636 20.8893C38.5431 20.8567 38.4866 20.7143 38.4341 20.6125C38.422 20.5881 38.531 20.4701 38.5391 20.4742C38.6441 20.5352 38.741 20.6125 38.8379 20.6858Z" fill="#F8F5F1"/>
<path d="M23.7897 53.1467C24.0198 53.2485 24.25 53.3665 24.3025 53.6433C24.3105 53.6799 24.1288 53.8101 24.0804 53.7857C23.8058 53.6677 23.8139 53.3991 23.7856 53.1508L23.7897 53.1467Z" fill="#F3F1EE"/>
<path d="M24.9565 62.5725C24.6497 62.3771 24.5164 62.0882 24.5043 61.73C24.9404 61.8562 24.9969 62.1899 24.9565 62.5725Z" fill="#F3EDE8"/>
<path d="M68.2237 22.9484C68.5629 22.9809 68.8455 23.1071 68.9787 23.453C68.5992 23.4774 68.2923 23.3961 68.2237 22.9484Z" fill="#EFEFF0"/>
<path d="M37.9294 60.0166C38.2766 60.0085 38.5714 60.1061 38.749 60.4358C38.3776 60.4928 38.0747 60.4073 37.9294 60.0166Z" fill="#EEEFEF"/>
<path d="M41.3736 23.5875C41.3251 23.5712 41.2363 23.5549 41.2363 23.5345C41.2363 23.4776 41.2686 23.4206 41.2888 23.3636C41.3372 23.3799 41.426 23.3962 41.426 23.4165C41.426 23.4735 41.3937 23.5305 41.3736 23.5875Z" fill="#F6F2EF"/>
<path d="M64.1578 20.0995C64.4889 20.1646 64.7837 20.2786 64.9129 20.6327C64.5374 20.6327 64.2346 20.5309 64.1578 20.0995Z" fill="#EFEFF0"/>
<path d="M36.6173 20.7589C36.2862 20.7101 35.9955 20.588 35.838 20.2583C36.2216 20.2298 36.5406 20.299 36.6173 20.7589Z" fill="#F8F5F1"/>
<path d="M29.8179 17.4055C29.4666 17.4339 29.1557 17.3729 28.9619 17.031C29.3334 16.9618 29.6443 17.0229 29.8179 17.4055Z" fill="#F1F0ED"/>
<path d="M27.3266 49.8583C27.5043 49.5043 27.8192 49.4147 28.1785 49.3984C28.0453 49.838 27.7102 49.8909 27.3266 49.8583Z" fill="#F4F2EF"/>
<path d="M49.5941 50.7088C49.6264 50.6518 49.6667 50.546 49.6829 50.55C49.8161 50.5785 49.7838 50.6436 49.5941 50.7088Z" fill="#F5F5F5"/>
<path d="M48.3788 51.5309C48.1365 51.539 47.9508 51.4576 47.8741 51.2053C48.1204 51.1972 48.2819 51.3152 48.3788 51.5309Z" fill="#F5F5F5"/>
<path d="M23.3577 53.1304C23.39 52.8781 23.5313 52.7478 23.7816 52.7356C23.7857 52.874 23.7857 53.0083 23.7897 53.1467L23.7857 53.1508C23.6403 53.1467 23.499 53.1385 23.3577 53.1304Z" fill="#F3F1EE"/>
<path d="M22.9216 53.5209C22.9741 53.2808 23.1194 53.1465 23.3617 53.118C23.3051 53.3459 23.1598 53.4843 22.9216 53.5209Z" fill="#F3F1EE"/>
<path d="M22.4937 53.9037C22.5381 53.6473 22.6996 53.5211 22.9459 53.5008C22.8893 53.7409 22.7399 53.8793 22.4937 53.9037Z" fill="#F3F1EE"/>
<path d="M22.0656 54.2904C22.1221 54.0462 22.2755 53.9119 22.5178 53.8793C22.4774 54.1398 22.328 54.2782 22.0656 54.2904Z" fill="#F3F1EE"/>
<path d="M41.1232 42.9843C41.0909 43.0413 41.0505 43.1471 41.0343 43.143C40.9011 43.1146 40.9334 43.0535 41.1232 42.9843C41.1232 42.9843 41.1272 42.9884 41.1232 42.9843Z" fill="#F6F5F4"/>
<path d="M40.3197 23.4735C40.352 23.4165 40.3924 23.3107 40.4085 23.3148C40.5418 23.3432 40.5095 23.4084 40.3197 23.4735Z" fill="#F6F2EF"/>
<path d="M39.0357 22.7694C38.7854 22.7287 38.6441 22.5782 38.6037 22.3299C38.8661 22.3543 39.0115 22.5049 39.0357 22.7694Z" fill="#F6F2EF"/>
<path d="M57.2535 15.749C57.2252 15.8059 57.1808 15.9118 57.1647 15.9077C57.0314 15.8792 57.0678 15.8181 57.2575 15.753C57.2616 15.753 57.2535 15.749 57.2535 15.749Z" fill="#EAEAEA"/>
<path d="M56.4581 14.1006C56.7004 14.121 56.87 14.2309 56.9184 14.4832C56.6762 14.471 56.5268 14.3326 56.4581 14.1006Z" fill="#EAEAEA"/>
<path d="M31.4814 33.7744C31.5016 35.9354 31.2634 37.7913 30.0319 39.3541C28.429 41.3931 26.4909 41.3768 25.1666 39.1872C23.2447 36.0128 23.3254 32.6755 24.7628 29.3301C24.9203 28.9679 25.1827 28.6382 25.4452 28.333C26.9108 26.6237 28.8812 26.7254 30.1207 28.6301C31.1745 30.254 31.6389 32.065 31.4814 33.7744Z" fill="#030303"/>
<path d="M61.929 16.2862C65.8536 11.5123 70.3717 7.3407 75.1603 3.45401C74.3528 5.45637 72.3703 6.3151 71.0016 7.7721C69.5722 9.29015 68.0945 10.7675 66.5965 12.2164C65.1187 13.6489 63.8267 15.2891 61.929 16.2862Z" fill="#4B2F1A"/>
<path d="M63.3704 54.7624C63.2897 54.4287 63.3583 54.1438 63.6369 53.9281C63.7177 54.2578 63.6571 54.5467 63.3704 54.7624Z" fill="#C49875"/>
</g>
<g clip-path="url(#clip1)">
<path d="M109.779 52.0312C109.988 51.6384 110.293 51.3376 110.669 51.1167L110.705 51.1412C110.95 52.0006 110.651 52.3013 109.815 52.0742L109.779 52.0312Z" fill="#7DB5D9"/>
<path d="M77.2689 103.512C76.6653 103.008 76.0557 102.511 75.4521 102.008C74.2629 100.977 73.0617 99.9577 71.8724 98.9265C70.6115 97.8155 69.2728 96.7659 68.8665 94.9736C67.9641 92.5797 66.8525 90.2717 66.0338 87.841C64.7788 85.9505 66.0219 84.066 66.0458 82.1755C66.2549 81.7888 66.0756 81.1197 66.7868 81.0952C67.5995 82.7709 67.6055 84.6062 67.6713 86.4047C67.7131 87.5157 67.8386 88.4917 68.5258 89.4001C69.745 91.0144 70.0677 93.0155 70.6772 94.8876C71.4242 96.2626 72.9003 96.8702 73.8266 98.0549C74.227 98.3434 74.5378 98.7424 74.9442 99.0186C75.4103 99.3255 75.9481 99.4605 76.4262 99.7245C76.7788 99.9148 77.0836 100.166 77.4063 100.406C77.9382 100.805 76.9641 102.082 78.4342 102.014C79.2888 101.977 79.7131 103.045 80.2928 103.665C80.5378 103.929 80.8485 104.15 81.2071 104.132C83.1852 104.009 84.8824 104.807 86.472 105.863C89.0418 107.569 91.9701 107.409 94.8147 107.581C97.0438 107.716 99.2848 107.569 101.514 107.624C103.127 107.667 104.496 107.078 105.864 106.292C107.102 105.58 108.297 104.709 109.797 104.617C110.335 104.647 110.855 104.733 111.243 105.169C111.56 106.084 110.801 106.225 110.311 106.268C109.611 106.329 109.45 106.771 109.253 107.281C107.203 108.827 104.98 109.539 102.368 109.595C97.8147 109.687 93.2669 109.674 88.7191 109.392C87.8585 109.337 87.0577 109.177 86.3047 108.741C83.2987 106.98 80.1493 105.488 77.2689 103.512Z" fill="#131C27"/>
<path d="M77.2689 103.512C80.1374 105.089 83.0239 106.642 85.8745 108.263C86.9024 108.846 87.9542 109.141 89.1195 109.202C94.1753 109.466 99.2251 109.398 104.281 109.245C106.235 109.184 107.669 107.98 109.217 106.998C109.629 106.342 110.203 106.071 110.956 106.219C111.082 106.348 111.094 106.483 110.992 106.63C107.651 109.269 103.767 109.889 99.6912 109.988C95.9621 110.08 92.2629 109.656 88.5398 109.662C87.8825 109.662 87.249 109.484 86.6813 109.171C83.8486 107.606 81.0279 106.029 78.2131 104.426C77.8366 104.212 77.3825 104.034 77.2689 103.512Z" fill="#698EAC"/>
<path d="M66.5299 74.1838C67.0259 72.4836 67.0916 70.728 67.1334 68.9664C67.3127 68.4078 67.5816 67.9597 68.233 67.9352C68.4721 67.9413 68.6872 68.015 68.8725 68.1684C68.9681 68.2973 69.0099 68.4446 68.986 68.6042C68.8665 68.9971 68.5498 69.2119 68.2629 69.4513C67.7789 71.7347 67.3964 74.0365 67.3187 76.3751C67.3546 76.9644 67.3067 77.5414 67.2052 78.1184C66.9482 79.4504 66.5956 80.7578 66.2251 82.0591C66.1534 82.7036 66.1832 83.3849 65.992 83.9865C65.5677 85.3368 65.6334 86.6259 66.1773 87.9087C66.0757 88.0499 65.986 88.0499 65.8964 87.8965C64.755 86.2085 65.5259 84.4161 65.6812 82.6913C65.9382 79.8616 66.488 77.0503 66.5299 74.1838Z" fill="#2F5067"/>
<path d="M65.9083 87.9087C66.0039 87.9087 66.0936 87.9087 66.1892 87.9209C67.0438 90.2903 68.4004 92.457 68.8665 94.9798C67.6294 92.7332 66.6374 90.3762 65.9083 87.9087Z" fill="#42677B"/>
<path d="M71.8724 98.9328C73.2529 99.7308 74.4959 100.694 75.4521 102.014C74.0418 101.247 72.8167 100.259 71.8724 98.9328Z" fill="#5A809A"/>
<path d="M110.992 106.624C110.986 106.519 110.986 106.409 110.98 106.305C111.368 105.574 111.787 104.911 112.761 105.359C112.588 106.004 111.799 106.022 111.56 106.599C111.368 106.612 111.177 106.618 110.992 106.624Z" fill="#6C9EBF"/>
<path d="M68.239 39.2701C70.5159 38.4292 72.255 39.6691 73.6235 41.1606C76.0558 43.8307 78.2072 46.777 80.5378 49.5515C82.1454 51.4666 83.4482 53.6825 85.5458 55.1433C86.3167 55.9045 87.3386 55.9966 88.3008 56.2421C88.3725 56.371 88.3904 56.5122 88.3546 56.6595C87.4163 57.4329 86.496 57.1198 85.6175 56.5551C84.6912 55.9597 83.8904 55.1925 83.1374 54.4068C83.4422 54.8978 83.6753 55.4134 83.251 55.9904C82.737 56.2175 82.492 55.8247 82.3247 55.4809C80.747 52.197 78.1056 49.7234 76.0558 46.8016C74.9143 45.2671 73.743 43.7632 72.5598 42.2594C72.1235 41.7069 71.6036 41.4062 70.9283 41.3325C70.6713 41.2404 70.4143 41.1115 70.1633 40.9704C69.7211 40.5652 69.2191 40.5775 68.6693 40.6634C68.2151 40.7371 67.5757 40.8721 67.4024 40.3074C67.241 39.7611 67.7968 39.4911 68.239 39.2701Z" fill="#1C2C36"/>
<path d="M68.2391 39.27C68.0598 39.6138 67.6116 39.7672 67.5698 40.3504C68.5797 40.1969 69.6196 39.6015 70.4204 40.6634C69.4104 41.4614 68.6574 42.7013 67.1574 42.6706C66.6554 42.5048 66.4821 42.112 66.4761 41.6087C66.4881 41.5043 66.4941 41.4 66.506 41.3018C66.6853 40.8844 66.7988 40.4424 67.0498 40.0557C67.2471 39.6322 67.6116 39.3867 67.9761 39.1473C68.0718 39.1657 68.1614 39.2025 68.2391 39.27Z" fill="#8F9393"/>
<path d="M127.671 85.214C127.731 86.2637 127.45 87.2458 127.098 88.2094C126.482 89.9343 125.747 91.6038 124.886 93.212C124.725 93.212 124.594 93.1568 124.48 93.034C124.032 92.4632 123.93 91.7573 123.751 91.0882C123.506 90.1675 123.733 89.4985 124.743 89.3082C125.908 89.2345 125.849 88.0805 126.321 87.3992C126.369 87.1905 126.398 86.9818 126.476 86.7854C126.823 85.9874 126.614 85.214 126.386 84.4406C126.339 84.1214 126.357 83.8023 126.351 83.4831C126.434 81.881 126.297 80.3096 125.795 78.7874C125.723 78.2902 125.759 77.7869 125.753 77.2835C125.765 76.6268 125.789 75.97 125.526 75.3439C125.496 75.172 125.478 75.0063 125.472 74.8344C125.538 74.0671 125.245 73.2324 125.849 72.5572C127.062 72.815 126.195 73.9505 126.637 74.5336C127.014 78.0938 127.474 81.6416 127.671 85.214Z" fill="#1B2D37"/>
<path d="M112.761 105.359C112.056 105.458 111.488 105.814 110.98 106.305C110.394 106.532 109.803 106.759 109.217 106.992C109.259 106.556 108.07 105.476 109.785 105.918C110.305 106.053 110.843 105.765 111.273 105.39C111.201 105.316 111.171 105.237 111.177 105.145C111.189 105.052 111.201 105.01 111.219 105.01C111.602 104.586 112.229 104.617 112.623 104.205C112.743 104.132 112.869 104.083 113 104.046C114.392 103.131 115.946 102.413 116.657 100.719C116.765 100.627 116.884 100.559 117.016 100.504C117.865 100.234 118.701 99.9272 119.329 99.2274C119.616 99.0003 119.89 98.7425 120.285 99.0064C120.41 99.2151 120.416 99.4238 120.261 99.6202C118.02 101.891 115.528 103.813 112.761 105.359Z" fill="#142535"/>
<path d="M124.408 94.6545C124.325 94.7649 124.241 94.8754 124.157 94.9798C123.476 95.5813 123.578 96.7783 122.598 97.1527C122.215 97.257 121.845 97.2263 121.498 97.0054C121.229 96.7905 121.115 96.4284 121.295 96.2013C122.269 94.9921 123.016 93.5128 124.683 93.0954L124.791 93.1813C124.976 93.7583 124.862 94.2555 124.408 94.6545Z" fill="#1B2D37"/>
<path d="M122.627 96.8089C123.5 96.5204 123.153 95.1578 124.157 94.9798C123.703 97.2693 121.982 98.4417 120.261 99.6141C120.255 99.3931 120.249 99.1783 120.249 98.9573C120.267 98.8898 120.285 98.8223 120.303 98.7547C120.918 97.9077 121.791 97.3798 122.627 96.8089Z" fill="#2A3B4E"/>
<path d="M126.494 71.6734C126.488 72.588 126.488 73.5026 126.482 74.411C126.309 73.7727 126.129 73.1404 125.956 72.5021C125.293 72.0663 125.46 71.3542 125.49 70.7466C125.538 69.7829 125.263 69.0033 124.582 68.3588C124.516 68.1992 124.492 68.0335 124.498 67.8555C125.311 66.057 126.213 64.2156 126.016 62.2084C125.777 59.6979 126.333 57.3347 126.685 54.904C127.139 51.7428 127.42 48.5203 126.213 45.4144C125.741 44.2052 125.938 42.91 125.765 41.664C125.807 41.2957 125.902 40.952 126.213 40.7187C126.404 40.9213 126.59 41.1238 126.781 41.3203C128.365 46.5254 128.263 51.8042 127.313 57.083C127.163 57.9301 127.014 58.7281 127.104 59.569C127.307 61.4534 127.145 63.2826 126.62 65.1179C126.004 67.2724 125.884 69.476 126.494 71.6734Z" fill="#8DA2AA"/>
<path d="M66.4761 41.6087C66.6793 41.9156 66.8824 42.2225 67.0856 42.5294C67.1036 42.6092 67.1215 42.6829 67.1394 42.7627C67.2948 43.5299 66.9482 44.1745 66.6673 44.8374C66.1653 45.8624 66.0159 46.9428 66.0279 48.0845C66.0577 51.4297 65.8426 54.7935 67.1334 57.9853C67.2291 58.2185 67.2649 58.5009 67.1992 58.7341C66.6314 60.8088 67.1514 62.8651 67.2948 64.9275C67.1812 65.4554 67.3067 66.0692 66.7868 66.4559C66.1295 64.1664 65.5498 61.8646 66.1235 59.4769C66.4462 58.1326 65.7171 56.997 65.4781 55.7878C64.8565 52.7065 65.0538 49.6251 65 46.5438C64.988 45.7642 65.2091 45.0031 65.6215 44.377C66.1414 43.6036 66.237 42.7995 66.1773 41.9217C66.2789 41.8174 66.3805 41.7131 66.4761 41.6087Z" fill="#8AA1AF"/>
<path d="M67.0439 40.0558C67.0499 40.5591 66.8407 40.9581 66.5001 41.3018C66.506 41.0072 66.512 40.7126 66.518 40.4179C66.6973 40.2952 66.8706 40.1785 67.0439 40.0558Z" fill="#8AA1AF"/>
<path d="M88.2828 56.3526C88.8625 56.2359 89.3705 55.7387 90.0279 56.0027C93.7032 55.7265 97.3785 55.929 101.054 55.8983C102.255 55.6651 103.438 55.8308 104.592 56.15C105.703 56.4569 106.6 56.2728 107.448 55.4441C108.99 53.9403 110.645 52.5408 111.643 50.552C112.283 50.0794 112.737 49.4471 113.096 48.7351C114.536 47.5075 115.504 45.8686 116.675 44.4077C117.046 43.6773 117.733 43.2292 118.169 42.5601V42.5663C118.486 41.9831 118.982 41.5473 119.388 41.044C121.169 39.6322 122.974 38.3371 125.37 39.577C125.598 40.3443 125.036 40.4363 124.552 40.51C122.072 40.8844 120.171 42.0936 118.815 44.3156C117.506 46.464 115.653 48.2011 114.285 50.3188C113.795 50.951 113.293 51.5771 112.665 52.0804C111.536 52.5469 111.488 54.1305 110.275 54.5172C109.863 54.6155 109.576 54.8917 109.313 55.2047C107.902 56.9111 106.08 57.5004 103.964 57.2303C99.3446 56.6349 94.737 57.0216 90.1295 57.3224C89.4243 57.3715 88.7191 57.4206 88.2888 56.6595C88.2828 56.549 88.2828 56.4508 88.2828 56.3526Z" fill="#1C2835"/>
<path d="M113.896 50.1837C115.755 47.2435 118.038 44.6287 120.165 41.9033C121.092 40.7187 122.753 40.289 124.289 40.068C124.725 40.0066 125.197 40.1662 125.365 39.5586C125.651 39.9453 125.932 40.332 126.213 40.7187C126.201 41.0133 126.189 41.3141 126.183 41.6087C125.4 41.8972 124.916 40.866 124.139 41.1361C122.287 41.4491 120.829 42.4496 119.729 43.9473C118.247 45.9729 116.586 47.8451 115.08 49.8522C114.727 50.1223 114.398 50.4906 113.896 50.1837Z" fill="#94908F"/>
<path d="M118.169 42.554C117.93 43.3888 117.315 43.9105 116.675 44.4016C116.825 43.4931 117.452 42.9837 118.169 42.554Z" fill="#678DA4"/>
<path d="M119.388 41.0318C119.233 41.75 118.731 42.1796 118.169 42.5541C118.229 41.7561 118.755 41.351 119.388 41.0318Z" fill="#678DA4"/>
<path opacity="0.87" d="M88.2828 56.6473C89.9502 56.9971 91.6235 56.678 93.2669 56.5491C96.5239 56.2851 99.7808 56.1071 103.014 56.6166C105.614 57.0278 107.747 56.3649 109.504 54.3516C109.671 54.1613 109.964 53.3695 110.388 54.1981C110.717 55.082 110.197 55.7695 109.827 56.4508C109.265 57.4698 109.325 58.2432 110.376 58.8693C111.315 59.4278 112.169 60.1276 113.227 60.4652C113.914 60.6923 114.494 61.1158 115.092 61.5087C117.321 63.301 119.932 64.5348 122.066 66.4806C122.849 67.6837 124.361 67.966 125.197 69.1016C124.235 70.4029 125.006 71.7901 125.245 73.0116C125.723 75.4852 125.544 77.9651 125.831 80.4203C126.046 82.2618 126.189 84.1462 126.751 85.9385C126.787 86.092 126.799 86.2454 126.793 86.3989C126.649 87.3135 125.932 87.8659 125.496 88.5963C125.221 89.0567 124.857 89.4189 124.283 89.2961C123.649 89.1549 123.416 88.6086 123.38 88.0316C123.189 85.1099 122.281 82.2065 123.141 79.2479C123.339 78.5666 123.345 77.83 123.195 77.1241C123.112 76.7313 122.872 76.4674 122.466 76.5103C122.096 76.5533 122.036 76.897 122.018 77.2039C121.874 79.696 121.408 82.1758 121.797 84.6802C121.922 85.4904 121.97 86.3007 121.952 87.1232C121.898 89.6767 120.147 91.4874 117.679 91.5242C116.185 91.5488 114.697 91.5365 113.203 91.5304C112.259 91.5242 111.566 91.8434 111.231 92.8132C110.837 93.9549 109.958 94.268 108.87 94.2864C107.699 94.3048 106.677 94.0838 106.199 92.8132C105.87 91.9355 105.231 91.5733 104.353 91.5488C103.223 91.5181 102.159 91.3769 101.651 90.0879C101.424 89.4986 101.054 89.738 100.713 90.0265C99.5298 91.0455 99.1533 92.6046 98.2988 93.8567C97.9342 94.3846 98.741 94.7468 99.2549 94.9186C99.5418 95.0168 99.8346 94.8081 100.127 94.7713C101.215 94.6363 101.544 94.98 101.221 96.0419C101.06 96.5759 101.072 96.9749 101.281 97.4844C101.717 98.577 101.143 99.2276 99.9601 99.0189C99.1055 98.8655 98.4004 98.356 97.7191 97.8404C96.9123 97.2266 96.2071 97.2511 95.4302 97.8895C94.737 98.4665 94.0079 99.0312 93.0637 99.111C92.0597 99.1969 91.1274 99.0619 90.7808 97.8956C90.5239 97.024 91.3605 95.6798 92.2928 95.3483C92.6274 95.2317 92.986 95.2808 93.3207 95.1949C94.5518 94.8818 94.8446 93.9672 94.3247 92.8071C93.3207 90.5544 91.3605 89.3022 89.4422 87.7063C89.8545 89.1242 89.2211 89.7196 88.1035 90.2475C86.8844 90.8245 86.1016 92.0521 85.1573 93.0281C83.8067 94.4214 83.0717 94.4644 81.8167 93.0342C80.8784 91.9662 79.7968 91.426 78.3984 91.5365C78.0518 91.5611 77.7051 91.5426 77.3526 91.5365C74.2868 91.5242 73.3008 90.5912 73.0199 87.4117C72.99 87.1048 73.0199 86.7979 72.9721 86.4971C72.9063 86.0551 72.9601 85.5457 72.4581 85.3063C72.2191 85.1958 71.9322 85.2019 71.7649 85.4045C71.3944 85.8526 71.4661 86.4173 71.7171 86.847C72.7569 88.6209 73.2231 90.493 72.8765 92.5554C72.8227 92.8808 73.0139 93.1386 73.1872 93.3902C73.7788 94.2496 73.8685 95.1028 73.0737 95.8639C72.2131 96.6926 71.4243 96.1585 70.6593 95.6307C70.5338 95.5447 70.4502 95.4097 70.3725 95.2869C69.5657 94.0838 69.6494 92.5493 68.9561 91.291C68.7529 90.9166 68.7888 90.401 68.4243 90.0756C67.1693 88.9585 67.1514 87.5835 67.1872 85.9569C67.2231 84.404 66.6792 82.8081 66.7928 81.1876C66.4163 80.1564 66.6673 79.119 66.7689 78.0817C66.7868 77.4801 66.8107 76.8725 66.8286 76.2709C67.0737 75.1968 67.1992 74.1226 67.7729 73.1098C68.502 71.8208 68.251 70.3538 67.988 68.942C68.2749 68.8254 68.5557 68.7026 68.8426 68.586C69.2908 68.1011 69.7629 67.6407 70.1275 67.0821C72.4402 65.1609 75.0039 63.6018 77.4661 61.9077C79.2709 60.6678 80.998 59.2867 82.9342 58.2432C84.2549 57.7276 82.9761 56.8866 83.1673 56.236C83.1733 56.1685 83.1852 56.0948 83.1972 56.0273C83.3107 55.0145 82.4143 54.3086 82.3366 53.124C84.3506 54.4744 85.486 57.0892 88.2828 56.6473Z" fill="#171717"/>
<path opacity="0.87" d="M70.3665 95.4954C70.8745 95.6919 71.3705 95.9497 71.8964 96.0663C72.5179 96.2013 72.9243 95.8392 73.1753 95.2683C73.3844 94.7896 73.3725 94.3599 72.9004 94.0898C72.1235 93.6479 72.2012 93.0525 72.3506 92.2913C72.6076 90.9532 72.6494 89.6151 71.6992 88.4304C71.2689 87.8964 71.0478 87.2212 70.9462 86.4969C70.8087 85.5762 70.994 84.9869 72.0099 84.9746C72.8645 84.9624 73.5458 85.0667 73.5398 86.2759C73.5338 87.2273 73.5936 88.191 73.8506 89.1793C74.2749 90.8059 75.0458 91.4934 76.6892 91.2969C77.3765 91.2171 78.0936 91.3399 78.7809 91.2724C80.3466 91.1189 81.4462 91.8371 82.3366 93.0402C83.2271 94.2433 83.6036 94.231 84.6374 93.1138C85.486 92.1993 86.3765 91.3154 87.2609 90.4315C87.4701 90.2228 87.7151 89.9159 87.9601 89.8974C89.2809 89.8115 89.6693 89.4064 88.737 88.234C88.504 87.9394 88.6773 87.4422 89.0956 87.2089C89.4601 87.0064 89.8844 87.1169 90.0159 87.436C90.7151 89.1118 92.6693 89.3696 93.6554 90.8182C94.2769 91.7266 94.5398 92.899 95.5199 93.611C95.9502 93.9302 95.5199 94.5195 95.1852 94.7527C94.5518 95.2008 94.3366 96.453 93.2609 96.0233C92.502 95.7164 92.0896 95.9681 91.7729 96.5267C91.492 97.0238 90.9482 97.5149 91.2589 98.1594C91.5996 98.8714 92.3048 98.8039 92.9621 98.8039C94.1334 98.7978 94.8566 97.92 95.6334 97.2755C96.4402 96.6064 97.0199 96.7353 97.749 97.2694C98.4303 97.7666 99.1354 98.2515 99.8705 98.6566C100.307 98.896 100.91 98.9881 101.227 98.5031C101.52 98.0551 100.988 97.785 100.701 97.5701C99.99 97.0361 99.8227 96.631 100.803 96.2443C101.102 96.1215 101.275 95.7901 101.102 95.4954C100.863 95.0719 100.534 95.3052 100.205 95.4647C99.3924 95.8576 97.9103 95.3358 97.5099 94.5502C97.3904 94.3169 97.2769 93.9609 97.4741 93.8566C99.1295 92.9849 99.0577 90.855 100.45 89.8176C100.767 89.5783 101.09 89.3389 101.436 89.1363C101.992 88.811 102.398 89.0442 102.273 89.6335C101.998 90.9471 102.703 91.3092 103.749 91.254C105.345 91.168 106.51 91.4443 107.006 93.3041C107.335 94.5318 108.637 93.8443 109.51 93.967C110.155 94.0591 110.693 93.8627 110.813 93.0709C111.046 91.567 112.008 91.1558 113.406 91.254C114.602 91.3338 115.845 91.0698 116.992 91.3154C118.952 91.7328 120.201 90.6279 121.205 89.4003C122.09 88.3138 121.731 86.7608 121.48 85.4657C120.936 82.6421 121.683 79.88 121.635 77.0871C121.623 76.4856 122.054 76.1603 122.645 76.2585C123.374 76.3812 123.942 76.6943 124.002 77.5904C124.098 79.0084 123.757 80.3772 123.578 81.7583C123.416 83.0104 123.225 84.1828 123.835 85.4105C124.259 86.2698 123.942 87.2887 123.996 88.2401C124.02 88.6453 123.99 89.1118 124.432 89.2775C124.94 89.4678 125.09 88.9767 125.311 88.6637C125.771 88.0253 126.231 87.3869 126.691 86.7486C127.241 86.724 127.187 87.0064 126.99 87.3501C126.984 87.5404 126.978 87.7368 126.972 87.9271C126.679 88.1788 126.231 88.3445 126.261 88.8171C126.315 89.5905 125.729 89.6703 125.233 89.8606C123.709 89.9711 122.508 90.9839 121.086 91.3952C120.512 91.5609 120.404 92.2975 120.476 92.8253C120.667 94.231 120.398 95.7471 121.396 96.9747C121.635 97.9568 120.936 98.4909 120.404 99.1047L120.41 99.1108C120.201 99.3011 119.992 99.4975 119.789 99.6878C118.851 100.001 117.894 100.271 117.106 100.909C116.245 102.597 114.213 102.996 113.197 104.512C113.102 104.512 113.006 104.519 112.91 104.525C112.462 104.832 111.96 104.954 111.428 104.997C110.938 105.224 110.388 104.74 109.916 105.126C108.464 105.163 107.502 106.274 106.283 106.814C105.112 107.33 104.036 108.122 102.703 108.128C98.4183 108.14 94.1275 108.306 89.8665 107.796C88.0079 107.575 86.3048 106.605 84.8048 105.525C83.8605 104.844 82.7012 104.647 81.9303 104.764C80.5617 104.967 80.0717 104.408 79.4801 103.475C79.0737 102.837 78.6374 102.125 77.5976 102.585C76.9581 102.867 76.6534 102.241 76.3068 101.818C76.4502 101.228 77.2091 101.769 77.3645 101.161C76.737 100.117 75.3087 100.283 74.5558 99.3993C74.484 98.8653 74.741 98.0059 73.6534 98.497C72.506 97.5701 71.239 96.7538 70.3665 95.4954Z" fill="#191919"/>
<path d="M73.6534 98.3374C73.4562 97.8832 73.5219 97.5517 74.0538 97.4535C74.4064 97.3922 74.8068 97.4351 74.9502 97.785C75.1653 98.3313 75.2968 98.939 74.5558 99.252C74.1554 99.0494 73.8506 98.7425 73.6534 98.3374Z" fill="#171717"/>
<path d="M66.7629 78.0631C66.7689 79.1005 66.7808 80.1317 66.7868 81.169C66.6015 81.4698 66.4163 81.7706 66.231 82.0775C66.1892 80.7025 66.4163 79.3767 66.7629 78.0631Z" fill="#16232F"/>
<path d="M109.785 105.083C110.215 104.623 110.771 104.825 111.279 104.776C111.47 104.881 111.47 104.979 111.279 105.083C111.279 105.188 111.279 105.286 111.273 105.39C110.777 105.286 110.281 105.181 109.785 105.083Z" fill="#131D28"/>
<path d="M66.7808 66.4497C66.7808 65.9403 66.7808 65.4247 66.7868 64.9152C67.8027 65.3756 68.1852 66.4497 68.8605 67.2354C69.225 67.6651 68.747 68.0334 68.2928 68.193C67.8087 68.2912 67.4501 68.5919 67.1334 68.9602C66.996 68.1316 67.2649 67.2354 66.7808 66.4497Z" fill="#8D9DA4"/>
<path d="M68.2929 68.1992C68.496 67.8432 69.0578 67.4319 68.3407 67.125C67.3486 66.7015 67.1156 65.793 66.7869 64.9153C66.6913 62.8038 66.4462 60.7291 66.6614 58.5746C66.7988 57.1751 65.8905 55.6958 65.7351 54.1796C65.4602 51.5464 65.5678 48.9131 65.6694 46.286C65.6933 45.6231 65.9263 44.8804 66.4881 44.377C67.0737 44.3034 67.2172 44.7208 67.3367 45.1688C66.4642 47.1146 66.4701 49.1771 66.4283 51.2763C66.3925 53.173 67.3785 54.7812 67.4682 56.6533C67.5518 58.3843 67.6654 60.1152 67.6415 61.8523C67.6295 62.8835 67.8566 63.7061 68.6156 64.4426C69.4761 65.2774 69.9423 66.3455 69.751 67.6222C69.5239 67.9721 69.3984 68.4815 68.8128 68.2974C68.6454 68.2606 68.4662 68.2299 68.2929 68.1992Z" fill="#9B9B98"/>
<path d="M67.9821 68.9172C69.3446 70.6666 69.2191 71.2681 67.4621 73.9628C67.0737 74.5582 67.2171 75.5341 66.8227 76.2523C67.0617 73.9873 67.3008 71.7223 67.5398 69.4512C67.5697 69.1811 67.7072 68.9847 67.9821 68.9172Z" fill="#16232F"/>
<path d="M68.8187 68.2911C69.0398 68.0886 69.255 67.8922 69.4761 67.6896C69.7271 67.4441 69.9482 67.0942 70.3665 67.4072C70.1036 68.1377 69.5478 68.463 68.8367 68.5612C68.8486 68.4691 68.8426 68.3832 68.8187 68.2911Z" fill="#16232F"/>
<path d="M70.3665 67.4135C70.0677 67.5056 69.7749 67.6038 69.4761 67.6959C69.1593 66.3148 68.9741 64.8785 67.4442 64.2094C66.8824 63.9639 67.0916 63.3132 67.0916 62.8283C67.0797 60.3485 67.2171 57.8441 66.751 55.4012C66.4462 53.793 65.7589 52.3137 65.8306 50.5704C65.9143 48.5939 65.8306 46.6604 67.0737 44.9908C66.6912 44.1745 66.8824 43.3581 67.0737 42.5417L67.0797 42.5295C68.3645 42.241 69.0219 40.7555 70.4143 40.6635C70.5996 40.7678 70.7848 40.8783 70.9701 40.9826C71.3048 41.3939 72.1115 41.4369 71.9322 42.2594C71.5677 42.7136 71.0896 42.7381 70.5816 42.6092C70.2291 42.5172 69.8824 42.4558 69.7032 42.8977C69.6135 43.1126 69.7032 43.2906 69.8585 43.4379C70.1394 43.7141 70.4621 43.7509 70.8207 43.6343C71.2988 43.4747 71.6693 43.1064 72.1534 42.9714C72.4044 42.8977 72.6434 42.9223 72.8765 43.0451C73.8805 44.3648 74.6155 45.9668 76.3366 46.5315C78.8645 49.5085 81.3984 52.4794 83.2032 56.015L83.1852 56.0518C83.2988 56.8682 84.6494 57.6661 83.2151 58.5071C79.2769 61.1956 75.3326 63.8779 71.4004 66.5726C71.0358 66.8181 70.7071 67.1312 70.3665 67.4135Z" fill="#A4988C"/>
<path d="M71.8546 42.2348C71.6932 41.7192 70.9642 41.6271 70.9701 40.9888C71.7351 40.9028 72.3745 41.2281 72.8167 41.799C74.0239 43.3458 75.1653 44.9479 76.3307 46.5254C73.9821 46.6911 73.3785 44.8988 72.745 43.1494C72.4283 42.867 71.6335 43.0757 71.8546 42.2348Z" fill="#9C9992"/>
<path d="M101.054 55.8983C97.3785 56.1806 93.7032 55.9842 90.0279 56.0026C93.6972 55.6036 97.3785 55.7939 101.054 55.8983Z" fill="#1C2C36"/>
<path d="M121.133 96.8028C120.159 96.2442 119.568 95.655 119.992 94.2739C120.225 93.5005 119.52 92.5306 119.902 91.5485C120.076 91.1127 120.123 90.5971 120.613 90.5173C122.113 90.2902 123.422 89.2529 125.012 89.437C125.09 89.5045 125.113 89.572 125.09 89.6396C125.066 89.7071 125.042 89.7439 125.018 89.7439C124.199 89.7316 123.817 89.9526 124.205 90.9102C124.48 91.5915 124.534 92.3588 124.683 93.0892C123.739 94.0038 123.01 95.1332 121.904 95.8821C121.606 96.0846 121.456 96.4161 121.438 96.7905C121.337 96.901 121.235 96.8949 121.133 96.8028Z" fill="#272729"/>
<path d="M126.506 86.0734C126.016 85.6315 125.884 85.0545 125.914 84.4223C125.95 83.655 125.813 82.9123 125.633 82.1696C125.305 80.7516 125.132 79.3644 125.239 77.8544C125.424 75.301 125.078 72.7352 123.882 70.4027C123.584 69.8196 123.614 69.5618 124.277 69.525C124.665 69.5066 124.94 69.3592 125.012 68.9296C126.064 69.4513 125.622 70.3352 125.424 71.0718C125.323 71.4708 125.09 71.8084 125.155 72.0232C125.09 71.9188 125.102 71.6304 125.502 71.2989C126.112 72.5388 125.448 73.8769 125.902 75.0554C125.902 75.1537 125.902 75.258 125.908 75.3562C126.279 75.9271 125.843 76.6329 126.189 77.2099C126.195 77.7133 126.201 78.2227 126.207 78.7261C126.614 80.3404 126.369 82.0345 126.793 83.6427C126.799 83.9435 126.805 84.2504 126.805 84.5512C127.02 85.1159 127.133 85.6683 126.506 86.0734Z" fill="#191919"/>
<path d="M125.908 75.0431C125.281 74.0119 125.831 72.8456 125.532 71.7653C125.119 71.8328 125.472 72.3239 125.114 72.508C124.713 71.3111 125.878 70.0589 125.018 68.9172C123.667 68.6042 122.568 67.8921 121.749 66.732C121.904 66.5663 122.096 66.5172 122.311 66.5417C122.514 66.5786 122.699 66.6645 122.872 66.7811C123.5 67.2538 124.211 67.6282 124.731 68.2482C125.454 68.4016 125.831 68.819 125.837 69.6231C125.843 70.5807 125.92 71.5443 125.962 72.5019C125.938 73.349 125.92 74.196 125.908 75.0431Z" fill="#142631"/>
<path d="M126.793 83.6304C125.938 82.0713 126.273 80.371 126.207 78.7137C126.948 80.2851 126.799 81.9669 126.793 83.6304Z" fill="#142631"/>
<path d="M125.018 89.7501C125.018 89.6458 125.018 89.5415 125.012 89.4432C125.406 89.0995 125.98 88.9461 125.944 88.2156C125.914 87.6693 126.38 87.6263 126.787 87.5772C126.159 88.2709 126.386 89.701 125.018 89.7501Z" fill="#142631"/>
<path d="M126.506 86.0733C126.781 85.5946 126.829 85.0789 126.805 84.5388C127.253 85.3552 127.253 86.1777 126.805 86.9941C126.703 86.7915 126.608 86.5828 126.506 86.3802C126.512 86.2759 126.506 86.1715 126.506 86.0733Z" fill="#142631"/>
<path d="M126.189 77.1976C125.729 76.639 125.968 75.9639 125.908 75.3439C126.398 75.8963 126.141 76.5715 126.189 77.1976Z" fill="#142631"/>
<path d="M113.06 104.457C112.886 104.095 112.922 103.77 113.251 103.53C114.482 102.61 115.719 101.701 116.956 100.793C116.502 102.959 114.548 103.45 113.06 104.457Z" fill="#131D28"/>
<path d="M116.95 100.786C117.494 99.5834 118.456 99.3194 119.627 99.5466C118.851 100.228 118.098 100.946 116.95 100.786Z" fill="#131D28"/>
<path d="M111.279 105.083C111.279 104.979 111.279 104.874 111.279 104.776C111.775 104.672 112.277 104.574 112.773 104.469C112.456 105.145 111.858 105.083 111.279 105.083Z" fill="#131C27"/>
<path d="M121.133 96.8028C121.235 96.8028 121.337 96.8028 121.438 96.8028C121.839 96.8028 122.233 96.809 122.633 96.809C122.149 97.8893 121.247 98.4847 120.243 98.9512C120.339 98.1471 120.841 97.521 121.133 96.8028Z" fill="#131D28"/>
<path d="M124.122 40.6941C125.018 40.5099 125.568 41.1422 126.183 41.6148C127.008 46.4762 128.394 51.4297 126.954 56.2482C126.141 58.9551 127.008 61.5393 126.309 64.1296C125.938 65.5168 125.508 66.8058 124.743 67.9905C123.339 67.5853 123.339 67.5731 124.355 66.2227C124.976 65.7439 124.797 64.9459 125.06 64.326C125.526 62.8283 125.98 61.3674 125.55 59.7285C125.311 58.8262 125.592 57.8932 125.855 56.9295C126.775 53.5904 127.211 50.1591 126.106 46.7525C125.699 45.5064 125.622 44.1621 125.036 42.9775C124.803 42.1918 123.894 41.6823 124.122 40.6941Z" fill="#959C9D"/>
<path d="M124.713 66.4497C124.743 66.9653 123.165 67.5055 124.737 67.9904C124.731 68.0763 124.731 68.1623 124.725 68.2482C123.781 68.2973 123.267 67.53 122.586 67.0758C123.141 66.3208 123.781 65.8482 124.713 66.4497Z" fill="#A09A8E"/>
<path d="M67.0797 42.5418C67.0797 43.3582 67.0797 44.1746 67.0797 44.9909C66.8825 44.7884 66.6853 44.5797 66.4881 44.3771C66.6793 43.7633 66.6674 43.082 67.0797 42.5418Z" fill="#8F9393"/>
<path d="M113.137 60.8887C111.673 60.4958 110.532 59.5137 109.355 58.6176C108.877 58.2554 108.631 57.7644 109.062 57.0523C109.6 56.1562 109.952 55.1495 110.388 54.1858C111.183 53.4615 111.189 52.019 112.48 51.7367C112.653 51.9884 112.546 52.2339 112.456 52.4794C112.343 52.7127 112.217 52.9336 112.086 53.1546C111.769 53.5536 111.542 54.0078 111.351 54.4804C111.303 54.6032 111.243 54.7198 111.171 54.8303C110.687 55.6958 110.365 56.6595 109.761 57.4575C109.791 57.5557 109.193 57.4881 109.695 57.7214C109.821 57.7766 109.928 57.8626 110.036 57.9485C110.4 58.3168 110.861 58.5439 111.285 58.8263C111.966 59.4646 113.108 59.6488 113.137 60.8887Z" fill="#363634"/>
<path d="M112.193 52.4241C112.289 52.197 112.385 51.9699 112.48 51.7428C112.952 51.221 113.424 50.6993 113.896 50.1837C114.219 49.9811 114.536 49.7847 114.859 49.5821C115.665 49.8215 115.187 50.3985 115.175 50.8527C115.008 51.2885 114.763 51.6814 114.458 52.0251C114.022 52.4241 113.657 52.8967 113.179 53.2405C112.875 53.4614 112.528 53.842 112.157 53.4983C111.841 53.2098 111.954 52.7801 112.193 52.4241Z" fill="#9D9796"/>
<path d="M114.859 50.816C114.757 50.4047 115.127 49.9935 114.859 49.5884C116.55 47.1024 118.378 44.7208 120.398 42.5234C121.331 41.5106 122.574 40.6451 124.121 40.7003C124.408 41.3878 125.269 41.6886 125.317 42.5418C125.633 43.8062 125.633 45.1321 126.076 46.3658C125.221 46.7894 124.874 47.5382 124.821 48.4712C124.695 48.6554 124.528 48.7781 124.301 48.8027C123.488 48.6185 123.434 47.9311 123.339 47.2681C123.273 46.8201 123.303 46.3413 123.046 45.9423C122.849 45.6354 122.592 45.3715 122.197 45.439C121.731 45.5126 121.737 45.9116 121.725 46.2676C121.701 46.9244 121.904 47.5873 121.659 48.238C121.127 49.2999 121.677 50.5705 121.062 51.614C120.201 51.5587 120.201 51.5587 120.058 50.2022C119.616 50.9203 119.042 51.3377 118.193 51.2211C117.673 50.6012 118.163 50.2022 118.51 49.8032C118.904 49.3428 119.257 48.8641 119.49 48.2994C119.621 47.974 119.813 47.6057 119.472 47.3234C119.102 47.0165 118.695 47.1945 118.402 47.483C117.655 48.2196 116.968 49.0052 116.347 49.8646C115.988 50.3495 115.689 51.0431 114.859 50.816Z" fill="#A5978C"/>
<path d="M114.859 50.8159C116.042 49.9381 116.592 48.5141 117.62 47.4706C118.349 46.734 119 46.1877 119.902 46.7524C120.841 47.3417 119.956 48.0414 119.843 48.7228C119.657 49.8768 118.301 50.0302 118.145 51.1167C118.396 51.3315 118.468 51.6384 118.42 51.9392C118.181 53.5842 118.964 54.7259 120.159 55.751C120.673 54.4374 119.813 52.9029 120.829 51.7305C120.829 50.8957 120.829 50.0548 120.835 49.22C120.841 48.7289 120.769 48.1949 121.426 48.0537C122.066 47.845 122.4 48.1949 122.633 48.7412C122.896 51.5647 122.753 54.3883 122.735 57.2118C120.297 60.0293 121.283 63.0308 122.299 66.0324C122.394 66.3209 122.55 66.5909 122.299 66.8733C122.114 66.8242 121.928 66.7751 121.737 66.7321C119.46 65.0994 117.177 63.4728 114.9 61.84C116.628 60.1152 116.639 57.8072 114.805 55.4809C113.867 54.2901 113.526 53.1238 114.255 51.7305C114.458 51.4297 114.661 51.1228 114.859 50.8159Z" fill="#A4998A"/>
<path d="M96.5059 86.0548C98.0836 86.0732 99.6254 86.7668 101.287 86.7239C102.231 86.6993 101.855 87.2763 101.49 87.6876C100.564 88.7188 99.2191 89.3755 98.7051 90.7812C98.4003 91.6098 97.9521 92.2912 97.3306 92.905C96.6613 93.5556 96.1234 93.5065 95.6155 92.7699C95.3585 92.3955 95.0119 92.0211 94.9342 91.6037C94.6175 89.9771 93.231 89.3571 92.2031 88.4119C91.8505 88.0865 91.2171 87.9822 91.3665 87.3254C91.5099 86.6809 92.0956 86.5029 92.6274 86.4354C93.8944 86.2635 95.1732 86.1776 96.5059 86.0548Z" fill="#070808"/>
<path d="M114.261 51.7367C113.92 53.6518 115.068 55.0022 116.012 56.3894C117.082 57.9669 116.592 59.5874 116.335 61.2201C116.191 62.1347 115.438 61.7726 114.9 61.8462C114.309 61.527 113.723 61.214 113.131 60.8948C112.6 60.06 111.584 59.8329 110.974 59.1025C110.663 58.6053 110.167 58.415 109.665 58.2247C109.414 58.0651 109.068 57.9546 109.343 57.5372C109.863 57.2426 110.078 56.0641 111.04 57.0216C111.339 57.3224 112.11 57.4083 112.343 56.8559C112.594 56.2728 112.199 55.751 111.584 55.6283C110.873 55.4871 110.616 55.1863 110.968 54.4866L110.962 54.4927C111.357 54.0324 111.524 53.437 111.859 52.9336C111.882 52.7065 111.966 52.5162 112.187 52.4303C112.301 52.7249 111.805 53.7746 112.815 52.952C113.305 52.5531 113.61 51.927 114.261 51.7367Z" fill="#A5978C"/>
<path d="M115.755 82.3967C114.787 81.5067 114.506 78.9041 115.205 77.2652C115.301 77.0381 115.373 76.7987 115.456 76.5716C116.514 76.4304 117.339 77.0565 117.661 78.3578C117.865 79.1926 117.954 80.0826 117.859 80.9297C117.721 82.1634 116.89 82.5563 115.755 82.3967Z" fill="#19151E"/>
<path d="M115.755 82.3966C117.01 82.1634 117.602 81.4636 117.566 80.0764C117.512 77.9465 117.135 77.2099 115.456 76.5715C115.42 76.5347 115.39 76.4917 115.349 76.4672C114.787 76.0927 114.787 77.5843 114.261 76.8784C113.741 76.1848 114.769 75.9638 114.96 75.4237C115.181 74.7914 115.731 75.3316 116.048 75.5587C117.363 76.504 117.876 77.9465 118.074 79.4749C118.181 80.3219 118.355 81.0339 118.994 81.6171C119.544 82.1204 119.58 82.8815 119.765 83.5567C119.896 84.0355 119.992 84.5265 119.418 84.6861C118.97 84.8089 118.612 84.4038 118.558 84.0232C118.319 82.4027 117.59 82.059 116.221 82.8815C115.803 83.1393 115.57 82.9122 115.755 82.3966Z" fill="#191919"/>
<path d="M78.3925 76.8662C77.8307 78.1797 78.3088 79.389 78.5956 80.6105C78.7331 81.2059 78.9662 81.967 78.255 82.2002C77.5678 82.4273 77.4662 81.6048 77.2749 81.1199C76.8984 80.1869 76.5877 79.2294 76.0438 78.37C75.7331 77.8851 75.6195 77.3511 75.996 76.8048C76.4263 76.1848 77.0359 75.8166 77.7411 75.792C78.4462 75.7675 78.3984 76.3813 78.3925 76.8662Z" fill="#16151E"/>
<path d="M105.894 76.2216C105.954 75.6876 106.319 75.5096 106.749 75.2886C108.793 74.239 111.847 74.7362 113.143 76.3689C114.428 77.9955 114.201 80.6718 112.612 82.6605C110.849 84.858 108.488 85.214 106.558 83.5628C106.779 83.305 107.072 83.2314 107.388 83.2252C109.038 83.4646 110.633 83.5506 111.876 82.0713C112.892 80.8621 113.191 79.481 112.755 77.9771C112.259 76.2585 110.849 75.5464 108.596 75.7613C108.141 75.8042 107.741 75.9884 107.317 76.1173C106.845 76.105 106.396 76.5899 105.894 76.2216Z" fill="#191919"/>
<path d="M86.8306 76.5469C87.0099 76.6635 87.1832 76.774 87.3625 76.8906C87.8227 77.5167 88.2171 78.1674 88.1334 79.0022C88.0796 79.4257 88.2589 79.8799 87.978 80.2728C87.4043 80.4508 87.2848 79.8554 86.9382 79.6405C86.6812 79.573 86.5139 79.7265 86.3466 79.8861C86.1792 80.193 85.8804 80.4631 85.994 80.8498C86.233 81.6784 85.8804 82.1326 85.1215 82.2677C84.243 82.4211 84.0278 81.8134 83.9561 81.083C83.992 80.193 84.4282 79.4012 84.5059 78.5234C84.8884 76.6267 85.3545 76.2277 86.8306 76.5469Z" fill="#E1CF90"/>
<path d="M87.1235 82.4887C85.3306 84.4898 82.743 84.4652 81.0996 82.4335C80.6992 81.6662 79.7669 81.1261 80.0956 80.0335C81.0458 79.5915 81.2549 80.5552 81.6912 80.9788C83.3047 82.5563 84.5298 82.722 86.2689 81.4882C86.49 81.255 86.7589 81.169 87.0697 81.212C87.2131 81.255 87.3446 81.3286 87.4522 81.433C87.5478 81.8504 87.2012 82.1266 87.1235 82.4887Z" fill="#E1CF90"/>
<path d="M86.8307 76.547C85.4741 76.6329 84.9661 77.4738 84.9721 78.7628C84.3506 78.7812 84.1892 78.2595 83.9442 77.836C83.3765 76.995 82.4263 77.6273 81.739 77.2406C81.5478 77.0687 81.4821 76.8477 81.488 76.5961C82.4621 74.9879 83.9442 75.4973 85.3366 75.614C86.0179 75.6324 86.5259 75.9147 86.8307 76.547Z" fill="#DCCC83"/>
<path d="M85.3426 75.6139C84.0637 75.8288 82.4741 75.0799 81.7151 76.8722C80.8306 77.6948 80.9143 79.0145 80.2211 79.9352C79.9163 80.9848 81.0517 81.5065 81.0996 82.4273C79.6653 81.1812 79.2231 78.4436 80.2091 76.9336C81.1952 75.4175 83.735 74.7669 85.3426 75.6139Z" fill="#DDC88A"/>
<path d="M105.333 82.0836C104.783 82.2738 104.657 80.2912 103.761 81.8012C103.552 82.1572 103.247 81.3777 102.996 81.1199C102.596 80.7025 102.661 80.2974 103.08 79.9413C103.295 79.7572 103.456 79.2723 103.827 79.8861C104.269 80.6227 104.06 79.7879 104.108 79.7081C104.645 78.8303 104.418 77.6027 105.309 76.8784C105.476 77.038 105.578 77.2344 105.608 77.4677C105.625 77.9219 105.41 78.3332 105.404 78.7812C104.896 79.7142 105.41 80.5859 105.572 81.482C105.572 81.7153 105.506 81.924 105.333 82.0836Z" fill="#191919"/>
<path d="M90.0816 81.1321C90.1414 80.7331 89.992 79.9045 90.6852 79.9229C91.6295 79.9413 91.9342 80.8559 92.0298 81.6784C92.1075 82.3291 91.7012 82.7158 91.0199 82.6789C90.1115 82.6298 90.0637 81.9669 90.0816 81.1321Z" fill="#171427"/>
<path d="M103.139 85.1525C102.386 85.1525 101.717 85.085 101.771 84.1275C101.795 83.6855 101.968 83.3847 102.554 83.5505C103.295 83.7653 104.496 83.2252 104.526 84.5449C104.544 85.3858 103.618 85.0605 103.139 85.1525Z" fill="#191919"/>
<path d="M97.7848 97.5271C97.8028 99.6816 97.5398 100.67 97.253 100.025C96.7091 98.8039 95.7171 100.836 95.5916 96.901C95.5378 95.1885 95.8545 93.4575 96.4163 93.5373C97.1573 93.6417 97.4502 96.054 97.7848 97.5271Z" fill="#070808"/>
<path d="M102.685 76.9951C102.171 76.9521 101.819 76.7005 101.867 76.2585C101.938 75.6201 102.422 75.3439 103.026 75.3869C103.546 75.4299 103.815 75.7797 103.767 76.3076C103.689 77.0442 103.008 76.7618 102.685 76.9951Z" fill="#1A1525"/>
<path d="M113.233 83.0348C113.789 83.5688 113.657 84.2072 114.273 84.2318C114.446 84.2379 114.775 84.0231 114.823 84.3852C114.841 84.5448 114.697 84.7658 114.572 84.8947C114.303 85.1586 114.034 85.0174 113.801 84.8026C113.37 84.4036 113.287 83.888 113.233 83.0348Z" fill="#191919"/>
<path d="M87.1235 82.4887C87.2071 82.1511 87.2968 81.8135 87.3804 81.4759C87.1474 80.9787 87.243 80.5613 87.6912 80.2483C88.0737 79.8861 87.9362 79.3828 88.0259 78.9409C88.1454 78.8856 88.2231 78.9163 88.2649 79.0452C88.3366 80.3526 88.241 81.5987 87.1235 82.4887Z" fill="#DACD7F"/>
<path d="M114.661 82.5254C114.864 82.9612 115.104 83.4338 115.295 83.931C115.307 83.9678 115.014 84.1274 114.859 84.2318C114.649 83.7775 114.189 83.4584 114.165 82.9121C114.159 82.6911 114.309 82.5561 114.661 82.5254Z" fill="#191919"/>
<path d="M83.2152 58.501C84.2012 57.6662 83.0538 56.8683 83.1853 56.0457C83.6992 56.813 84.751 57.4637 83.7052 58.5624C83.5438 58.7281 83.3526 58.7097 83.2152 58.501Z" fill="#4B453C"/>
<path d="M105.333 82.0836C105.327 81.8749 105.327 81.6662 105.321 81.4575C105.363 80.8007 105.082 80.1685 105.189 79.5056C105.255 79.168 105.327 78.8304 105.655 78.6462C106.904 79.4442 106.402 80.6227 106.283 81.7153C106.127 82.0406 105.948 82.3291 105.524 82.2187C105.47 82.1634 105.404 82.1204 105.333 82.0836Z" fill="#E2CF87"/>
<path d="M125.203 85.8645C124.779 85.0297 124.51 84.3852 125.203 83.5013C125.203 84.3239 125.203 84.9622 125.203 85.8645Z" fill="#191919"/>
<path d="M105.53 82.2185C105.655 82.1633 105.781 82.1019 105.912 82.0466C106.271 82.0528 106.534 82.2553 106.809 82.4579C107.113 82.7894 107.651 83.0042 107.4 83.6303C107.119 83.6057 106.845 83.5873 106.564 83.5628L106.546 83.5812C106.103 83.4216 105.835 83.0717 105.607 82.6789C105.578 82.5316 105.554 82.372 105.53 82.2185Z" fill="#9E975D"/>
<path d="M105.333 77.5413C105.327 77.3204 105.321 77.0994 105.309 76.8784C105.506 76.6574 105.703 76.4426 105.894 76.2216C106.319 76.0682 106.582 75.5219 107.137 75.6876C107.012 76.7986 106.438 77.437 105.333 77.5413Z" fill="#645835"/>
<path d="M88.2649 79.0453C88.1813 79.0268 88.0976 78.99 88.0259 78.9409C88.0976 78.1552 87.506 77.6028 87.3566 76.8908C88.1992 77.3696 88.4084 78.1307 88.2649 79.0453Z" fill="#675D3D"/>
<path d="M106.02 84.5019C106.008 84.8211 105.882 85.0052 105.667 84.907C105.524 84.8456 105.404 84.6185 105.368 84.4467C105.327 84.2441 105.458 84.0231 105.691 84.1213C105.847 84.1827 105.936 84.4037 106.02 84.5019Z" fill="#191919"/>
<path d="M105.602 82.685C106.032 82.8569 106.295 83.2067 106.54 83.5873C105.942 83.5996 105.655 83.2681 105.602 82.685Z" fill="#191919"/>
<path d="M81.7929 55.8676C81.6972 56.0088 81.6195 56.2113 81.4701 56.3218C81.261 56.4875 81.1235 56.3034 81.01 56.1254C80.5199 55.3581 79.9044 55.0512 78.9901 55.3704C78.5478 55.5239 78.0578 55.309 77.8247 54.8793C77.251 53.8113 77.2032 52.4057 75.9183 51.7857C75.8765 51.7673 75.9423 51.4113 76.0199 51.2394C76.1215 51.0123 76.3128 51.0062 76.504 51.1658C77.2689 51.8103 77.8128 53.0133 79.1514 52.2584C79.2112 52.2277 79.5219 52.6819 79.7251 52.9029C80.4781 53.707 80.502 55.088 81.7032 55.5484C81.757 55.573 81.757 55.7325 81.7929 55.8676Z" fill="#A49184"/>
<path d="M71.8546 42.2348C72.1534 42.5417 72.4522 42.8424 72.751 43.1493C72.1474 43.1678 71.8426 43.7018 71.3944 43.9903C70.6295 44.4813 69.9243 44.5182 69.3088 43.7447C69.0279 43.3949 68.3825 43.0573 69.1115 42.5785C69.5657 42.2839 69.8048 41.0378 70.6414 42.0568C71.0478 42.5478 71.4661 42.0997 71.8546 42.2348Z" fill="#A99482"/>
<path d="M122.305 66.8794C120.888 64.4118 120.404 61.8277 121.05 58.9795C121.247 58.1079 121.683 57.8194 122.329 57.5555C123.321 56.9785 123.548 57.7151 123.679 58.4394C123.853 59.3785 123.793 60.3422 123.691 61.2875C123.619 61.9504 123.811 62.5826 123.847 63.2272C123.841 63.3806 123.811 63.5218 123.757 63.6691C123.578 63.9515 123.327 64.2031 123.781 64.5162C124.133 64.7617 124.372 64.8169 124.612 64.4057C124.785 64.1049 124.97 63.7796 125.406 64.0128C125.472 64.2277 125.49 64.4364 125.323 64.6144C125.281 65.2834 125.508 66.0384 124.725 66.4497C123.918 66.3208 123.398 67.2108 122.598 67.0758C122.49 67.0144 122.394 66.9469 122.305 66.8794Z" fill="#A39890"/>
<path d="M125.317 64.6145C125.317 64.4058 125.317 64.2033 125.311 63.9946C124.57 63.3194 124.725 62.3986 124.749 61.5577C124.791 59.9864 124.516 58.5193 123.751 57.1444C123.398 54.7628 123.775 52.3873 123.841 50.0119C123.853 49.5024 123.966 48.9991 124.414 48.6615C124.516 48.5571 124.612 48.4589 124.713 48.3546C125.884 48.3975 125.789 49.3551 125.861 50.1162C126.034 51.9331 125.729 53.75 125.795 55.1925C125.855 53.4983 125.938 51.4236 125.944 49.3551C125.944 48.4098 125.418 47.4645 125.908 46.5131C125.317 45.2487 125.084 43.9228 125.311 42.5294C126.123 44.5366 126.859 46.6175 127.032 48.7474C127.289 51.8103 127.259 54.9224 126.004 57.8626C125.711 58.5439 125.944 59.348 126.058 60.1153C126.297 61.6805 126.165 63.2212 125.317 64.6145Z" fill="#A09A8E"/>
<path d="M110.968 54.4805C111.058 54.7199 110.831 55.1495 111.339 55.1311C112.42 55.1004 113.299 56.1746 113.048 57.2242C112.928 57.7276 110.735 58.102 110.562 57.5802C110.102 56.1807 109.713 57.8442 109.343 57.525C109.875 56.5061 110.221 55.3828 110.968 54.4805Z" fill="#9B9688"/>
<path d="M111.859 52.9336C111.781 53.5904 111.578 54.1612 110.962 54.4927C111.028 53.8298 111.333 53.308 111.859 52.9336Z" fill="#9B9688"/>
<path d="M109.665 58.2185C110.281 58.237 110.831 58.3474 110.974 59.0963C110.472 58.906 110.012 58.6482 109.665 58.2185Z" fill="#9B9688"/>
<path d="M124.414 48.6676C124.319 51.528 124.217 54.3884 124.122 57.2549C123.273 57.5434 122.914 57.2549 122.789 56.1439C122.568 54.241 122.639 52.3259 122.627 50.417C122.622 49.8216 122.729 49.2016 122.335 48.6676C122.036 48.465 121.737 48.2563 121.438 48.0538C121.343 47.5627 121.187 47.0717 121.175 46.5806C121.157 45.8256 120.859 44.8128 122.06 44.7208C123.106 44.641 123.655 45.31 123.823 46.3351C123.942 47.1331 123.47 48.0906 124.414 48.6676Z" fill="#A39794"/>
<path d="M120.835 51.7306C120.835 53.1055 120.841 54.4866 120.829 55.8615C120.823 56.2544 120.948 56.7884 120.506 56.9541C119.968 57.1567 119.962 56.5183 119.741 56.2298C119.526 55.9536 119.382 55.5915 119.12 55.3889C117.626 54.2349 117.667 52.7372 118.151 51.1229C118.755 50.6011 119.61 50.4845 120.129 49.8216C120.888 50.2758 120.219 51.2518 120.835 51.7306Z" fill="#A69691"/>
<path d="M125.908 46.5192C127.098 49.7601 126.41 52.9949 126.016 56.4875C125.317 55.0942 125.317 55.0942 125.317 53.3203C125.317 52.3013 125.335 51.2824 125.311 50.2635C125.299 49.576 125.514 48.7964 124.719 48.3606C124.522 47.9555 124.384 47.5443 124.486 47.0655C124.689 46.1141 125.084 45.7458 125.908 46.5192Z" fill="#A89882"/>
<path d="M122.329 48.6676C123.094 48.8579 122.914 49.5024 122.92 50.0241C122.95 51.9883 122.795 53.971 123.243 55.9045C123.369 56.4324 123.1 57.3101 124.122 57.2487C125.281 57.8994 125.203 59.1147 125.287 60.1889C125.388 61.4472 125.311 62.724 125.311 63.9946C124.349 65.7562 124.026 65.7992 123.112 64.4365C122.639 63.7368 123.351 63.9086 123.518 63.6877C123.661 63.8288 123.476 63.6447 123.614 63.7859C123.584 63.749 123.548 63.7184 123.518 63.6877C122.687 62.0979 123.38 60.416 123.231 58.7833C123.171 58.1326 123.195 57.5188 122.323 57.5556C122.329 54.5971 122.329 51.6323 122.329 48.6676Z" fill="#A8968A"/>
<path d="M117.446 62.6686C117.386 62.7484 117.315 62.9203 117.231 62.9264C116.908 62.9571 116.711 62.7177 116.592 62.4538C116.496 62.2451 116.592 62.0364 116.831 62.061C117.135 62.0917 117.297 62.3433 117.446 62.6686Z" fill="#A5978C"/>
<path d="M119.173 64.0559C119.102 64.0927 118.988 64.197 118.952 64.1725C118.845 64.0988 118.773 63.9761 118.689 63.8717C118.773 63.8288 118.857 63.749 118.934 63.7551C119.09 63.7674 119.221 63.8472 119.173 64.0559Z" fill="#A5978C"/>
<path d="M105.333 77.5413C105.936 76.9214 106.54 76.3076 107.143 75.6876C107.855 75.5035 108.494 75.0738 109.295 75.1904C110.849 75.4237 112.48 75.6938 113.084 77.394C113.657 79.0022 113.645 80.7025 112.444 82.1511C111.076 83.8023 109.426 84.367 107.4 83.6242C107.102 83.3173 106.809 83.0043 106.51 82.6974C107.09 82.145 107.335 81.5311 107.066 80.6902C106.833 79.9598 106.88 79.1925 107.299 78.4989C107.675 78.1367 107.884 77.3204 108.637 77.971C108.912 78.7506 108.518 79.6222 108.948 80.3833C109.014 80.9971 109.277 81.4882 109.779 81.8442C110.125 82.2247 110.454 82.102 110.777 81.8012C111.631 80.9787 112.719 80.2605 112.086 78.7567C110.908 76.3751 109.659 76.0682 106.976 77.5106C106.886 77.6027 106.785 77.6825 106.683 77.7623C106.355 77.928 106.11 78.192 105.888 78.4866C105.793 78.5603 105.703 78.6401 105.62 78.726C105.614 79.0329 105.608 79.3337 105.602 79.6406C104.849 79.7204 105.213 79.0268 105.01 78.726C104.855 78.2534 105.219 77.9342 105.333 77.5413Z" fill="#DFCC91"/>
<path d="M87.6912 80.2422C87.7151 80.6841 87.5896 81.0893 87.3804 81.4698C87.2848 81.4698 87.1832 81.4637 87.0876 81.4575C86.7171 81.2059 86.4123 81.0893 86.49 81.7645C83.5259 83.3972 82.8027 83.1824 80.2211 79.9291C80.2988 78.6954 79.8326 77.1731 81.7151 76.8662C81.8107 76.9644 81.9123 77.0688 82.0079 77.167C82.6593 78.321 82.5338 79.7634 83.3406 80.8499C83.4123 80.9358 83.49 81.0217 83.5796 81.0893C83.6872 81.1015 83.7888 81.1138 83.8964 81.0954C84.0518 81.0463 84.2131 81.0095 84.3745 81.0708C84.4163 81.611 84.4462 82.1205 85.229 81.832C85.7609 81.6356 85.731 81.4575 85.486 80.9665C85.1095 80.2176 85.8446 79.8187 86.2031 79.3153C86.6095 79.5424 86.8127 79.1557 87.0936 79.0084C87.4641 79.3399 87.6314 79.7634 87.6912 80.2422Z" fill="#E2D083"/>
<path d="M84.3745 81.0891C84.2789 81.1935 84.1833 81.2978 84.0817 81.4022C83.8127 81.7459 83.5378 81.7214 83.257 81.4144L83.2211 81.4329C83.006 80.8743 82.8267 80.3034 82.6355 79.7449C82.1932 78.4374 83.0239 77.4124 84.3924 77.486C84.4223 77.9894 84.6135 78.419 84.9721 78.7628C85.2171 79.6589 84.4582 80.2789 84.3745 81.0891Z" fill="#483920"/>
<path d="M87.0876 79.0207C87.0458 79.389 86.8785 79.6591 86.502 79.702C86.2629 79.7327 86.2211 79.5179 86.1972 79.3276C86.5199 79.2969 86.6514 78.6892 87.0876 79.0207Z" fill="#DACD7F"/>
<path d="M86.49 81.7705C86.0956 81.3409 86.1374 80.8805 86.6633 80.7455C87.1653 80.6104 87.0398 81.1567 87.0876 81.4698C86.8904 81.568 86.6872 81.6723 86.49 81.7705Z" fill="#DACD7F"/>
<path d="M84.3924 77.4861C83.1195 77.7624 82.7311 78.6831 82.8924 79.8555C82.9641 80.3772 83.2331 80.8805 83.2211 81.4391C82.5279 80.1071 81.5299 78.8672 82.008 77.1792C82.8685 76.7496 83.6992 76.5654 84.3924 77.4861Z" fill="#DDC88A"/>
<path d="M105.01 78.7261C105.207 79.033 105.404 79.3337 105.602 79.6407C105.53 80.2483 105.805 80.9174 105.321 81.4637C104.586 80.6228 104.687 79.6836 105.01 78.7261Z" fill="#DBC8A1"/>
<path d="M107.687 78.7075C107.185 79.4564 107.293 80.2605 107.633 80.9909C108.261 82.3168 107.777 82.7526 106.504 82.6973C106.211 82.5684 105.996 82.3659 105.906 82.0406C105.763 80.9357 106.199 79.7817 105.614 78.7198C105.614 78.6155 105.614 78.505 105.614 78.4006C105.823 78.0201 106.116 77.7193 106.48 77.4983L106.51 77.4799C107.843 76.9459 107.675 77.9219 107.687 78.7075Z" fill="#E6D37E"/>
<path d="M123.524 63.6938C123.817 63.7306 124.133 63.7674 124.205 64.1296C124.217 64.2032 124.014 64.4119 123.948 64.3935C123.59 64.3198 123.56 63.9945 123.524 63.6938Z" fill="#A39890"/>
<path d="M107.687 78.7076C107.406 78.1858 107.406 77.3817 106.51 77.4738C108.811 75.1781 111.506 75.7367 112.468 78.7076C112.462 78.7751 112.456 78.8426 112.45 78.9163C112.384 79.2477 112.02 79.616 111.894 79.4503C111.363 78.7444 110.293 79.2416 109.869 78.4191C109.659 78.2165 109.504 77.9341 109.157 77.9648C108.93 78.0201 108.709 78.106 108.476 78.106C107.801 77.7255 108.076 78.6769 107.687 78.7076Z" fill="#E2CF87"/>
<path d="M108.482 78.106C108.733 77.8482 108.446 77.1914 109.098 77.2344C109.552 77.5781 109.833 78.0937 110.269 78.4559C110.58 78.8978 110.795 79.3704 110.693 79.9352C110.514 80.5367 110.329 81.1382 109.845 81.574C108.942 81.8809 108.871 81.1014 108.602 80.5735C107.992 79.7817 108.016 78.9531 108.482 78.106Z" fill="#463E23"/>
<path d="M109.749 81.4207C109.725 80.8253 109.982 80.3465 110.341 79.9107C111.434 79.2785 111.554 79.3644 111.817 80.9665C111.625 81.4084 111.189 81.6539 110.986 82.0897C110.52 83.6181 110.006 82.7711 109.492 82.1266C109.456 81.8442 109.606 81.6355 109.749 81.4207Z" fill="#E2D584"/>
<path d="M110.98 82.0898C110.992 81.654 111.195 81.3471 111.572 81.1629C111.679 80.279 112.032 79.4872 112.462 78.7199L112.468 78.7077C113.233 80.4264 112.133 81.2673 110.98 82.0898Z" fill="#E2CF87"/>
<path d="M109.749 81.4207C109.833 81.7215 109.707 81.9425 109.486 82.1205C108.996 81.7215 108.476 81.3409 108.602 80.5737C108.918 80.9542 109.151 81.4453 109.749 81.4207Z" fill="#B4A462"/>
<path d="M106.486 77.4984C106.301 77.9035 106.002 78.192 105.62 78.4007C105.643 77.836 105.936 77.5352 106.486 77.4984Z" fill="#E2CF87"/>
<path d="M83.2569 81.4144C83.5318 81.4082 83.8067 81.4021 84.0816 81.4021C84.0099 81.6906 83.8844 81.9545 83.5498 81.9361C83.239 81.9238 83.245 81.6599 83.2569 81.4144Z" fill="#BAB465"/>
<path d="M112.468 78.726C112.373 79.616 112.211 80.4815 111.578 81.169C111.291 80.6166 111.614 79.438 110.341 79.9168C110.311 79.4135 110.365 78.8917 110.066 78.4375C109.922 78.2963 109.946 78.1858 110.131 78.106C110.849 78.5357 111.416 79.5731 112.468 78.726Z" fill="#DBC872"/>
<path d="M110.125 78.0999C110.102 78.2104 110.084 78.3209 110.06 78.4314C109.582 78.1675 109.337 77.7071 109.098 77.2406C109.653 77.259 109.809 77.7746 110.125 78.0999Z" fill="#B4A25C"/>
<path d="M93.8765 101.161C91.9223 101.934 90.9721 102.161 91.5099 101.787C92.5259 101.087 90.494 101.327 94.0558 99.8657C95.6036 99.2335 97.241 98.7731 97.2649 99.0739C97.3008 99.4729 95.1554 100.473 93.8765 101.161Z" fill="#070808"/>
<path d="M100.48 99.8657C102.41 100.701 103.247 101.216 102.608 101.1C101.406 100.885 103.026 102.155 99.4761 100.67C97.9283 100.025 96.4462 99.1905 96.6255 98.9573C96.8705 98.6381 99.0936 99.4484 100.48 99.8657Z" fill="#070808"/>
</g>
<defs>
<clipPath id="clip0">
<rect width="85" height="76" fill="white" transform="translate(0 1)"/>
</clipPath>
<clipPath id="clip1">
<rect width="63" height="71" fill="white" transform="translate(65 39)"/>
</clipPath>
</defs>
</svg>
