<svg width="240" height="240" viewBox="0 0 240 240" fill="none" xmlns="http://www.w3.org/2000/svg">
<circle cx="120" cy="120" r="120" fill="#C4E391"/>
<g clip-path="url(#clip0)">
<path d="M101.268 77.8595C101.347 77.7274 101.44 77.5953 101.506 77.4632C101.915 77.4236 102.312 77.3708 102.721 77.3311C112.416 76.1028 122.165 76.9349 131.873 76.7764C132.534 76.7632 133.155 77.0406 133.709 77.4104C133.881 77.4764 134.066 77.5028 134.251 77.45C135.189 77.8331 136.14 78.2029 137.078 78.5859C137.21 78.9822 137.117 79.3124 136.814 79.5897C136.312 79.9199 135.77 79.9992 135.189 79.9067C131.12 78.5595 126.986 78.9029 122.838 79.3388C118.03 79.3784 113.209 79.4048 108.401 79.352C106.314 78.784 104.121 79.3124 102.034 78.7048C101.691 78.5067 101.427 78.2293 101.268 77.8595Z" fill="#6A7684"/>
<path d="M141.622 186.867C140.75 187.554 139.878 188.24 139.006 188.927C132.085 191.45 124.833 192.559 117.647 193.907C115.362 194.329 113.354 193.273 111.241 192.824C106.525 191.82 101.849 190.657 97.1865 189.456C95.7071 189.072 94.3729 188.254 93.4747 186.92C96.1826 185.969 98.9961 186.986 101.717 186.431C105.019 186.048 107.939 186.801 110.316 189.244C111.716 190.684 113.539 190.882 115.388 191.001C119.232 191.344 122.706 191.041 126.431 189.178C130.539 187.118 135.413 186.616 140.036 185.77C140.789 185.625 141.648 185.718 141.622 186.867Z" fill="#CDDFEB"/>
<path d="M92.7879 187.012C91.5595 186.801 90.3575 186.524 89.4461 185.573C88.5875 184.912 87.7553 184.212 86.8835 183.565C86.1702 181.346 84.0039 180.237 82.9076 178.321C82.3792 176.485 83.5548 176.578 84.6512 176.934C86.4344 177.516 88.1648 178.44 89.3932 179.774C92.2728 182.891 96.0506 184.212 99.8416 185.625C100.779 185.982 102.14 185.956 102.047 187.527C99.1811 187.475 96.2751 187.831 93.4748 186.893C93.2502 186.946 93.0257 186.986 92.7879 187.012Z" fill="#D4DAE9"/>
<path d="M171.976 43.6247C174.222 42.5152 176.441 42.3171 178.62 43.77C179.122 44.4436 178.911 44.9983 178.33 45.5002C171.844 46.5701 167.458 50.5458 164.064 55.8687C163.456 56.6348 162.677 57.1895 161.765 57.5461C158.939 58.8273 157.472 61.4822 155.491 63.6351C150.974 68.5089 147.751 74.5187 142.242 78.534C140.961 79.4717 139.812 80.4227 138.121 80.185C137.804 80.1057 137.514 79.9869 137.249 79.8019C137.144 79.6831 137.051 79.551 136.946 79.4321C136.999 79.1547 137.038 78.8774 137.091 78.6C140.974 77.9528 143.246 74.9942 145.558 72.3525C149.798 67.5051 153.708 62.3803 157.842 57.4405C160.92 53.7554 164.13 50.176 167.3 46.5701C168.555 45.104 170.18 44.2191 171.976 43.6247Z" fill="#6D7D8D"/>
<path d="M82.2207 178.361C82.2075 179.55 83.3699 180.131 83.7397 181.307C81.7716 181.122 80.4243 179.867 78.9184 178.969C78.073 178.48 77.0427 178.361 76.303 177.674L76.2766 177.661C74.15 176.314 72.4988 174.386 70.3854 173.025C66.6076 170.199 63.411 166.619 59.1842 164.387L58.9464 164.255C57.8633 163.779 58.8011 163.449 59.0257 163.066C60.5711 162.775 62.4072 164.11 63.6884 162.234C63.9922 162.181 64.2828 162.208 64.5602 162.326C65.4849 163.132 65.6698 164.427 66.5284 165.285C71.1647 168.983 76.4748 171.823 80.5563 176.235C81.0715 176.789 81.7055 177.238 82.0754 177.912C82.1282 178.071 82.1678 178.216 82.2207 178.361Z" fill="#6A7A87"/>
<path d="M50.4926 138.05C51.4304 138.605 51.4569 139.542 51.5097 140.467C51.5229 141.193 51.5361 141.92 51.4965 142.646C51.4569 143.399 51.2983 144.086 50.6775 144.588C50.4133 144.601 50.1624 144.627 49.8982 144.641" fill="#83AFC9"/>
<path d="M50.5717 76.7249C48.1941 68.4434 48.6564 60.2147 51.0076 52.0256C51.4567 50.4406 51.9719 48.882 52.5663 47.3499C54.2571 43.0176 58.4972 40.3099 63.3449 43.1893C64.6261 43.9554 66.3169 44.1535 67.0302 45.7253C64.8771 47.0065 63.3449 45.1177 61.5749 44.5894C58.1537 43.5459 57.2159 43.9157 55.9478 47.3235C53.2268 52.2633 51.2322 57.3881 51.5228 63.1865C51.6549 65.8149 51.536 68.4566 51.5492 71.0982C51.5492 72.1945 51.5624 73.304 52.0644 74.321C54.125 78.4684 54.5609 82.8007 53.7023 87.3179C52.9229 91.3728 54.191 95.1239 55.5251 98.8619C56.1856 100.711 57.031 102.534 56.7139 104.594C55.6968 109.164 55.7893 113.88 55.1289 118.476C54.2306 124.803 53.6098 131.169 52.7644 137.509C52.6059 138.724 52.6059 140.494 50.6378 140.719C50.5982 139.834 50.5585 138.949 50.5189 138.064C50.5585 137.852 50.585 137.641 50.5982 137.417C51.1794 131.037 51.7341 124.644 52.5795 118.291C53.1739 115.24 53.3721 112.123 53.8872 109.059C53.8872 108.623 53.9004 108.187 53.9004 107.764C55.3534 104.819 54.191 102.045 53.2532 99.2845C51.8134 95.0447 51.0737 90.8049 51.7473 86.2877" fill="#849AAE"/>
<path d="M76.3427 56.9119C81.0715 62.6046 85.6682 68.403 90.582 73.9241C92.4048 75.9713 94.8749 77.4903 97.4111 78.7187C97.6092 78.996 97.6224 79.2866 97.4375 79.5772C97.1997 79.8017 96.9355 79.9602 96.6317 80.0791C93.7654 80.7395 92.4181 78.4545 90.6348 77.0016C90.3839 76.8167 90.1725 76.6053 89.9744 76.3544C88.7988 74.8751 87.2137 73.726 86.3155 72.0221C85.9324 71.2956 85.338 71.3617 84.6908 71.6787C83.5812 71.7051 82.8415 71.0447 82.2471 70.2654C78.7731 65.669 74.7576 61.4952 71.6139 56.6345C71.3629 55.9741 71.2176 55.3269 71.7195 54.7194C74.1236 53.6231 75.101 55.5515 76.3427 56.9119Z" fill="#717C85"/>
<path d="M76.3426 56.9119C74.8632 56.093 73.5951 54.7722 71.7063 54.9571C69.9759 55.1817 69.223 53.9533 68.4436 52.7646C66.3566 49.555 63.5299 47.5209 59.8314 46.319C58.101 45.7642 56.7272 47.7454 55.2346 46.385C56.6612 43.0433 58.5633 42.198 61.9316 43.5188C63.6488 44.1924 65.3263 44.9849 67.0303 45.7246C70.3193 49.304 73.7537 52.7513 76.3426 56.9119Z" fill="#6C808E"/>
<path d="M97.3715 79.2727C97.3979 79.0877 97.4111 78.8896 97.4111 78.7047C98.5999 78.0047 99.9208 77.9254 101.255 77.8594C101.321 77.9915 101.387 78.1103 101.453 78.2424C101.202 79.6557 99.934 79.55 98.983 79.8934C98.6792 79.9331 98.3621 79.9066 98.0583 79.8406C97.7809 79.7349 97.5432 79.55 97.3715 79.2727Z" fill="#69767D"/>
<path d="M175.925 162.511C176.229 163.753 175.569 164.624 174.671 165.272C172.134 167.055 169.559 168.759 166.996 170.502C163.39 173.831 159.573 176.882 155.359 179.431C154.131 180.17 153.312 180.21 153.047 178.572C153.113 177.701 153.563 177.04 154.17 176.459C156.006 175.363 157.671 174.068 158.991 172.378C160.775 170.41 163.126 169.089 165.305 167.781C168.013 166.157 169.506 164.334 169.189 161.164C170.245 160.596 170.932 161.296 171.646 161.904C172.227 162.419 172.399 163.383 173.376 163.475C173.627 163.409 173.865 163.33 174.089 163.185C174.644 162.815 175.08 162.102 175.925 162.511Z" fill="#687784"/>
<path d="M141.622 186.868C136.074 187.515 130.552 188.162 125.546 190.989C122.31 192.811 118.704 192.045 115.23 192.164C115.071 190.896 116.089 190.658 116.881 190.606C121.227 190.289 125.044 188.347 128.981 186.762C129.39 186.603 128.862 186.709 129.284 186.656C136.034 185.771 142.388 183.962 147.632 179.26C148.477 178.507 150.009 178.005 151.106 179.405C151.172 179.762 151.079 180.079 150.828 180.343C147.645 182.337 146.007 186.537 141.622 186.868Z" fill="#CFDEE6"/>
<path d="M182.556 147.983C180.892 151.602 179.082 155.155 177.933 158.985C177.695 159.777 177.59 160.715 176.599 161.059C175.41 160.028 175.542 158.483 175.093 157.175C175.186 154.573 176.15 152.117 176.348 149.515C176.533 147.177 178.699 147.349 180.284 146.847C181.064 146.556 181.843 146.133 182.702 146.609C182.9 147.084 182.966 147.56 182.556 147.983Z" fill="#61717D"/>
<path d="M175.965 157.175C176.929 158.35 176.705 159.711 176.599 161.058C175.965 161.349 176.097 162.009 175.912 162.524C175.265 163.158 174.605 163.792 173.957 164.426C173.693 164.215 173.376 163.911 173.442 163.634C174.089 160.913 174.222 158.35 171.725 156.356C171.421 156.105 171.659 155.524 171.91 155.141C173.944 154.48 175.04 155.669 175.965 157.175Z" fill="#15202F"/>
<path d="M182.556 147.982C182.517 147.52 182.464 147.058 182.424 146.582C181.632 145.076 182.398 144.073 183.534 143.201C183.851 143.056 184.168 143.069 184.485 143.227C184.524 143.491 184.577 143.756 184.617 144.02C183.93 145.354 183.243 146.661 182.556 147.982Z" fill="#5E7E9F"/>
<path d="M97.9658 79.3524C98.2036 79.3392 98.4413 79.3392 98.6791 79.326C101.73 78.4807 104.901 78.4675 108.018 78.0977C113.051 78.0977 118.096 78.0977 123.129 78.0977C127.316 78.8241 131.688 77.675 135.783 79.3128C136.166 79.3524 136.549 79.3789 136.932 79.4185L137.025 79.5506C139.006 81.2148 137.593 82.6545 136.708 84.1206C136.563 84.398 136.417 84.6753 136.272 84.9527C135.929 87.5811 135.347 90.1303 136.272 92.8644C137.078 95.2683 134.766 96.959 133.868 98.9798C131.913 101.767 130.407 104.857 128.214 107.486C127.62 108.199 127.026 109.428 125.916 108.926C124.714 108.397 124.925 107.05 125.176 105.98C125.89 102.863 127.263 99.9572 128.399 96.9854C129.179 94.9249 129.43 92.9833 127.897 91.1738C128.307 95.8627 127.197 100.103 124.318 103.814C123.221 105.227 122.416 106.773 121.636 108.344C120.659 110.312 118.995 111.25 116.841 111.277C114.675 111.316 113.83 109.652 113.117 108.041C112.35 106.31 111.294 104.818 110.211 103.286C107.648 99.6667 106.459 95.6249 107.093 91.2266C105.574 93.9211 105.574 94.0268 106.565 97.0118C107.503 99.8252 109.022 102.427 109.722 105.333C109.986 106.403 110.343 107.737 109.193 108.331C108.018 108.939 107.12 107.869 106.486 106.997C103.989 103.51 101.585 99.9572 99.3528 96.2986C98.5734 95.0174 98.481 93.6173 98.7451 92.1512C99.3396 88.9548 99.4188 85.8509 97.2922 83.0375C96.3147 81.7299 96.4204 80.3431 97.9658 79.3524Z" fill="#0F0D0D"/>
<path d="M108.018 78.0977C104.953 78.8241 101.862 79.4185 98.6791 79.326C99.6037 78.9694 100.542 78.6128 101.466 78.243C103.646 78.0184 105.825 77.7675 108.018 78.0977Z" fill="#1A2F3B"/>
<path d="M129.113 187.554C124.886 190.288 120.104 191.319 115.243 192.164C112.733 192.296 110.567 191.807 108.942 189.575C107.239 187.237 104.557 187.501 102.047 187.554C99.9207 186.484 97.5695 185.956 95.3504 185.269C91.1896 183.988 89.0629 180.131 85.3644 178.441C84.5718 178.084 83.8057 176.525 82.9075 178.335C82.683 178.348 82.4584 178.361 82.2206 178.375L82.1018 178.361C78.0862 174.32 73.6348 170.806 68.8795 167.65C68.0209 167.082 66.6472 166.54 67.1359 165.219C67.5718 164.044 68.9456 164.176 70.0419 164.163C72.0101 164.149 73.9782 164.017 75.9464 164.361C77.0295 164.559 78.324 164.638 78.9712 163.621C79.5788 162.657 78.5882 161.811 78.1655 160.966C78.073 160.768 77.9145 160.61 77.8088 160.411C77.0295 159.038 75.2331 157.77 76.2237 156.053C77.2673 154.243 79.3675 154.89 81.0582 155.062C86.1437 155.59 86.4475 155.855 87.6231 160.662C88.4817 164.163 89.0365 167.729 89.5781 171.282C89.1554 174.214 86.3815 173.672 84.5454 174.505C87.5571 176.341 89.3931 173.329 91.85 172.92C92.4048 172.933 92.9067 173.157 93.4219 173.355C97.7412 175.046 100.66 173.474 101.532 168.957C101.836 167.346 101.862 165.708 101.413 164.083C100.449 160.61 100.964 159.751 104.716 158.404C105.046 158.377 105.376 158.417 105.693 158.483C106.486 158.694 107.133 159.157 107.793 159.619C108.837 160.253 109.629 161.177 110.567 161.944C111.809 163.238 113.156 164.44 114.147 165.959C115.27 167.61 116.3 169.327 117.106 171.176C117.291 172.589 116.736 173.699 115.692 174.61C114.543 175.39 113.037 175.35 111.888 176.156C111.624 176.301 111.347 176.42 111.056 176.499C109.577 176.79 108.322 177.741 106.803 177.939C105.614 178.229 104.61 179.088 103.302 178.995C102.84 179.088 102.391 179.22 101.928 179.22C99.8547 179.114 98.0186 177.675 95.8391 178.176C95.2183 178.322 94.439 178.295 94.3597 179.154C94.3069 179.748 94.7824 180.237 95.2579 180.422C96.5392 180.924 97.7148 182.073 99.2471 180.541C100.277 179.51 102.338 180.673 103.381 179.141C104.016 178.943 104.663 178.89 105.323 178.956C111.901 183.13 119.008 182.747 126.233 181.346C127.092 181.175 127.911 180.792 128.782 181.188C130.169 183.869 126.801 184.226 126.418 186.167C126.92 187.013 128.188 186.405 128.822 187.158C128.928 187.303 129.02 187.422 129.113 187.554Z" fill="#DADADA"/>
<path d="M70.3854 173.012C73.1196 173.58 74.7708 175.534 76.2766 177.648C73.5027 177.146 71.9572 175.072 70.3854 173.012Z" fill="#6C88A6"/>
<path d="M76.3031 177.674C77.3466 177.766 78.2448 178.136 78.9185 178.968C77.7957 179.047 76.8315 178.797 76.3031 177.674Z" fill="#6C88A6"/>
<path d="M184.485 143.241L184.208 143.267L183.93 143.254C182.675 142.911 181.553 142.369 180.826 141.207C179.492 136.386 177.722 131.671 177.418 126.625C177.022 119.915 176.943 113.179 175.424 106.575C175.212 105.637 175.278 104.607 175.807 103.709C176.943 102.877 177.986 103.352 179.016 103.92C180.575 105.769 180.126 108.001 180.258 110.128C180.337 111.515 179.875 112.941 180.588 114.275C181.46 120.602 182.332 126.929 183.19 133.269C183.653 136.584 184.062 139.912 184.485 143.241Z" fill="#6C717E"/>
<path d="M179.928 108.953C179.769 107.328 179.703 105.73 178.607 104.396C177.326 103.048 177.695 101.622 178.316 100.129C180.192 95.533 181.566 90.9894 180.601 85.7985C180.179 83.5267 180.707 80.8058 181.288 78.3491C183.032 70.9922 182.187 63.5163 182.12 56.0933C182.094 53.2535 180.522 50.6647 178.871 48.3005C178.171 47.2966 177.326 46.3985 177.946 45.0512C178.171 44.6154 178.409 44.1927 178.633 43.7568C182.728 47.7193 183.89 52.7648 184.657 58.2198C185.898 67.0693 183.521 75.6282 183.283 84.3324C183.124 90.3025 183.045 96.0877 180.192 101.516C179.413 102.996 180.509 104.515 180.535 106.034" fill="#83919E"/>
<path d="M177.933 45.0508C178.528 45.9621 179.096 46.8999 179.703 47.7981C181.83 50.9416 183.217 54.2305 183.283 58.1665C183.428 67.1613 183.085 76.0901 181.473 84.966C181.42 85.283 181.341 85.6396 181.434 85.9434C182.9 91.0285 181.354 95.6778 179.333 100.235C178.726 101.595 178.554 102.956 178.594 104.395C177.722 104.184 176.863 103.973 175.991 103.761C175.701 103.537 175.516 103.233 175.423 102.876C176.52 99.9573 177.96 97.1836 179.188 94.3306C179.479 93.657 180.403 93.1154 180.113 92.3229C178.131 87 179.849 81.73 180.271 76.4335C180.311 75.9976 180.271 76.5391 180.271 76.1033C181.143 69.4595 180.681 62.7762 180.615 56.1193C180.601 55.1286 180.324 54.1644 179.981 53.2399C177.933 47.8905 175.714 47.3094 171.315 50.9416C170.721 51.4303 170.127 51.919 169.453 52.2889C168.198 52.7512 167.181 53.5304 166.217 54.4418C165.464 55.1551 164.724 56.1325 163.417 55.5777C166.666 49.8982 170.721 45.2885 177.933 45.0508Z" fill="#8B8790"/>
<path d="M135.691 83.9488C136.629 82.628 137.857 81.3996 137.038 79.5373C137.236 79.4448 137.448 79.392 137.659 79.392C139.138 80.4619 140.406 80.2109 141.754 78.9957C143.022 77.8598 144.475 77.49 145.624 79.2995C146.02 81.0826 146.681 82.7601 147.698 84.2922C148.305 86.0357 147.302 86.9339 145.915 87.6339C143.748 88.717 141.371 89.1529 139.125 89.985C137.514 90.5793 136.734 89.4434 136.193 88.1358C135.651 86.7886 135.915 85.3357 135.691 83.9488Z" fill="#706F6A"/>
<path d="M163.416 55.5909C165.464 54.6531 166.243 52.0246 168.713 51.6416C169.215 52.7511 168.304 53.4379 167.96 54.3097C165.781 59.8307 162.386 64.2422 157.05 67.1348C155.755 67.8349 155.267 69.5783 154.183 70.6614C152.81 71.7841 151.806 73.1181 151.106 74.7824C150.366 76.5259 149.256 78.0184 147.024 77.9523C146.707 77.8731 146.416 77.7146 146.179 77.4901C146.086 74.505 148.2 72.4577 149.798 70.4765C153.338 66.1178 156.931 61.7723 160.339 57.3079C160.629 56.9381 160.946 56.7268 161.435 56.8853C162.082 56.4626 162.756 56.0267 163.416 55.5909Z" fill="#91858A"/>
<path d="M161.422 56.8982C156.786 64.0174 150.723 70.08 146.298 77.3709C146.601 78.5333 146.443 79.3918 144.964 79.339C143.471 77.9785 142.626 79.405 141.767 80.1975C139.984 81.8353 138.676 81.5447 137.659 79.4182C142.203 78.5993 144.884 75.2444 147.486 71.9556C151.608 66.7383 155.821 61.6136 160.286 56.6869C160.603 56.3171 161.105 56.5152 161.422 56.8982Z" fill="#6A7684"/>
<path d="M88.8648 171.704C88.0062 167.517 87.042 163.356 86.3419 159.156C86.0249 157.254 85.2456 156.514 83.3699 156.462C81.6263 156.409 79.8959 155.96 78.1523 155.88C76.554 155.801 76.0125 156.594 77.2673 157.809C78.575 159.064 79.1034 160.82 80.2922 162.101C82.0886 164.017 81.3225 164.796 79.1958 165.43C77.3994 165.958 75.7483 165.483 74.0047 165.298C71.9573 165.073 69.8703 165.245 67.0832 165.245C72.1686 170.132 78.3769 172.893 82.1018 178.387C77.624 175.389 73.9386 171.334 69.2759 168.547C68.0078 167.794 66.4888 167.253 65.7226 165.813C65.2867 165.153 65.1943 164.373 65.1414 163.62C65.049 162.022 65.683 161.296 67.3209 162.088C67.9153 162.379 68.4833 162.709 69.1306 162.868C69.6721 163 70.2269 163.118 70.5571 162.498C70.7949 162.049 70.5175 161.692 70.3062 161.283C68.1663 157.267 68.1795 157.267 71.7195 154.573C74.0179 154.084 76.4219 154.018 78.575 152.935C79.2619 152.552 79.9355 152.142 80.7149 151.958C82.617 151.68 83.9907 152.816 85.4437 153.754C85.7079 153.912 85.9588 154.124 86.1834 154.335C86.8306 155.022 87.293 155.841 87.7421 156.66C89.3007 159.513 89.8555 162.617 89.9612 165.826C90.014 167.517 90.3707 169.075 91.6387 170.317C93.1842 171.823 94.8485 173.051 97.1601 172.509C99.4717 171.955 99.4849 169.802 99.9604 168.098C100.555 165.958 99.4717 164.637 97.5432 163.7C95.8128 162.854 95.4033 160.53 93.4087 159.737C92.7351 159.46 93.1974 158.337 93.7522 157.743C94.2145 157.241 94.8617 156.792 95.4693 156.884C98.8112 157.399 102.232 156.924 105.548 157.796C105.772 158.284 105.746 158.733 105.416 159.156C102.523 159.79 100.925 160.873 102.417 164.36C103.566 167.055 102.602 170.013 101.532 172.668C100.766 174.583 95.9713 175.666 93.554 174.649C92.854 174.359 92.1803 174.015 91.4934 173.698C90.4499 173.223 89.063 173.236 88.8648 171.704Z" fill="#9FA09F"/>
<path d="M80.913 152.578C80.4375 152.961 79.962 153.358 79.4865 153.741C76.9107 154.533 74.2029 154.56 71.5743 155.088C68.6287 157.03 68.1663 161.362 64.415 162.524H64.1376L63.8602 162.564C60.9542 164.664 60.941 164.664 58.2992 160.345C58.1143 160.081 58.0086 159.79 57.9558 159.473C57.9029 157.532 59.8447 156.99 60.624 155.643C63.3318 152.829 66.6209 150.861 70.1477 149.25C71.9573 148.431 73.7009 148.127 75.4841 149.263C76.488 150.016 77.6372 150.307 78.8789 150.32C79.9752 150.346 81.1244 150.28 81.7584 151.482C81.8377 152.116 81.3225 152.301 80.913 152.578Z" fill="#151616"/>
<path d="M64.4149 162.524C66.5944 160.081 68.7871 157.637 70.9666 155.194C71.2968 154.864 71.5478 154.917 71.6799 155.366C70.4382 157.083 67.2549 158.694 71.5874 160.596C72.9083 161.177 72.0761 162.643 71.9705 163.608C71.8384 164.809 70.6099 164.466 69.8042 164.321C68.404 164.07 67.0963 163.528 65.6962 162.155C65.6962 163.647 65.6962 164.717 65.6962 165.774C64.7319 164.915 64.4678 163.766 64.4149 162.524Z" fill="#9F9B94"/>
<path d="M58.4313 159.883C58.8276 160.213 59.4748 160.477 59.5937 160.887C60.3466 163.277 61.7996 163.621 63.8602 162.551C62.6846 165.734 61.0071 164.862 59.2107 163.132L59.1842 163.04C58.8012 162.023 57.8501 161.138 58.4313 159.883Z" fill="#152532"/>
<path d="M52.5532 118.29C52.5532 124.736 51.6418 131.089 50.5719 137.416C50.5455 130.97 50.9417 124.564 52.5532 118.29Z" fill="#83AFC9"/>
<path d="M53.8609 109.045C53.9402 112.202 53.7156 115.306 52.5532 118.277C52.4344 115.121 52.9099 112.056 53.8609 109.045Z" fill="#83AFC9"/>
<path d="M58.4312 159.882C58.6822 160.939 58.9332 161.996 59.1841 163.052C58.0878 162.498 57.6651 161.362 57.4934 160.371C56.4895 154.56 52.8834 149.897 50.6907 144.601C50.6115 143.953 50.5454 143.319 50.4662 142.672C50.7172 142.448 50.9945 142.382 51.3116 142.474C52.9363 143.544 52.8702 145.71 54.2175 146.978C56.6348 147.638 58.0614 148.788 57.8368 151.72C57.6783 153.675 59.2766 155.603 58.5501 157.756C58.3916 158.456 57.8632 159.143 58.4576 159.882H58.4312Z" fill="#637682"/>
<path d="M50.9549 142.673C50.7964 142.673 50.6379 142.673 50.4662 142.673C50.519 142.012 50.5719 141.365 50.6115 140.705C52.6193 135.672 52.3947 130.283 53.174 125.04C54.1911 118.185 54.2836 111.198 55.8423 104.395C56.3706 103.999 56.8858 104.026 57.4273 104.382C57.7047 104.66 57.9029 104.977 58.0482 105.32C58.0217 111.66 58.352 118.039 55.9215 124.115C55.3403 125.581 55.446 127.1 55.6837 128.619C55.8423 130.033 55.7366 131.433 55.512 132.833C55.2214 134.048 54.7723 135.263 55.1158 136.557C55.1422 136.874 55.1158 137.178 55.0761 137.495C54.6138 139.08 54.7327 140.929 53.0287 141.946C52.4079 142.395 51.7475 142.726 50.9549 142.673Z" fill="#69757F"/>
<path d="M57.1632 104.408C56.7273 104.408 56.2782 104.395 55.8423 104.395C55.5914 101.185 54.178 98.2929 53.2666 95.2682C52.5137 92.785 52.2759 90.2623 52.659 87.7923C53.3722 83.0638 52.8043 78.7447 51.021 74.1879C49.8586 71.2293 50.7965 67.4781 50.5455 64.0968C50.0568 57.6248 52.157 51.8925 55.2347 46.3846C59.4484 44.5355 64.5471 46.028 67.5191 49.9905C68.8136 51.734 69.9628 53.5963 71.7064 54.9435C71.9045 55.3794 72.1158 55.8153 72.314 56.2512C69.2363 58.2984 68.7872 54.9964 67.2945 53.7944C66.436 52.8699 65.6038 51.9057 64.8641 50.8754C61.6939 47.2696 59.3955 47.4017 55.5385 51.3905C55.4593 51.6811 55.3404 51.9453 55.2215 52.2227C54.6139 53.8869 53.9138 55.5247 53.4251 57.2418C53.3722 57.572 53.2798 57.8758 53.2005 58.1928C52.8175 63.2119 52.2363 68.231 53.61 73.1973C53.8874 73.6728 54.1119 74.1615 54.3233 74.6502C55.4725 76.1031 55.7631 77.8202 55.7895 79.6033C55.8291 82.3506 56.0008 85.0979 55.7631 87.8188C55.3272 92.8907 56.7273 97.5268 58.6558 102.097C58.6162 103.167 58.2992 104.052 57.1632 104.408Z" fill="#8D888E"/>
<path d="M54.5346 128.831C54.878 126.189 53.359 123.112 56.4235 121.117C56.582 121.011 56.5159 120.483 56.4895 120.166C56.0536 115.107 57.2688 110.128 57.1632 105.082C60.188 101.305 64.3621 99.1783 68.4172 96.7612C72.129 94.5422 75.5237 91.7421 79.209 89.4306C82.181 87.5551 85.021 85.4946 87.993 83.6058C88.9308 83.0115 89.7762 82.3114 89.9876 81.1227C90.4763 79.683 89.1686 79.1018 88.561 78.1773C88.1515 77.3319 88.1251 76.5394 88.8252 75.8262C89.5384 75.4432 90.1989 75.6281 90.8065 76.0639L90.8197 76.0772C91.4405 77.081 92.2991 77.8867 92.9992 78.8377C94.0559 80.2774 95.3108 80.6472 96.7902 79.4056C96.9883 79.3792 97.1733 79.3528 97.3714 79.3C97.5695 79.3264 97.7545 79.3528 97.9526 79.3792C97.5695 80.5151 96.9751 81.5982 98.1771 82.6813C101.03 85.2436 100.489 88.6117 99.8679 91.7685C99.5245 93.5252 99.4981 94.8328 100.594 96.3385C103.395 100.156 105.614 104.409 108.929 107.896C108.414 103.55 106.155 99.8519 104.887 95.8234C104.28 93.895 105.931 89.1929 107.648 88.3212C107.912 88.1891 108.335 88.0966 108.546 88.2155C109.167 88.5589 108.956 89.1401 108.744 89.642C106.961 93.6837 108.071 97.6197 110.065 101.001C111.756 103.867 113.658 106.641 115.243 109.6C115.956 110.934 119.404 110.762 119.959 109.164C121.174 105.677 124.014 103.246 125.388 99.918C126.933 96.18 127.765 92.4025 125.678 88.2815C129.483 89.5231 131.081 93.0629 129.866 96.365C128.413 100.301 126.471 104.079 125.678 108.701C128.915 105.465 130.394 101.569 133.075 98.5311C134.264 97.5405 134.845 96.0744 135.849 94.9385C136.43 94.2648 136.576 93.3799 136.193 92.8119C134.264 89.9458 135.506 86.9475 135.678 84.0021V83.9889C136.536 84.1606 137.883 83.7643 136.893 85.5739C136.219 86.8022 136.919 88.2419 137.791 89.1136C138.768 90.0911 139.376 88.3872 140.208 88.2947C142.163 88.0834 143.88 87.1985 145.716 86.6701C146.879 86.3399 147.5 85.9305 146.932 84.6625C147.566 84.0813 148.147 84.3455 148.715 84.7682C150.155 86.5645 149.798 88.0042 148.107 89.5363C146.456 91.042 144.197 92.0591 143.55 94.3045C145.954 89.8797 150.207 89.0344 154.831 88.9287C158.767 89.3646 161.448 92.1779 164.42 94.2648C167.181 96.2065 169.862 98.2537 172.821 99.9047C174.169 100.658 175.344 101.609 175.952 103.101C175.965 103.326 175.978 103.55 175.991 103.788C176.388 109.758 178.911 115.319 178.263 121.632C177.827 125.951 178.369 130.852 180.628 135.131C181.618 137.033 180.866 139.45 181.817 141.471C179.545 142.184 178.726 140.322 177.801 139.001C175.674 135.976 174.063 132.635 172.227 129.412C171.302 127.787 170.285 126.268 168.793 125.106C167.049 123.349 164.737 123.112 162.241 122.557C162.888 125.238 166.005 126.136 166.098 128.831C164.605 130.772 163.694 133.189 160.92 133.995C159.335 134.457 158.489 136.148 157.248 137.205C155.98 138.288 154.725 139.45 152.889 138.314C152.387 136.056 154.778 135.673 155.544 134.246C157.155 132.938 158.503 131.327 160.167 130.072C161.765 128.857 161.699 127.616 160.326 126.255C158.939 124.881 157.842 123.178 155.848 122.517C154.87 121.685 153.787 120.906 153.946 119.387C154.289 118.475 154.778 117.63 154.936 116.626C155.399 113.747 154.936 112.994 152.096 112.862C147.751 112.651 143.55 112.334 142.876 106.377C141.912 108.186 142.639 109.652 142.546 111.092C142.454 112.664 142.625 114.539 140.103 114.315C139.244 111.805 139.376 109.164 139.099 106.575C138.967 105.347 139.257 103.88 136.985 102.995C138.029 108.12 137.038 112.915 137.302 117.749C137.276 118.106 137.117 118.383 136.827 118.608C135.651 119.083 134.832 118.687 134.304 117.591C134.079 117.089 134.145 116.534 134.04 116.098C127.884 120.51 126.656 126.229 129.826 132.978C130.275 132.291 129.879 131.34 130.315 130.574C130.737 129.821 131.041 128.791 132.204 129.795C133.155 131.393 133.26 133.242 132.824 134.84C131.715 138.895 132.507 142.752 133.419 146.649C133.432 147.613 133.115 148.59 133.366 149.541C133.63 150.558 134.225 151.417 135.453 150.69C139.006 148.564 141.331 150.492 143.471 153.055C144.501 154.613 145.505 154.626 146.456 153.055C146.416 153.094 146.469 153.002 146.469 153.002C146.469 153.002 146.324 153.121 146.298 153.147C145.413 153.741 144.554 154.045 143.643 153.279C143.326 152.817 143.193 152.302 143.273 151.734C143.722 148.168 143.061 147.283 139.442 146.583C138.597 146.424 137.699 146.45 136.88 146.147C135.757 145.737 134.898 145.143 135.638 143.743C137.302 142.448 139.535 143.03 141.278 141.973C143.233 141.603 144.924 140.573 146.681 139.714C147.764 139.186 148.794 138.552 150.075 139.067C150.141 141.59 151.291 144.126 149.864 146.649C149.085 148.022 150.009 148.881 151.145 149.528C151.951 150.347 152.559 151.258 152.625 152.447C152.321 154.574 150.181 155.3 149.23 156.925C148.741 157.36 148.213 157.757 147.658 158.113C145.188 159.461 142.652 158.721 140.301 158.008C136.708 156.925 133.551 154.904 130.737 152.407C128.941 150.809 128.716 148.643 128.611 146.398C128.386 141.946 124.212 137.614 119.747 137.561C116.908 137.535 114.068 137.059 111.28 139.041C108.256 141.18 106.406 143.36 106.406 147.256C106.393 151.615 102.246 155.194 96.3807 156.542C94.6503 156.859 92.9464 157.334 91.3217 158.034C90.3838 158.364 89.446 158.549 88.5478 157.915C87.5307 156.819 86.9495 155.34 85.5757 154.534V154.521C84.6379 152.975 86.1437 152.79 86.8702 152.156C88.059 151.087 90.0272 151.245 90.8858 149.647C93.303 148.815 95.9184 148.234 96.6581 145.222C97.5695 144.456 98.5338 144.416 99.5377 145.024C100.079 145.513 100.317 146.133 100.436 146.82C100.568 147.745 100.132 148.735 100.832 149.911C102.563 146.384 103.949 143.03 103.197 139.16C102.206 136.095 101.572 133.031 102.827 129.887C103.765 128.804 104.28 129.504 104.742 130.363C105.218 131.248 104.795 132.291 105.257 133.282C105.97 131.855 106.393 130.416 106.737 128.976C107.635 125.172 107.252 121.685 104.055 118.898C102.84 117.828 101.77 116.573 100.7 115.372C100 115.041 99.5113 116.098 98.798 115.702C97.1072 114.143 97.728 112.069 97.6092 110.181C97.4506 107.935 97.8205 105.677 97.8337 103.141C95.9316 103.867 96.1958 105.294 96.0373 106.469C95.6939 109.124 96.0769 111.885 94.8485 114.421C92.3388 114.236 92.5105 112.307 92.4576 110.617C92.418 108.9 93.0653 107.196 92.5897 105.479C92.4973 104.409 92.2595 103.55 90.8858 104.263C89.6045 105.109 90.4499 106.284 90.4631 107.288C90.4763 109.692 89.2875 111 86.9759 111.251C85.2323 111.436 83.4491 111.475 81.7187 111.251C80.0808 111.039 78.4297 109.851 77.2541 112.215C76.8974 112.915 75.8539 112.268 75.1538 111.99C72.2214 110.788 69.5532 111.198 67.2945 113.456C65.4584 115.279 63.5695 116.89 60.7164 116.56C59.6068 116.428 59.1445 117.102 59.0653 118.132C58.9596 119.453 58.92 120.774 59.0124 122.081C59.1973 125.489 57.4802 127.55 54.5346 128.831Z" fill="#716F70"/>
<path d="M54.5215 51.6415C57.3482 45.8695 61.4298 45.7506 65.7359 50.3207C64.9434 51.3113 63.8074 51.1132 62.7375 51.1792C61.2052 51.2717 60.7429 52.3019 60.6769 53.5963C60.6108 55.0228 61.7732 54.9832 62.7111 55.1152C64.8113 55.419 66.8058 55.4322 67.7305 52.9623C69.4476 53.7944 69.4609 57.0172 72.3272 56.2644C75.8408 60.6363 79.3676 64.995 82.8548 69.3933C83.4624 70.1594 83.9776 70.9783 84.889 71.4406C86.6062 71.8632 87.1081 73.3426 87.7421 74.7162C87.9006 75.905 88.0063 77.1333 88.4158 78.256C89.8952 82.2977 89.948 82.3241 86.3288 84.9394C78.2977 90.751 69.8439 95.9154 61.6279 101.436C60.5976 102.136 59.4748 103.576 57.8369 102.453C53.0156 95.3871 54.8121 87.3565 54.5479 79.6429C54.4818 77.8598 54.4422 76.1559 53.2006 74.7426C54.5611 73.0124 54.7989 71.0311 54.6668 68.9178C54.3497 64.1497 54.0724 59.3815 55.7367 54.7586C56.2122 53.4246 55.3933 52.5 54.5215 51.6415Z" fill="#978686"/>
<path d="M86.8702 74.7559C86.2098 73.6597 85.5361 72.5502 84.8757 71.4539C85.0078 70.7142 84.0171 69.8161 84.7436 69.3274C85.6682 68.6934 85.9324 69.8689 86.3683 70.4104C87.8609 72.2992 89.3403 74.188 90.8329 76.0768C90.1725 76.0768 89.4988 76.0768 88.8384 76.09C87.5043 76.6051 87.4514 75.2975 86.8702 74.7559Z" fill="#69767D"/>
<path d="M96.8035 79.3924C95.8921 81.5982 94.5844 81.6246 93.1314 79.9736C92.1407 78.8377 91.1104 77.6621 90.8198 76.0771C92.8408 77.1206 93.8711 79.9736 96.8035 79.3924Z" fill="#69767D"/>
<path d="M153.523 178.308C152.664 178.757 151.793 179.219 150.934 179.668C149.27 179.127 147.817 179.867 146.773 180.91C142.573 185.084 137.606 187.171 131.662 186.959C130.817 186.933 129.958 187.342 129.113 187.554L129.099 187.54C128.029 186.325 128.558 185.189 129.496 184.357C131.226 182.812 132.388 180.765 134.211 179.18C132.732 179.616 131.49 178.889 130.169 178.612C129.205 178.559 128.399 177.951 127.462 177.846C125.995 177.172 124.489 176.604 122.891 176.353C121.755 175.772 120.487 175.442 119.457 174.702C117.713 173.461 117.462 171.81 118.334 169.908C119.206 168.626 120.051 167.345 120.936 166.077C121.385 165.311 121.967 164.651 122.561 164.003C123.314 163.343 124.001 162.603 124.476 161.705C124.648 161.454 124.859 161.23 125.071 161.018C126.233 160.226 127.29 159.262 128.703 158.905C133.736 158.205 134.845 159.262 133.908 163.99C133.498 166.064 133.524 168.111 134.026 170.158C134.845 173.487 137.672 174.913 140.776 173.527C141.873 173.038 142.85 172.298 144.012 171.942C145.399 171.651 146.482 171.03 146.641 169.445C146.773 168.204 147.592 167.253 148.028 166.143C148.847 164.069 150.643 163.237 152.545 164.175C156.006 165.866 159.507 165.721 163.099 165.192C164.407 164.994 165.53 165.087 165.926 166.632C165.754 168.217 164.605 169.075 163.364 169.696C161.686 170.528 160.339 171.717 159.084 173.064C157.803 174.596 156.125 175.653 154.619 176.921C154.263 177.383 153.893 177.846 153.523 178.308Z" fill="#DADADA"/>
<path d="M172.015 155.207C172.029 155.313 172.015 155.484 172.082 155.511C176.137 157.756 175.569 160.979 173.97 164.413L173.957 164.426C172.372 164.77 172.2 163.079 171.223 162.551C170.602 162.128 169.981 161.718 169.374 161.296C167.102 161.349 166.534 159.288 165.305 158.033C164.434 156.197 162.809 155.92 160.999 155.537C158.12 154.929 154.685 155.643 152.625 152.631C152.07 150.558 152.995 149.752 154.989 149.99C155.742 150.082 156.587 150.439 157.235 150.042C161.673 147.322 165.319 149.488 168.951 151.839C169.321 152.077 169.704 152.275 170.113 152.433C171.051 153.133 172.24 153.675 172.015 155.207Z" fill="#151515"/>
<path d="M166.23 157.822C167.762 158.549 168.132 160.306 169.361 161.309C170.985 164.228 169.981 166.025 167.168 167.623C164.434 169.168 162.016 171.282 159.454 173.144C159.176 173.355 158.952 173.316 158.767 173.025C160.246 170.225 163.615 169.578 165.438 167.174C166.626 165.444 165.345 165.272 164.209 165.51C162.294 165.919 160.326 165.496 158.45 166.091C157.512 166.381 156.733 166.315 156.482 165.153C157.472 163.753 158.397 162.577 158.331 160.491C158.252 157.77 163.192 156.264 166.23 157.822Z" fill="#A09E9C"/>
<path d="M158.767 173.012C158.991 173.051 159.229 173.091 159.454 173.131C158.159 174.782 156.812 176.393 154.619 176.921C155.478 175.046 157.274 174.187 158.767 173.012Z" fill="#6E8290"/>
<path d="M171.21 162.551C172.121 163.172 173.033 163.806 173.944 164.426C171.95 165.391 171.765 163.7 171.21 162.551Z" fill="#15202F"/>
<path d="M172.016 155.207C171.342 154.56 170.681 153.912 170.008 153.278C168.462 152.275 166.996 151.139 165.305 150.333C163.073 149.263 160.946 148.352 158.556 150.148C157.486 150.954 155.993 150.835 154.738 150.307C153.457 149.765 152.176 149.871 150.868 149.95C147.936 149.184 147.341 148.008 149.019 145.908C149.719 145.023 150.102 144.178 149.613 143.227C148.821 141.708 149.323 140.506 150.208 139.317C150.406 137.732 151.317 137.455 152.664 137.983C154.408 138.419 155.518 137.349 156.733 136.385C158.569 134.932 159.295 131.762 162.598 132.489C162.703 132.515 163.033 132.159 163.007 132.119C161.409 129.253 165.253 130.349 165.424 128.79C166.085 128.447 166.706 128.619 167.313 128.949C171.091 132.211 174.261 135.883 175.542 140.889C176.071 142.95 177.154 144.706 179.109 145.789C180.1 146.331 180.786 147.163 181.209 148.22C177.814 147.757 176.626 149.29 177.26 152.539C177.603 154.282 175.701 155.445 175.965 157.201C174.657 156.514 173.336 155.854 172.016 155.207Z" fill="#716F70"/>
<path d="M181.222 148.193C177.431 146.701 174.882 144.138 174.089 140.017C173.204 135.421 169.308 132.911 166.772 129.464C165.781 127.628 164.341 126.175 162.915 124.683C162.347 124.088 161.396 123.494 161.924 122.503C162.531 121.394 163.403 122.226 164.196 122.411C165.992 122.834 167.657 123.573 169.347 124.26C172.861 126.545 173.825 130.587 175.939 133.823C177.695 136.517 178.633 139.832 181.803 141.431C182.609 141.906 184.181 141.497 183.917 143.227C183.415 144.336 182.913 145.459 182.398 146.569C182.015 147.123 181.619 147.665 181.222 148.193Z" fill="#111113"/>
<path d="M135.691 83.9619C135.81 87.0658 135.598 90.1037 136.893 93.168C138.201 96.2588 134.489 96.7607 133.102 98.4909C136.906 94.9643 133.868 90.3283 135.03 86.3658C135.268 85.5733 134.911 84.6223 135.691 83.9619Z" fill="#706F6A"/>
<path d="M129.1 181.61C123.367 184.094 117.449 183.552 111.452 182.997C108.797 182.746 107.12 181.307 105.35 179.722C105.561 178.929 106.301 178.599 106.829 178.071C107.08 177.886 107.358 177.767 107.661 177.674C109.326 177.252 111.003 176.895 112.588 176.208C113.064 176.076 113.553 176.05 114.041 176.023C116.34 175.627 118.638 175.455 120.923 176.037C121.267 176.037 121.584 176.103 121.914 176.195C123.129 176.723 124.41 177.133 125.626 177.661C126.748 178.335 127.964 178.639 129.271 178.731C130.117 178.797 131.134 178.995 131.121 180.078C131.081 181.227 130.222 181.69 129.1 181.61Z" fill="#DAD9DF"/>
<path d="M129.1 181.61C129.377 180.936 130.5 180.949 130.42 179.774C128.65 179.444 126.563 179.998 125.137 178.361C125.89 177.225 126.946 177.555 127.964 177.806C128.756 178.004 129.535 178.545 130.288 177.713C131.979 177.872 133.736 179.325 135.308 177.317C135.625 176.908 136.391 176.974 136.708 177.528C137.117 178.255 136.642 178.796 136.021 179.074C133.234 180.342 132.719 183.855 129.932 185.176C129.113 185.559 129.1 186.642 129.113 187.527C127.726 187.527 126.326 187.527 124.925 187.527C124.463 184.251 127.871 183.697 129.1 181.61Z" fill="#D4D1D2"/>
<path d="M103.368 179.695C103.329 180.026 103.342 180.356 103.249 180.673C103.078 181.28 102.615 181.597 102.008 181.439C99.2472 180.713 96.1563 184.252 93.6069 180.779C93.105 180.105 92.1143 179.616 92.5106 178.586C92.8936 177.595 93.7786 177.186 94.8354 177.014C97.4111 176.592 99.7227 177.49 102.061 178.322C102.417 178.85 103.236 178.956 103.368 179.695Z" fill="#D5DDD9"/>
<path d="M121.808 166.434C121.121 167.676 120.461 168.931 119.259 169.789C118.043 169.604 117.317 170.463 116.498 171.11C115.415 169.565 114.345 168.006 113.262 166.461C113.526 162.393 113.037 161.811 109.894 162.564C109.022 161.825 108.15 161.098 107.278 160.359C107.159 158.391 107.925 156.938 109.801 156.172C110.118 156.132 110.422 156.172 110.726 156.264C111.452 158.391 113.46 159.13 115.111 160.253C116.498 162.01 116.96 164.03 116.723 166.263C117.053 164.559 118.294 163.951 119.734 163.568C121.293 163.885 121.28 165.351 121.808 166.434Z" fill="#856C68"/>
<path d="M116.498 171.096C116.934 170.317 115.296 169.154 116.749 168.745C117.528 168.52 118.942 168.203 119.259 169.775C117.159 174.028 121.174 174.108 123.208 175.534C123.01 176.525 126.511 175.23 124.371 177.41C123.499 177.278 122.601 177.449 121.769 177.053C121.57 177.066 121.372 177.027 121.201 176.934C118.783 175.943 116.353 175.943 113.922 176.908C113.526 176.961 113.117 177 112.72 177.053C112.324 177.278 111.901 177.33 111.452 177.317C110.937 177.291 110.237 177.489 110.052 176.828C109.775 175.851 110.964 176.168 111.254 175.64C112.483 174.953 113.962 174.979 115.164 174.226C115.587 173.17 116.657 172.39 116.498 171.096Z" fill="#3D3936"/>
<path d="M88.8648 171.704C89.7366 172.365 90.6084 173.038 91.4802 173.699C89.8027 176.34 87.2269 176.353 84.5323 176.116C83.4491 176.023 82.3132 175.468 82.2603 174.623C82.1811 173.514 83.568 173.368 84.4794 173.144C85.9721 172.761 87.861 173.606 88.8648 171.704Z" fill="#D7DED7"/>
<path d="M109.894 162.564C109.92 161.296 110.369 160.491 111.835 160.596C113.619 160.728 114.213 161.97 114.517 163.423C114.768 164.664 114.609 165.84 113.262 166.461C112.139 165.153 111.016 163.859 109.894 162.564Z" fill="#301E20"/>
<path d="M109.867 156.66C108.48 157.518 108.824 159.592 107.291 160.358C106.856 159.975 106.406 159.579 105.971 159.196C105.389 157.729 105.218 156.369 106.895 155.458C107.41 155.233 107.939 155.154 108.493 155.233C109.233 155.418 109.788 155.801 109.867 156.66Z" fill="#302929"/>
<path d="M111.254 175.641C109.801 178.097 112.509 176.301 112.707 177.067C111.069 178.071 109.233 178.309 107.357 178.361C106.261 178.375 106.182 177.859 106.697 177.054C108.229 176.592 109.524 175.416 111.254 175.641Z" fill="#5D5D5D"/>
<path d="M106.71 177.054C106.935 177.49 107.146 177.926 107.371 178.361C107.357 178.546 107.331 178.731 107.278 178.903C105.944 179.114 104.491 180.263 103.461 178.361C104.716 178.375 105.376 176.869 106.71 177.054Z" fill="#8E9092"/>
<path d="M103.448 178.361C104.584 179.523 105.971 178.863 107.265 178.902C106.842 179.682 106.037 179.576 105.337 179.721C104.676 179.708 104.016 179.708 103.355 179.695C102.589 179.55 102.074 179.153 102.047 178.321C102.523 178.334 102.985 178.348 103.448 178.361Z" fill="#B6B9BB"/>
<path d="M107.331 155.96C105.905 156.62 105.957 157.915 105.957 159.183L105.667 159.209L105.389 159.13C105.337 158.707 105.284 158.284 105.231 157.862C104.65 155.814 105.204 155.035 107.331 155.96Z" fill="#927674"/>
<path d="M115.164 174.214C114.107 175.363 112.747 175.693 111.254 175.627C112.377 174.676 113.711 174.28 115.164 174.214Z" fill="#5D5D5D"/>
<path d="M175.965 103.075C169.836 99.7859 164.368 95.5064 158.661 91.5704C157.525 90.7911 156.455 89.7212 154.857 89.9061C152.77 89.074 150.379 88.6514 149.613 86.0361C149.468 84.9663 149.97 84.187 150.643 83.4077C151.502 82.4171 153.814 82.2058 153.087 80.4491C152.466 78.9433 150.736 80.2509 149.521 80.1321C147.83 79.9604 146.416 79.6037 146.945 77.3848C148.702 77.0413 149.719 75.8922 150.247 74.2808C150.841 72.4845 151.885 71.0712 153.523 70.107C154.566 71.0977 153.259 72.3524 153.972 73.7921C157.684 70.9788 161.448 68.4956 166.085 71.4147C167.696 72.3921 168.977 74.0827 171.474 73.8053C170.708 71.0844 169.678 68.6409 169.493 65.8936C169.176 61.2575 172.61 58.6819 174.591 55.3139C175.159 54.3497 176.308 54.5874 177.18 55.3139C178.528 56.7271 178.488 58.5234 178.462 60.2669C178.396 65.2993 178.779 70.3448 178.158 75.3771C178.078 76.0243 177.986 76.6979 178.58 77.2791C179.769 77.5961 179.967 75.5752 181.249 76.0507C181.09 81.5321 180.02 86.9079 180.905 92.5214C181.288 94.9781 178.765 97.9367 177.405 100.592C176.982 101.437 176.018 101.992 175.965 103.075Z" fill="#978686"/>
<path d="M181.235 76.0633C180.166 77.2652 180.456 80.3692 178.316 79.6559C176.493 79.0483 176.929 76.618 177.035 74.4519C177.339 68.1912 178.026 61.8513 176.625 55.6038C174.38 53.3716 170.84 53.9263 170.008 56.7925C169.374 58.9587 168.409 60.755 166.811 62.3532C165.134 64.0174 164.843 66.1307 165.319 68.4157C165.57 69.6177 166.507 70.8593 165.398 72.114C161.792 70.1064 158.701 71.3347 155.914 73.7651C154.831 74.716 154.064 76.1161 152.453 74.6368C150.881 73.1839 152.519 72.3914 153.113 71.3744C153.325 71.0178 153.378 70.5555 153.51 70.146C155.214 65.6024 160.141 64.4533 163.047 61.1644C163.535 60.6097 164.592 60.3455 164.552 59.553C164.381 56.0793 166.904 54.0848 168.687 51.6809C170.51 50.1224 172.306 48.5506 174.142 47.0184C174.895 46.3845 175.701 45.6976 176.652 46.7939C178.95 49.3959 181.698 51.8394 181.79 55.5906C181.949 61.8116 181.856 68.0327 181.803 74.2538C181.83 74.8217 181.447 75.4425 181.235 76.0633Z" fill="#988582"/>
<path d="M146.945 77.3848C147.803 80.0397 149.653 79.049 151.462 78.7717C152.453 78.6132 154.051 77.0942 154.514 79.5113C154.844 81.2284 154.923 82.8134 152.704 83.3153C151.277 83.6323 150.419 84.4776 150.207 85.9437C149.336 86.3796 148.873 85.6003 148.252 85.2833C147.817 85.0588 147.367 84.8475 146.932 84.6229C145.201 83.2493 144.567 81.4794 144.963 79.3264C145.413 78.666 145.848 78.0056 146.298 77.3584C146.522 77.3716 146.733 77.3848 146.945 77.3848Z" fill="#918781"/>
<path d="M107.331 155.96C105.746 155.616 105.363 156.607 105.231 157.875C104.161 157.928 103.012 157.637 102.087 158.483C100.978 159.513 99.868 159.103 98.7584 158.509C98.3753 158.298 98.0319 158.02 97.6488 157.809C96.2619 157.03 95.1391 157.796 94.0428 158.496C93.8711 158.602 93.7786 159.222 93.9107 159.341C95.0731 160.451 95.7864 158.575 97.1337 158.932C96.1166 161.626 96.8431 163.357 100.026 163.37C100.119 163.37 100.198 163.489 100.277 163.555C101.77 164.862 101.691 169.947 99.7227 172.536C98.3886 174.293 96.2487 174.465 94.1485 173.487C90.7141 171.889 88.4818 169.604 88.7856 165.43C89.0102 162.339 87.8213 159.434 86.8439 156.541C87.7289 156.158 88.2176 156.845 88.812 157.254C89.4989 158.205 90.1461 157.479 90.8066 157.201C92.5237 156.515 94.5315 156.99 96.1562 155.907C99.0226 154.983 101.281 153.054 103.699 151.39C105.191 150.373 105.257 148.894 105.323 147.335C105.535 142.038 109.22 137.231 114.12 135.804C117.251 134.893 127.105 138.525 128.875 141.338C129.852 142.884 129.852 144.693 129.707 146.45C129.483 149.224 130.394 151.245 132.824 152.79C136.338 155.009 139.746 157.32 144.065 157.703C145.307 157.809 146.456 157.822 147.526 157.109C148.86 158.179 148.741 159.698 148.292 160.966C147.341 163.66 147.288 166.46 146.918 169.221C147.169 171.295 145.637 172.114 144.224 173.012C142.19 173.685 140.684 176.023 138.333 175.429C135.612 174.742 132.89 173.91 132.732 170.079C132.653 168.138 132.164 166.196 132.613 164.241C133.683 159.553 133.353 159.183 128.452 159.843C128.254 159.645 128.122 159.407 128.056 159.13C128.016 158.205 128.36 157.188 127.409 156.475C123.737 155.471 120.263 153.86 116.26 154.124C113.592 154.309 111.215 155.352 108.652 155.775C108.216 155.854 107.78 155.907 107.331 155.96Z" fill="#9D9D9D"/>
<path d="M54.5345 128.831C55.5516 127.88 54.7327 125.383 57.3349 125.661C57.8896 125.713 57.7972 124.564 57.8104 123.93C57.8368 122.623 57.8236 121.302 57.8236 119.994C57.8236 115.649 57.8236 115.609 62.0108 115.649C63.6884 115.662 64.547 114.526 65.5377 113.536C69.4739 109.679 71.1515 109.362 76.2766 111.528C77.505 112.056 77.4918 111.251 77.4126 110.405C77.3597 109.771 75.9728 109.124 77.2408 108.582C78.0598 108.226 79.0769 108.12 79.9355 109.032C81.3488 110.537 86.923 110.934 88.5345 109.784C89.763 108.913 89.7894 107.579 89.2743 106.548C88.2704 104.58 89.1686 103.748 90.8065 103.114C91.4141 103.577 91.6783 104.224 91.784 104.963C91.7708 110.458 90.2649 112.241 85.1398 112.783C79.526 113.377 79.526 113.377 80.5827 119.149C80.7544 120.509 79.7902 121.223 78.9712 122.028C77.8749 122.887 77.0295 123.996 75.9464 124.855C72.829 127.576 72.829 127.576 74.85 130.178C77.0031 132.674 79.3014 135.012 82.0753 136.835C82.2735 137.086 82.4056 137.363 82.4452 137.68C82.3924 137.997 82.2603 138.274 82.0621 138.525C80.9129 139.542 79.6581 140.361 78.0994 140.639C77.6107 140.731 77.439 141.207 77.5843 141.656C77.756 142.237 78.2315 142.105 78.6278 141.933C80.728 140.982 83.3434 141.114 84.9153 139.014C85.9192 138.618 86.8306 139.027 87.7552 139.305C89.6573 140.375 91.7708 141.022 93.6596 142.131C95.7863 143.386 97.8601 142.475 99.9471 141.933C101.057 143.241 101.4 144.443 99.498 145.354C98.547 145.381 97.5167 145.13 96.7506 145.988C95.6938 147.256 94.188 147.137 92.8275 147.032C90.3046 146.833 89.763 147.784 90.8197 149.951C91.1499 150.479 92.1406 150.994 90.648 151.443C88.6931 152.024 87.0551 153.2 85.5493 154.56C84.0039 153.9 82.4584 153.239 80.9129 152.592C81.1375 152.368 81.3488 152.156 81.5734 151.932C81.864 150.505 80.9394 150.796 80.094 150.849C78.324 150.968 76.4879 151.351 74.9821 149.924C71.3496 148.286 69.0513 151.364 66.3038 152.579C64.3621 153.438 62.8166 155.181 61.0862 156.528C60.0691 157.149 59.1841 158.087 57.8236 157.889C58.5765 154.877 55.3271 152.328 56.8329 149.145C57.1103 148.564 56.08 148.273 55.3799 148.577C54.5213 148.947 53.7024 149.237 53.2665 148.022C57.2424 145.394 59.4351 141.55 60.9541 137.125C61.6938 134.959 63.16 133.15 65.2735 132.001C67.202 131.34 68.8927 130.693 69.3551 128.17C69.857 125.383 72.7762 124.062 74.4802 121.328C70.7024 122.279 67.6643 123.904 64.4677 125.106C63.979 125.291 63.5959 125.793 63.0411 125.872C62.1561 125.991 60.4258 125.344 61.958 127.325C62.2618 127.721 61.9844 128.593 61.5749 128.817C58.7218 130.429 59.4219 133.546 58.4708 135.95C57.5858 137.495 57.7443 140.018 54.9176 139.767C53.9533 139.133 53.9401 138.327 54.4949 137.416C54.4949 137.191 54.4949 136.967 54.4949 136.756C53.993 135.659 53.993 134.563 54.4949 133.467C54.5213 131.908 54.5345 130.363 54.5345 128.831Z" fill="#716F70"/>
<path d="M71.6931 155.366C71.4554 155.313 71.2176 155.247 70.9799 155.194C73.6745 153.847 76.5937 153.9 79.4865 153.741C77.1088 155.3 74.3085 154.904 71.6931 155.366Z" fill="#716F70"/>
<path d="M88.8385 157.255C88.178 157.017 87.5308 156.779 86.8703 156.541C86.4344 155.881 85.9985 155.22 85.5626 154.547C87.2005 154.798 88.0591 155.96 88.8385 157.255Z" fill="#716F70"/>
<path d="M99.9207 161.851C99.4716 162.075 99.181 162.326 98.9829 162.274C98.7716 162.221 98.6395 161.864 98.481 161.64C98.6659 161.534 98.864 161.323 99.0093 161.349C99.2603 161.389 99.4848 161.6 99.9207 161.851Z" fill="#9D9D9D"/>
<path d="M74.9822 149.91C76.9899 150.491 78.9713 151.059 81.0319 150.055C81.5999 149.778 82.4321 149.857 82.6566 150.676C82.8812 151.495 82.3132 151.839 81.5735 151.918C80.6092 150.914 79.3808 151.389 78.258 151.323C76.9899 151.257 75.669 151.35 74.9822 149.91Z" fill="#393537"/>
<path d="M57.8369 157.875C58.9201 157.426 60.0164 156.964 61.0995 156.515C60.5976 157.941 58.4181 158.034 58.4445 159.87C57.7841 159.354 57.9294 158.575 57.8369 157.875Z" fill="#152532"/>
<path d="M55.2083 139.41C57.3217 138.855 56.3971 136.332 57.8237 135.342C58.6955 132.159 60.6108 129.477 62.3015 126.743C64.5338 123.124 68.84 122.939 72.4196 121.724C73.5952 121.328 74.3349 122.847 73.3311 123.586C70.0288 126.07 69.3948 130.653 65.7623 132.806C62.5657 134.866 61.5354 138.247 60.3598 141.55C59.1578 144.931 57.15 147.493 53.2798 148.008C52.5004 146.238 51.7211 144.455 50.9418 142.685C51.2324 141.933 51.8268 141.536 52.5797 141.365C53.7949 141.153 54.2308 139.925 55.2083 139.41Z" fill="#161618"/>
<path d="M86.8703 74.7559C87.5175 75.1917 88.1779 75.6276 88.8252 76.0767C88.8516 76.8031 88.8252 77.5428 89.4989 78.0447C90.2914 79.0617 91.0839 80.092 91.4802 81.3468C88.8384 85.0451 84.7436 86.8678 81.1375 89.2981C73.2121 94.6474 65.1678 99.825 57.1764 105.082C57.1764 104.857 57.1764 104.646 57.1764 104.421C57.4009 103.774 57.6255 103.114 57.8368 102.467C61.5222 101.661 64.1772 99.0854 67.1756 97.0909C73.6084 92.8379 79.9355 88.4396 86.3815 84.1997C88.561 82.76 89.5121 81.4128 87.8213 78.8768C87.0816 77.7673 87.1609 76.1427 86.8703 74.7559Z" fill="#847D7B"/>
<path d="M55.2083 139.41C54.7063 140.546 54.1119 141.577 52.5929 141.365C54.4157 140.626 52.8307 138.222 54.5214 137.416C54.5214 138.156 54.5214 138.895 55.2083 139.41Z" fill="#716F70"/>
<path d="M54.5214 133.453C54.5214 134.549 54.5214 135.646 54.5214 136.742C53.5967 135.646 53.5967 134.549 54.5214 133.453Z" fill="#716F70"/>
<path d="M54.5214 51.6417C57.4538 51.0737 57.5199 53.2927 56.9387 54.8117C55.3272 58.9987 55.5385 63.2253 55.8159 67.5312C55.9216 69.0501 55.7498 70.5823 55.8555 72.1012C56.0008 74.0956 55.1554 74.941 53.1873 74.7296C52.9627 74.5051 52.7514 74.2938 52.5268 74.0692C51.9985 68.3501 51.9853 62.6309 52.5268 56.9118C54.0987 55.4985 54.0195 53.4644 54.5214 51.6417Z" fill="#978582"/>
<path d="M67.7172 52.9621C68.5758 56.5944 68.5758 56.5944 64.9037 56.2906C64.4678 56.251 64.0187 56.317 63.596 56.2642C61.7468 56.0264 58.9465 57.1623 59.3031 53.5565C59.6333 50.1884 60.5183 49.6865 64.415 50.2941C64.8509 50.3469 65.3 50.3205 65.7359 50.3205C66.3963 51.2054 67.0568 52.0772 67.7172 52.9621Z" fill="#978582"/>
<path d="M52.5401 56.9248C52.5401 62.644 52.5401 68.3631 52.5401 74.0823C51.4701 68.3631 51.4569 62.644 52.5401 56.9248Z" fill="#978686"/>
<path d="M54.5214 51.6416C54.5082 53.6492 54.9177 55.8022 52.54 56.9117C53.2005 55.1682 53.8609 53.3983 54.5214 51.6416Z" fill="#978686"/>
<path d="M131.781 129.544C130.143 131.552 131.424 133.982 130.764 137.02C127.871 132.608 126.682 128.474 127.105 123.983C127.554 119.03 132.415 117.062 134.647 112.836C135.704 114.513 134.977 115.755 134.898 116.97C134.555 119.123 135.374 119.347 136.985 118.225C137.117 118.026 137.117 117.828 137.012 117.63C137.104 115.557 137.936 114.183 140.274 114.289C142.19 113.562 141.516 111.977 141.45 110.643C141.384 109.335 140.988 108.041 141.001 106.733C141.014 105.505 141.476 104.092 142.876 104.026C144.158 103.973 143.867 105.505 144.131 106.35C145.769 111.462 145.743 111.462 152.664 111.779C154.117 111.845 156.548 111.449 156.297 113.443C156.033 115.464 157.578 118.528 154.197 119.585C153.008 120.245 152.149 119.36 151.198 118.938C150.128 117.987 148.821 117.868 147.473 117.947C147.024 117.947 146.575 117.947 146.126 117.947C144.396 118.198 142.48 117.274 140.961 118.806C138.399 120.206 136.549 122.306 135.057 124.749C133.723 126.176 134.119 128.791 131.781 129.544Z" fill="#D8D8D8"/>
<path d="M80.2922 119.65C77.7561 118.012 78.6279 115.239 78.6807 113.152C78.7336 111.17 81.3093 111.976 82.8151 111.699C83.1322 111.633 83.4756 111.659 83.7926 111.646C89.8291 111.382 90.0008 111.237 90.8991 105.214C91.4274 103.906 92.2332 103.549 93.422 104.487C94.3994 106.231 93.9239 108.001 93.6465 109.823C93.3956 111.421 92.6559 113.284 94.7561 114.367C95.826 114.288 96.4865 115.027 97.213 115.608C97.9659 116.216 98.6792 116.401 99.4189 115.635C99.8416 114.935 99.2075 113.812 100.198 113.416C100.621 113.244 100.819 113.799 100.885 114.235C100.832 114.79 100.951 115.318 101.149 115.833C102.523 119.36 102.391 119.663 98.9301 121.235C96.8959 121.407 95.8789 119.505 94.2145 118.924C90.8198 117.497 87.4251 117.286 84.0436 118.937C82.8548 119.518 81.7584 120.588 80.2922 119.65Z" fill="#D5D5D5"/>
<path d="M99.4981 145.354C100.053 144.231 100.304 143.122 99.366 142.052C97.0148 140.454 94.1352 140.758 91.5859 139.912C91.2953 139.741 91.0707 139.503 90.8858 139.226C89.8158 136.676 92.0218 136.756 93.3559 136.135C94.3201 135.554 95.4429 135.171 96.0109 134.074C96.711 133.295 97.1468 132.37 97.5563 131.433C98.864 129.729 98.2564 127.721 98.481 125.832C98.6527 124.644 99.1414 123.785 100.502 123.785C103.064 124.921 103.857 126.916 103.289 129.57C103.276 132.872 102.615 136.267 104.61 139.305C103.448 143.373 103.382 147.811 100.449 151.496C99.049 150.202 100.304 148.458 99.432 147.256C99.4584 146.622 99.4848 145.988 99.4981 145.354Z" fill="#161915"/>
<path d="M131.781 129.544C132.785 127.813 132.996 125.713 134.383 124.168C137.104 125.132 135.585 127.496 136.034 129.2C136.325 131.974 137.699 134.021 140.182 135.302C141.278 136.029 142.744 135.553 143.801 136.386C144.514 137.059 144.726 137.812 144.184 138.697C143.973 138.974 143.722 139.199 143.418 139.357C142.295 139.833 141.093 139.767 139.931 139.674C137.593 139.503 136.219 140.414 135.955 142.805C135.546 143.835 135.123 144.839 135.81 145.922C136.1 146.384 136.193 146.952 136.206 147.494C136.232 148.933 136.351 150.901 134.845 151.166C132.996 151.496 133.049 149.435 132.772 148.101C132.706 147.771 132.6 147.48 132.455 147.19C132.058 145.618 131.675 144.06 131.266 142.501C130.09 138.129 132.653 133.902 131.781 129.544Z" fill="#171A17"/>
<path d="M103.289 129.57C102.444 127.813 101.598 126.056 100.753 124.3C99.934 123.269 98.1508 122.847 98.7055 120.971C100.581 119.545 101.81 117.96 100.185 115.529C100.053 115.331 100.634 114.671 100.885 114.222C109.59 121.869 109.577 125.039 105.389 135.844C105.297 136.081 104.927 136.2 104.504 136.504C103.144 134.259 105.046 131.551 103.289 129.57Z" fill="#D6D7D6"/>
<path d="M132.441 147.19C133.102 148.365 133.775 149.541 134.647 151.099C135.757 147.824 134.793 144.918 135.123 142.091C135.387 141.867 135.651 141.853 135.915 142.078C136.272 142.672 136.298 143.24 135.796 143.782C135.902 145.631 137.302 145.248 138.438 145.314C139.614 145.38 141.106 144.944 141.807 146.001C142.89 147.639 146.232 146.595 145.875 148.907C145.677 150.201 144.092 151.601 143.603 153.226C142.731 153.08 141.807 153.569 141.199 152.222C140.195 150.003 138.319 150.32 136.497 151.244C135.612 151.694 134.964 153.12 133.736 152.05C132.587 151.046 131.504 149.924 132.336 148.141C132.481 147.89 132.415 147.52 132.441 147.19Z" fill="#716F70"/>
<path d="M156.178 122.253C157.789 122.174 163.033 126.585 163.126 128.078C163.166 128.725 162.756 129.082 162.347 129.438C160.312 131.235 158.265 133.018 156.218 134.814C155.306 135.25 154.699 136.056 153.893 136.61C152.625 137.495 151.885 137.046 151.634 135.58C151.674 134.656 152.149 133.969 152.823 133.374C155.121 131.723 155.134 129.319 154.936 126.849C154.989 125.225 154.699 123.495 156.178 122.253Z" fill="#D4D2D3"/>
<path d="M99.4188 115.622C99.5509 116.455 99.8943 117.3 99.2338 118.251C97.2789 117.498 96.3279 115.556 94.756 114.354C93.5408 110.881 95.1919 107.447 94.9409 103.946C94.8352 102.48 96.46 100.948 98.0847 101.199C100.251 101.516 99.1414 103.365 99.0357 104.673C98.7187 108.345 97.9658 112.03 99.4188 115.622Z" fill="#222021"/>
<path d="M140.288 114.275C139.204 115.384 138.121 116.507 137.025 117.617C135.73 117.564 135.744 116.745 135.915 115.794C136.655 111.765 136.576 107.75 135.876 103.722C135.73 102.876 135.387 101.886 136.312 101.331C137.329 100.736 138.227 101.344 138.953 102.044C139.416 102.493 140.116 103.127 140.063 103.603C139.64 107.182 141.516 110.695 140.288 114.275Z" fill="#222122"/>
<path d="M166.23 157.822C164.236 157.399 162.347 158.324 160.656 158.892C157.618 159.909 159.216 162.062 160.458 163.739C159.441 165.06 157.737 163.938 156.838 165.073C155.689 166.104 154.553 165.734 153.695 164.783C152.876 163.885 153.431 162.973 154.157 162.207C157.037 161.785 156.403 158.588 158.04 157.162C158.357 156.884 157.869 156.29 157.433 156.29C155.253 156.277 153.034 154.784 150.894 156.422C150.485 156.66 150.049 156.805 149.573 156.818C149.243 156.792 148.992 156.647 148.807 156.382C149.23 154.48 151.172 153.939 152.215 152.605C152.413 152.275 152.651 152.235 152.942 152.512C155.478 153.899 158.252 154.414 161.079 154.546C163.469 154.665 165.266 155.524 166.23 157.822Z" fill="#9D9D9D"/>
<path d="M156.178 122.252C155.702 123.956 156.125 125.686 156.099 127.39C155.689 128.407 155.887 129.649 155.029 130.507C154.038 132.158 153.298 131.696 152.678 130.23C152.413 128.737 152.678 127.232 152.519 125.739C152.268 123.282 150.802 121.658 148.675 120.561C147.632 119.835 146.152 119.795 145.465 118.514C145.175 117.695 145.703 117.299 146.298 116.942C146.72 116.942 147.156 116.942 147.579 116.942C148.913 117.484 150.498 117.18 151.687 118.184C152.532 118.633 153.364 119.095 154.21 119.544C154.725 120.575 156.389 120.72 156.178 122.252Z" fill="#2E3628"/>
<path d="M148.253 85.2959C148.9 85.5204 149.56 85.7318 150.207 85.9563C151.753 87.2771 153.298 88.5847 154.857 89.9056C149.653 89.9452 145.333 91.5038 143.167 96.7342C141.384 92.2962 145.082 90.1961 147.42 88.4527C149.23 87.1186 148.702 86.5375 148.253 85.2959Z" fill="#766F75"/>
<path d="M109.629 123.402C109.114 120.615 106.525 119.123 107.133 115.728C107.516 113.588 108.071 114.288 109.127 114.262C110.633 114.235 111.782 114.539 112.575 116.098C113.341 117.617 112.535 118.198 111.611 119.043C110.422 120.1 111.571 122.108 109.629 123.402Z" fill="#6F7069"/>
<path d="M152.083 135.13C152.321 136.346 152.836 136.94 153.985 135.923C154.632 135.355 155.266 134.787 156.218 134.813C155.385 136.266 154.038 137.138 152.664 137.983C151.845 138.419 151.026 138.868 150.207 139.304C147.143 139.899 144.884 142.501 141.688 142.791C141.82 140.493 144.012 140.823 145.188 139.766C142.295 141.299 139.35 142.923 136.034 140.902C136.246 139.436 137.223 139.08 138.544 139.053C140.235 139.014 141.939 139.317 143.616 138.855L143.656 138.815C144.845 137.732 146.284 137.098 147.79 136.583C149.322 136.412 150.406 134.879 152.083 135.13Z" fill="#CAD1C6"/>
<path d="M90.8198 149.95C90.3707 149.646 89.8952 149.382 89.4989 149.026C88.9309 148.511 87.61 148.444 88.1384 147.229C88.5082 146.384 89.3668 146.041 90.2782 146.027C92.4445 146.001 94.5976 146.014 96.7639 146.001C96.5525 149.501 95.9053 149.937 90.8198 149.95Z" fill="#737068"/>
<path d="M152.929 152.499C152.691 152.525 152.453 152.565 152.202 152.592C151.806 151.68 150.868 151.046 150.868 149.937C151.396 148.167 152.545 148.471 153.681 149.184C155.2 150.148 157.037 150.491 158.371 149.606C161.356 147.625 163.971 148.972 166.362 150.32C167.63 151.033 169.559 151.376 170.008 153.265C168.449 152.975 167.26 151.984 165.939 151.218C163.601 149.871 161.29 148.801 158.635 150.637C157.525 151.403 156.152 151.403 154.844 150.888C153.219 150.254 152.942 151.218 152.929 152.499Z" fill="#5E5E5C"/>
<path d="M136.338 141.338C137.289 140.916 138.029 139.912 139.31 140.467C141.727 141.536 143.814 139.37 146.575 139.542C144.62 140.638 142.85 141.272 141.688 142.791C139.984 144.64 137.857 143.98 135.81 143.782C135.783 143.201 135.757 142.619 135.73 142.038C135.387 141.338 135.757 141.246 136.338 141.338Z" fill="#D5D5D5"/>
<path d="M169.361 124.26C166.877 124.657 164.975 122.358 162.228 122.689C163.403 125.317 166.441 126.532 166.758 129.464C166.309 129.24 165.873 129.002 165.424 128.778C164.037 126.255 161.818 124.445 159.295 121.738C163.403 121.381 166.56 121.936 169.361 124.26Z" fill="#5D5C5C"/>
<path d="M99.4452 147.256C100.264 148.154 99.8151 149.369 100.343 150.835C101.955 148.313 103.025 145.935 103.315 143.28C103.474 141.827 103.606 140.441 104.623 139.305C104.531 143.254 103.54 146.965 101.77 150.479C101.413 151.192 101.162 152.394 100.092 152.117C99.0225 151.839 99.4716 150.651 99.4188 149.858C99.3263 148.986 99.4188 148.115 99.4452 147.256Z" fill="#5B5B5B"/>
<path d="M146.298 169.789C145.413 165.43 147.817 161.401 147.552 157.096C147.975 156.858 148.385 156.62 148.807 156.369C148.887 156.488 148.979 156.607 149.058 156.713C149.428 161.362 149.27 165.879 146.298 169.789Z" fill="#A3A3A3"/>
<path d="M143.629 153.24C144.726 153.015 145.835 152.804 146.932 152.579C146.879 152.896 146.892 153.24 146.76 153.517C146.324 154.428 147.46 156.33 145.465 156.185C143.973 156.079 143.59 154.64 143.629 153.24Z" fill="#716F70"/>
<path d="M93.4352 104.474C92.4709 104.316 91.5992 104.421 90.9123 105.201C90.8859 104.501 90.8462 103.8 90.8198 103.1C92.3521 102.308 93.3031 102.612 93.4352 104.474Z" fill="#878586"/>
<path d="M96.1695 155.907C94.7561 157.875 92.6559 156.99 90.8198 157.201C92.471 156.211 94.2674 155.841 96.1695 155.907Z" fill="#716F70"/>
<path d="M139.178 155.286C140.367 154.322 141.265 154.481 142.877 155.405C141.384 155.973 140.499 156.079 139.178 155.286Z" fill="#716F70"/>
<path d="M136.999 118.211C136.549 119.175 135.704 120.139 134.793 119.584C133.934 119.069 134.304 117.828 134.911 116.956C135.044 118.303 135.81 118.607 136.999 118.211Z" fill="#C1C2BF"/>
<path d="M146.918 152.591C146.998 151.773 146.786 150.808 147.803 150.452C148.239 150.306 148.649 150.716 148.636 151.152C148.636 152.235 147.79 152.459 146.918 152.591Z" fill="#716F70"/>
<path d="M91.4803 81.3333C90.6217 80.3559 89.6838 79.4181 89.4989 78.0312C90.833 78.7313 91.5991 79.7615 91.4803 81.3333Z" fill="#69767D"/>
<path d="M146.298 169.789C148.279 166.844 147.434 163.33 148.226 160.134C148.504 158.998 148.596 157.823 149.058 156.726C149.441 156.449 149.838 156.185 150.221 155.907C152.638 154.838 155.134 155.604 157.605 155.63C158.424 155.643 159.375 156.634 158.767 157.057C156.772 158.43 157.063 161.415 154.725 162.406C152.532 165.602 155.002 165.087 156.852 165.061C159.507 165.985 162.122 164.797 164.777 164.902C165.768 164.942 167.194 163.846 167.604 165.206C167.96 166.342 166.56 166.883 165.464 167.161C165.12 165.497 164.051 166.078 162.941 166.223C159.414 166.685 155.887 167.187 152.519 165.18C150.881 164.202 149.745 164.889 148.755 166.765C147.579 169.01 148.345 172.84 144.25 173.012C144.779 171.85 146.284 171.295 146.298 169.789Z" fill="#D4D5D5"/>
<path d="M121.808 166.435C120.064 166.382 120.5 164.691 119.853 163.833C119.1 162.129 119.853 160.953 121.174 159.949C121.517 159.764 121.887 159.659 122.284 159.619C123.763 159.751 125.705 159.263 125.216 161.904L125.229 161.878C124.476 162.697 123.75 163.542 123.195 164.519C123.023 165.351 122.429 165.906 121.808 166.435Z" fill="#493833"/>
<path d="M121.768 177.067C122.653 177.08 123.525 177.093 124.41 177.106C125.52 177.119 126.643 177.093 127.752 177.014C128.597 177.251 129.443 177.489 130.275 177.714C131.107 179.035 130.275 179.233 129.258 179.101C127.871 178.929 126.51 178.612 125.124 178.361C124.014 177.938 122.891 177.502 121.768 177.067Z" fill="#797C7F"/>
<path d="M125.216 161.89C124.727 159.922 123.063 160.675 121.834 160.451C122.323 158.219 124.516 158.945 125.837 158.139C126.629 158.007 127.356 158.166 128.043 158.575C128.28 158.76 128.452 159.011 128.571 159.288C128.505 159.473 128.479 159.658 128.479 159.856C127.382 160.543 126.299 161.217 125.216 161.89Z" fill="#625252"/>
<path d="M127.752 177.014C126.669 178.071 125.546 177.82 124.41 177.106C124.846 175.944 123.169 176.406 123.208 175.548C124.939 175.363 126.312 176.314 127.752 177.014Z" fill="#4B4F4F"/>
<path d="M123.195 164.506C123.274 163.172 124.04 162.353 125.229 161.864C124.939 163.053 124.159 163.845 123.195 164.506Z" fill="#625252"/>
<path d="M113.909 176.922C116.34 175.363 118.77 175.284 121.187 176.948C118.77 176.697 116.34 176.631 113.909 176.922Z" fill="#5D5D5D"/>
<path d="M126.418 158.496C125.427 160.411 123.155 159.315 121.835 160.451C121.623 160.464 121.399 160.464 121.187 160.477C118.955 159.341 116.723 158.258 114.517 160.556C114.424 160.504 114.332 160.438 114.226 160.411C110.633 159.222 110.633 159.222 110.62 156.554C113.539 153.133 117.41 154.349 121.029 154.507C122.099 154.56 123.169 154.956 124.225 155.26C125.546 155.511 125.969 156.673 126.59 157.624C126.682 157.928 126.629 158.219 126.418 158.496Z" fill="#927674"/>
<path d="M114.517 160.557C114.754 158.866 115.639 157.955 117.423 157.651C119.814 157.242 119.985 159.474 121.187 160.478C120.738 161.587 120.302 162.71 119.853 163.819C119.946 165.272 115.521 165.021 119.153 167.927C114.451 166.725 116.419 162.551 114.517 160.557Z" fill="#A5706C"/>
<path d="M125.176 155.96C120.302 155.656 115.402 154.428 110.62 156.541C110.369 156.581 110.105 156.62 109.854 156.66C109.458 156.369 109.048 156.079 108.652 155.801C112.641 151.39 117.766 153.147 122.389 153.794C124.503 154.084 126.96 154.824 129.02 156C127.739 156.977 126.458 157.109 125.176 155.96Z" fill="#A49793"/>
<path d="M165.411 72.0881C164.764 69.5125 163.06 67.0822 164.354 64.216C164.896 63.014 165.187 61.6932 166.481 61.0196C168.145 60.1479 168.608 58.6157 168.806 56.9251C169.096 54.3759 170.114 53.1871 173.059 53.2928C175.08 53.3588 176.837 52.5664 176.626 55.6042C176.309 55.525 175.741 55.3401 175.714 55.3929C174.539 58.2591 171.448 60.1214 170.853 63.0537C170.246 66.0387 170.087 69.42 172.359 72.1277C173.02 72.9202 173.64 73.7919 172.98 74.7693C172.333 75.7203 171.183 75.4694 170.246 75.2845C168.251 74.8618 166.824 73.4749 165.411 72.0881Z" fill="#938884"/>
<path d="M173.997 96.6677C174.023 95.6771 174.023 94.462 174.723 94.4487C176.837 94.4091 177.511 93.4053 177.471 91.4901C177.458 91.0278 177.933 90.7505 178.422 90.8429C179.096 90.975 179.32 91.5694 179.201 92.0977C178.66 94.6469 178.065 97.2093 176.599 99.4282C176.322 99.8641 175.741 100.432 175.239 100.036C174.129 99.1377 174.089 97.7508 173.997 96.6677Z" fill="#9A847F"/>
<path d="M125.176 155.96C126.458 155.973 127.739 155.986 129.033 155.986C129.1 157.122 129.615 158.311 128.558 159.288C128.452 159.196 128.36 159.104 128.267 159.011C127.713 158.496 127.356 157.624 126.339 157.968C125.229 157.703 124.45 157.268 125.176 155.96Z" fill="#625252"/>
<path d="M65.7623 132.793C68.3512 129.478 70.1609 125.608 73.2121 122.504C68.9588 123.587 64.2564 123.376 61.9581 128.289C60.8221 130.733 59.6861 133.269 57.8104 135.329C57.8633 133.52 58.92 131.816 58.1142 129.874C57.5991 128.633 58.1935 128.329 59.4351 128.989C60.5843 129.61 61.0202 128.514 61.258 127.721C61.6278 126.467 60.9542 126.625 60.0031 126.836C58.7351 127.114 59.237 126.097 59.4748 125.648C59.871 124.921 60.122 123.231 61.3636 124.393C62.5921 125.529 62.9751 124.578 63.9658 124.234C67.9153 122.861 71.5346 120.404 76.0124 120.061C75.7483 124.948 67.2945 126.031 70.9006 132.674C68.972 131.869 67.3209 131.908 65.7623 132.793Z" fill="#716F70"/>
<path d="M74.216 130.878C70.8477 127.708 70.9402 127.272 75.603 124.168C76.805 124.934 76.5804 126.255 76.9107 127.615C77.4522 125.647 76.6993 123.547 78.2844 122.081C78.6146 121.989 78.9316 122.042 79.209 122.24C79.9884 123.072 79.8563 124.129 79.9091 125.132C79.7242 126.955 80.4243 128.58 81.0451 130.217C81.3885 132.991 83.9247 134.299 85.2323 136.439C85.4173 136.888 85.4305 137.35 85.2852 137.812C85.1399 138.103 84.9153 138.314 84.6247 138.459C83.5284 138.79 82.8019 138.235 82.1811 137.442L82.2075 137.456C78.9713 135.963 77.2277 132.661 74.216 130.878Z" fill="#D3D3CF"/>
<path d="M91.7312 139.304C93.0257 139.331 94.3202 139.41 95.6146 139.357C97.6092 139.265 98.9697 139.965 99.366 142.038C99.3924 143.769 98.4282 144.112 96.8827 144.059C93.2238 143.927 90.5688 141.523 87.4779 140.11C86.8174 139.318 85.8268 139.146 84.9285 138.816C84.7965 138.657 84.7436 138.499 84.77 138.327C84.7965 138.155 84.8361 138.063 84.8757 138.063C87.5968 136.161 89.5253 138.525 91.7312 139.304Z" fill="#CFCFD3"/>
<path d="M80.1733 130.839C79.7242 129.095 78.8524 127.444 78.9581 125.568C79.3544 124.472 79.645 123.376 78.7468 122.372L78.5222 122.306L78.2976 122.332C78.1259 122.24 78.0467 122.121 78.0599 121.976C78.0731 121.817 78.1127 121.751 78.1656 121.751C78.4429 120.615 79.8563 120.642 80.3054 119.664C81.3621 119.176 82.4189 118.7 83.4888 118.211C84.5059 117.67 85.4966 117.128 86.725 117.313C87.8081 117.472 87.7949 118.079 87.4911 118.872C87.1873 119.479 86.6061 119.823 86.157 120.285C84.7304 121.632 82.8151 122.544 82.1811 124.631C81.7848 125.991 82.049 127.391 81.8773 128.752C81.7188 129.729 81.8112 130.997 80.1733 130.839Z" fill="#313928"/>
<path d="M84.8889 139.383C83.6737 140.572 84.136 144.561 80.6356 141.933C79.9619 143.821 77.6768 142.712 76.6597 144.403C75.8671 142.302 77.1616 140.493 76.2766 138.446C78.7863 141.47 80.2261 137.521 82.2075 138.089C82.3395 138.129 82.4848 138.168 82.6169 138.221C83.2246 138.617 83.9775 138.683 84.5983 139.066C84.6908 139.159 84.7964 139.278 84.8889 139.383Z" fill="#706F69"/>
<path d="M73.9254 118.396C71.7723 119.32 69.8702 120.02 68.0738 120.945C66.9906 121.5 66.1585 121.368 65.4848 120.522C64.7583 119.611 65.1282 118.66 65.8679 117.894C66.6076 117.115 67.4926 116.6 68.3247 117.696C69.2626 118.924 69.8966 118.686 70.8609 117.643C71.9969 116.428 72.9611 117.22 73.9254 118.396Z" fill="#716F70"/>
<path d="M78.1524 121.725C78.2052 121.923 78.2448 122.108 78.2977 122.306C78.2845 124.155 78.3109 126.004 78.2448 127.853C78.2184 128.817 78.1259 130.217 77.0692 130.244C75.7087 130.27 75.7351 128.804 75.6559 127.748C75.5766 126.559 75.6162 125.357 75.603 124.155C76.2106 123.098 76.9503 122.16 78.1524 121.725Z" fill="#DAD6E8"/>
<path d="M74.2161 130.878C77.69 132.08 79.4732 135.356 82.2075 137.469C78.6411 136.359 76.6861 133.308 74.2161 130.878Z" fill="#C0BEB8"/>
<path d="M84.8889 138.076C84.9021 138.261 84.9285 138.446 84.9681 138.644C84.8625 138.763 84.77 138.882 84.6643 139C83.6736 139.172 82.8019 139.066 82.2339 138.102L82.2074 138.089C82.181 137.878 82.181 137.666 82.181 137.455C83.0792 137.666 83.9907 137.865 84.8889 138.076Z" fill="#BEC4B5"/>
<path d="M84.9682 138.645C86.0381 138.75 87.0684 138.922 87.4911 140.124C86.6193 139.873 85.7607 139.622 84.8889 139.384C84.7172 139.318 84.6379 139.226 84.6379 139.107C84.6511 138.962 84.6776 138.895 84.7172 138.895C84.8097 138.803 84.8889 138.724 84.9682 138.645Z" fill="#BEC4B5"/>
<path d="M135.136 130.032C134.476 128.13 136.087 125.937 134.383 124.167C135.611 121.446 137.685 119.571 140.274 118.197C140.961 118.514 141.225 119.082 141.291 119.782C141.252 120.469 140.974 121.09 140.446 121.46C137.421 123.56 136.998 126.981 135.968 130.098C135.664 130.322 135.387 130.296 135.136 130.032Z" fill="#748361"/>
<path d="M140.961 119.571C140.459 119.254 140.301 118.752 140.274 118.198C141.952 116.216 144.158 116.771 146.284 116.969C146.06 117.405 145.849 117.841 145.624 118.277C144.462 119.466 143.009 119.796 141.41 119.677C141.252 119.637 141.106 119.598 140.961 119.571Z" fill="#475134"/>
<path d="M151.687 118.211C150.273 117.96 148.807 117.842 147.579 116.97C149.151 116.706 150.643 116.706 151.687 118.211Z" fill="#475134"/>
<path d="M85.5493 119.598C85.972 119.386 86.4079 119.175 86.8306 118.964C89.3403 117.009 92.0614 117.617 94.7956 118.264C96.5524 118.515 97.2525 120.271 98.6923 120.971C99.0753 122.266 100.806 122.741 100.74 124.3C99.2999 124.194 99.6433 125.396 99.3924 126.162C98.2168 126.585 97.728 125.647 97.4903 124.907C96.6449 122.319 94.5579 121.302 92.2859 120.456C91.4537 120.06 90.6216 120.192 89.7762 120.456C89.3007 120.575 88.8252 120.602 88.3364 120.562C87.3193 120.509 86.2362 120.615 85.5493 119.598Z" fill="#788463"/>
<path d="M94.7957 118.264C92.1407 118.502 89.4857 118.727 86.8307 118.964C87.2269 118.04 86.9892 117.511 85.9193 117.683C85.1003 117.802 84.2945 118.027 83.4756 118.211C86.2099 116.164 91.5859 116.191 94.7957 118.264Z" fill="#3E4C2C"/>
<path d="M92.1672 119.584C96.3148 119.861 97.5829 123.322 99.4057 126.162C99.868 128.341 99.868 130.415 98.2037 132.172C96.1431 132.198 96.5261 130.6 96.6054 129.49C96.7243 127.918 96.4865 126.518 95.7204 125.171C95.5355 124.933 95.3902 124.669 95.2449 124.405C94.809 122.622 93.0257 122.675 91.8369 121.909C91.335 121.446 91.0312 120.905 91.0972 120.205C91.2954 119.703 91.5331 119.294 92.1672 119.584Z" fill="#9EB27B"/>
<path d="M96.1033 124.221C97.4242 125.766 98.1111 127.443 97.5563 129.53C97.3053 130.468 97.2657 131.472 98.2036 132.172C97.7016 133.004 97.1997 133.836 96.7109 134.682C96.3147 135.184 95.8788 135.144 95.4033 134.814C94.9674 131.234 94.6768 127.668 96.1033 124.221Z" fill="#9CB470"/>
<path d="M94.1617 136.768C93.7786 138.142 90.9387 136.253 91.4406 138.803C89.4593 139.423 88.0855 138.274 86.7118 137.152C87.4911 135.289 89.1687 135.95 90.5556 135.765C91.1104 135.765 91.6652 135.765 92.2332 135.804C92.9993 135.87 93.7258 136.055 94.1617 136.768Z" fill="#344126"/>
<path d="M86.8703 137.403C88.4554 137.667 89.7631 138.882 91.4538 138.803C91.5859 138.948 91.6916 139.107 91.7444 139.305C89.2744 139.926 87.3194 137.72 84.9022 138.076C84.889 137.667 84.8758 137.258 84.8625 136.848C85.7476 136.214 86.3155 136.756 86.8703 137.403Z" fill="#BEC4B5"/>
<path d="M94.1616 136.769C93.4483 136.716 92.7218 136.676 92.0085 136.623C92.3652 134.906 93.7257 134.853 95.073 134.774C95.2183 134.801 95.3636 134.827 95.5089 134.853C95.9052 134.801 96.3015 134.734 96.6977 134.682C96.3807 136.016 95.0995 136.174 94.1616 136.769Z" fill="#4D583D"/>
<path d="M152.083 135.131C150.855 135.976 149.996 137.442 148.266 137.482C146.707 137.112 145.003 137.852 143.524 136.901C142.203 136.742 140.776 137.191 139.627 136.148C139.416 135.871 139.403 135.58 139.601 135.289C141.04 134.457 142.573 135.039 144.065 134.986C146.179 134.906 148.2 134.669 149.732 132.991C150.128 132.542 150.538 132.093 150.947 131.644C151.779 131.102 152.162 129.821 153.497 130.125C153.866 131.974 154.421 130.151 154.87 130.191C155.768 132.067 154.368 133.004 153.272 134.061C152.876 134.391 152.479 134.761 152.083 135.131Z" fill="#50603B"/>
<path d="M136.338 141.338C136.14 141.576 135.929 141.814 135.73 142.052H135.427L135.123 142.104C135.242 139.542 136.602 138.512 139.125 138.723C140.618 138.855 142.11 138.816 143.616 138.855C142.15 139.872 140.472 139.502 138.874 139.555C137.606 139.595 136.431 139.661 136.338 141.338Z" fill="#4D4A4D"/>
<path d="M143.51 136.888C145.109 136.927 146.813 136.161 148.253 137.469C146.681 137.786 145.347 138.935 143.643 138.79C143.88 138.142 144.158 137.482 143.51 136.888Z" fill="#3D4C2D"/>
<path d="M139.706 135.368C139.68 135.619 139.653 135.883 139.614 136.134C137.117 134.84 135.572 132.832 135.136 130.032C135.347 130.072 135.545 130.098 135.757 130.098C137.804 131.313 138.993 133.149 139.706 135.368Z" fill="#3D4C2D"/>
<path d="M104.874 133.519C104.518 131.657 104.914 130.098 104.293 128.619C103.461 126.651 105.944 128.5 105.891 127.272C105.838 125.779 105.878 124.273 106.195 122.794C106.618 126.347 107.358 129.94 104.874 133.519Z" fill="#E3DEE8"/>
<path d="M153.272 134.034C153.787 132.74 155.346 131.868 154.87 130.164C155.28 129.24 155.689 128.315 156.099 127.391C155.808 129.887 156.323 132.727 153.272 134.034Z" fill="#CAD1C6"/>
<path d="M154.712 162.406C155.755 160.412 156.693 158.351 158.569 156.608C155.729 154.917 152.823 157.004 150.221 155.908C153.087 153.081 156.204 155.459 159.15 155.67C160.405 155.762 159.863 157.295 158.991 157.902C157.195 159.17 157.037 160.834 157.605 162.842C156.587 162.697 155.65 162.551 154.712 162.406Z" fill="#A3A3A3"/>
<path d="M162.875 157.149C162.743 156.911 162.598 156.66 162.465 156.422C162.637 156.33 162.915 156.119 162.981 156.171C163.205 156.33 163.35 156.607 163.535 156.832C163.35 156.924 163.166 157.004 162.875 157.149Z" fill="#A09E9C"/>
<path d="M139.706 135.369C137.791 134.061 136.576 132.238 135.77 130.099C135.228 125.463 137.606 122.28 140.961 119.572H140.974C143.629 118.66 146.298 118.951 148.953 119.572C152.242 120.576 153.523 122.94 153.483 126.216C153.47 127.51 153.496 128.818 153.496 130.112C152.862 130.812 152.228 131.499 151.594 132.199C150.392 131.367 150.577 130.099 150.63 128.923C150.736 126.136 149.521 124.234 147.103 122.874C143.96 121.104 141.965 123.31 139.904 124.895C137.659 126.612 138.293 128.923 139.204 131.129C139.587 131.657 139.891 132.397 140.697 132.159C141.344 131.961 141.212 131.288 141.146 130.746C141.04 129.98 140.776 129.253 140.75 128.474C140.763 127.484 140.829 126.506 141.912 126.031C143.722 126.242 143.378 128.58 144.937 129.108C146.707 127.338 144.475 125.119 145.624 123.323C148.675 123.072 150.141 124.974 149.534 128.844C149.256 130.667 149.005 132.252 150.723 133.454C147.539 136.98 143.735 136.835 139.706 135.369Z" fill="#9CB772"/>
<path d="M148.939 119.558C146.284 119.558 143.616 119.558 140.961 119.558C142.309 118.369 143.999 118.449 145.624 118.264C146.734 118.7 147.843 119.135 148.939 119.558Z" fill="#748361"/>
<path d="M149.138 162.511C149.415 157.69 150.247 156.752 153.668 157.215C154.315 157.307 155.095 157.254 155.214 158.073C155.333 158.945 154.566 159.249 153.932 159.13C151.106 158.562 151.753 162.538 149.138 162.511Z" fill="#DADADA"/>
<path d="M126.339 157.955C126.233 157.215 126.035 156.344 127.25 156.568C128.782 156.832 128.505 157.955 128.267 159.012C127.528 159.263 126.907 159.131 126.418 158.497C126.418 158.312 126.392 158.127 126.339 157.955Z" fill="#281F21"/>
<path d="M86.8703 137.403C86.1966 137.218 85.523 137.033 84.8493 136.835C83.1982 134.906 80.6224 133.691 80.1733 130.825C81.415 129.702 80.8074 128.236 80.9263 126.902C81.0319 125.766 80.6489 124.525 81.6527 123.587C82.2868 124.036 82.4585 124.71 82.5774 125.41C82.7887 126.242 82.7755 127.074 82.7491 127.919C83.1586 131.499 85.4305 134.259 88.7724 135.104C89.7235 135.342 90.7802 135.316 90.9651 136.61C89.631 137.046 88.0723 136.306 86.8703 137.403Z" fill="#4D583D"/>
<path d="M78.7467 122.358C80.0544 123.349 79.6713 124.445 78.958 125.555C78.892 124.498 78.8127 123.428 78.7467 122.358Z" fill="#716F70"/>
<path d="M81.6659 125.502C81.6659 124.868 81.6527 124.234 81.6527 123.6C82.366 121.698 84.0039 120.694 85.5494 119.611C86.6457 119.598 87.7421 119.584 88.8516 119.571C88.8384 121.975 88.2968 123.838 85.272 123.811C83.8982 123.785 83.3831 125.977 81.6659 125.502Z" fill="#9CB470"/>
<path d="M84.7304 138.895C84.8096 139.054 84.8625 139.212 84.8889 139.384C83.8322 139.318 82.5509 139.688 82.2339 138.103C83.0661 138.367 83.8982 138.631 84.7304 138.895Z" fill="#716F70"/>
<path d="M81.6659 125.501C83.066 123.758 84.4926 122.067 87.0948 122.424C88.0326 122.556 88.3761 122.041 87.8477 121.314C86.8174 119.875 88.8648 120.337 88.8384 119.571C89.2611 119.545 89.6838 119.531 90.1065 119.505C90.648 119.597 91.1235 119.809 91.4538 120.271C91.6783 120.707 91.9161 121.156 92.1406 121.592C91.3745 123.124 89.4988 123.507 88.6931 125.158C87.7685 127.047 87.359 128.619 89.0497 130.164C89.5517 130.494 89.9479 130.217 90.331 129.887C90.6348 129.596 90.9122 129.292 91.2028 128.988C92.1142 128.077 92.4312 127.047 92.1538 125.766C91.8633 124.471 91.7708 123.058 93.3295 122.516C94.7692 122.014 95.3769 123.296 96.0769 124.22L96.0901 124.233C96.4204 127.813 96.8166 131.379 95.4957 134.866V134.826C89.7498 137.679 84.5455 133.796 81.6923 128.236C81.6923 127.324 81.6791 126.413 81.6659 125.501Z" fill="#9BB96C"/>
<path d="M91.467 120.258C90.899 120.218 90.4234 120.007 90.1196 119.492C90.8329 118.95 91.5066 118.897 92.167 119.584C91.9293 119.809 91.7047 120.033 91.467 120.258Z" fill="#9CB470"/>
<path d="M96.0902 124.208C95.1392 123.878 94.4127 122.385 93.2635 123.336C92.3653 124.063 93.171 125.132 93.2767 126.07C93.4484 127.708 93.3956 129.333 91.5331 130.138C90.4367 128.725 92.1803 126.585 90.2914 125.331C88.1648 126.77 89.7103 128.765 89.4725 130.469C89.3536 130.957 89.1555 131.38 88.5875 131.472C85.9853 128.065 86.659 124.181 90.1197 121.645C90.9651 121.025 91.5199 122.438 92.1539 121.593C94.1353 121.474 95.7336 121.91 96.0902 124.208Z" fill="#9CB470"/>
<path d="M81.7056 128.236C84.9682 130.125 86.5269 134.18 90.7537 134.986C92.4709 135.316 93.9239 134.682 95.509 134.814C94.5976 135.897 93.171 136.003 92.0218 136.624C91.6784 136.624 91.3349 136.624 90.9915 136.61C84.7569 135.263 82.3132 133.057 81.7056 128.236Z" fill="#9CB470"/>
<path d="M138.333 131.485C135.823 126.558 138.504 124.366 141.595 122.2C144.29 120.298 146.575 121.183 148.715 122.675C151.145 124.366 152.651 126.664 151.581 129.926C151.357 130.613 151.568 131.432 151.581 132.198C151.291 132.621 151 133.043 150.709 133.466C147.354 133.691 147.169 133.453 148.16 130.098C149.349 126.109 148.583 124.247 145.518 123.639C144.382 124.419 143.656 125.713 142.309 126.241C141.424 126.941 141.701 127.932 141.635 128.843C140.776 129.279 140.486 128.13 139.759 128.143C139.125 129.187 139.614 130.706 138.333 131.485Z" fill="#9CBB67"/>
<path d="M142.308 126.228C143.088 125 142.837 122.517 145.518 123.626C146.879 125.62 147.42 127.641 146.377 130.058C145.611 131.828 144.897 131.802 143.92 130.455C143.009 129.213 142.361 127.826 142.308 126.228Z" fill="black"/>
<path d="M138.333 131.485C138.333 130.296 138.306 129.12 138.346 127.932C138.372 126.994 138.174 125.805 139.561 125.699C141.014 125.581 140.829 126.809 141.04 127.72C141.133 128.117 141.424 128.46 141.622 128.83C141.833 129.451 142.203 130.058 142.242 130.692C142.309 131.722 143.577 133.321 141.556 133.598C140.195 133.796 138.28 133.889 138.333 131.485Z" fill="#9CBC63"/>
<path d="M88.7592 130.125C87.3987 127.721 87.9006 125.581 89.697 123.626C90.0801 123.217 90.582 122.834 91.0444 123.454C92.5898 125.555 92.8804 127.787 91.5331 130.125C91.2953 130.336 91.0444 130.534 90.8066 130.745C89.7631 131.696 89.3272 130.692 88.7592 130.125Z" fill="black"/>
<path d="M88.7591 130.125C89.446 130.336 90.1196 130.548 90.8065 130.746C90.4102 132.053 89.6309 132.146 88.5874 131.459C88.6402 131.01 88.6931 130.574 88.7591 130.125Z" fill="#3C5B26"/>
</g>
<defs>
<clipPath id="clip0">
<rect width="136" height="152" fill="white" transform="translate(49 42)"/>
</clipPath>
</defs>
</svg>
