<svg width="105" height="110" viewBox="0 0 105 110" fill="none" xmlns="http://www.w3.org/2000/svg">
<ellipse cx="52.5" cy="57" rx="52.5" ry="53" fill="#C4E391"/>
<g clip-path="url(#clip0)">
<path d="M42.5892 22.8845C42.6417 22.8002 42.7029 22.7159 42.7466 22.6316C43.0176 22.6063 43.2798 22.5726 43.5508 22.5473C49.9669 21.7634 56.4179 22.2944 62.8427 22.1933C63.2798 22.1849 63.6906 22.3619 64.0578 22.5979C64.1714 22.64 64.2938 22.6569 64.4162 22.6232C65.0368 22.8676 65.6661 23.1036 66.2868 23.348C66.3742 23.6009 66.313 23.8116 66.112 23.9886C65.7798 24.1994 65.4214 24.2499 65.0368 24.1909C62.3445 23.3312 59.6085 23.5503 56.8637 23.8285C53.6819 23.8538 50.4913 23.8706 47.3095 23.8369C45.9284 23.4745 44.4773 23.8116 43.0962 23.4239C42.869 23.2975 42.6941 23.1205 42.5892 22.8845Z" fill="#6A7684"/>
<path d="M69.2938 92.4483C68.7169 92.8866 68.1399 93.3249 67.563 93.7632C62.9826 95.3731 58.1836 96.0811 53.4284 96.9409C51.9162 97.2106 50.5875 96.5363 49.1889 96.2497C46.0682 95.6091 42.9738 94.8674 39.8882 94.1003C38.9092 93.8559 38.0263 93.3333 37.4319 92.482C39.2238 91.8751 41.0857 92.5241 42.8864 92.1701C45.0717 91.9257 47.0036 92.4061 48.577 93.9655C49.5036 94.8842 50.7099 95.0107 51.9336 95.0865C54.4773 95.3057 56.7763 95.1118 59.2413 93.9233C61.9599 92.6084 65.1854 92.2881 68.2448 91.7487C68.7431 91.6559 69.3113 91.7149 69.2938 92.4483Z" fill="#CDDFEB"/>
<path d="M36.9774 92.541C36.1644 92.4062 35.369 92.2291 34.7658 91.6223C34.1976 91.2008 33.6469 90.7541 33.07 90.3411C32.598 88.925 31.1644 88.217 30.4389 86.9948C30.0892 85.8232 30.8672 85.8822 31.5927 86.1098C32.7728 86.4806 33.9179 87.0706 34.7309 87.922C36.6364 89.9112 39.1364 90.7541 41.6452 91.656C42.2658 91.8836 43.1662 91.8667 43.105 92.8697C41.2081 92.836 39.285 93.0636 37.4319 92.4652C37.2833 92.4989 37.1347 92.5242 36.9774 92.541Z" fill="#D4DAE9"/>
<path d="M89.3811 1.03679C90.8672 0.32876 92.3357 0.202326 93.778 1.12951C94.1102 1.55938 93.9703 1.9134 93.5857 2.2337C89.2937 2.91644 86.3916 5.45354 84.1451 8.8504C83.743 9.33927 83.2273 9.69329 82.6242 9.92087C80.7535 10.7385 79.7833 12.4327 78.4721 13.8066C75.4826 16.9169 73.3497 20.752 69.7046 23.3144C68.8567 23.9129 68.0962 24.5198 66.9773 24.368C66.7675 24.3175 66.5752 24.2416 66.4004 24.1236C66.3305 24.0477 66.2693 23.9634 66.1993 23.8876C66.2343 23.7106 66.2605 23.5336 66.2955 23.3566C68.8654 22.9435 70.3689 21.0555 71.8986 19.3697C74.7046 16.2763 77.292 13.0059 80.028 9.85344C82.0647 7.50177 84.1888 5.21753 86.2867 2.91644C87.1172 1.98083 88.1923 1.41609 89.3811 1.03679Z" fill="#6D7D8D"/>
<path d="M29.9843 87.02C29.9756 87.7786 30.7448 88.1495 30.9896 88.8997C29.6871 88.7817 28.7955 87.9809 27.799 87.4078C27.2396 87.0959 26.5578 87.02 26.0683 86.5817L26.0508 86.5733C24.6434 85.7136 23.5508 84.4829 22.1522 83.6148C19.6522 81.811 17.5368 79.5267 14.7396 78.1022L14.5822 78.0179C13.8655 77.7145 14.4861 77.5038 14.6347 77.2593C15.6574 77.0739 16.8724 77.9252 17.7204 76.7283C17.9214 76.6946 18.1137 76.7115 18.2973 76.7873C18.9092 77.3015 19.0315 78.1275 19.5997 78.6754C22.6679 81.0355 26.1819 82.8477 28.8829 85.663C29.2239 86.017 29.6434 86.3036 29.8882 86.7335C29.9232 86.8346 29.9494 86.9273 29.9843 87.02Z" fill="#6A7A87"/>
<path d="M8.98778 61.295C9.60841 61.6491 9.62589 62.2475 9.66086 62.8375C9.6696 63.3011 9.67834 63.7647 9.65211 64.2283C9.62589 64.7088 9.52099 65.1471 9.11016 65.4674C8.93533 65.4758 8.76925 65.4927 8.59442 65.5011" fill="#83AFC9"/>
<path d="M9.04011 22.1602C7.46668 16.8753 7.77262 11.6241 9.32857 6.39816C9.62577 5.38668 9.96668 4.39207 10.36 3.41432C11.4789 0.649633 14.2849 -1.0783 17.4929 0.759208C18.3408 1.24809 19.4597 1.37452 19.9317 2.37756C18.5069 3.19517 17.4929 1.98983 16.3216 1.65267C14.0576 0.986789 13.437 1.2228 12.5978 3.39746C10.7971 6.54988 9.47717 9.8203 9.66948 13.5206C9.75689 15.1979 9.67822 16.8837 9.68696 18.5695C9.68696 19.2691 9.6957 19.9771 10.0279 20.6262C11.3915 23.2729 11.68 26.0375 11.1118 28.9202C10.5961 31.5079 11.4352 33.9017 12.3181 36.2871C12.7551 37.4671 13.3146 38.6303 13.1048 39.9452C12.4317 42.8617 12.4929 45.8708 12.0558 48.804C11.4614 52.8415 11.0506 56.9042 10.4912 60.9501C10.3863 61.7256 10.3863 62.8551 9.08381 62.9983C9.05759 62.4336 9.03137 61.8689 9.00514 61.3041C9.03137 61.1693 9.04885 61.0344 9.05759 60.8911C9.4422 56.8199 9.80934 52.7403 10.3688 48.686C10.7621 46.739 10.8933 44.7497 11.2342 42.7942C11.2342 42.5161 11.2429 42.2379 11.2429 41.9682C12.2044 40.0885 11.4352 38.3185 10.8146 36.5568C9.86179 33.8511 9.37227 31.1455 9.81808 28.2628" fill="#849AAE"/>
<path d="M26.0945 9.51623C29.2239 13.1491 32.2658 16.8494 35.5176 20.3727C36.7239 21.6792 38.3585 22.6485 40.0368 23.4324C40.1679 23.6094 40.1767 23.7948 40.0543 23.9803C39.8969 24.1236 39.7221 24.2247 39.5211 24.3006C37.6242 24.722 36.7326 23.2638 35.5525 22.3366C35.3864 22.2186 35.2466 22.0838 35.1155 21.9236C34.3375 20.9796 33.2885 20.2462 32.6941 19.1589C32.4406 18.6953 32.0473 18.7375 31.619 18.9398C30.8847 18.9566 30.3952 18.5352 30.0018 18.0379C27.7029 15.1046 25.0455 12.4411 22.9651 9.33923C22.799 8.91778 22.7029 8.50476 23.035 8.11703C24.626 7.41743 25.2728 8.64806 26.0945 9.51623Z" fill="#717C85"/>
<path d="M26.0945 9.51619C25.1154 8.9936 24.2763 8.1507 23.0263 8.26871C21.8812 8.412 21.3829 7.62811 20.8672 6.86951C19.4861 4.82128 17.6154 3.52323 15.1679 2.7562C14.0228 2.40218 13.1137 3.66652 12.1259 2.79834C13.07 0.665824 14.3287 0.126373 16.5577 0.969265C17.6941 1.39914 18.8042 1.90488 19.9319 2.37689C22.1084 4.66113 24.3812 6.86108 26.0945 9.51619Z" fill="#6C808E"/>
<path d="M40.0105 23.7863C40.028 23.6683 40.0367 23.5418 40.0367 23.4238C40.8234 22.9771 41.6976 22.9265 42.5804 22.8844C42.6241 22.9687 42.6678 23.0445 42.7116 23.1288C42.5455 24.0307 41.7063 23.9633 41.0769 24.1824C40.8759 24.2077 40.6661 24.1909 40.465 24.1487C40.2815 24.0813 40.1241 23.9633 40.0105 23.7863Z" fill="#69767D"/>
<path d="M91.9948 76.9053C92.1958 77.6976 91.7588 78.254 91.1644 78.667C89.486 79.8049 87.7815 80.8922 86.0857 82.0048C83.6993 84.1289 81.1731 86.076 78.3846 87.7028C77.5717 88.1748 77.0297 88.2001 76.8549 87.1549C76.8986 86.5986 77.1958 86.1772 77.5979 85.8063C78.813 85.1067 79.9144 84.2806 80.7885 83.2017C81.9686 81.9458 83.5245 81.1029 84.9668 80.2685C86.7588 79.2317 87.7465 78.0685 87.5367 76.0456C88.236 75.6831 88.6906 76.1299 89.1626 76.5176C89.5472 76.8463 89.6609 77.4616 90.3077 77.5206C90.4738 77.4785 90.6312 77.4279 90.7798 77.3352C91.1469 77.0992 91.4353 76.644 91.9948 76.9053Z" fill="#687784"/>
<path d="M69.2938 92.4484C65.6224 92.8614 61.9686 93.2744 58.6556 95.0782C56.514 96.2414 54.1277 95.7525 51.8287 95.8284C51.7238 95.0192 52.3969 94.8675 52.9214 94.8337C55.7973 94.6314 58.3235 93.3924 60.9284 92.3809C61.1993 92.2798 60.8497 92.3472 61.1294 92.3135C65.5962 91.7487 69.8007 90.594 73.271 87.5933C73.8305 87.1128 74.8445 86.7925 75.57 87.686C75.6137 87.9136 75.5525 88.1159 75.3864 88.2845C73.2798 89.5572 72.1959 92.2376 69.2938 92.4484Z" fill="#CFDEE6"/>
<path d="M96.3829 67.6335C95.2815 69.9431 94.084 72.2104 93.3235 74.6548C93.1661 75.1606 93.0962 75.759 92.4406 75.9782C91.6539 75.3207 91.7413 74.3345 91.4441 73.5001C91.5053 71.8396 92.1434 70.2718 92.2745 68.6113C92.3969 67.1194 93.8305 67.2289 94.8794 66.9086C95.3951 66.7232 95.9109 66.4535 96.4791 66.7569C96.6102 67.0604 96.6539 67.3638 96.3829 67.6335Z" fill="#61717D"/>
<path d="M92.021 73.5002C92.6591 74.2504 92.5105 75.1185 92.4406 75.9783C92.021 76.1637 92.1084 76.5852 91.9861 76.9139C91.5577 77.3185 91.1207 77.7231 90.6924 78.1277C90.5175 77.9928 90.3077 77.7989 90.3514 77.6219C90.7798 75.8856 90.8672 74.2504 89.2151 72.9776C89.014 72.8174 89.1714 72.4466 89.3375 72.2021C90.6836 71.7807 91.4091 72.5393 92.021 73.5002Z" fill="#15202F"/>
<path d="M96.3829 67.6335C96.3567 67.3385 96.3217 67.0435 96.2955 66.7401C95.771 65.7792 96.278 65.1386 97.0298 64.5823C97.2396 64.4896 97.4493 64.498 97.6591 64.5991C97.6854 64.7677 97.7203 64.9363 97.7465 65.1049C97.292 65.9562 96.8375 66.7907 96.3829 67.6335Z" fill="#5E7E9F"/>
<path d="M40.4039 23.837C40.5612 23.8286 40.7186 23.8286 40.8759 23.8201C42.8952 23.2807 44.9931 23.2723 47.056 23.0363C50.3864 23.0363 53.7256 23.0363 57.056 23.0363C59.827 23.4998 62.7203 22.7665 65.4301 23.8117C65.6836 23.837 65.9371 23.8539 66.1906 23.8791L66.2518 23.9634C67.563 25.0255 66.6277 25.9442 66.042 26.8798C65.9458 27.0568 65.8497 27.2339 65.7535 27.4109C65.5263 29.0882 65.1417 30.715 65.7535 32.4598C66.2868 33.9938 64.757 35.0728 64.1626 36.3624C62.8689 38.1409 61.8724 40.1132 60.4214 41.7906C60.028 42.2458 59.6347 43.0297 58.9004 42.7094C58.1049 42.3722 58.2448 41.5124 58.4109 40.8297C58.8829 38.8405 59.792 36.9861 60.5438 35.0896C61.0595 33.7747 61.2256 32.5356 60.2116 31.3809C60.4826 34.3732 59.7483 37.0788 57.8427 39.4474C57.1172 40.3493 56.584 41.3354 56.0682 42.3385C55.4214 43.5944 54.32 44.1928 52.8952 44.2097C51.4616 44.235 50.9021 43.1729 50.4301 42.1446C49.9231 41.0404 49.2238 40.088 48.507 39.1102C46.8112 36.8007 46.0245 34.2214 46.4441 31.4146C45.4389 33.1341 45.4389 33.2015 46.0945 35.1065C46.7151 36.9018 47.7203 38.5623 48.1836 40.4167C48.3584 41.0994 48.5945 41.9508 47.834 42.3301C47.056 42.7178 46.4616 42.035 46.042 41.4787C44.3899 39.2535 42.799 36.9861 41.3217 34.6513C40.806 33.8337 40.7448 32.9402 40.9196 32.0046C41.313 29.9648 41.3654 27.984 39.9581 26.1887C39.3112 25.3542 39.3812 24.4692 40.4039 23.837Z" fill="#0F0D0D"/>
<path d="M47.056 23.0361C45.028 23.4997 42.9826 23.879 40.8759 23.82C41.4878 23.5924 42.1084 23.3649 42.7203 23.1289C44.1626 22.9856 45.6049 22.8254 47.056 23.0361Z" fill="#1A2F3B"/>
<path d="M61.0157 92.8867C58.2185 94.6315 55.0542 95.289 51.8374 95.8284C50.1766 95.9127 48.743 95.6008 47.6678 94.1764C46.5402 92.6844 44.7658 92.853 43.1049 92.8867C41.6976 92.204 40.1416 91.8668 38.6731 91.4285C35.9196 90.6109 34.5123 88.1497 32.0647 87.0708C31.5402 86.8432 31.0332 85.8486 30.4388 87.0033C30.2902 87.0118 30.1416 87.0202 29.9843 87.0286L29.9056 87.0202C27.2483 84.4409 24.3025 82.1989 21.1556 80.1843C20.5874 79.8219 19.6783 79.4763 20.0018 78.6334C20.2902 77.8832 21.1993 77.9675 21.9248 77.9591C23.2273 77.9507 24.5297 77.8664 25.8322 78.0855C26.549 78.212 27.4056 78.2626 27.8339 77.6135C28.236 76.9982 27.5804 76.4588 27.3007 75.9193C27.2395 75.7929 27.1346 75.6917 27.0647 75.5653C26.549 74.6887 25.3602 73.8795 26.0158 72.7837C26.7063 71.629 28.0962 72.042 29.2151 72.1516C32.5804 72.4887 32.7815 72.6573 33.5595 75.7254C34.1276 77.9591 34.4948 80.2349 34.8532 82.5023C34.5734 84.3735 32.7378 84.0279 31.5227 84.559C33.5158 85.7306 34.7308 83.8088 36.3567 83.5475C36.7238 83.5559 37.056 83.6992 37.3969 83.8256C40.2553 84.9045 42.1871 83.9015 42.764 81.0188C42.9651 79.9905 42.9825 78.9453 42.6853 77.9085C42.0472 75.6917 42.3881 75.1438 44.8706 74.2841C45.0892 74.2672 45.3077 74.2925 45.5175 74.3347C46.042 74.4695 46.4703 74.7645 46.9074 75.0596C47.5979 75.4642 48.1224 76.0542 48.743 76.543C49.5647 77.3691 50.4563 78.1361 51.1119 79.1054C51.8549 80.1591 52.5367 81.2548 53.0699 82.4349C53.1923 83.3368 52.8252 84.0448 52.1346 84.6264C51.3741 85.1237 50.3776 85.0984 49.6171 85.6126C49.4423 85.7053 49.2588 85.7811 49.0664 85.8317C48.0874 86.0172 47.257 86.624 46.2518 86.7505C45.465 86.9359 44.8007 87.4838 43.9353 87.4248C43.6294 87.4838 43.3322 87.5681 43.0262 87.5681C41.6539 87.5006 40.4388 86.5819 38.9965 86.9022C38.5857 86.9949 38.0699 86.9781 38.0175 87.5259C37.9825 87.9052 38.2972 88.2171 38.6119 88.3351C39.4598 88.6554 40.2378 89.3887 41.2518 88.411C41.9336 87.7535 43.2972 88.4953 43.9878 87.5175C44.4074 87.3911 44.8357 87.3574 45.2727 87.3995C49.6259 90.063 54.3287 89.8186 59.1102 88.9251C59.6783 88.8156 60.2203 88.5711 60.7972 88.824C61.715 90.5351 59.486 90.7626 59.2325 92.0017C59.5647 92.5411 60.4039 92.1534 60.8234 92.6339C60.8934 92.7266 60.9546 92.8024 61.0157 92.8867Z" fill="#DADADA"/>
<path d="M22.1522 83.6064C23.9616 83.9688 25.0543 85.2163 26.0508 86.5649C24.2151 86.2446 23.1924 84.9213 22.1522 83.6064Z" fill="#6C88A6"/>
<path d="M26.0682 86.5818C26.7588 86.6408 27.3532 86.8768 27.799 87.4078C27.056 87.4584 26.4179 87.2982 26.0682 86.5818Z" fill="#6C88A6"/>
<path d="M97.6591 64.6076L97.4756 64.6245L97.292 64.6161C96.4616 64.3969 95.7186 64.0513 95.2378 63.3096C94.3549 60.233 93.1836 57.2239 92.9826 54.004C92.7203 49.7221 92.6679 45.4234 91.6626 41.2089C91.5228 40.6105 91.5665 39.953 91.9161 39.3799C92.6679 38.8488 93.3584 39.1523 94.0403 39.5147C95.0717 40.6948 94.7745 42.1193 94.8619 43.4763C94.9144 44.3614 94.6084 45.2717 95.0805 46.123C95.6574 50.1604 96.2343 54.1979 96.8025 58.2438C97.1084 60.3594 97.3794 62.4835 97.6591 64.6076Z" fill="#6C717E"/>
<path d="M94.6434 42.7262C94.5385 41.6894 94.4948 40.6695 93.7693 39.8182C92.9214 38.9585 93.1662 38.0482 93.577 37.0957C94.8183 34.1624 95.7273 31.2629 95.0892 27.9503C94.8095 26.5005 95.1592 24.7642 95.5438 23.1964C96.6976 18.5015 96.1382 13.7307 96.0945 8.99367C96.077 7.18146 95.0368 5.52939 93.9441 4.02061C93.4809 3.38001 92.9214 2.80685 93.3323 1.9471C93.4809 1.66894 93.6382 1.39922 93.7868 1.12106C96.4966 3.64974 97.2658 6.86959 97.7728 10.3507C98.5945 15.9981 97.0211 21.46 96.8637 27.0147C96.7588 30.8246 96.7064 34.5164 94.8183 37.9807C94.3025 38.9248 95.0281 39.8941 95.0455 40.8634" fill="#83919E"/>
<path d="M93.3234 1.94699C93.7168 2.52859 94.0927 3.12704 94.4948 3.70021C95.9021 5.70629 96.8199 7.80509 96.8636 10.3169C96.9598 16.057 96.7325 21.755 95.6661 27.4192C95.6311 27.6215 95.5787 27.8491 95.6399 28.0429C96.6101 31.2881 95.5874 34.255 94.25 37.163C93.8479 38.0312 93.7343 38.8994 93.7605 39.8181C93.1836 39.6833 92.6154 39.5484 92.0385 39.4135C91.8462 39.2702 91.7238 39.0764 91.6626 38.8488C92.3881 36.986 93.3409 35.2159 94.1539 33.3953C94.3462 32.9654 94.9581 32.6198 94.7657 32.1141C93.4546 28.7172 94.5909 25.3541 94.8706 21.9741C94.8969 21.6959 94.8706 22.0415 94.8706 21.7634C95.4476 17.5236 95.1416 13.2586 95.0979 9.01042C95.0892 8.37826 94.9056 7.76295 94.6783 7.17292C93.3234 3.75921 91.8549 3.38834 88.9441 5.70629C88.5507 6.01816 88.1574 6.33003 87.7116 6.56604C86.8811 6.86105 86.2081 7.35836 85.5699 7.93995C85.0717 8.39511 84.5822 9.01885 83.7168 8.66484C85.8671 5.0404 88.5507 2.09871 93.3234 1.94699Z" fill="#8B8790"/>
<path d="M65.3689 26.7701C65.9895 25.9272 66.8025 25.1433 66.2605 23.9549C66.3916 23.8959 66.5315 23.8621 66.6713 23.8621C67.6504 24.5449 68.4895 24.3847 69.3811 23.6093C70.2203 22.8844 71.1818 22.6484 71.9423 23.8031C72.2046 24.941 72.6416 26.0115 73.3147 26.9893C73.7168 28.1019 73.0525 28.6751 72.1346 29.1218C70.7011 29.813 69.1276 30.0911 67.6416 30.6221C66.5752 31.0014 66.0595 30.2766 65.7011 29.4421C65.3427 28.5823 65.5175 27.6552 65.3689 26.7701Z" fill="#706F6A"/>
<path d="M83.7168 8.67332C85.0717 8.07487 85.5874 6.39751 87.222 6.15308C87.5542 6.86111 86.951 7.29941 86.7238 7.85572C85.2815 11.379 83.035 14.1943 79.5035 16.0402C78.6469 16.4869 78.3234 17.5995 77.6066 18.2907C76.6975 19.0072 76.0332 19.8585 75.5699 20.9205C75.0804 22.0332 74.3461 22.9856 72.8689 22.9435C72.6591 22.8929 72.4668 22.7918 72.3094 22.6485C72.2482 20.7435 73.6468 19.4371 74.7045 18.1727C77.0472 15.3912 79.4248 12.6181 81.6801 9.76908C81.8724 9.53307 82.0822 9.39821 82.4056 9.49936C82.8339 9.22963 83.2797 8.95148 83.7168 8.67332Z" fill="#91858A"/>
<path d="M82.3969 9.50774C79.3287 14.0509 75.3165 17.9198 72.3882 22.5726C72.5892 23.3143 72.4843 23.8622 71.5053 23.8285C70.5175 22.9603 69.9581 23.8706 69.3899 24.3764C68.2098 25.4215 67.3445 25.2361 66.6714 23.879C69.6784 23.3565 71.4529 21.2155 73.1749 19.1167C75.9022 15.7873 78.6906 12.5169 81.6452 9.37288C81.855 9.13687 82.1871 9.2633 82.3969 9.50774Z" fill="#6A7684"/>
<path d="M34.3812 82.772C33.813 80.1 33.1749 77.4449 32.7116 74.7645C32.5018 73.5507 31.9861 73.0787 30.7448 73.045C29.591 73.0113 28.4459 72.7247 27.292 72.6741C26.2343 72.6236 25.8759 73.1293 26.7064 73.9047C27.5717 74.7055 27.9214 75.8265 28.7081 76.6442C29.8969 77.8663 29.3899 78.3636 27.9826 78.7682C26.7938 79.1054 25.7011 78.802 24.5473 78.6839C23.1924 78.5407 21.8112 78.6502 19.9668 78.6502C23.3322 81.7689 27.4406 83.5306 29.9057 87.037C26.9424 85.1237 24.5036 82.536 21.4179 80.7575C20.5787 80.277 19.5735 79.9314 19.0665 79.0127C18.778 78.5912 18.7168 78.0939 18.6819 77.6135C18.6207 76.5936 19.0403 76.13 20.1242 76.6357C20.5175 76.8212 20.8934 77.0319 21.3217 77.133C21.6801 77.2173 22.0473 77.2932 22.2658 76.897C22.4231 76.6104 22.2396 76.3829 22.0997 76.1216C20.6836 73.5592 20.6924 73.5592 23.035 71.8397C24.556 71.5278 26.1469 71.4856 27.5717 70.7945C28.0263 70.55 28.4721 70.2887 28.9878 70.1707C30.2466 69.9937 31.1557 70.7186 32.1172 71.3171C32.292 71.4182 32.4581 71.5531 32.6067 71.6879C33.035 72.1262 33.341 72.6488 33.6382 73.1714C34.6696 74.9921 35.0368 76.9729 35.1067 79.0211C35.1417 80.1 35.3777 81.0946 36.2168 81.8869C37.2396 82.8478 38.341 83.6317 39.8707 83.2861C41.4004 82.9321 41.4091 81.5582 41.7238 80.4709C42.1172 79.1054 41.4004 78.2625 40.1242 77.664C38.9791 77.1246 38.7081 75.6411 37.3882 75.1354C36.9424 74.9584 37.2483 74.2419 37.6154 73.8626C37.9214 73.5423 38.3497 73.2557 38.7518 73.3147C40.9633 73.6435 43.2273 73.34 45.4214 73.8963C45.57 74.2082 45.5525 74.4948 45.334 74.7645C43.4196 75.1691 42.3619 75.8603 43.3497 78.0855C44.1102 79.805 43.4721 81.6931 42.764 83.3873C42.257 84.6095 39.084 85.3007 37.4843 84.6516C37.021 84.4662 36.5752 84.247 36.1207 84.0447C35.4301 83.7413 34.5123 83.7497 34.3812 82.772Z" fill="#9FA09F"/>
<path d="M29.1189 70.5668C28.8042 70.8112 28.4895 71.0641 28.1749 71.3085C26.4703 71.8143 24.6784 71.8311 22.9388 72.1683C20.9895 73.4074 20.6836 76.172 18.2011 76.9138H18.0175L17.8339 76.9391C15.9109 78.2793 15.9021 78.2793 14.1539 75.523C14.0315 75.3544 13.9616 75.169 13.9266 74.9667C13.8916 73.7277 15.1766 73.3821 15.6923 72.5223C17.4843 70.727 19.6609 69.471 21.9948 68.4427C23.1923 67.9201 24.3462 67.7263 25.5263 68.4511C26.1906 68.9316 26.9511 69.117 27.7728 69.1255C28.4983 69.1423 29.2588 69.1002 29.6784 69.8672C29.7308 70.2718 29.3899 70.3898 29.1189 70.5668Z" fill="#151616"/>
<path d="M18.2011 76.9138C19.6434 75.3545 21.0945 73.7951 22.5368 72.2358C22.7553 72.0251 22.9214 72.0588 23.0088 72.3454C22.1871 73.4411 20.0805 74.4695 22.9476 75.6832C23.8217 76.0541 23.271 76.9897 23.2011 77.605C23.1137 78.372 22.3008 78.1529 21.7675 78.0602C20.841 77.9 19.9756 77.5544 19.049 76.6778C19.049 77.6303 19.049 78.313 19.049 78.9874C18.4109 78.4395 18.2361 77.7062 18.2011 76.9138Z" fill="#9F9B94"/>
<path d="M14.2413 75.2281C14.5036 75.4388 14.9319 75.6074 15.0106 75.8687C15.5088 77.3943 16.4703 77.6135 17.834 76.9307C17.056 78.9621 15.9459 78.4058 14.7571 77.3016L14.7396 77.2426C14.4861 76.5936 13.8567 76.0289 14.2413 75.2281Z" fill="#152532"/>
<path d="M10.3514 48.6854C10.3514 52.7987 9.74828 56.853 9.04023 60.8905C9.02275 56.7772 9.28499 52.6891 10.3514 48.6854Z" fill="#83AFC9"/>
<path d="M11.2168 42.7851C11.2693 44.7996 11.1206 46.7804 10.3514 48.6769C10.2727 46.6624 10.5874 44.7069 11.2168 42.7851Z" fill="#83AFC9"/>
<path d="M14.2413 75.228C14.4074 75.9023 14.5735 76.5767 14.7396 77.251C14.014 76.897 13.7343 76.1721 13.6207 75.5399C12.9564 71.8312 10.57 68.8558 9.11894 65.4758C9.06649 65.0627 9.02278 64.6582 8.97034 64.2451C9.13642 64.1019 9.31999 64.0597 9.52978 64.1187C10.605 64.8015 10.5612 66.1838 11.4529 66.993C13.0525 67.4144 13.9966 68.1477 13.848 70.019C13.7431 71.2664 14.8008 72.4971 14.32 73.871C14.2151 74.3177 13.8654 74.756 14.2588 75.228H14.2413Z" fill="#637682"/>
<path d="M9.29376 64.2451C9.18887 64.2451 9.08397 64.2451 8.97034 64.2451C9.0053 63.8236 9.04027 63.4106 9.06649 62.9892C10.3952 59.7777 10.2466 56.3387 10.7623 52.9925C11.4354 48.6179 11.4966 44.159 12.528 39.8181C12.8777 39.5652 13.2186 39.5821 13.577 39.8096C13.7605 39.9866 13.8917 40.1889 13.9878 40.4081C13.9703 44.454 14.1889 48.5251 12.5805 52.4024C12.1959 53.338 12.2658 54.3074 12.4231 55.2767C12.528 56.1786 12.4581 57.0721 12.3095 57.9655C12.1172 58.741 11.82 59.5164 12.0473 60.3425C12.0647 60.5448 12.0473 60.7386 12.021 60.9409C11.7151 61.9524 11.7938 63.1325 10.6661 63.7815C10.2553 64.0681 9.81824 64.2788 9.29376 64.2451Z" fill="#69757F"/>
<path d="M13.4021 39.8265C13.1137 39.8265 12.8164 39.8181 12.528 39.8181C12.3619 37.7699 11.4266 35.9239 10.8234 33.9937C10.3252 32.4091 10.1678 30.7991 10.4213 29.2229C10.8934 26.2054 10.5175 23.4491 9.33743 20.5411C8.5682 18.6531 9.18883 16.2592 9.02274 14.1014C8.69932 9.97127 10.0892 6.31312 12.1259 2.79827C14.9144 1.61822 18.2885 2.57068 20.2553 5.09936C21.1119 6.21198 21.8724 7.40046 23.0262 8.26021C23.1574 8.53836 23.2972 8.81651 23.4283 9.09467C21.3916 10.4012 21.0944 8.29392 20.1067 7.52689C19.5385 6.93687 18.9878 6.32155 18.4983 5.6641C16.4004 3.363 14.8794 3.44729 12.3269 5.99283C12.2745 6.17826 12.1958 6.34684 12.1171 6.52385C11.7151 7.58589 11.2518 8.63108 10.9283 9.72684C10.8934 9.93756 10.8322 10.1314 10.7797 10.3337C10.5262 13.5367 10.1416 16.7397 11.0507 19.909C11.2343 20.2124 11.3829 20.5243 11.5227 20.8362C12.2832 21.7633 12.4755 22.8591 12.493 23.997C12.5192 25.7502 12.6329 27.5034 12.4755 29.2398C12.1871 32.4765 13.1137 35.435 14.3899 38.3514C14.3637 39.0342 14.1539 39.5989 13.4021 39.8265Z" fill="#8D888E"/>
<path d="M11.6626 55.4116C11.8899 53.7258 10.8847 51.7619 12.9126 50.4891C13.0175 50.4217 12.9738 50.0845 12.9563 49.8822C12.6679 46.654 13.4721 43.4763 13.4022 40.2564C15.4039 37.8457 18.1661 36.4887 20.8497 34.9462C23.306 33.5301 25.5525 31.7432 27.9913 30.2682C29.9581 29.0712 31.8375 27.7563 33.8042 26.551C34.4249 26.1717 34.9843 25.725 35.1242 24.9664C35.4476 24.0476 34.5822 23.6767 34.1801 23.0867C33.9091 22.5473 33.8917 22.0415 34.3549 21.5864C34.827 21.3419 35.264 21.4599 35.6661 21.7381L35.6749 21.7465C36.0857 22.3871 36.6539 22.9013 37.1172 23.5082C37.8165 24.4269 38.6469 24.6629 39.6259 23.8706C39.757 23.8537 39.8794 23.8369 40.0105 23.8032C40.1417 23.82 40.264 23.8369 40.3952 23.8537C40.1417 24.5786 39.7483 25.2698 40.5438 25.961C42.4319 27.5962 42.0735 29.7456 41.6626 31.7601C41.4354 32.8811 41.4179 33.7156 42.1434 34.6765C43.9966 37.1124 45.4651 39.8265 47.6591 42.0518C47.3182 39.2787 45.8235 36.9186 44.9843 34.3477C44.5822 33.1171 45.6749 30.1164 46.8112 29.5601C46.9861 29.4758 47.2658 29.4168 47.4057 29.4927C47.8165 29.7118 47.6766 30.0827 47.5368 30.403C46.3567 32.9823 47.091 35.4941 48.4109 37.6519C49.5298 39.481 50.7885 41.251 51.8375 43.1391C52.3095 43.9904 54.591 43.8809 54.9581 42.861C55.7623 40.6357 57.6417 39.0848 58.5508 36.9607C59.5735 34.5753 60.1242 32.1647 58.7431 29.5348C61.2605 30.3272 62.3182 32.5861 61.514 34.6933C60.5525 37.2052 59.2675 39.6158 58.7431 42.5659C60.8847 40.5009 61.8637 38.0143 63.6382 36.0757C64.4249 35.4435 64.8095 34.5079 65.4738 33.783C65.8584 33.3531 65.9546 32.7884 65.7011 32.426C64.4249 30.5969 65.2466 28.6835 65.3602 26.8039V26.7954C65.9284 26.905 66.82 26.6522 66.1644 27.8069C65.7186 28.5908 66.1819 29.5096 66.7588 30.0659C67.4056 30.6896 67.8077 29.6023 68.3584 29.5433C69.6522 29.4084 70.7885 28.8437 72.0035 28.5065C72.7728 28.2958 73.1836 28.0345 72.8077 27.2253C73.2273 26.8544 73.6119 27.023 73.9878 27.2927C74.9406 28.4391 74.7046 29.3578 73.5857 30.3356C72.4931 31.2965 70.9983 31.9455 70.57 33.3784C72.1609 30.5547 74.9756 30.0153 78.035 29.9479C80.6399 30.226 82.4144 32.0214 84.3812 33.3531C86.2081 34.5922 87.9826 35.8987 89.9406 36.9523C90.8322 37.4327 91.6102 38.0396 92.0123 38.9921C92.021 39.1354 92.0298 39.2787 92.0385 39.4304C92.3007 43.2403 93.9703 46.7888 93.542 50.8179C93.2535 53.5741 93.6119 56.7012 95.1067 59.4322C95.7623 60.646 95.264 62.1885 95.8934 63.4781C94.3899 63.9332 93.848 62.7448 93.2361 61.9019C91.8287 59.9717 90.7623 57.8391 89.5473 55.7825C88.9354 54.7457 88.2623 53.7764 87.2745 53.0347C86.1207 51.9136 84.591 51.7619 82.9389 51.4079C83.3672 53.1189 85.4301 53.6921 85.4913 55.4116C84.5035 56.6507 83.9004 58.1932 82.0647 58.7073C81.0158 59.0023 80.4563 60.0812 79.6347 60.7555C78.7955 61.4467 77.9651 62.1885 76.7501 61.4636C76.4179 60.0222 78.0001 59.7778 78.507 58.8675C79.5735 58.033 80.4651 57.0047 81.5665 56.2039C82.6242 55.4285 82.5805 54.6362 81.6714 53.768C80.7535 52.8914 80.028 51.804 78.7081 51.3826C78.0612 50.8516 77.3445 50.3543 77.4493 49.3849C77.6766 48.8033 78 48.2639 78.1049 47.6233C78.4109 45.7858 78.1049 45.3053 76.2256 45.2211C73.3497 45.0862 70.57 44.8839 70.1242 41.0825C69.4861 42.2372 69.9668 43.1728 69.9056 44.0916C69.8445 45.0946 69.9581 46.2915 68.2885 46.1482C67.7203 44.5467 67.8077 42.861 67.6242 41.2089C67.5368 40.425 67.7291 39.4894 66.2256 38.9247C66.9161 42.1951 66.2605 45.2548 66.4354 48.3397C66.4179 48.5673 66.313 48.7443 66.1207 48.8876C65.3427 49.1911 64.8008 48.9382 64.4511 48.2386C64.3025 47.9183 64.3462 47.5643 64.2763 47.2861C60.2028 50.1014 59.3899 53.7511 61.4878 58.0583C61.785 57.62 61.5228 57.0131 61.8112 56.5242C62.091 56.0438 62.292 55.3863 63.0612 56.0269C63.6906 57.0468 63.7605 58.2269 63.4721 59.2468C62.7378 61.8344 63.2623 64.2957 63.8654 66.7822C63.8742 67.3975 63.6644 68.0213 63.8305 68.6281C64.0053 69.2772 64.3987 69.8251 65.2116 69.3615C67.563 68.0044 69.1014 69.235 70.5175 70.8702C71.1993 71.8649 71.8637 71.8733 72.4931 70.8702C72.4668 70.8955 72.5018 70.8365 72.5018 70.8365C72.5018 70.8365 72.4056 70.9124 72.3882 70.9292C71.8025 71.3085 71.2343 71.5024 70.6312 71.0135C70.4214 70.7185 70.334 70.3898 70.3864 70.0274C70.6836 67.7515 70.2466 67.1868 67.8515 66.7401C67.292 66.6389 66.6976 66.6558 66.1556 66.4619C65.4126 66.2006 64.8445 65.8213 65.334 64.9279C66.4354 64.1018 67.9126 64.4727 69.0665 63.7984C70.3602 63.5624 71.4791 62.9049 72.6417 62.357C73.3584 62.0199 74.0403 61.6153 74.8882 61.944C74.9319 63.5539 75.6924 65.1723 74.7483 66.7822C74.2326 67.6588 74.8445 68.2067 75.5962 68.6197C76.1294 69.1423 76.5315 69.7239 76.5752 70.4825C76.3742 71.8396 74.9581 72.3032 74.3287 73.3399C74.0053 73.6181 73.6556 73.8709 73.2885 74.0985C71.6539 74.9583 69.9756 74.4862 68.4196 74.0311C66.042 73.3399 63.9529 72.0503 62.091 70.4572C60.9022 69.4373 60.7536 68.055 60.6836 66.6221C60.535 63.7815 57.7728 61.0168 54.8182 60.9831C52.9389 60.9663 51.0595 60.6628 49.2151 61.9272C47.2133 63.2926 45.9896 64.6834 45.9896 67.17C45.9808 69.9515 43.2361 72.2357 39.3549 73.0955C38.2098 73.2978 37.0822 73.6012 36.007 74.0479C35.3864 74.2587 34.7658 74.3767 34.1714 73.9721C33.4983 73.2725 33.1137 72.3284 32.2046 71.8143V71.8059C31.584 70.8197 32.5805 70.7017 33.0612 70.2971C33.848 69.6143 35.1504 69.7155 35.7186 68.6956C37.3182 68.1646 39.049 67.7937 39.5385 65.8719C40.1417 65.383 40.7798 65.3577 41.4441 65.7455C41.8025 66.0573 41.9598 66.4535 42.0385 66.8918C42.1259 67.4818 41.8375 68.114 42.3008 68.8642C43.4459 66.6136 44.3637 64.4727 43.8654 62.003C43.2098 60.0475 42.7903 58.092 43.6207 56.0859C44.2413 55.3948 44.5822 55.8415 44.8882 56.3894C45.2029 56.9541 44.9231 57.62 45.2291 58.2522C45.7011 57.3418 45.9808 56.4231 46.2081 55.5043C46.8025 53.0768 46.549 50.8516 44.4336 49.0731C43.6294 48.3903 42.9214 47.5896 42.2133 46.8225C41.7501 46.6118 41.4266 47.2861 40.9546 47.0333C39.8357 46.0387 40.2466 44.7153 40.1679 43.51C40.063 42.0771 40.3077 40.6357 40.3165 39.0174C39.0577 39.481 39.2326 40.3913 39.1277 41.1415C38.9004 42.8357 39.1539 44.5973 38.341 46.2157C36.6801 46.0977 36.7938 44.867 36.7588 43.7881C36.7326 42.6924 37.1609 41.605 36.8462 40.5093C36.785 39.8265 36.6277 39.2787 35.7186 39.7338C34.8707 40.2733 35.4301 41.0235 35.4389 41.664C35.4476 43.1981 34.6609 44.0326 33.1312 44.1927C31.9773 44.3107 30.7973 44.336 29.6522 44.1927C28.5682 44.0579 27.4756 43.2993 26.6976 44.808C26.4616 45.2548 25.771 44.8418 25.3077 44.6647C23.3672 43.8977 21.6015 44.159 20.1067 45.6004C18.8917 46.7635 17.6417 47.7919 15.7536 47.5811C15.0193 47.4969 14.7133 47.9267 14.6609 48.5842C14.591 49.4271 14.5647 50.27 14.6259 51.1044C14.7483 53.2791 13.6119 54.594 11.6626 55.4116Z" fill="#716F70"/>
<path d="M11.6539 6.15312C13.5245 2.46969 16.2256 2.39383 19.0752 5.31023C18.5508 5.9424 17.799 5.81597 17.091 5.85811C16.077 5.91711 15.771 6.57457 15.7273 7.4006C15.6836 8.31093 16.4529 8.28564 17.0735 8.36993C18.4633 8.56379 19.7833 8.57222 20.3952 6.99602C21.5315 7.52704 21.5403 9.58369 23.4371 9.10325C25.7623 11.8932 28.0962 14.6748 30.4039 17.4816C30.806 17.9705 31.1469 18.4931 31.7501 18.7881C32.8864 19.0578 33.2186 20.0018 33.6382 20.8784C33.7431 21.637 33.813 22.4209 34.084 23.1374C35.063 25.7166 35.098 25.7335 32.7029 27.4024C27.3882 31.1111 21.7938 34.4069 16.3567 37.9301C15.6749 38.3769 14.9319 39.2956 13.848 38.5792C10.6574 34.0697 11.8462 28.9449 11.6714 24.0224C11.6277 22.8845 11.6015 21.7972 10.7798 20.8953C11.6801 19.7911 11.8375 18.5268 11.7501 17.1781C11.5403 14.1353 11.3567 11.0925 12.4581 8.14235C12.7728 7.29103 12.2308 6.701 11.6539 6.15312Z" fill="#978686"/>
<path d="M33.0612 20.9037C32.6241 20.2041 32.1783 19.4961 31.7413 18.7965C31.8287 18.3245 31.1731 17.7513 31.6539 17.4395C32.2658 17.0349 32.4406 17.785 32.729 18.1306C33.7168 19.336 34.6958 20.5413 35.6836 21.7466C35.2465 21.7466 34.8007 21.7466 34.3637 21.7551C33.4808 22.0838 33.4458 21.2493 33.0612 20.9037Z" fill="#69767D"/>
<path d="M39.6347 23.8622C39.0315 25.2698 38.1661 25.2867 37.2046 24.2331C36.549 23.5082 35.8672 22.758 35.6749 21.7466C37.0123 22.4124 37.6941 24.2331 39.6347 23.8622Z" fill="#69767D"/>
<path d="M77.1696 86.9864C76.6014 87.273 76.0245 87.568 75.4563 87.8546C74.3549 87.509 73.3934 87.981 72.7028 88.6469C69.9231 91.3104 66.6364 92.6422 62.7028 92.5073C62.1434 92.4905 61.5752 92.7518 61.0157 92.8866L61.007 92.8782C60.299 92.1028 60.6486 91.3779 61.2692 90.8468C62.4143 89.8607 63.1836 88.5542 64.3899 87.5427C63.4108 87.8209 62.5892 87.3573 61.715 87.1803C61.0769 87.1466 60.5437 86.7588 59.9231 86.6914C58.9528 86.2615 57.9563 85.8991 56.8986 85.7389C56.1469 85.3681 55.3077 85.1573 54.6259 84.6853C53.472 83.893 53.3059 82.8394 53.8829 81.6256C54.4598 80.808 55.0192 79.9904 55.6049 79.1812C55.9021 78.6924 56.2867 78.2709 56.6801 77.8579C57.1783 77.4365 57.6329 76.9644 57.9476 76.3913C58.0612 76.2311 58.201 76.0878 58.3409 75.953C59.1101 75.4472 59.8094 74.8319 60.7448 74.6043C64.0752 74.1576 64.8094 74.8319 64.1888 77.8495C63.9178 79.1728 63.9353 80.4793 64.2675 81.7858C64.8094 83.9098 66.6801 84.8202 68.7343 83.9351C69.4598 83.6233 70.1066 83.1512 70.8759 82.9237C71.7937 82.7382 72.5105 82.3421 72.6154 81.3306C72.7028 80.5383 73.2448 79.9314 73.5332 79.2234C74.0752 77.9 75.264 77.369 76.5227 77.9675C78.8129 79.0464 81.1294 78.9536 83.507 78.6165C84.3724 78.4901 85.1154 78.5491 85.3776 79.5352C85.264 80.5467 84.5035 81.0946 83.6818 81.4908C82.5717 82.0218 81.6801 82.7804 80.8497 83.6401C80.0017 84.6179 78.8916 85.2922 77.8951 86.1014C77.6591 86.3964 77.4143 86.6914 77.1696 86.9864Z" fill="#DADADA"/>
<path d="M89.4074 72.2441C89.4161 72.3116 89.4074 72.4211 89.4511 72.438C92.1346 73.8709 91.7588 75.9276 90.7011 78.1191L90.6923 78.1275C89.6434 78.3467 89.5298 77.2678 88.8829 76.9306C88.4721 76.6609 88.0612 76.3996 87.6591 76.1299C86.1556 76.1636 85.7798 74.8487 84.9668 74.0479C84.3899 72.8763 83.3147 72.6993 82.1172 72.4549C80.2116 72.0671 77.9388 72.5223 76.5752 70.6005C76.2081 69.2772 76.82 68.763 78.1399 68.9147C78.6381 68.9737 79.1976 69.2013 79.6259 68.9484C82.563 67.2121 84.9756 68.5944 87.3794 70.0948C87.6242 70.2465 87.8777 70.3729 88.1486 70.4741C88.7693 70.9208 89.556 71.2664 89.4074 72.2441Z" fill="#151515"/>
<path d="M85.5787 73.9132C86.5927 74.3768 86.8375 75.4979 87.6504 76.1385C88.7256 78.0012 88.0613 79.1476 86.1994 80.1675C84.3899 81.1537 82.7903 82.5023 81.0945 83.6908C80.9109 83.8256 80.7623 83.8003 80.6399 83.6149C81.6189 81.828 83.848 81.415 85.0543 79.8809C85.841 78.7767 84.9931 78.6671 84.2413 78.8189C82.9738 79.0801 81.6714 78.8104 80.4301 79.1897C79.8095 79.3752 79.2938 79.333 79.1277 78.5913C79.7833 77.6978 80.3952 76.9476 80.3515 75.6159C80.299 73.8795 83.5682 72.9186 85.5787 73.9132Z" fill="#A09E9C"/>
<path d="M80.6399 83.6064C80.7885 83.6316 80.9459 83.6569 81.0945 83.6822C80.2378 84.7358 79.3462 85.7641 77.8951 86.1013C78.4633 84.9044 79.6521 84.3565 80.6399 83.6064Z" fill="#6E8290"/>
<path d="M88.8741 76.9307C89.4773 77.3268 90.0804 77.7314 90.6836 78.1276C89.3637 78.7429 89.2413 77.664 88.8741 76.9307Z" fill="#15202F"/>
<path d="M89.4073 72.2442C88.9615 71.8312 88.5245 71.4182 88.0787 71.0136C87.0559 70.373 86.0857 69.6481 84.9668 69.1339C83.4895 68.4512 82.0822 67.8696 80.5 69.0159C79.792 69.5301 78.8042 69.4542 77.9738 69.1171C77.1259 68.7715 76.278 68.8389 75.4126 68.8895C73.472 68.4006 73.0787 67.6504 74.1888 66.3102C74.6521 65.7455 74.9056 65.206 74.5822 64.5992C74.0577 63.6298 74.3899 62.8628 74.9755 62.1042C75.1067 61.0927 75.7098 60.9157 76.6014 61.2529C77.7553 61.531 78.4895 60.8483 79.2937 60.233C80.5087 59.3058 80.9895 57.2829 83.1748 57.7464C83.2448 57.7633 83.4633 57.5357 83.4458 57.5104C82.3881 55.6814 84.9318 56.381 85.0455 55.3863C85.4825 55.1672 85.8934 55.2768 86.2955 55.4875C88.7955 57.5694 90.8934 59.9127 91.7413 63.1072C92.0909 64.4222 92.8077 65.5432 94.1014 66.2344C94.757 66.58 95.2115 67.111 95.4913 67.7853C93.2448 67.4903 92.458 68.468 92.8776 70.5416C93.1049 71.6542 91.8462 72.3959 92.021 73.517C91.1556 73.0787 90.2815 72.6572 89.4073 72.2442Z" fill="#716F70"/>
<path d="M95.5001 67.7685C92.9913 66.816 91.3042 65.1808 90.7798 62.551C90.1941 59.6177 87.6154 58.0162 85.9371 55.8163C85.2815 54.6447 84.3287 53.7175 83.3846 52.765C83.0088 52.3857 82.3794 52.0064 82.7291 51.3742C83.1312 50.6662 83.7081 51.1972 84.2326 51.3152C85.4214 51.585 86.5228 52.057 87.6417 52.4953C89.9668 53.9535 90.6049 56.5327 92.0035 58.5978C93.1661 60.3173 93.7868 62.433 95.8847 63.4529C96.4179 63.7563 97.4581 63.495 97.2833 64.5992C96.9511 65.3072 96.6189 66.0237 96.278 66.7317C96.0245 67.0857 95.7623 67.4313 95.5001 67.7685Z" fill="#111113"/>
<path d="M65.3689 26.7786C65.4476 28.7594 65.3077 30.698 66.1644 32.6535C67.0298 34.6259 64.5735 34.9462 63.6556 36.0504C66.1731 33.7999 64.1626 30.8413 64.9319 28.3126C65.0892 27.8069 64.8532 27.2 65.3689 26.7786Z" fill="#706F6A"/>
<path d="M61.0071 89.0936C57.2134 90.6782 53.2973 90.3326 49.3287 89.9786C47.5717 89.8185 46.4616 88.8997 45.2903 87.8883C45.4301 87.3825 45.9197 87.1718 46.2693 86.8346C46.4354 86.7166 46.619 86.6408 46.82 86.5818C47.9214 86.3121 49.0315 86.0845 50.0805 85.6462C50.3952 85.5619 50.7186 85.545 51.042 85.5282C52.563 85.2753 54.084 85.1657 55.5962 85.5366C55.8235 85.5366 56.0333 85.5787 56.2518 85.6377C57.056 85.9749 57.9039 86.2362 58.7081 86.5734C59.4511 87.0032 60.2553 87.1971 61.1207 87.2561C61.6801 87.2982 62.3532 87.4247 62.3445 88.1158C62.3182 88.8492 61.7501 89.1442 61.0071 89.0936Z" fill="#DAD9DF"/>
<path d="M61.0071 89.0935C61.1906 88.6637 61.9336 88.6721 61.8812 87.9219C60.7099 87.7112 59.3287 88.0652 58.3847 87.02C58.8829 86.2951 59.5822 86.5059 60.2553 86.666C60.7798 86.7925 61.2955 87.138 61.7938 86.607C62.9126 86.7082 64.0752 87.6353 65.1154 86.3542C65.3252 86.0929 65.8322 86.135 66.042 86.489C66.313 86.9526 65.9983 87.2982 65.5875 87.4752C63.7431 88.2844 63.4022 90.5265 61.5578 91.3694C61.0158 91.6138 61.0071 92.305 61.0158 92.8697C60.098 92.8697 59.1714 92.8697 58.2448 92.8697C57.9389 90.7793 60.1941 90.4253 61.0071 89.0935Z" fill="#D4D1D2"/>
<path d="M43.9791 87.8714C43.9528 88.0821 43.9616 88.2928 43.9004 88.4951C43.7868 88.8828 43.4808 89.0851 43.0787 88.984C41.2518 88.5204 39.2063 90.7793 37.5193 88.5625C37.1871 88.1327 36.5315 87.8208 36.7937 87.1633C37.0472 86.5312 37.6329 86.2699 38.3322 86.1603C40.0368 85.8906 41.5665 86.4637 43.1137 86.9948C43.3497 87.3319 43.8917 87.3994 43.9791 87.8714Z" fill="#D5DDD9"/>
<path d="M56.1819 79.4087C55.7273 80.201 55.2902 81.0018 54.4948 81.5496C53.6906 81.4316 53.2098 81.9795 52.6679 82.3925C51.9511 81.4063 51.2431 80.4117 50.5263 79.4256C50.7011 76.8295 50.3777 76.4586 48.2972 76.939C47.7203 76.467 47.1434 76.0034 46.5665 75.5314C46.4878 74.2755 46.9948 73.3483 48.2361 72.8594C48.4458 72.8341 48.6469 72.8594 48.8479 72.9184C49.3287 74.2755 50.6574 74.7475 51.75 75.464C52.6679 76.585 52.9738 77.8746 52.8165 79.2991C53.035 78.2118 53.8567 77.8241 54.8095 77.5796C55.8409 77.7819 55.8322 78.7175 56.1819 79.4087Z" fill="#856C68"/>
<path d="M52.6679 82.3841C52.9563 81.8868 51.8724 81.145 52.8339 80.8838C53.3497 80.7405 54.285 80.5382 54.4948 81.5412C53.1049 84.2553 55.7623 84.3059 57.1084 85.2162C56.9773 85.8484 59.2937 85.0223 57.8776 86.4131C57.3007 86.3288 56.7063 86.4384 56.1556 86.1855C56.0245 86.194 55.8934 86.1687 55.7797 86.1097C54.1801 85.4775 52.5717 85.4775 50.9633 86.0928C50.7011 86.1265 50.4301 86.1518 50.1679 86.1855C49.9056 86.3288 49.6259 86.3625 49.3287 86.3541C48.9878 86.3372 48.5245 86.4637 48.4021 86.0422C48.2186 85.4185 49.0053 85.6208 49.1976 85.2836C50.0105 84.8453 50.9895 84.8622 51.785 84.3817C52.0647 83.7074 52.7727 83.2101 52.6679 82.3841Z" fill="#3D3936"/>
<path d="M34.3811 82.7718C34.9581 83.1933 35.535 83.6231 36.1119 84.0446C35.0018 85.7304 33.2972 85.7388 31.514 85.5871C30.7972 85.5281 30.0455 85.1741 30.0105 84.6346C29.9581 83.9266 30.8759 83.8339 31.479 83.6906C32.4668 83.4461 33.7168 83.9856 34.3811 82.7718Z" fill="#D7DED7"/>
<path d="M48.2972 76.939C48.3147 76.1298 48.6119 75.6157 49.5822 75.6831C50.7623 75.7674 51.1556 76.5597 51.3567 77.4869C51.5228 78.2792 51.4179 79.0294 50.5263 79.4255C49.7833 78.5911 49.0403 77.765 48.2972 76.939Z" fill="#301E20"/>
<path d="M48.2798 73.1714C47.362 73.7192 47.5892 75.0426 46.5752 75.5315C46.2868 75.287 45.9896 75.0342 45.7011 74.7897C45.3165 73.8541 45.2029 72.9859 46.313 72.4043C46.6539 72.261 47.0036 72.2105 47.3707 72.261C47.8602 72.379 48.2273 72.6235 48.2798 73.1714Z" fill="#302929"/>
<path d="M49.1976 85.2837C48.236 86.8515 50.028 85.7052 50.1591 86.194C49.0752 86.8346 47.8602 86.9864 46.6189 87.0201C45.8934 87.0285 45.8409 86.6998 46.1818 86.1856C47.1958 85.8906 48.0525 85.1404 49.1976 85.2837Z" fill="#5D5D5D"/>
<path d="M46.1906 86.1857C46.3392 86.4639 46.4791 86.742 46.6277 87.0202C46.6189 87.1382 46.6015 87.2562 46.5665 87.3658C45.6836 87.5006 44.7221 88.234 44.0403 87.0202C44.8707 87.0286 45.3078 86.0677 46.1906 86.1857Z" fill="#8E9092"/>
<path d="M44.0315 87.0202C44.7832 87.7619 45.7011 87.3405 46.5577 87.3657C46.278 87.8631 45.7448 87.7956 45.2815 87.8883C44.8444 87.8799 44.4074 87.8799 43.9703 87.8715C43.4633 87.7788 43.1224 87.5259 43.1049 86.9949C43.4196 87.0033 43.7255 87.0117 44.0315 87.0202Z" fill="#B6B9BB"/>
<path d="M46.6015 72.7248C45.6574 73.1462 45.6924 73.9722 45.6924 74.7814L45.5001 74.7983L45.3165 74.7477C45.2816 74.478 45.2466 74.2083 45.2116 73.9385C44.827 72.632 45.1941 72.1347 46.6015 72.7248Z" fill="#927674"/>
<path d="M51.785 84.3734C51.0857 85.1067 50.1853 85.3174 49.1976 85.2753C49.9406 84.6684 50.8235 84.4156 51.785 84.3734Z" fill="#5D5D5D"/>
<path d="M92.021 38.9753C87.9651 36.8765 84.3462 34.1455 80.57 31.6337C79.8182 31.1364 79.1102 30.4537 78.0525 30.5717C76.6714 30.0407 75.0892 29.7709 74.5822 28.102C74.4861 27.4193 74.8182 26.922 75.264 26.4247C75.8322 25.7925 77.3619 25.6576 76.8812 24.5366C76.4703 23.5757 75.3252 24.4101 74.521 24.3343C73.4021 24.2247 72.4668 23.9971 72.8165 22.5811C73.9791 22.3619 74.6521 21.6286 75.0018 20.6003C75.3951 19.4539 76.0857 18.5521 77.1696 17.9367C77.8602 18.5689 76.9948 19.3697 77.4668 20.2884C79.9231 18.493 82.4144 16.9084 85.4826 18.7712C86.549 19.3949 87.3969 20.4738 89.049 20.2968C88.542 18.5605 87.8602 17.0011 87.7378 15.2479C87.528 12.2894 89.8007 10.6457 91.1119 8.49635C91.4878 7.88104 92.2483 8.03276 92.8252 8.49635C93.7168 9.39825 93.6906 10.5446 93.6731 11.6572C93.6294 14.8686 93.8829 18.0885 93.4721 21.2999C93.4196 21.7129 93.3584 22.1428 93.7518 22.5136C94.5385 22.7159 94.6696 21.4263 95.5175 21.7298C95.4126 25.2278 94.7046 28.6583 95.2903 32.2406C95.5438 33.8084 93.8742 35.6965 92.9738 37.3907C92.6941 37.9301 92.056 38.2841 92.021 38.9753Z" fill="#978686"/>
<path d="M95.5088 21.7382C94.8007 22.5052 94.9931 24.486 93.577 24.0309C92.3707 23.6431 92.6591 22.0922 92.7291 20.7099C92.9301 16.7146 93.3847 12.6687 92.4581 8.6818C90.9721 7.25731 88.6294 7.61132 88.0787 9.4404C87.6591 10.8227 87.021 11.9691 85.9633 12.989C84.8532 14.051 84.6609 15.3996 84.9756 16.8578C85.1417 17.6249 85.7623 18.4172 85.028 19.2179C82.6417 17.9367 80.5962 18.7206 78.7518 20.2716C78.035 20.8784 77.528 21.7719 76.4616 20.8279C75.4214 19.9007 76.5053 19.395 76.8987 18.7459C77.0385 18.5183 77.0735 18.2233 77.1609 17.962C78.2885 15.0625 81.549 14.3292 83.4721 12.2304C83.7955 11.8764 84.4948 11.7078 84.4686 11.202C84.3549 8.98524 86.0245 7.71247 87.2046 6.17841C88.4109 5.18379 89.5997 4.18075 90.8147 3.203C91.313 2.79841 91.8462 2.36011 92.4756 3.05971C93.9965 4.7202 95.8147 6.27955 95.8759 8.67337C95.9808 12.6434 95.9196 16.6134 95.8847 20.5834C95.9021 20.9459 95.6486 21.342 95.5088 21.7382Z" fill="#988582"/>
<path d="M72.8165 22.581C73.3846 24.2752 74.6084 23.643 75.806 23.466C76.4616 23.3649 77.5193 22.3955 77.8252 23.938C78.0437 25.0338 78.0962 26.0453 76.6277 26.3656C75.6836 26.5679 75.1154 27.1073 74.9756 28.0429C74.3986 28.3211 74.0927 27.8238 73.6818 27.6215C73.3934 27.4782 73.0962 27.3433 72.8077 27.2C71.6626 26.3234 71.243 25.1939 71.5053 23.82C71.8025 23.3986 72.0909 22.9771 72.3881 22.5641C72.5367 22.5725 72.6766 22.581 72.8165 22.581Z" fill="#918781"/>
<path d="M46.6015 72.7246C45.5525 72.5055 45.299 73.1376 45.2116 73.9468C44.5036 73.9805 43.7431 73.7951 43.1312 74.3345C42.3969 74.992 41.6626 74.7307 40.9284 74.3514C40.6749 74.2165 40.4476 74.0395 40.1941 73.9047C39.2763 73.4073 38.5333 73.8962 37.8077 74.343C37.6941 74.4104 37.6329 74.8065 37.7203 74.8824C38.4896 75.5904 38.9616 74.3935 39.8532 74.6211C39.1801 76.3406 39.6609 77.4448 41.7675 77.4532C41.8287 77.4532 41.8812 77.5291 41.9336 77.5712C42.9214 78.4057 42.8689 81.6508 41.5665 83.3029C40.6836 84.4239 39.2675 84.5335 37.8777 83.9098C35.605 82.8899 34.1277 81.4317 34.3287 78.7681C34.4773 76.7958 33.6906 74.9414 33.0438 73.0955C33.6294 72.851 33.9529 73.2893 34.3462 73.5506C34.8008 74.1575 35.2291 73.6939 35.6661 73.5169C36.8025 73.0786 38.1312 73.3821 39.2064 72.6909C41.1032 72.1009 42.598 70.8702 44.1976 69.8082C45.1854 69.1592 45.2291 68.2151 45.2728 67.2205C45.4126 63.8405 47.8515 60.7724 51.0945 59.8621C53.1661 59.2805 59.6871 61.5984 60.8584 63.3938C61.5053 64.38 61.5053 65.5347 61.4091 66.6558C61.2605 68.4259 61.8637 69.7155 63.4721 70.7017C65.7973 72.1177 68.0525 73.5928 70.9109 73.8372C71.7326 73.9047 72.4931 73.9131 73.2011 73.4579C74.084 74.1407 74.0053 75.11 73.7081 75.9192C73.0787 77.6387 73.0438 79.4256 72.799 81.1872C72.9651 82.5106 71.9511 83.0332 71.0158 83.6063C69.6696 84.0362 68.6731 85.5281 67.1172 85.1488C65.3165 84.7105 63.5158 84.1795 63.4109 81.7351C63.3584 80.4961 63.035 79.257 63.3322 78.0095C64.0403 75.0173 63.8217 74.7813 60.5787 75.2027C60.4476 75.0763 60.3602 74.9246 60.3165 74.7475C60.2903 74.1575 60.5175 73.5085 59.8882 73.0533C57.4581 72.4127 55.1591 71.3844 52.5105 71.553C50.7448 71.671 49.1714 72.3369 47.4756 72.6066C47.1871 72.6572 46.8987 72.6909 46.6015 72.7246Z" fill="#9D9D9D"/>
<path d="M11.6626 55.4116C12.3357 54.8047 11.7938 53.2116 13.5158 53.3887C13.8829 53.4224 13.8217 52.6891 13.8305 52.2845C13.848 51.45 13.8392 50.6071 13.8392 49.7726C13.8392 46.9995 13.8392 46.9742 16.6102 46.9995C17.7203 47.008 18.2885 46.2831 18.9441 45.6509C21.549 43.1897 22.6592 42.9874 26.0508 44.3697C26.8637 44.7069 26.855 44.1927 26.8025 43.6533C26.7675 43.2487 25.8497 42.8356 26.6889 42.4901C27.2308 42.2625 27.9039 42.195 28.4721 42.7766C29.4074 43.7375 33.0962 43.9904 34.1626 43.2571C34.9756 42.7008 34.9931 41.8495 34.6522 41.192C33.9878 39.9361 34.5822 39.4051 35.6661 39.0005C36.0682 39.2955 36.2431 39.7085 36.313 40.1805C36.3043 43.687 35.3078 44.8249 31.9161 45.1705C28.2011 45.5498 28.2011 45.5498 28.9004 49.2332C29.014 50.1014 28.3759 50.5565 27.834 51.0707C27.1085 51.6186 26.549 52.3266 25.8322 52.8745C23.7693 54.6108 23.7693 54.6108 25.1067 56.2713C26.5315 57.8644 28.0525 59.3563 29.8882 60.5195C30.0193 60.6797 30.1067 60.8567 30.1329 61.059C30.098 61.2613 30.0106 61.4383 29.8794 61.5984C29.1189 62.2474 28.2885 62.77 27.2571 62.947C26.9336 63.006 26.82 63.3095 26.9161 63.5961C27.0298 63.9669 27.3445 63.8827 27.6067 63.7731C28.9966 63.1662 30.7273 63.2505 31.7675 61.9103C32.4319 61.6574 33.035 61.9187 33.6469 62.0957C34.9057 62.7785 36.3043 63.1915 37.5543 63.8995C38.9616 64.7003 40.334 64.1187 41.7151 63.7731C42.4494 64.6075 42.6766 65.3746 41.4179 65.9562C40.7885 65.973 40.1067 65.8129 39.5997 66.3608C38.9004 67.1699 37.9039 67.0941 37.0036 67.0266C35.334 66.9002 34.9756 67.5071 35.6749 68.8894C35.8934 69.2266 36.549 69.5553 35.5613 69.8419C34.2675 70.2128 33.1836 70.9629 32.1871 71.8311C31.1644 71.4097 30.1417 70.9882 29.1189 70.5752C29.2675 70.4319 29.4074 70.2971 29.556 70.1538C29.7483 69.2435 29.1364 69.4289 28.577 69.4626C27.4057 69.5385 26.1906 69.7829 25.1941 68.8726C22.7903 67.8274 21.2693 69.7913 19.4511 70.5668C18.1661 71.1147 17.1434 72.2273 15.9983 73.087C15.3252 73.4832 14.7396 74.0816 13.8392 73.9552C14.3375 72.0334 12.1871 70.4066 13.1836 68.3753C13.3672 68.0044 12.6854 67.819 12.2221 68.0128C11.6539 68.2488 11.1119 68.4343 10.8235 67.6588C13.4546 65.9815 14.9057 63.5286 15.9109 60.705C16.4004 59.3226 17.3707 58.1678 18.7693 57.4345C20.0455 57.0131 21.1644 56.6001 21.4703 54.9901C21.8025 53.2116 23.7343 52.3688 24.8619 50.624C22.3619 51.2309 20.3515 52.2676 18.2361 53.0346C17.9126 53.1526 17.6592 53.4729 17.292 53.5235C16.7064 53.5994 15.5612 53.1864 16.5752 54.4507C16.7763 54.7036 16.5927 55.2599 16.3217 55.4032C14.4336 56.4315 14.8969 58.4207 14.2675 59.9548C13.6819 60.941 13.7868 62.5509 11.9161 62.3907C11.278 61.9861 11.2693 61.472 11.6364 60.8904C11.6364 60.7471 11.6364 60.6038 11.6364 60.4689C11.3043 59.7693 11.3043 59.0697 11.6364 58.3701C11.6539 57.3755 11.6626 56.3893 11.6626 55.4116Z" fill="#716F70"/>
<path d="M23.0175 72.3453C22.8602 72.3116 22.7028 72.2695 22.5455 72.2358C24.3287 71.376 26.2605 71.4097 28.1748 71.3086C26.6014 72.3032 24.7483 72.0503 23.0175 72.3453Z" fill="#716F70"/>
<path d="M34.3637 73.5508C33.9266 73.399 33.4983 73.2473 33.0612 73.0956C32.7728 72.6741 32.4843 72.2527 32.1959 71.8228C33.2798 71.983 33.848 72.7247 34.3637 73.5508Z" fill="#716F70"/>
<path d="M41.6976 76.484C41.4003 76.6273 41.208 76.7875 41.0769 76.7538C40.9371 76.7201 40.8496 76.4925 40.7448 76.3492C40.8671 76.2817 40.9982 76.1469 41.0944 76.1637C41.2605 76.189 41.4091 76.3239 41.6976 76.484Z" fill="#9D9D9D"/>
<path d="M25.1941 68.8641C26.5228 69.235 27.834 69.5974 29.1976 68.9568C29.5735 68.7798 30.1242 68.8304 30.2728 69.353C30.4214 69.8756 30.0455 70.0947 29.556 70.1453C28.9179 69.5047 28.1049 69.8081 27.3619 69.766C26.5228 69.7239 25.6486 69.7829 25.1941 68.8641Z" fill="#393537"/>
<path d="M13.848 73.9468C14.5647 73.6602 15.2903 73.3652 16.0071 73.0786C15.6749 73.9889 14.2326 74.0479 14.2501 75.2195C13.813 74.8908 13.9092 74.3935 13.848 73.9468Z" fill="#152532"/>
<path d="M12.1084 62.1632C13.507 61.8092 12.8951 60.1993 13.8392 59.5671C14.4161 57.5357 15.6836 55.8247 16.8025 54.0799C18.2797 51.7704 21.1294 51.6524 23.4983 50.8769C24.2762 50.624 24.7657 51.5934 24.1014 52.0654C21.9161 53.65 21.4965 56.5748 19.0927 57.9488C16.9773 59.2637 16.2955 61.4215 15.5175 63.5287C14.722 65.6865 13.3934 67.3217 10.8322 67.6505C10.3164 66.521 9.80071 65.3831 9.28497 64.2536C9.47728 63.7732 9.87064 63.5203 10.3689 63.4107C11.1731 63.2758 11.4615 62.492 12.1084 62.1632Z" fill="#161618"/>
<path d="M33.0612 20.9037C33.4896 21.1818 33.9266 21.46 34.3549 21.7466C34.3724 22.2102 34.3549 22.6822 34.8008 23.0025C35.3252 23.6515 35.8497 24.309 36.1119 25.1097C34.3637 27.4698 31.6539 28.633 29.2675 30.1839C24.0228 33.5976 18.6994 36.9018 13.4109 40.2565C13.4109 40.1132 13.4109 39.9783 13.4109 39.835C13.5595 39.422 13.7081 39.0006 13.848 38.5876C16.2868 38.0734 18.0438 36.4298 20.028 35.157C24.285 32.4429 28.4721 29.6361 32.7378 26.9304C34.1801 26.0116 34.8095 25.1519 33.6906 23.5335C33.2011 22.8255 33.2535 21.7887 33.0612 20.9037Z" fill="#847D7B"/>
<path d="M12.1085 62.1631C11.7763 62.888 11.3829 63.5455 10.3777 63.4106C11.584 62.9386 10.535 61.4045 11.6539 60.8904C11.6539 61.3624 11.6539 61.8344 12.1085 62.1631Z" fill="#716F70"/>
<path d="M11.6539 58.3617C11.6539 59.0613 11.6539 59.7609 11.6539 60.4605C11.042 59.7609 11.042 59.0613 11.6539 58.3617Z" fill="#716F70"/>
<path d="M11.6539 6.15295C13.5944 5.79051 13.6381 7.20657 13.2535 8.17589C12.1871 10.8479 12.327 13.5451 12.5105 16.2929C12.5804 17.2623 12.4668 18.24 12.5367 19.2093C12.6329 20.4821 12.0735 21.0216 10.771 20.8867C10.6224 20.7434 10.4825 20.6085 10.3339 20.4653C9.9843 16.8155 9.97555 13.1658 10.3339 9.51609C11.3742 8.61419 11.3217 7.31614 11.6539 6.15295Z" fill="#978582"/>
<path d="M20.3864 6.99585C20.9546 9.3138 20.9546 9.3138 18.5245 9.11994C18.2361 9.09465 17.9389 9.1368 17.6592 9.10308C16.4354 8.95136 14.5822 9.67625 14.8182 7.37515C15.0368 5.22578 15.6224 4.90548 18.2011 5.29321C18.4896 5.32692 18.7868 5.31007 19.0752 5.31007C19.5123 5.8748 19.9494 6.43111 20.3864 6.99585Z" fill="#978582"/>
<path d="M10.3427 9.52463C10.3427 13.1743 10.3427 16.8241 10.3427 20.4738C9.63468 16.8241 9.62594 13.1743 10.3427 9.52463Z" fill="#978686"/>
<path d="M11.6539 6.15308C11.6452 7.43427 11.9161 8.80819 10.3427 9.51621C10.7798 8.4036 11.2168 7.27412 11.6539 6.15308Z" fill="#978686"/>
<path d="M62.7815 55.8669C61.6976 57.1481 62.5455 58.699 62.1084 60.6376C60.1941 57.8224 59.4074 55.1841 59.6871 52.3183C59.9843 49.1575 63.2011 47.9016 64.6783 45.2043C65.3776 46.2748 64.8969 47.0671 64.8444 47.8425C64.6172 49.2165 65.1591 49.3598 66.2256 48.6433C66.313 48.5169 66.313 48.3904 66.243 48.264C66.3042 46.9407 66.8549 46.064 68.4021 46.1315C69.6696 45.6679 69.2238 44.6564 69.1801 43.8051C69.1364 42.9706 68.8742 42.1446 68.8829 41.3101C68.8916 40.5262 69.1976 39.6244 70.1242 39.5822C70.9721 39.5485 70.7797 40.5263 70.9546 41.0657C72.0385 44.3277 72.021 44.3277 76.6014 44.53C77.563 44.5721 79.1714 44.3193 79.0053 45.592C78.8304 46.8817 79.8532 48.8372 77.6154 49.5115C76.8287 49.9329 76.2605 49.3682 75.6311 49.0985C74.9231 48.4916 74.0577 48.4157 73.1661 48.4663C72.8689 48.4663 72.5717 48.4663 72.2745 48.4663C71.1294 48.6264 69.8619 48.0364 68.8567 49.0142C67.1609 49.9076 65.9371 51.2478 64.9493 52.8072C64.0665 53.7175 64.3287 55.3864 62.7815 55.8669Z" fill="#D8D8D8"/>
<path d="M28.7081 49.5534C27.0298 48.5083 27.6067 46.7382 27.6416 45.4064C27.6766 44.1421 29.3811 44.6562 30.3777 44.4792C30.5874 44.4371 30.8147 44.454 31.0245 44.4455C35.0193 44.2769 35.1329 44.1842 35.7273 40.3406C36.0769 39.5062 36.6102 39.2786 37.3969 39.877C38.0437 40.9897 37.729 42.1191 37.5455 43.2823C37.3794 44.3022 36.8899 45.4907 38.2797 46.1819C38.9878 46.1313 39.4249 46.6033 39.9056 46.9742C40.4039 47.3619 40.8759 47.4799 41.3654 46.9911C41.6451 46.5443 41.2255 45.8279 41.8811 45.575C42.1609 45.4654 42.292 45.8194 42.3357 46.0976C42.3007 46.4516 42.3794 46.7888 42.5105 47.1175C43.4196 49.368 43.3322 49.5619 41.042 50.5649C39.6958 50.6745 39.0228 49.4607 37.9214 49.0899C35.6749 48.1795 33.4284 48.0447 31.1906 49.0983C30.4039 49.4692 29.6784 50.1519 28.7081 49.5534Z" fill="#D5D5D5"/>
<path d="M41.4179 65.9563C41.785 65.2398 41.9511 64.5318 41.3305 63.849C39.7745 62.8291 37.8689 63.023 36.1819 62.4835C35.9896 62.374 35.841 62.2222 35.7186 62.0452C35.0105 60.4185 36.4703 60.469 37.3532 60.0729C37.9913 59.702 38.7343 59.4576 39.1102 58.758C39.5735 58.2607 39.8619 57.6706 40.1329 57.0722C40.9983 55.9848 40.5962 54.7037 40.7448 53.4983C40.8584 52.7397 41.1819 52.1918 42.0822 52.1918C43.778 52.9167 44.3025 54.1895 43.9266 55.8837C43.9179 57.9909 43.4808 60.1572 44.8008 62.0958C44.0315 64.6919 43.9878 67.524 42.0473 69.8757C41.1207 69.0497 41.9511 67.9371 41.3742 67.17C41.3917 66.7654 41.4091 66.3608 41.4179 65.9563Z" fill="#161915"/>
<path d="M62.7815 55.8668C63.4459 54.7627 63.5857 53.4225 64.5036 52.4363C66.3043 53.0516 65.299 54.5604 65.5962 55.6477C65.7885 57.4178 66.6976 58.7242 68.341 59.5419C69.0665 60.0054 70.0368 59.702 70.7361 60.233C71.2081 60.6629 71.348 61.1433 70.9896 61.7081C70.8497 61.8851 70.6836 62.0284 70.4826 62.1295C69.7396 62.433 68.9441 62.3908 68.1749 62.3318C66.6277 62.2222 65.7186 62.8038 65.5438 64.3295C65.2728 64.9869 64.9931 65.6275 65.4476 66.3187C65.6399 66.6137 65.7011 66.9762 65.7098 67.3217C65.7273 68.2405 65.806 69.4964 64.8095 69.665C63.5857 69.8757 63.6207 68.5608 63.4371 67.7095C63.3934 67.4988 63.3235 67.3133 63.2273 67.1279C62.9651 66.1248 62.7116 65.1302 62.4406 64.1356C61.6626 61.3456 63.3584 58.6484 62.7815 55.8668Z" fill="#171A17"/>
<path d="M43.9266 55.8837C43.3672 54.7626 42.8077 53.6416 42.2483 52.5205C41.7063 51.8631 40.5263 51.5933 40.8934 50.3964C42.1347 49.4861 42.9476 48.4746 41.8724 46.9237C41.785 46.7973 42.1696 46.3758 42.3357 46.0893C48.0962 50.9696 48.0874 52.9925 45.3165 59.8874C45.2553 60.0391 45.0105 60.115 44.7308 60.3088C43.8305 58.8759 45.0892 57.148 43.9266 55.8837Z" fill="#D6D7D6"/>
<path d="M63.2186 67.1279C63.6556 67.8781 64.1014 68.6283 64.6783 69.6229C65.4126 67.5325 64.7745 65.6781 64.993 63.8744C65.1679 63.7311 65.3427 63.7226 65.5175 63.8659C65.7535 64.2452 65.771 64.6077 65.4388 64.9533C65.5088 66.1333 66.4353 65.8889 67.1871 65.931C67.9651 65.9732 68.9528 65.695 69.4161 66.3693C70.1329 67.4145 72.3444 66.7486 72.1084 68.2237C71.9773 69.0497 70.9283 69.9432 70.6049 70.9799C70.028 70.8872 69.4161 71.1991 69.014 70.3393C68.3497 68.9233 67.1084 69.1256 65.9021 69.7156C65.3165 70.0022 64.8881 70.9125 64.0752 70.2298C63.3147 69.5892 62.5979 68.8727 63.1486 67.7348C63.2448 67.5746 63.2011 67.3386 63.2186 67.1279Z" fill="#716F70"/>
<path d="M78.9266 51.214C79.993 51.1634 83.4633 53.9787 83.5245 54.9312C83.5507 55.3442 83.2798 55.5718 83.0088 55.7994C81.6626 56.9457 80.3077 58.0836 78.9528 59.2299C78.3497 59.5081 77.9476 60.0223 77.4144 60.3763C76.5752 60.941 76.0857 60.6544 75.9196 59.7188C75.9458 59.1288 76.2605 58.6905 76.7063 58.3112C78.2273 57.2576 78.236 55.7235 78.1049 54.1473C78.1399 53.1105 77.9476 52.0063 78.9266 51.214Z" fill="#D4D2D3"/>
<path d="M41.3654 46.9827C41.4528 47.5137 41.6801 48.0531 41.2431 48.66C39.9493 48.1796 39.32 46.9405 38.2798 46.1735C37.4756 43.9567 38.5682 41.7652 38.4021 39.5315C38.3322 38.5959 39.4074 37.6181 40.4826 37.7783C41.9161 37.9806 41.1819 39.1606 41.1119 39.9951C40.9021 42.3383 40.4039 44.69 41.3654 46.9827Z" fill="#222021"/>
<path d="M68.4109 46.123C67.6941 46.831 66.9773 47.5475 66.2518 48.2555C65.3951 48.2218 65.4039 47.6992 65.5175 47.0923C66.007 44.5215 65.9546 41.9591 65.4913 39.3883C65.3951 38.8488 65.1679 38.2167 65.7798 37.8626C66.4528 37.4833 67.0472 37.8711 67.528 38.3178C67.8339 38.6044 68.2972 39.009 68.2623 39.3124C67.9826 41.5967 69.2238 43.8388 68.4109 46.123Z" fill="#222122"/>
<path d="M85.5787 73.9131C84.2588 73.6434 83.0088 74.2334 81.8899 74.5959C79.8794 75.2449 80.9371 76.6188 81.7588 77.6893C81.0857 78.5322 79.9581 77.8157 79.3637 78.5406C78.6032 79.1981 77.8515 78.9621 77.2833 78.3552C76.7413 77.782 77.1085 77.2004 77.5892 76.7115C79.4948 76.4418 79.0752 74.402 80.1591 73.4917C80.3689 73.3147 80.0455 72.9354 79.757 72.9354C78.3147 72.927 76.8462 71.9745 75.4301 73.0197C75.1592 73.1714 74.8707 73.2641 74.556 73.2725C74.3375 73.2557 74.1714 73.163 74.049 72.9944C74.3287 71.7806 75.6137 71.435 76.3043 70.5837C76.4354 70.373 76.5927 70.3477 76.785 70.5247C78.4633 71.4098 80.299 71.7385 82.1696 71.8228C83.7518 71.8986 84.9406 72.4465 85.5787 73.9131Z" fill="#9D9D9D"/>
<path d="M78.9266 51.214C78.6119 52.3013 78.8916 53.4055 78.8742 54.4928C78.6032 55.1418 78.7343 55.9342 78.1661 56.482C77.5105 57.5357 77.021 57.2406 76.6102 56.305C76.4354 55.3526 76.6102 54.3917 76.5053 53.4392C76.3392 51.8714 75.3689 50.8347 73.9616 50.1351C73.271 49.6715 72.292 49.6462 71.8375 48.8286C71.6451 48.306 71.9948 48.0531 72.3882 47.8255C72.6679 47.8255 72.9563 47.8255 73.2361 47.8255C74.1189 48.1711 75.1679 47.9773 75.9546 48.6178C76.514 48.9044 77.0647 49.1994 77.6242 49.486C77.9651 50.1435 79.0665 50.2362 78.9266 51.214Z" fill="#2E3628"/>
<path d="M73.6819 27.6299C74.1102 27.7731 74.5472 27.908 74.9756 28.0513C75.9983 28.8942 77.021 29.7287 78.0525 30.5715C74.6084 30.5968 71.75 31.5914 70.3165 34.9293C69.1364 32.0972 71.584 30.757 73.1312 29.6444C74.3287 28.793 73.9791 28.4222 73.6819 27.6299Z" fill="#766F75"/>
<path d="M48.1224 51.9474C47.7815 50.1689 46.0682 49.2165 46.4703 47.0502C46.7238 45.6847 47.0909 46.1315 47.7902 46.1146C48.7867 46.0978 49.5472 46.2916 50.0717 47.2862C50.5787 48.2556 50.0455 48.6264 49.4336 49.1659C48.6469 49.8402 49.4073 51.1214 48.1224 51.9474Z" fill="#6F7069"/>
<path d="M76.2168 59.4321C76.3742 60.2076 76.7151 60.5869 77.4756 59.9379C77.9039 59.5754 78.3235 59.213 78.9529 59.2298C78.4022 60.157 77.5105 60.7133 76.6015 61.2528C76.0595 61.5309 75.5175 61.8175 74.9756 62.0957C72.9476 62.475 71.4528 64.1355 69.3375 64.3209C69.4249 62.8543 70.8759 63.065 71.6539 62.3907C69.7396 63.3684 67.7903 64.4052 65.5962 63.1156C65.7361 62.18 66.3829 61.9524 67.257 61.9355C68.3759 61.9102 69.5035 62.1041 70.6137 61.8091L70.6399 61.7838C71.4266 61.0926 72.3794 60.688 73.3759 60.3593C74.3899 60.2497 75.1067 59.272 76.2168 59.4321Z" fill="#CAD1C6"/>
<path d="M35.6748 68.8894C35.3776 68.6955 35.0629 68.5269 34.8007 68.2994C34.4248 67.9706 33.5507 67.9285 33.9004 67.153C34.1451 66.6136 34.7133 66.3944 35.3164 66.386C36.75 66.3691 38.1748 66.3776 39.6084 66.3691C39.4685 68.6028 39.0402 68.881 35.6748 68.8894Z" fill="#737068"/>
<path d="M76.7762 70.5163C76.6189 70.5331 76.4615 70.5584 76.2955 70.5753C76.0332 69.9937 75.4126 69.5891 75.4126 68.8811C75.7622 67.7516 76.5227 67.9455 77.2745 68.4006C78.2797 69.0159 79.4948 69.2351 80.3776 68.6704C82.3532 67.406 84.0839 68.2658 85.6661 69.1255C86.5052 69.5807 87.7815 69.7998 88.0787 71.0052C87.0472 70.8197 86.2605 70.1876 85.3864 69.6987C83.8392 68.8389 82.3094 68.1562 80.5525 69.3278C79.8182 69.8167 78.9091 69.8167 78.0437 69.488C76.9685 69.0834 76.785 69.6987 76.7762 70.5163Z" fill="#5E5E5C"/>
<path d="M65.7973 63.3939C66.4266 63.1242 66.9161 62.4836 67.764 62.8376C69.3637 63.5204 70.7448 62.138 72.5717 62.2476C71.278 62.9472 70.1067 63.3518 69.3375 64.3211C68.2098 65.5012 66.8025 65.0797 65.4476 64.9533C65.4301 64.5824 65.4126 64.2115 65.3952 63.8407C65.1679 63.3939 65.4126 63.3349 65.7973 63.3939Z" fill="#D5D5D5"/>
<path d="M87.6504 52.4953C86.007 52.7481 84.7483 51.2815 82.9301 51.4922C83.708 53.1696 85.7185 53.945 85.9283 55.8163C85.6311 55.673 85.3427 55.5212 85.0455 55.378C84.1276 53.768 82.6591 52.6133 80.9895 50.8853C83.708 50.6578 85.7972 51.0118 87.6504 52.4953Z" fill="#5D5C5C"/>
<path d="M41.3829 67.17C41.9249 67.7432 41.6277 68.5187 41.9773 69.4543C43.0438 67.8443 43.7518 66.3271 43.9441 64.6329C44.049 63.7058 44.1364 62.8207 44.8095 62.0958C44.7483 64.6161 44.0927 66.9846 42.9214 69.2267C42.6854 69.6819 42.5193 70.4489 41.8112 70.2719C41.1032 70.0949 41.4004 69.3363 41.3654 68.8305C41.3042 68.2742 41.3654 67.7179 41.3829 67.17Z" fill="#5B5B5B"/>
<path d="M72.3881 81.5497C71.8025 78.7682 73.3934 76.1974 73.2186 73.4496C73.4983 73.2978 73.7693 73.1461 74.049 72.986C74.1014 73.0618 74.1626 73.1377 74.2151 73.2051C74.4598 76.1721 74.3549 79.0548 72.3881 81.5497Z" fill="#A3A3A3"/>
<path d="M70.6224 70.9883C71.3479 70.845 72.0822 70.7102 72.8077 70.5669C72.7728 70.7692 72.7815 70.9883 72.6941 71.1653C72.4056 71.7469 73.1574 72.9607 71.8374 72.8679C70.8497 72.8005 70.5962 71.8818 70.6224 70.9883Z" fill="#716F70"/>
<path d="M37.4056 39.8687C36.7675 39.7676 36.1906 39.835 35.7361 40.3323C35.7186 39.8856 35.6923 39.4388 35.6749 38.9921C36.6889 38.4864 37.3182 38.6802 37.4056 39.8687Z" fill="#878586"/>
<path d="M39.2151 72.691C38.2798 73.9469 36.8899 73.3822 35.6749 73.517C36.7675 72.8849 37.9563 72.6488 39.2151 72.691Z" fill="#716F70"/>
<path d="M67.6766 72.2947C68.4633 71.6794 69.0578 71.7806 70.1242 72.3706C69.1364 72.733 68.5508 72.8005 67.6766 72.2947Z" fill="#716F70"/>
<path d="M66.2343 48.6349C65.9371 49.2502 65.3777 49.8655 64.7745 49.5115C64.2063 49.1827 64.4511 48.3904 64.8532 47.8341C64.9406 48.6939 65.4476 48.8877 66.2343 48.6349Z" fill="#C1C2BF"/>
<path d="M72.799 70.5753C72.8514 70.0527 72.7115 69.4374 73.3846 69.2098C73.6731 69.1171 73.9441 69.3784 73.9353 69.6565C73.9353 70.3477 73.3759 70.491 72.799 70.5753Z" fill="#716F70"/>
<path d="M36.1119 25.1012C35.5437 24.4774 34.9231 23.879 34.8007 22.994C35.6836 23.4407 36.1906 24.0981 36.1119 25.1012Z" fill="#69767D"/>
<path d="M72.3882 81.5497C73.6994 79.67 73.1399 77.4279 73.6644 75.3881C73.848 74.6632 73.9091 73.9131 74.2151 73.2135C74.4686 73.0364 74.7308 72.8679 74.9843 72.6909C76.584 72.0081 78.2361 72.497 79.8707 72.5138C80.4126 72.5223 81.042 73.1544 80.6399 73.4242C79.32 74.3008 79.5123 76.2057 77.9651 76.8379C76.514 78.8777 78.1487 78.549 79.3724 78.5321C81.1294 79.1221 82.8602 78.3635 84.6172 78.431C85.2728 78.4562 86.2168 77.7566 86.4878 78.6248C86.7238 79.3497 85.7973 79.6953 85.0717 79.8723C84.8445 78.8103 84.1364 79.1811 83.4022 79.2739C81.0682 79.5689 78.7343 79.8892 76.5053 78.608C75.4214 77.9842 74.6696 78.4225 74.014 79.6194C73.2361 81.0524 73.7431 83.4967 71.0333 83.6063C71.3829 82.8646 72.3794 82.5106 72.3882 81.5497Z" fill="#D4D5D5"/>
<path d="M56.1818 79.4088C55.028 79.3751 55.3165 78.2962 54.8881 77.7483C54.3899 76.661 54.8881 75.9108 55.7623 75.2702C55.9895 75.1522 56.2343 75.0848 56.4965 75.0595C57.4756 75.1438 58.7605 74.8319 58.4371 76.5177L58.4458 76.5008C57.9476 77.0234 57.4668 77.5629 57.0997 78.1866C56.986 78.7176 56.5927 79.0717 56.1818 79.4088Z" fill="#493833"/>
<path d="M56.1556 86.1941C56.7413 86.2025 57.3182 86.2109 57.9039 86.2193C58.6382 86.2278 59.3812 86.2109 60.1154 86.1603C60.6749 86.3121 61.2343 86.4638 61.785 86.6071C62.3357 87.45 61.785 87.5764 61.1119 87.4921C60.1941 87.3825 59.2937 87.1802 58.3759 87.0201C57.6417 86.7504 56.8986 86.4722 56.1556 86.1941Z" fill="#797C7F"/>
<path d="M58.4371 76.5093C58.1137 75.2534 57.0123 75.7338 56.1993 75.5905C56.5228 74.166 57.9738 74.6296 58.8479 74.1155C59.3724 74.0312 59.8532 74.1323 60.3077 74.3936C60.4651 74.5116 60.5787 74.6718 60.6574 74.8488C60.6137 74.9668 60.5962 75.0848 60.5962 75.2112C59.8707 75.6495 59.1539 76.0794 58.4371 76.5093Z" fill="#625252"/>
<path d="M60.1154 86.1603C59.3986 86.8346 58.6556 86.6745 57.9039 86.2193C58.1923 85.4776 57.0822 85.7726 57.1084 85.2247C58.2535 85.1067 59.1626 85.7136 60.1154 86.1603Z" fill="#4B4F4F"/>
<path d="M57.0997 78.1782C57.1522 77.3269 57.6592 76.8043 58.4459 76.4924C58.2536 77.251 57.7378 77.7568 57.0997 78.1782Z" fill="#625252"/>
<path d="M50.9546 86.1015C52.563 85.1068 54.1714 85.0563 55.771 86.1183C54.1714 85.9582 52.563 85.916 50.9546 86.1015Z" fill="#5D5D5D"/>
<path d="M59.2325 74.343C58.577 75.5652 57.0735 74.8656 56.1993 75.5905C56.0595 75.5989 55.9109 75.5989 55.771 75.6074C54.2937 74.8825 52.8165 74.1913 51.3567 75.6579C51.2955 75.6242 51.2343 75.5821 51.1644 75.5652C48.7868 74.8066 48.7868 74.8066 48.778 73.104C50.7098 70.9209 53.271 71.6963 55.6661 71.7975C56.3742 71.8312 57.0822 72.0841 57.7815 72.2779C58.6556 72.4381 58.9353 73.1798 59.3462 73.7867C59.4074 73.9806 59.3724 74.166 59.2325 74.343Z" fill="#927674"/>
<path d="M51.3567 75.658C51.514 74.5791 52.0997 73.9975 53.2798 73.8036C54.8619 73.5423 54.9756 74.9668 55.771 75.6074C55.4738 76.3154 55.1854 77.0319 54.8882 77.7399C54.9494 78.6671 52.021 78.507 54.4249 80.3613C51.313 79.5943 52.6154 76.9307 51.3567 75.658Z" fill="#A5706C"/>
<path d="M58.4109 72.7247C55.1854 72.5309 51.9424 71.747 48.778 73.0956C48.612 73.1209 48.4371 73.1462 48.271 73.1715C48.0088 72.986 47.7378 72.8006 47.4756 72.6236C50.1154 69.8083 53.5071 70.9293 56.5665 71.3424C57.9651 71.5278 59.591 71.9998 60.9546 72.75C60.1067 73.3737 59.2588 73.458 58.4109 72.7247Z" fill="#A49793"/>
<path d="M85.0368 19.2011C84.6085 17.5574 83.4809 16.0065 84.3375 14.1774C84.6959 13.4104 84.8882 12.5675 85.7448 12.1376C86.8462 11.5813 87.1522 10.6036 87.2833 9.52467C87.4756 7.89789 88.1487 7.13929 90.098 7.20672C91.4354 7.24886 92.598 6.74313 92.4581 8.68178C92.2483 8.6312 91.8725 8.5132 91.855 8.54692C91.077 10.376 89.0315 11.5645 88.6382 13.4357C88.2361 15.3406 88.1312 17.4984 89.6347 19.2264C90.0718 19.7321 90.4826 20.2884 90.0455 20.9121C89.6172 21.519 88.8567 21.3589 88.2361 21.2409C86.9162 20.9711 85.9721 20.0861 85.0368 19.2011Z" fill="#938884"/>
<path d="M90.7186 34.8871C90.736 34.2549 90.7361 33.4795 91.1993 33.4711C92.5979 33.4458 93.0437 32.8052 93.0175 31.583C93.0088 31.288 93.3235 31.111 93.6469 31.17C94.0927 31.2543 94.2413 31.6336 94.1626 31.9707C93.8042 33.5975 93.4109 35.2327 92.4406 36.6488C92.257 36.9269 91.8724 37.2894 91.5402 37.0365C90.806 36.4633 90.7798 35.5783 90.7186 34.8871Z" fill="#9A847F"/>
<path d="M58.4109 72.7245C59.2588 72.733 60.1067 72.7414 60.9633 72.7414C61.007 73.4663 61.3479 74.2249 60.6486 74.8486C60.5787 74.7896 60.5175 74.7306 60.4563 74.6716C60.0892 74.3429 59.8532 73.7866 59.1801 74.0058C58.4458 73.8372 57.9301 73.559 58.4109 72.7245Z" fill="#625252"/>
<path d="M19.0927 57.9403C20.806 55.8246 22.0035 53.355 24.0228 51.3742C21.2081 52.0653 18.0962 51.9305 16.5752 55.066C15.8235 56.6254 15.0717 58.2438 13.8304 59.5587C13.8654 58.4039 14.5647 57.3166 14.0315 56.0775C13.6906 55.2852 14.0839 55.0913 14.9056 55.5128C15.6661 55.9089 15.9546 55.2093 16.1119 54.7036C16.3567 53.9029 15.9109 54.004 15.2815 54.1389C14.4423 54.3159 14.7745 53.6668 14.9318 53.3803C15.1941 52.9167 15.3602 51.8378 16.1818 52.5795C16.9948 53.3044 17.2483 52.6975 17.9039 52.4784C20.5175 51.6018 22.9126 50.034 25.8759 49.8148C25.7011 52.9335 20.1067 53.6247 22.493 57.8644C21.2168 57.3503 20.1242 57.3756 19.0927 57.9403Z" fill="#716F70"/>
<path d="M24.6871 56.7182C22.4581 54.6953 22.5193 54.4171 25.6049 52.4363C26.4004 52.9252 26.2518 53.7681 26.4703 54.6363C26.8287 53.3804 26.3305 52.0402 27.3794 51.1045C27.598 51.0455 27.8077 51.0793 27.9913 51.2057C28.507 51.7367 28.4196 52.411 28.4546 53.0516C28.3322 54.2148 28.7955 55.2516 29.2063 56.2968C29.4336 58.0668 31.1119 58.9013 31.9773 60.2668C32.0997 60.5534 32.1084 60.8484 32.0123 61.1434C31.9161 61.3288 31.7675 61.4637 31.5752 61.5564C30.8497 61.7671 30.3689 61.4131 29.9581 60.9074L29.9756 60.9158C27.834 59.9633 26.6801 57.8561 24.6871 56.7182Z" fill="#D3D3CF"/>
<path d="M36.278 62.0958C37.1347 62.1127 37.9913 62.1632 38.8479 62.1295C40.1679 62.0705 41.0682 62.5173 41.3305 63.8406C41.3479 64.9448 40.7098 65.1639 39.6871 65.1302C37.2658 65.0459 35.5088 63.5119 33.4633 62.61C33.0263 62.1042 32.3707 61.9947 31.7763 61.7839C31.6888 61.6828 31.6539 61.5817 31.6714 61.4721C31.6888 61.3625 31.7151 61.3035 31.7413 61.3035C33.542 60.0897 34.8182 61.5985 36.278 62.0958Z" fill="#CFCFD3"/>
<path d="M28.6294 56.6929C28.3322 55.5803 27.7553 54.5267 27.8252 53.3298C28.0874 52.6302 28.2797 51.9306 27.6853 51.29L27.5367 51.2478L27.3881 51.2647C27.2745 51.2057 27.2221 51.1298 27.2308 51.0371C27.2395 50.936 27.2658 50.8938 27.3007 50.8938C27.4843 50.1689 28.4196 50.1858 28.7168 49.5621C29.4161 49.2502 30.1154 48.9467 30.8235 48.6349C31.4965 48.2893 32.1521 47.9437 32.9651 48.0617C33.6818 48.1629 33.6731 48.5506 33.4721 49.0563C33.271 49.444 32.8864 49.6632 32.5892 49.9582C31.6451 50.818 30.3776 51.3996 29.9581 52.7313C29.6958 53.5995 29.8707 54.493 29.757 55.3612C29.6521 55.9849 29.7133 56.7941 28.6294 56.6929Z" fill="#313928"/>
<path d="M31.75 62.1464C30.9458 62.905 31.2518 65.4506 28.9353 63.7732C28.4895 64.9785 26.9773 64.2705 26.3042 65.3494C25.7797 64.0092 26.6364 62.8544 26.0507 61.548C27.7116 63.4782 28.6644 60.9579 29.9755 61.3204C30.063 61.3457 30.1591 61.371 30.2465 61.4047C30.6486 61.6575 31.1469 61.6997 31.5577 61.9441C31.6189 62.0031 31.6888 62.079 31.75 62.1464Z" fill="#706F69"/>
<path d="M24.4948 48.7528C23.07 49.3428 21.8112 49.7896 20.6224 50.3796C19.9057 50.7336 19.355 50.6493 18.9091 50.1099C18.4284 49.5283 18.6731 48.9214 19.1626 48.4325C19.6522 47.9352 20.2378 47.6065 20.7885 48.3061C21.4091 49.09 21.8287 48.9383 22.4668 48.2724C23.2186 47.4969 23.8567 48.0026 24.4948 48.7528Z" fill="#716F70"/>
<path d="M27.292 50.8768C27.3269 51.0033 27.3532 51.1213 27.3881 51.2477C27.3794 52.4278 27.3969 53.6078 27.3532 54.7879C27.3357 55.4032 27.2745 56.2966 26.5752 56.3135C25.6749 56.3303 25.6923 55.3947 25.6399 54.7204C25.5874 53.9618 25.6137 53.1948 25.6049 52.4278C26.007 51.7534 26.4965 51.155 27.292 50.8768Z" fill="#DAD6E8"/>
<path d="M24.6871 56.7182C26.986 57.4852 28.1661 59.5756 29.9755 60.9242C27.6154 60.2162 26.3217 58.2691 24.6871 56.7182Z" fill="#C0BEB8"/>
<path d="M31.75 61.3119C31.7588 61.4299 31.7763 61.5479 31.8025 61.6743C31.7325 61.7502 31.6714 61.826 31.6014 61.9019C30.9458 62.0115 30.3689 61.944 29.993 61.3287L29.9756 61.3203C29.9581 61.1854 29.9581 61.0506 29.9581 60.9157C30.5525 61.0506 31.1556 61.177 31.75 61.3119Z" fill="#BEC4B5"/>
<path d="M31.8025 61.6744C32.5105 61.7418 33.1923 61.8514 33.472 62.6184C32.8951 62.4583 32.3269 62.2981 31.75 62.1464C31.6364 62.1043 31.5839 62.0453 31.5839 61.9694C31.5927 61.8767 31.6101 61.8345 31.6364 61.8345C31.6976 61.7755 31.75 61.725 31.8025 61.6744Z" fill="#BEC4B5"/>
<path d="M65.0018 56.1786C64.5647 54.9649 65.6312 53.5657 64.5035 52.4362C65.3165 50.6998 66.6889 49.5029 68.4021 48.6263C68.8567 48.8286 69.0315 49.1911 69.0752 49.6378C69.049 50.0761 68.8654 50.4722 68.5158 50.7083C66.514 52.0485 66.2343 54.2315 65.5525 56.2208C65.3514 56.3641 65.1679 56.3472 65.0018 56.1786Z" fill="#748361"/>
<path d="M68.8566 49.5029C68.5245 49.3006 68.4196 48.9803 68.4021 48.6263C69.5122 47.362 70.972 47.716 72.3794 47.8424C72.2308 48.1206 72.0909 48.3988 71.9423 48.6769C71.1731 49.4355 70.2115 49.6462 69.1538 49.5704C69.049 49.5451 68.9528 49.5198 68.8566 49.5029Z" fill="#475134"/>
<path d="M75.9546 48.6348C75.0193 48.4747 74.049 48.3988 73.2361 47.8425C74.2763 47.6739 75.2641 47.6739 75.9546 48.6348Z" fill="#475134"/>
<path d="M32.1871 49.5198C32.4668 49.3849 32.7553 49.2501 33.035 49.1152C34.6958 47.8677 36.4965 48.2555 38.306 48.6685C39.4685 48.8286 39.9318 49.9497 40.8846 50.3964C41.1381 51.2224 42.2832 51.5259 42.2395 52.5205C41.2867 52.4531 41.514 53.2201 41.3479 53.709C40.5699 53.9787 40.2465 53.3802 40.0892 52.9082C39.5297 51.2562 38.1486 50.6071 36.6451 50.0677C36.0944 49.8148 35.5437 49.8991 34.9843 50.0677C34.6696 50.1435 34.3549 50.1604 34.0315 50.1351C33.3584 50.1014 32.6416 50.1688 32.1871 49.5198Z" fill="#788463"/>
<path d="M38.306 48.6686C36.549 48.8203 34.792 48.9636 33.035 49.1153C33.2972 48.5253 33.1399 48.1881 32.4318 48.2977C31.8899 48.3736 31.3567 48.5168 30.8147 48.6349C32.6241 47.3284 36.1818 47.3452 38.306 48.6686Z" fill="#3E4C2C"/>
<path d="M36.5665 49.5114C39.3113 49.6884 40.1504 51.8967 41.3567 53.709C41.6627 55.0997 41.6627 56.4231 40.5613 57.5441C39.1976 57.561 39.4511 56.5411 39.5036 55.833C39.5823 54.83 39.4249 53.9365 38.9179 53.0768C38.7955 52.9251 38.6994 52.7565 38.6032 52.5879C38.3148 51.45 37.1347 51.4837 36.348 50.9948C36.0158 50.6998 35.8148 50.3542 35.8585 49.9075C35.9896 49.5872 36.1469 49.3259 36.5665 49.5114Z" fill="#9EB27B"/>
<path d="M39.1714 52.47C40.0455 53.4562 40.5 54.5267 40.1329 55.8584C39.9668 56.4569 39.9406 57.0975 40.5612 57.5442C40.229 58.0752 39.8969 58.6063 39.5734 59.1457C39.3112 59.466 39.0227 59.4407 38.7081 59.23C38.4196 56.9458 38.2273 54.6699 39.1714 52.47Z" fill="#9CB470"/>
<path d="M37.8864 60.4774C37.6329 61.354 35.7535 60.1486 36.0857 61.7754C34.7745 62.1716 33.8654 61.4383 32.9563 60.7218C33.472 59.5333 34.5822 59.9548 35.5 59.8368C35.8671 59.8368 36.2343 59.8368 36.6101 59.862C37.1171 59.9042 37.5979 60.0222 37.8864 60.4774Z" fill="#344126"/>
<path d="M33.0612 60.882C34.1102 61.0506 34.9756 61.8261 36.0944 61.7755C36.1819 61.8682 36.2518 61.9694 36.2867 62.0958C34.6521 62.4919 33.3584 61.0843 31.7588 61.3119C31.75 61.0506 31.7413 60.7893 31.7325 60.528C32.3182 60.1234 32.6941 60.469 33.0612 60.882Z" fill="#BEC4B5"/>
<path d="M37.8864 60.4775C37.4144 60.4438 36.9336 60.4185 36.4616 60.3848C36.6976 59.289 37.598 59.2553 38.4896 59.2047C38.5857 59.2216 38.6819 59.2384 38.778 59.2553C39.0403 59.2216 39.3025 59.1794 39.5648 59.1457C39.355 59.997 38.5071 60.0982 37.8864 60.4775Z" fill="#4D583D"/>
<path d="M76.2168 59.4322C75.4039 59.9716 74.8357 60.9072 73.6906 60.9325C72.6591 60.6965 71.5315 61.1685 70.5525 60.5616C69.6784 60.4605 68.7343 60.7471 67.9738 60.0812C67.834 59.9042 67.8252 59.7187 67.9563 59.5333C68.9091 59.0023 69.9231 59.3732 70.9109 59.3394C72.3095 59.2889 73.6469 59.1371 74.6609 58.0667C74.9231 57.7801 75.1941 57.4935 75.4651 57.2069C76.0158 56.8613 76.2693 56.0437 77.1521 56.2376C77.3969 57.4176 77.764 56.2544 78.0612 56.2797C78.6556 57.4766 77.7291 58.0751 77.0035 58.7494C76.7413 58.9601 76.4791 59.1961 76.2168 59.4322Z" fill="#50603B"/>
<path d="M65.7972 63.3937C65.6661 63.5455 65.5263 63.6972 65.3951 63.8489H65.1941L64.993 63.8826C65.0717 62.2474 65.9721 61.59 67.6416 61.7248C68.6294 61.8091 69.6172 61.7838 70.6137 61.8091C69.6434 62.4581 68.5333 62.2221 67.4756 62.2559C66.6364 62.2811 65.8584 62.3233 65.7972 63.3937Z" fill="#4D4A4D"/>
<path d="M70.5438 60.5534C71.6015 60.5787 72.7291 60.0898 73.6819 60.9242C72.6417 61.1265 71.7588 61.8599 70.6312 61.7671C70.7885 61.3541 70.9721 60.9327 70.5438 60.5534Z" fill="#3D4C2D"/>
<path d="M68.0262 59.5839C68.0088 59.744 67.9913 59.9126 67.9651 60.0728C66.313 59.2467 65.2902 57.9655 65.0018 56.1786C65.1416 56.2039 65.2728 56.2208 65.4126 56.2208C66.7675 56.9962 67.5542 58.1678 68.0262 59.5839Z" fill="#3D4C2D"/>
<path d="M44.9756 58.4039C44.7396 57.2155 45.0018 56.2209 44.591 55.2768C44.0403 54.0209 45.6837 55.201 45.6487 54.4171C45.6137 53.4646 45.64 52.5037 45.8497 51.5597C46.1295 53.827 46.619 56.1197 44.9756 58.4039Z" fill="#E3DEE8"/>
<path d="M77.0035 58.7326C77.3444 57.9065 78.3759 57.3502 78.0612 56.2629C78.3322 55.6729 78.6032 55.0829 78.8742 54.4928C78.6819 56.0859 79.0228 57.8981 77.0035 58.7326Z" fill="#CAD1C6"/>
<path d="M77.9563 76.838C78.6469 75.5653 79.2675 74.2504 80.5088 73.1377C78.6294 72.0588 76.7063 73.3906 74.9843 72.691C76.8812 70.8872 78.9441 72.4044 80.8934 72.5393C81.7238 72.5983 81.3654 73.576 80.7885 73.9638C79.5997 74.773 79.4948 75.835 79.8707 77.1162C79.1976 77.0235 78.577 76.9308 77.9563 76.838Z" fill="#A3A3A3"/>
<path d="M83.3584 73.4833C83.271 73.3316 83.1749 73.1714 83.0875 73.0197C83.2011 72.9607 83.3847 72.8258 83.4284 72.8596C83.577 72.9607 83.6731 73.1377 83.7955 73.281C83.6731 73.34 83.5507 73.3906 83.3584 73.4833Z" fill="#A09E9C"/>
<path d="M68.0263 59.584C66.7588 58.7496 65.9546 57.5864 65.4214 56.2209C65.063 53.2623 66.6364 51.2309 68.8567 49.503H68.8654C70.6224 48.9214 72.3881 49.1069 74.1451 49.503C76.3217 50.1436 77.1696 51.6524 77.1434 53.7428C77.1346 54.5688 77.1521 55.4033 77.1521 56.2293C76.7326 56.676 76.313 57.1143 75.8934 57.5611C75.0979 57.0301 75.2203 56.2209 75.2553 55.4707C75.3252 53.6922 74.521 52.4784 72.9214 51.6102C70.8409 50.4808 69.521 51.8884 68.1574 52.8999C66.6714 53.9956 67.0909 55.4707 67.6941 56.8783C67.9476 57.2155 68.1486 57.6875 68.6819 57.5358C69.1102 57.4094 69.0228 56.9795 68.9791 56.6339C68.9091 56.145 68.7343 55.6814 68.7168 55.1841C68.7256 54.5519 68.7693 53.9282 69.486 53.6248C70.6836 53.7596 70.4563 55.2515 71.4878 55.5887C72.6591 54.4592 71.1819 53.0432 71.9423 51.8968C73.9616 51.7367 74.9319 52.9504 74.5298 55.4201C74.3462 56.5833 74.1801 57.5948 75.3165 58.3618C73.2098 60.6123 70.6923 60.5196 68.0263 59.584Z" fill="#9CB772"/>
<path d="M74.1364 49.4945C72.3794 49.4945 70.6137 49.4945 68.8567 49.4945C69.7483 48.7359 70.8672 48.7864 71.9424 48.6684C72.6766 48.9466 73.4109 49.2247 74.1364 49.4945Z" fill="#748361"/>
<path d="M74.2675 76.9055C74.4511 73.8289 75.0018 73.2304 77.2658 73.5255C77.6941 73.5845 78.2098 73.5507 78.2885 74.0733C78.3672 74.6296 77.8602 74.8235 77.4406 74.7477C75.57 74.3852 75.9983 76.9223 74.2675 76.9055Z" fill="#DADADA"/>
<path d="M59.1801 73.9975C59.1102 73.5255 58.9791 72.9692 59.7833 73.1125C60.7973 73.2811 60.6137 73.9975 60.4563 74.6718C59.9668 74.832 59.556 74.7477 59.2326 74.3431C59.2326 74.2251 59.2151 74.1071 59.1801 73.9975Z" fill="#281F21"/>
<path d="M33.0612 60.882C32.6154 60.764 32.1696 60.646 31.7238 60.5196C30.6311 59.2889 28.9266 58.5135 28.6294 56.6844C29.4511 55.9679 29.049 55.0323 29.1276 54.181C29.1976 53.4561 28.9441 52.6638 29.6084 52.0653C30.028 52.3519 30.1416 52.7818 30.2203 53.2285C30.3602 53.7596 30.3514 54.2906 30.3339 54.83C30.6049 57.1143 32.1084 58.8759 34.32 59.4154C34.9493 59.5671 35.6486 59.5502 35.771 60.3763C34.8881 60.6544 33.8567 60.1824 33.0612 60.882Z" fill="#4D583D"/>
<path d="M27.6854 51.2815C28.5507 51.9137 28.2973 52.6133 27.8252 53.3213C27.7815 52.647 27.7291 51.9643 27.6854 51.2815Z" fill="#716F70"/>
<path d="M29.6171 53.2875C29.6171 52.8829 29.6084 52.4783 29.6084 52.0738C30.0804 50.86 31.1643 50.2194 32.1871 49.5282C32.9126 49.5198 33.6381 49.5114 34.3724 49.5029C34.3636 51.037 34.0053 52.2255 32.0035 52.2086C31.0944 52.1918 30.7535 53.591 29.6171 53.2875Z" fill="#9CB470"/>
<path d="M31.6451 61.8345C31.6976 61.9356 31.7326 62.0368 31.75 62.1464C31.0507 62.1042 30.2028 62.3402 29.993 61.3288C30.5437 61.4973 31.0944 61.6659 31.6451 61.8345Z" fill="#716F70"/>
<path d="M29.6171 53.2875C30.5437 52.1749 31.4878 51.096 33.2098 51.3236C33.8304 51.4079 34.0577 51.0792 33.708 50.6156C33.0262 49.6968 34.3811 49.9918 34.3636 49.503C34.6434 49.4861 34.9231 49.4777 35.2028 49.4608C35.5612 49.5198 35.8759 49.6547 36.0944 49.9497C36.243 50.2278 36.4003 50.5144 36.5489 50.7926C36.042 51.7703 34.8007 52.0148 34.2675 53.0684C33.6556 54.2737 33.3846 55.2768 34.5035 56.2629C34.8357 56.4737 35.0979 56.2967 35.3514 56.0859C35.5524 55.9005 35.736 55.7066 35.9283 55.5128C36.5315 54.9312 36.7413 54.2737 36.5577 53.4561C36.3654 52.6301 36.3042 51.7282 37.3357 51.3826C38.2885 51.0623 38.6906 51.8799 39.1538 52.4699L39.1626 52.4784C39.3811 54.7626 39.6434 57.0384 38.7692 59.2636V59.2384C34.9668 61.059 31.5227 58.5809 29.6346 55.0323C29.6346 54.4507 29.6259 53.8691 29.6171 53.2875Z" fill="#9BB96C"/>
<path d="M36.1032 49.9412C35.7273 49.9159 35.4127 49.781 35.2116 49.4523C35.6836 49.1067 36.1294 49.073 36.5665 49.5113C36.4092 49.6546 36.2606 49.7979 36.1032 49.9412Z" fill="#9CB470"/>
<path d="M39.1626 52.4616C38.5333 52.2509 38.0525 51.2984 37.292 51.9053C36.6976 52.3689 37.2308 53.0516 37.3007 53.6501C37.4144 54.6953 37.3794 55.732 36.1469 56.2462C35.4214 55.3443 36.5752 53.9788 35.3252 53.1781C33.9179 54.0968 34.9406 55.3696 34.7833 56.4569C34.7046 56.7688 34.5735 57.0385 34.1976 57.0975C32.4756 54.9229 32.9214 52.4448 35.2116 50.8264C35.771 50.4302 36.1382 51.3321 36.5577 50.7927C37.8689 50.7168 38.9266 50.995 39.1626 52.4616Z" fill="#9CB470"/>
<path d="M29.6434 55.0324C31.8025 56.2377 32.8339 58.8254 35.6311 59.3396C36.7675 59.5503 37.729 59.1457 38.778 59.23C38.1748 59.9212 37.2308 59.9886 36.4703 60.3848C36.243 60.3848 36.0158 60.3848 35.7885 60.3763C31.6626 59.5166 30.0455 58.109 29.6434 55.0324Z" fill="#9CB470"/>
<path d="M67.1172 57.1058C65.4563 53.9618 67.2308 52.5626 69.2762 51.1803C71.0595 49.9665 72.5717 50.5312 73.9878 51.4837C75.5962 52.5626 76.5927 54.0292 75.8846 56.1112C75.736 56.5495 75.8759 57.0721 75.8846 57.561C75.6923 57.8307 75.5 58.1004 75.3077 58.3701C73.0874 58.5134 72.9651 58.3617 73.6207 56.2208C74.4074 53.6752 73.9004 52.4867 71.8724 52.099C71.1207 52.5963 70.6399 53.4224 69.7483 53.7595C69.1626 54.2062 69.3462 54.8384 69.3025 55.42C68.7343 55.6982 68.542 54.9648 68.0612 54.9733C67.6416 55.6392 67.9651 56.6085 67.1172 57.1058Z" fill="#9CBB67"/>
<path d="M69.7483 53.7511C70.264 52.9672 70.0979 51.3826 71.8724 52.0906C72.7728 53.3634 73.1312 54.653 72.4406 56.1955C71.9336 57.325 71.4616 57.3081 70.8147 56.4484C70.2116 55.6561 69.7833 54.771 69.7483 53.7511Z" fill="black"/>
<path d="M67.1172 57.1058C67.1172 56.3472 67.0997 55.597 67.1259 54.8384C67.1434 54.24 67.0123 53.4814 67.9301 53.4139C68.8916 53.3381 68.7693 54.122 68.9091 54.7036C68.9703 54.9564 69.1626 55.1756 69.2937 55.4116C69.4336 55.8077 69.6783 56.1955 69.7046 56.6001C69.7483 57.2575 70.5874 58.2774 69.25 58.4544C68.3497 58.5809 67.0822 58.6399 67.1172 57.1058Z" fill="#9CBC63"/>
<path d="M34.3112 56.2377C33.4109 54.7037 33.743 53.3382 34.9319 52.0907C35.1854 51.8294 35.5175 51.585 35.8235 51.9811C36.8462 53.3213 37.0385 54.7458 36.1469 56.2377C35.9896 56.3726 35.8235 56.499 35.6661 56.6339C34.9756 57.2408 34.6871 56.6002 34.3112 56.2377Z" fill="black"/>
<path d="M34.3112 56.2377C34.7658 56.3725 35.2116 56.5074 35.6661 56.6338C35.4039 57.4683 34.8881 57.5273 34.1976 57.089C34.2325 56.8024 34.2675 56.5243 34.3112 56.2377Z" fill="#3C5B26"/>
</g>
<defs>
<clipPath id="clip0">
<rect width="90" height="97" fill="white" transform="translate(8)"/>
</clipPath>
</defs>
</svg>
