<svg id="Capa_1" data-name="Capa 1" xmlns="http://www.w3.org/2000/svg" viewBox="0 0 849.99 762.18"><defs><style>.cls-1{fill:#a5d2d0;}.cls-2{fill:#fff;}.cls-3{fill:#634e42;}.cls-4{fill:#432918;}</style></defs><ellipse class="cls-1" cx="458.01" cy="387.72" rx="322.16" ry="308.58"/><path class="cls-2" d="M696.82,536.39c0-35.84,0-71.68.07-107.52a10.63,10.63,0,0,0-3.34-8.29q-96.36-97.47-192.65-195c-11-11.06-22.45-21.61-34.14-31.87-7.15-6.27-11.74-5.75-18.87.54-4.43,3.9-8.79,7.89-12.94,12.08q-106.53,107.57-213,215.14c-2,2-2.37,4.17-2.37,6.78q0,106.57-.05,213.15a30.23,30.23,0,0,0,3.19,13.77c1.54,3.15,3.37,4,6.63,3.94,37.81-.11,75.61-.07,113.42-.07,9.11,0,18.21.05,27.32,0,1.24,0,3.14-.33,3.6-1.16,2.38-4.34,5.17-8.34,5.14-13.91-.21-40.78-.12-81.56-.11-122.34,0-7.57,6-15.28,13.23-16.46a99.37,99.37,0,0,1,14.5-1.37c20.21-.34,40.42-.71,60.63-.62,18.08.09,36.16.45,54.21,1.34,9.36.46,14.77,6.67,15.72,16.21.37,3.78.46,7.59.47,11.38.07,35.84.18,71.69.05,107.53,0,5.71.71,10.91,3.59,15.94,1.43,2.5,2.74,3.6,5.69,3.59,24.58-.13,49.16-.08,73.74-.08q33.69,0,67.38,0c1.38,0,3.55-.23,4-1.07,2.23-4.29,5.06-8.23,5-13.61C696.74,608.33,696.82,572.36,696.82,536.39ZM458.23,51.83a66.63,66.63,0,0,1-7.48-.06c-3.56-.39-6,1-8.48,3.55Q322.93,176.79,203.51,298.18c-13.63,13.9-26.63,28.45-39.76,42.86-6.93,7.61-7.36,13.69.18,22,8.51,9.41,17.6,18.29,26.73,27.09,1.9,1.83,5,2.82,7.7,3.27,6.27,1,11.45-1.05,16.14-5.78,34.58-34.92,69.38-69.62,104-104.47,42-42.25,84.12-84.41,125.78-127,8.6-8.79,19.56-8.37,27.57-.13,30.47,31.4,61.56,62.16,92.38,93.21q68.55,69,137.05,138.13c8.73,8.78,18.1,8.8,27.27.32,1.47-1.37,3-2.71,4.37-4.16,6.79-7.07,13.77-14,20.26-21.32,5.81-6.58,5.72-12.47.55-19.51a38.87,38.87,0,0,0-2.82-3.55c-16-17.05-31.74-34.37-48.1-51.05Q591.27,174.33,479.49,60.76C473.32,54.46,467.57,49.32,458.23,51.83Z"/><path class="cls-3" d="M696.82,536.39c0,36-.08,71.94.09,107.91,0,5.38-2.81,9.32-5,13.61-.44.84-2.61,1.06-4,1.07q-33.69.09-67.38,0c-24.58,0-49.16,0-73.74.08-3,0-4.26-1.09-5.69-3.59-2.88-5-3.6-10.23-3.59-15.94.13-35.84,0-71.69-.05-107.53,0-3.79-.1-7.6-.47-11.38-1-9.54-6.36-15.75-15.72-16.21-18.05-.89-36.13-1.25-54.21-1.34-20.21-.09-40.42.28-60.63.62a99.37,99.37,0,0,0-14.5,1.37c-7.22,1.18-13.23,8.89-13.23,16.46,0,40.78-.1,81.56.11,122.34,0,5.57-2.76,9.57-5.14,13.91-.46.83-2.36,1.15-3.6,1.16-9.11.1-18.21,0-27.32,0-37.81,0-75.61,0-113.42.07-3.26,0-5.09-.79-6.63-3.94a30.23,30.23,0,0,1-3.19-13.77q.17-106.57.05-213.15c0-2.61.35-4.74,2.37-6.78Q328.48,313.93,435,206.31c4.15-4.19,8.51-8.18,12.94-12.08,7.13-6.29,11.72-6.81,18.87-.54,11.69,10.26,23.18,20.81,34.14,31.87q96.45,97.38,192.65,195a10.63,10.63,0,0,1,3.34,8.29C696.78,464.71,696.82,500.55,696.82,536.39Zm-198.38-74c15,.24,26.37-7.19,30.27-18.23,3.54-10.05,3-22.6-9.05-29.39-1.85-1-3.54-2.42-5.43-3.34-11.75-5.75-19.77-14.86-25.1-26.92a115.25,115.25,0,0,0-10.74-18.61,20.08,20.08,0,0,0-8.29-6.73c-12.32-5.2-26-3.18-33.67,11.13-3.05,5.65-6.09,11.33-8.87,17.12-4.85,10.12-11.82,18-21.9,23a61.28,61.28,0,0,0-9.48,6,21.09,21.09,0,0,0-8.61,14.14c-2.35,16,12.64,32.88,28.55,31.69a138.17,138.17,0,0,0,21-3.13c12.33-2.87,24.6-3.72,37.07-1.32C483.39,459.61,492.58,461.27,498.44,462.36ZM452.68,319.65c.64-9.2-3.14-17.55-10.34-24.44-7.8-7.46-18.25-6.59-24.73,2-10.32,13.68-2.4,39.21,13.74,44.45a12.69,12.69,0,0,0,10.47-1C449.6,336.34,453.15,329.59,452.68,319.65Zm12.21.19c.89,3.92,1.3,8,2.76,11.7,4.33,10.92,14.92,13.94,24.48,7.31,10.5-7.29,15.74-23.42,11.64-35.86-4.55-13.81-19.65-17.17-29.39-6.46C468.46,303,465.7,310.89,464.89,319.84ZM415,360.54c-.91-11.06-5.45-21-13.33-26.19-6.4-4.22-16.19-6.34-22.72,3.19a25,25,0,0,0-4.64,16.78c1,11.31,5.21,20.91,15.52,26.5,8,4.32,16.66,1.73,20.78-6.41C412.74,370.15,413.55,365.19,415,360.54Zm129-7.8c-.28-2.14-.39-4.44-.88-6.64-1.52-6.79-4.79-12.32-11.74-14.48s-12.73.44-17.76,5.2c-9.24,8.73-12.29,24-7.23,35.7,3.85,8.9,13.59,12.58,22.09,8.28C539.85,375.05,543.13,364.66,544,352.74Z"/><path class="cls-4" d="M458.23,51.83c9.34-2.51,15.09,2.63,21.26,8.93Q591,174.6,702.85,288.09c16.36,16.68,32.09,34,48.1,51.05a38.87,38.87,0,0,1,2.82,3.55c5.17,7,5.26,12.93-.55,19.51-6.49,7.34-13.47,14.25-20.26,21.32-1.39,1.45-2.9,2.79-4.37,4.16-9.17,8.48-18.54,8.46-27.27-.32q-68.55-69-137.05-138.13c-30.82-31-61.91-61.81-92.38-93.21-8-8.24-19-8.66-27.57.13-41.66,42.6-83.77,84.76-125.78,127-34.66,34.85-69.46,69.55-104,104.47-4.69,4.73-9.87,6.8-16.14,5.78-2.7-.45-5.8-1.44-7.7-3.27-9.13-8.8-18.22-17.68-26.73-27.09-7.54-8.32-7.11-14.4-.18-22,13.13-14.41,26.13-29,39.76-42.86Q322.77,176.64,442.27,55.32c2.49-2.53,4.92-3.94,8.48-3.55A66.63,66.63,0,0,0,458.23,51.83Z"/></svg>