<svg width="240" height="240" viewBox="0 0 240 240" fill="none" xmlns="http://www.w3.org/2000/svg">
<circle cx="120" cy="120" r="120" fill="#E87F7F"/>
<g clip-path="url(#clip0)">
<path d="M68.9567 68.895C72.9799 68.5369 76.6532 66.7963 80.5431 65.8718C90.3387 63.5398 100.217 61.5743 110.188 60.5999C118.801 59.7587 127.547 59.7671 136.234 60.8581C144.98 61.9574 153.61 63.6398 162.264 65.2638C163.689 64.5892 165.046 65.1972 166.429 65.4387C167.628 65.8218 168.878 65.9884 170.094 66.3299C171.285 66.8879 172.959 66.7879 173.226 68.6118C169.336 76.324 169.378 84.3859 169.944 92.8559C170.852 106.373 170.077 119.948 168.795 133.474C168.053 141.302 167.17 149.173 167.753 157.085C167.853 158.392 168.345 159.883 166.92 160.899C164.463 161.907 163.655 164.697 161.431 165.946C159.69 165.979 157.666 166.87 156.75 164.397C156.708 164.022 156.733 163.656 156.8 163.281C156.983 162.565 157.2 161.857 157.391 161.141C157.475 160.774 157.591 160.424 157.708 160.075C158.283 157.093 158.333 154.153 157.058 151.305C155.093 145.5 152.252 140.22 147.946 135.772C146.805 134.598 145.947 133.14 145.53 131.491C144.714 125.078 144.905 124.929 151.561 124.829C152.752 124.812 154.335 125.82 155.176 124.004C155.701 122.597 157 121.964 158.033 121.064C161.773 117.816 163.064 112.644 161.248 108.238C159.307 103.525 155.417 101.109 150.07 101.284C145.414 101.434 141.574 104.491 140.083 109.271C139.749 110.329 139.55 111.42 139.341 112.511C139.066 113.86 139.183 115.218 139.316 116.567C139.316 116.967 139.208 117.333 139.016 117.675C138.433 118.341 137.326 118.191 136.851 118.716C135.751 119.94 134.677 120.231 133.344 119.299C131.845 118.249 131.07 116.717 131.678 115.009C132.453 112.836 132.161 110.679 132.178 108.497C132.37 106.423 133.502 104.557 133.536 102.45C133.552 101.301 133.286 100.21 132.178 99.6185C131.012 98.9939 130.046 99.5602 129.171 100.31C127.597 101.659 126.256 103.258 124.456 104.349C120.791 106.564 118.826 106.406 115.494 103.525C114.553 102.708 113.753 101.734 112.77 100.976C111.387 99.91 109.955 98.2693 108.189 100.31C106.864 101.842 107.747 105.407 109.588 106.481C113.045 108.505 114.803 109.146 111.879 112.394C110.288 113.186 112.187 115.118 110.979 115.168C109.913 116.109 106.898 113.719 104.707 113.577C102.441 113.427 102.358 111.22 101.5 109.754C99.4012 105.515 96.7441 101.926 91.5798 101.318C86.9235 100.768 83.1003 102.292 80.5598 106.306C77.9443 110.445 78.0443 114.643 80.768 118.749C81.3011 119.557 81.9092 120.306 82.4589 121.098C82.8421 121.631 83.2002 122.18 83.6834 122.622C83.9249 122.797 84.1581 122.988 84.3997 123.163C84.7745 123.388 85.1743 123.588 85.5742 123.763C85.8574 123.863 86.1406 123.979 86.4238 124.087C87.1734 124.337 87.9814 124.371 88.7144 124.712C89.0226 124.912 89.1975 125.195 89.2392 125.562C89.0309 127.061 86.8319 126.011 86.6737 127.585C84.383 129.784 82.917 132.266 83.8583 135.589C83.725 136.413 83.3418 137.03 82.4922 137.263C82.1091 137.313 81.7259 137.296 81.3511 137.221C80.793 137.096 80.2432 136.93 79.6935 136.772C77.7694 135.747 75.3871 137.096 73.538 135.614C72.9216 134.406 72.6051 133.099 72.2719 131.791C70.9808 117.758 69.4981 103.758 70.9641 89.6078C71.5889 83.6113 71.8387 77.415 69.065 71.6517C68.6485 70.8189 68.4153 69.8445 68.9567 68.895Z" fill="#D3AB7D"/>
<path d="M166.92 160.907C166.054 154.57 166.421 148.248 166.896 141.894C168.02 126.728 169.511 111.57 169.078 96.3289C169.011 93.8387 168.695 91.3735 168.428 88.9C167.645 81.4794 167.812 74.2087 173.026 68.0873C173.009 67.7208 173.176 67.4543 173.501 67.2794C174.309 66.9546 175.142 66.8547 176 66.9963C176.166 67.0296 176.333 67.0546 176.499 67.0879C182.547 67.9124 186.553 71.8101 190.202 76.2158C191.509 77.7982 192.917 79.314 193.808 81.2045C194.141 81.6959 194.1 82.4538 194.833 82.6537L194.766 82.6204C194.916 83.0451 195.208 83.3449 195.582 83.5698L195.574 83.5532C194.166 86.2849 192.834 84.2944 191.618 83.4199C187.211 80.2301 182.913 76.8904 178.19 74.1504C184.071 77.7399 188.028 84.0695 195.091 85.9767C196.615 89.8744 200.547 91.4735 203.104 94.3884C206.836 99.0773 209.959 104.074 211.334 110.013C212.666 115.751 211.825 121.306 210.051 126.786C209.409 128.76 208.701 130.734 207.76 132.574C202.504 142.81 196.174 152.412 190.202 162.223C188.977 164.231 187.253 165.888 185.512 167.487C178.898 173.55 169.594 170.552 167.554 162.906C167.387 162.215 167.137 161.565 166.92 160.907Z" fill="#5B472E"/>
<path d="M53.7304 164.747C52.1394 163.156 51.5813 162.415 50.6568 161.241C49.4906 160.041 49.0158 159.275 48.3162 158.442C43.6933 150.73 38.9204 143.101 34.5141 135.264C31.2323 129.435 29.0832 123.155 29 116.317C28.9333 110.912 30.2577 105.932 33.0648 101.301C38.2457 92.7645 43.9681 84.611 50.2236 76.8322C52.3143 74.2421 54.505 71.7519 57.2787 69.8447C60.9937 67.2962 64.8336 66.5383 68.9401 68.8953C73.4131 75.8911 73.1132 83.6615 72.1553 91.3653C71.3807 97.5867 71.5139 103.775 71.7888 109.963C72.122 117.542 72.78 125.104 73.3048 132.683C73.9128 133.774 73.4297 134.99 73.6963 136.122C73.7879 136.497 73.7879 136.872 73.6879 137.247C73.5963 137.405 73.4964 137.563 73.4047 137.721C73.2381 137.796 73.0715 137.88 72.905 137.954C72.5468 137.971 72.2053 137.888 71.8804 137.721C71.7388 137.63 71.5972 137.521 71.4556 137.43C71.1974 137.23 70.9558 136.997 70.7309 136.764C70.6227 136.655 70.5144 136.539 70.4061 136.43C70.1979 136.23 69.998 136.006 69.8064 135.797C69.7147 135.706 69.6148 135.598 69.5232 135.506C69.3399 135.339 69.165 135.164 68.9817 134.998C68.9817 135.015 68.7069 134.798 68.6985 134.806C68.6902 134.815 68.3404 134.731 68.3404 134.731C68.3404 134.731 67.9822 134.79 67.9905 134.806C67.9989 134.823 67.7406 135.065 67.7573 135.073C67.774 135.081 67.7073 135.414 67.724 135.414C67.7906 135.639 67.2742 134.215 67.4158 134.398C67.5824 134.573 67.799 133.632 67.9655 133.799C67.9739 133.799 68.4403 133.674 68.4487 133.674C68.6486 133.84 69.1317 134.098 69.3149 134.282C69.3233 134.282 71.5556 132.949 70.4894 135.972C70.6976 136.164 73.4214 134.965 73.588 135.181C73.7712 135.406 73.1382 138.471 73.2798 138.712C73.5963 139.22 73.3131 139.32 73.7296 139.762C73.9711 139.987 73.2048 140.703 73.4297 140.944C73.6796 141.194 72.8883 141.594 73.0965 141.885C73.1882 142.044 73.2631 142.21 73.3464 142.369C73.4464 142.743 73.3964 143.101 73.2132 143.443C71.8304 144.567 74.929 146.15 73.4797 146.266C73.3964 151.355 72.047 148.015 74.3043 151.663C76.3867 155.019 74.7125 155.502 74.0878 159.708C74.7458 160.375 73.7296 161.116 73.2881 161.949C71.314 170.352 64.4255 172.975 56.5208 168.328C56.2542 168.02 55.8877 167.729 55.8044 167.329C55.0214 166.596 55.2797 166.688 54.6716 165.763" fill="#5B472E"/>
<path d="M161.456 166.387C161.406 168.594 160.265 170.376 158.974 171.975C151.727 180.912 142.44 186.209 130.854 186.683C121.899 187.05 112.87 187.608 104.057 185.093C101.159 184.26 98.1268 183.718 95.653 181.786C92.1629 178.205 86.9569 176.831 83.925 172.65L83.9749 172.675C83.7834 172.3 83.5251 171.992 83.142 171.792L83.1253 171.801C82.8838 170.093 84.1582 169.519 85.316 168.861C85.6825 168.802 86.049 168.844 86.3905 168.986C87.1402 169.335 86.3988 170.543 87.415 170.734C87.6816 170.626 87.9481 170.618 88.223 170.676C88.4896 170.784 88.7228 170.926 88.9477 171.118C89.1726 171.351 89.3392 171.617 89.4641 171.909C89.5391 172.184 89.5641 172.475 89.5557 172.733C89.9306 173.2 90.2221 172.617 90.5636 172.625C91.4465 172.433 92.3211 172.45 93.2041 172.592C97.777 174.049 102.375 175.373 107.148 176.048C116.11 176.698 125.065 176.564 134.019 176.106C143.081 175.015 151.811 172.975 159.132 167.045C159.774 166.512 160.607 166.354 161.456 166.387Z" fill="#45914C"/>
<path d="M86.4905 169.411C86.3322 169.236 86.1323 169.136 85.8991 169.128C82.8505 168.211 81.1679 165.913 79.9101 163.189C79.6269 162.715 79.3437 162.248 79.0605 161.774C78.4025 161.016 78.1193 159.983 77.278 159.358C76.4367 158.7 75.9953 157.001 74.4127 158.259C72.5302 156.618 74.1961 154.545 73.7296 152.729C73.738 150.255 70.8726 147.699 73.1882 145.408C72.805 143.285 72.7884 144.301 73.3881 142.385C73.1132 140.52 72.7134 141.944 73.1132 140.52C73.3548 138.962 72.9883 137.471 74.2211 136.089C75.4622 134.698 79.2021 133.24 80.6348 134.04C82.5673 135.114 84.8079 136.863 86.3322 138.546C86.7487 139.029 85.341 142.452 85.5159 143.068C85.9241 145.075 85.0578 146.874 84.533 148.698C81.7343 158.492 86.5988 166.329 95.1615 170.177C99.4596 172.109 103.991 173.209 108.605 174.075C110.346 174.4 112.587 174.108 113.253 176.573C110.996 177.689 108.68 177.206 106.365 176.831C101.434 176.731 96.9191 174.916 92.3212 173.442C91.3549 172.659 89.789 172.967 89.1143 171.668V171.718C88.7561 171.51 88.4729 171.226 88.223 170.902L88.2314 170.893C87.4567 170.61 86.8153 170.194 86.4905 169.411Z" fill="#D0AA7D"/>
<path d="M203.112 94.3632C200.255 93.1889 197.84 91.3817 195.682 89.1996C195.158 88.6666 193.6 88.4251 195.482 87.4007C195.999 87.1175 194.591 86.4263 194.216 86.5678C192.051 87.4007 190.868 86.0515 189.593 84.7439C186.595 81.6624 182.897 79.4554 179.531 76.8403C178.549 76.074 177.616 75.2579 176.608 74.525C175.958 74.0502 175.617 73.5255 176.116 72.8176C176.549 72.2097 177.232 71.9348 177.932 72.3429C179.473 73.2507 181.097 74.0835 182.472 75.2079C184.912 77.215 187.178 79.4137 190.202 80.6047C191.259 81.0211 191.684 82.2204 192.475 82.9533C193.283 83.7029 194.241 85.0104 195.574 83.528C198.614 86.7761 201.213 90.324 203.112 94.3632Z" fill="#604E35"/>
<path d="M161.456 166.387C153.951 173.225 144.972 176.323 134.977 176.831C132.669 177.222 130.362 177.572 128.08 176.664C128.838 174.049 131.262 174.507 133.086 174.149C138.942 173.016 144.672 171.667 150.012 168.802C152.727 167.345 154.01 164.18 157.117 163.339C157.491 164.363 157.3 166.062 159.357 164.896C159.732 164.688 160.723 165.579 161.431 165.962C161.44 166.096 161.448 166.245 161.456 166.387Z" fill="#CCAB7A"/>
<path d="M74.7458 152.687C74.6292 154.545 74.5126 156.402 74.396 158.259C73.9545 159.475 74.3127 160.916 73.3132 161.974C73.1632 161.182 73.0133 160.391 72.1887 159.983C70.7976 158.567 68.532 157.326 69.8147 154.953C70.7477 153.245 72.272 151.605 74.7458 152.687Z" fill="#69563C"/>
<path d="M79.9017 163.189C81.9008 165.172 83.8916 167.154 85.8907 169.128C84.9661 170.019 84.0499 170.91 83.1253 171.801C80.5098 169.502 79.5602 166.587 79.9017 163.189Z" fill="#4C9552"/>
<path d="M83.9332 172.65C86.9902 174.658 90.0388 176.706 93.129 178.664C94.3451 179.438 95.2031 180.429 95.6612 181.778C90.9634 179.746 86.4821 177.439 83.9332 172.65Z" fill="#4C9552"/>
<path d="M77.2697 159.358C78.5357 159.667 79.0105 160.558 79.0522 161.774C77.9693 161.324 77.4446 160.466 77.2697 159.358Z" fill="#C7BD8C"/>
<path d="M194.833 82.6366C193.475 82.8698 193.292 82.2785 193.808 81.1875C194.408 81.4873 194.741 81.9787 194.833 82.6366Z" fill="#604E35"/>
<path d="M83.142 171.793C83.5834 171.935 83.8666 172.226 83.9749 172.676C83.5085 172.568 83.2503 172.251 83.142 171.793Z" fill="#4C9552"/>
<path d="M195.574 83.553C195.124 83.3947 194.849 83.0782 194.758 82.6035C195.258 82.7368 195.507 83.0699 195.574 83.553Z" fill="#604E35"/>
<path d="M157.117 163.339C154.06 168.336 149.304 170.952 143.939 172.726C138.808 174.425 133.469 175.149 128.163 175.99C123.149 177.198 118.143 177.215 113.137 175.974C107.023 174.908 100.859 174.025 95.1532 171.376C88.6728 168.37 83.8417 164.014 82.7172 156.518C82.2258 153.279 83.0087 150.206 83.8084 147.141C84.1915 145.675 84.733 144.251 85.1994 142.81C85.8491 141.302 86.3989 139.753 87.1818 138.304C87.4734 138.063 87.6816 137.346 88.0398 137.213C89.3309 134.59 88.981 134.798 89.7557 133.657C90.6136 132.399 90.7136 131.666 92.5627 130.192C92.6793 129.376 93.7455 129.226 94.5452 128.868C95.7529 127.877 93.3957 129.384 95.2532 127.877C94.5868 126.794 97.2439 127.952 97.1606 127.619C97.0274 126.161 97.9103 125.37 99.0181 124.721C99.2763 124.621 99.5429 124.504 99.8177 124.512C102.708 121.914 103.016 121.689 104.232 121.031C105.565 120.307 106.415 119.99 109.613 118.383C110.096 117.966 110.671 117.741 111.279 117.616C113.203 117.6 114.836 116.709 116.51 115.909C121.133 114.035 125.364 115.751 129.604 117.317C135.31 120.373 140.299 124.371 144.681 129.126C144.956 129.393 145.197 129.693 145.414 130.009C145.722 130.7 146.072 131.367 146.355 132.075C147.188 133.149 147.921 134.323 148.879 135.273C153.352 139.695 156.125 145.084 158.008 150.997C158.749 154.311 158.932 157.626 158.016 160.949L158.041 160.899C157.333 161.59 158.066 162.806 157.133 163.423L157.117 163.339Z" fill="#5B472E"/>
<path d="M138.208 112.353C138.991 108.347 140.224 104.649 143.873 102.184C149.428 98.4276 156.908 99.6186 160.848 105.007C164.871 110.512 163.697 118.341 158.233 122.339C157.35 122.98 156.409 123.538 155.492 124.137C148.137 127.469 140.407 124.029 139.033 116.8V116.817C137.959 115.484 139 113.752 138.208 112.353Z" fill="#020303"/>
<path d="M100.651 113.668C100.651 113.618 100.651 113.56 100.651 113.51C100.659 112.644 101.634 112.227 102.333 112.736C102.458 112.827 102.6 112.894 102.775 112.952C103.308 113.11 103.907 112.794 104.024 112.244C104.191 111.52 104.591 113.152 104.782 112.419C105.057 111.403 106.964 111.986 107.173 113.019C107.489 114.551 106.44 113.219 108.522 113.768C108.847 113.935 109.147 114.143 109.438 114.36C110.096 114.959 110.921 115.367 111.562 115.992C112.079 117.533 110.821 117.741 109.921 118.232C109.888 118.249 109.863 118.266 109.83 118.274C109.338 118.474 108.839 118.665 108.347 118.865C108.014 119.065 107.656 119.098 107.289 118.965C105.582 116.692 103.349 115.251 100.559 114.659C100.351 114.31 100.376 113.985 100.651 113.668Z" fill="#CAA980"/>
<path d="M129.862 118.383C125.514 116.834 121.158 115.335 116.435 116.659C113.745 116.268 114.169 117.733 110.721 118.166C110.588 118.033 110.03 111.912 109.896 111.77C109.438 110.071 109.08 110.388 109.213 109.338C108.747 108.614 108.989 109.322 108.864 108.822C107.997 108.489 108.072 108.397 107.298 106.298C106.506 104.175 106.015 102.034 106.823 99.8689C107.548 97.9284 109.238 97.462 111.213 98.3948C113.012 99.2526 114.178 100.843 115.527 102.193C119.267 105.924 120.783 105.924 125.431 102.401C126.522 101.576 127.388 100.469 128.371 99.5024C129.463 98.4364 130.52 97.2621 132.303 98.1366C134.135 99.0361 135.018 100.61 134.718 102.517C134.402 104.533 133.644 106.473 133.078 108.447C131.845 111.704 131.67 115.31 129.862 118.383Z" fill="#B1804D"/>
<path d="M129.862 118.383C129.587 114.635 130.845 111.378 133.069 108.438C133.044 110.77 134.152 113.077 132.486 115.443C131.637 116.65 133.153 118.774 134.743 119.199C136.326 119.624 135.218 118.033 135.66 117.841C136.726 117.375 138.175 118.066 139.025 116.8C139.408 117.358 139.816 117.891 140.166 118.466C142.915 123.03 146.988 124.962 152.235 124.521C153.327 124.429 154.41 124.262 155.492 124.138C155.809 124.579 156.125 125.012 156.842 126.003C153.71 126.003 150.944 126.028 148.179 125.995C146.488 125.978 145.564 126.32 146.213 128.377C146.563 129.501 146.322 130.809 146.347 132.041C145.597 131.608 144.997 131.05 144.706 130.217L144.714 130.226C139.966 126.028 135.551 121.406 129.862 118.383Z" fill="#CFAA7A"/>
<path d="M88.7061 124.729C89.8389 124.612 91.1217 124.046 92.3378 124.304C93.6039 125.353 98.1851 126.444 95.3031 128.11C95.2781 128.485 95.1282 128.81 94.845 129.068C94.2786 129.493 92.6793 129.867 92.546 130.509C92.3128 130.875 93.1208 130.434 92.8459 130.092C93.0958 127.752 92.0046 127.402 90.0805 126.902C88.956 126.611 87.7149 126.728 86.5321 126.661C86.1656 126.203 86.3072 125.911 86.8569 125.853C87.6566 125.778 88.2063 125.578 88.7061 124.729Z" fill="#C7A77F"/>
<path d="M83.2087 135.997C84.7246 136.73 89.0727 134.889 87.4734 138.362C86.4239 139.836 86.2739 141.527 85.1911 142.801C84.8079 142.477 84.4248 142.152 84.0416 141.827C86.5571 140.686 86.5821 140.603 84.7829 139.253C83.7001 138.446 82.6173 137.629 81.5344 136.822C82.2174 136.805 82.8422 136.655 83.2087 135.997Z" fill="#C8AA87"/>
<path d="M158.008 160.924C158.008 157.609 158.008 154.295 158 150.972C159.407 154.195 159.407 158.267 158.008 160.924Z" fill="#CCAB7A"/>
<path d="M161.19 163.189C160.973 163.022 160.582 162.864 160.423 162.581C160.132 162.065 160.598 161.865 160.973 161.915C161.298 161.956 161.731 162.165 161.873 162.431C162.089 162.847 161.748 163.097 161.19 163.189Z" fill="#CCAB7A"/>
<path d="M74.2127 136.08C74.1377 136.33 74.0544 136.572 73.9795 136.813C73.7796 137.188 73.5713 137.196 73.3548 136.821C73.3381 135.439 73.3298 134.056 73.3131 132.674C74.3543 133.623 73.8712 134.964 74.2127 136.08Z" fill="#928574"/>
<path d="M138.209 112.353C138.875 113.768 138.95 115.292 139.025 116.825C137.459 115.576 138.309 113.877 138.209 112.353Z" fill="#CFAA7A"/>
<path d="M157.125 163.398C157.125 162.448 157.25 161.54 158.033 160.874C158.058 161.84 158.266 162.865 157.125 163.398Z" fill="#CCAB7A"/>
<path d="M88.098 124.479C88.148 124.696 88.2147 124.912 88.3063 125.12C87.3401 125.162 86.3238 125.354 85.7241 124.279" fill="#C7A77F"/>
<path d="M81.5427 136.83C81.2428 136.564 80.9346 136.289 80.6348 136.022C80.9346 136.289 81.2345 136.555 81.5427 136.83Z" fill="#C8AA87"/>
<path d="M72.4135 141.802C72.6717 142.127 72.9299 142.443 73.1798 142.768C72.9216 142.451 72.6717 142.127 72.4135 141.802Z" fill="#928574"/>
<path d="M71.6472 140.961C71.8971 141.236 72.147 141.511 72.3969 141.794C72.147 141.511 71.8971 141.236 71.6472 140.961Z" fill="#928574"/>
<path d="M113.128 175.974C118.134 175.982 123.149 175.982 128.155 175.99C130.27 177.523 132.719 176.323 134.968 176.831C134.285 177.389 133.477 177.481 132.636 177.498C124.648 177.681 116.668 177.748 108.68 177.481C107.847 177.456 107.031 177.389 106.348 176.815C108.589 176.307 111.038 177.531 113.128 175.974Z" fill="#C6AB76"/>
<path d="M86.4905 169.41C87.3068 169.627 87.8732 170.135 88.2313 170.884C87.6899 171.392 87.1402 171.909 86.5238 172.492C85.9574 171.334 85.9574 170.368 86.4905 169.41Z" fill="#4C9552"/>
<path d="M89.1143 171.651C90.3721 171.91 91.4549 172.468 92.3212 173.425C91.2217 173.425 90.1305 173.417 89.031 173.417C89.056 172.834 89.081 172.243 89.1143 171.651Z" fill="#4C9552"/>
<path d="M89.031 173.417C88.9644 173.534 88.8811 173.75 88.8477 173.742C88.5645 173.684 88.6312 173.559 89.031 173.417Z" fill="#4C9552"/>
<path d="M88.2146 170.885C88.6644 170.993 88.9726 171.251 89.1059 171.701C88.8143 171.434 88.5145 171.16 88.2146 170.885Z" fill="#4C9552"/>
<path d="M120.833 127.644C124.548 128.01 128.38 128.343 132.036 129.667C134.427 130.534 136.134 132.224 136.309 134.764C136.484 137.205 135.351 139.503 133.294 140.786C125.406 145.716 117.21 147.332 108.231 141.061C105.857 139.403 104.532 137.363 104.857 134.473C105.174 131.583 107.339 130.259 109.763 129.476C113.303 128.326 116.993 127.885 120.833 127.644Z" fill="#020203"/>
<path d="M141.982 163.439C135.11 163.939 129.113 161.482 123.507 158.075C121.516 156.868 120.125 156.843 118.268 158C111.762 162.056 104.699 163.972 96.9774 163.481C92.6877 163.206 89.3225 161.398 86.6404 158.142C85.8658 157.201 85.3993 156.218 86.3072 155.177C87.3567 153.978 88.5395 154.219 89.5474 155.252C94.9033 160.741 101.309 159.766 107.739 158.134C111.662 157.134 115.369 155.36 118.334 152.645C120.342 150.813 121.649 151.296 123.257 152.704C126.789 155.785 130.995 157.501 135.468 158.517C141.407 159.858 147.263 160.399 152.061 155.36C152.785 154.594 153.951 153.953 154.968 155.111C155.934 156.202 155.826 157.467 154.934 158.509C152.494 161.349 149.32 162.931 145.63 163.406C144.406 163.572 143.148 163.439 141.982 163.439Z" fill="#060606"/>
<path d="M97.4938 127.635C96.9191 127.685 95.1699 127.86 94.845 127.868C93.7788 126.936 91.155 126.078 91.8631 124.279C91.8797 124.071 94.845 123.721 94.87 123.513C95.1366 123.521 95.3864 123.471 95.628 123.363C95.9612 123.18 96.2777 122.98 96.5776 122.755C96.7858 122.672 96.994 122.572 97.1856 122.455C97.5938 122.247 98.0186 122.197 98.4684 122.297C99.4096 122.813 99.6762 123.513 99.0514 124.454C99.0514 124.704 99.0681 124.962 99.1097 125.203C98.5683 126.011 97.5271 126.478 97.4938 127.635Z" fill="#C6A97D"/>
<path d="M96.5858 122.755C96.4109 123.18 96.111 123.413 95.6362 123.363C95.8195 122.955 96.1193 122.73 96.5858 122.755Z" fill="#5B5B5B"/>
<path d="M144.714 130.226C144.83 130.109 144.947 129.993 145.055 129.876C145.03 129.943 145.03 130.034 144.98 130.076C144.914 130.142 144.805 130.167 144.714 130.226C144.714 130.217 144.714 130.226 144.714 130.226Z" fill="#D3AB7D"/>
<path d="M74.8624 145.159C74.246 144.742 74.146 144.126 74.2376 143.451C74.7624 143.901 74.8957 144.492 74.8624 145.159Z" fill="#D0AA7D"/>
<path d="M89.4474 134.848C88.4729 135.555 87.7315 138.545 86.6237 139.403C86.5071 138.495 84.1082 139.228 83.4252 138.729C81.1928 137.088 82.409 129.925 84.0582 128.285C87.0152 124.962 91.913 126.444 93.8288 128.426C94.112 128.718 92.7626 130.725 92.0379 131.55C91.5131 132.108 90.9884 132.666 90.4636 133.215C89.6307 134.306 89.7473 134.081 89.4474 134.848Z" fill="#D1AB7F"/>
<path d="M110.721 114.427C111.221 114.293 111.721 114.044 112.22 114.052C113.87 114.077 114.503 114.66 113.162 116.101C112.021 116.017 110.713 116.184 110.721 114.427Z" fill="#B2895B"/>
<path d="M74.5209 149.788C74.4459 151.646 73.638 153.536 71.7805 153.411C70.1062 153.295 68.2154 151.021 68.407 149.347C68.5653 147.915 70.6643 146.157 72.2136 146.157C74.1627 146.166 74.5959 147.698 74.5209 149.788Z" fill="#5D4B33"/>
<path d="M102.858 114.193C105.432 114.76 107.814 116.825 109.905 118.241C109.58 118.549 108.214 118.932 107.897 119.249C106.107 120.256 106.231 119.857 104.641 120.981C104.349 121.006 99.4096 125.195 99.118 125.212C97.777 124.912 99.1264 123.396 98.5016 122.23C100.043 120.473 102.367 116.434 102.858 114.193Z" fill="#CDAA7F"/>
<path d="M101.792 123.047C102.808 121.114 104.466 120.148 106.573 119.882C105.857 122.272 104.174 123.188 101.792 123.047Z" fill="#756047"/>
<path d="M82.967 122.455C82.0841 121.406 81.1178 120.415 80.3432 119.291C76.3283 113.486 77.911 105.832 83.8916 101.934C89.6723 98.1615 97.652 100.044 101.175 106.048C101.8 107.115 102.292 108.256 102.841 109.355C103.674 110.479 103.05 111.828 103.399 113.028C102.458 114.677 102.833 116.434 101.792 118.033C100.925 119.357 99.9676 120.806 98.5099 122.231C98.335 122.597 98.0851 122.914 97.7769 123.18C97.2855 123.546 96.7441 123.813 96.1527 123.955C95.7612 124.005 95.378 123.955 95.0032 123.83C94.0453 123.363 95.0532 123.821 93.6704 123.98C92.6043 124.104 93.3206 123.913 91.8713 124.271C90.0721 124.712 90.197 124.954 88.4645 124.737C87.7065 124.671 86.8819 124.946 86.2572 124.271L86.2905 124.288C85.799 123.855 85.0327 123.988 84.5912 123.463L84.6079 123.472C84.1331 123.013 83.2752 123.18 82.967 122.455Z" fill="#030303"/>
</g>
<defs>
<clipPath id="clip0">
<rect width="183" height="127" fill="white" transform="translate(29 60)"/>
</clipPath>
</defs>
</svg>
