<svg width="93" height="87" viewBox="0 0 93 87" fill="none" xmlns="http://www.w3.org/2000/svg">
<circle cx="46.5" cy="43.5" r="43.5" fill="#E87F7F"/>
<g clip-path="url(#clip0)">
<path d="M20.3059 17.4824C22.3505 17.3019 24.2172 16.4247 26.1941 15.9589C31.1721 14.7837 36.1925 13.7932 41.2595 13.3022C45.6364 12.8783 50.0811 12.8825 54.4962 13.4323C58.9409 13.9863 63.3263 14.8341 67.7245 15.6525C68.4483 15.3125 69.1383 15.6189 69.841 15.7406C70.4506 15.9337 71.0855 16.0176 71.7035 16.1897C72.3089 16.4709 73.1597 16.4205 73.2952 17.3397C71.3183 21.2261 71.3395 25.2888 71.6273 29.5571C72.0888 36.3689 71.6951 43.21 71.0432 50.0259C70.6664 53.9711 70.2177 57.9372 70.5141 61.9244C70.5649 62.5833 70.8146 63.3346 70.0908 63.8466C68.842 64.3544 68.4314 65.7604 67.3012 66.39C66.4165 66.4068 65.3878 66.8558 64.9222 65.6093C64.901 65.4205 64.9137 65.2358 64.9476 65.0469C65.0407 64.686 65.1508 64.3293 65.2481 63.9683C65.2905 63.7836 65.3497 63.6074 65.409 63.4311C65.7011 61.9286 65.7265 60.447 65.0788 59.0117C64.0798 56.0863 62.6364 53.4255 60.4479 51.1843C59.8679 50.5925 59.4319 49.858 59.2203 49.027C58.8054 45.7953 58.9028 45.7198 62.285 45.6694C62.8903 45.661 63.6946 46.1688 64.1222 45.2539C64.3888 44.5446 65.0492 44.2256 65.5741 43.7724C67.4747 42.1355 68.1309 39.5292 67.208 37.309C66.2217 34.9335 64.2449 33.7164 61.5273 33.8045C59.161 33.88 57.2096 35.4203 56.4519 37.8294C56.2826 38.3624 56.181 38.9122 56.0751 39.462C55.9354 40.142 55.9947 40.8261 56.0624 41.506C56.0624 41.7074 56.0074 41.8921 55.91 42.0642C55.6137 42.3999 55.0507 42.3244 54.8095 42.5888C54.2507 43.2058 53.7046 43.3527 53.0273 42.8826C52.2654 42.3538 51.8717 41.5815 52.1807 40.7211C52.5744 39.6257 52.4263 38.5387 52.4347 37.4391C52.5321 36.394 53.1078 35.4539 53.1247 34.3921C53.1332 33.8129 52.9977 33.2631 52.4347 32.9651C51.8421 32.6503 51.3511 32.9357 50.9066 33.3134C50.1065 33.9934 49.425 34.7992 48.5107 35.349C46.6481 36.4654 45.6491 36.3856 43.9559 34.9335C43.4776 34.5222 43.0712 34.0311 42.5717 33.6492C41.869 33.112 41.141 32.2852 40.2435 33.3134C39.5705 34.0857 40.0192 35.882 40.9547 36.4234C42.7114 37.4433 43.6046 37.7665 42.1188 39.4033C41.3103 39.802 42.2754 40.7757 41.6616 40.8009C41.1198 41.2751 39.5874 40.0706 38.4741 39.9993C37.3227 39.9237 37.2804 38.8115 36.8444 38.0728C35.7777 35.9366 34.4273 34.1277 31.8029 33.8213C29.4366 33.5443 27.4936 34.3123 26.2025 36.3353C24.8734 38.4212 24.9242 40.5365 26.3084 42.6056C26.5793 43.0127 26.8883 43.3904 27.1677 43.7891C27.3624 44.0578 27.5444 44.3348 27.7899 44.5572C27.9127 44.6453 28.0312 44.7419 28.154 44.83C28.3445 44.9433 28.5476 45.044 28.7508 45.1322C28.8948 45.1825 29.0387 45.2413 29.1826 45.2959C29.5636 45.4218 29.9742 45.4386 30.3467 45.6106C30.5033 45.7114 30.5922 45.8541 30.6134 46.0387C30.5075 46.7942 29.39 46.2654 29.3096 47.0586C28.1455 48.1666 27.4005 49.4173 27.8788 51.0919C27.8111 51.5074 27.6164 51.818 27.1846 51.9355C26.9899 51.9607 26.7952 51.9523 26.6047 51.9145C26.3211 51.8516 26.0417 51.7676 25.7623 51.6879C24.7845 51.1717 23.5738 51.8516 22.6341 51.1045C22.3208 50.4959 22.16 49.837 21.9907 49.1781C21.3345 42.1062 20.5811 35.051 21.3261 27.9203C21.6435 24.8985 21.7705 21.7759 20.3609 18.8716C20.1493 18.4519 20.0308 17.9608 20.3059 17.4824Z" fill="#D3AB7D"/>
<path d="M70.0908 63.8508C69.6506 60.6568 69.8368 57.4713 70.0781 54.269C70.6496 46.6263 71.4073 38.9877 71.1872 31.3072C71.1533 30.0523 70.9925 28.81 70.857 27.5635C70.4591 23.824 70.5438 20.16 73.1936 17.0752C73.1852 16.8906 73.2698 16.7563 73.4349 16.6681C73.8455 16.5044 74.2688 16.4541 74.7048 16.5254C74.7895 16.5422 74.8742 16.5548 74.9588 16.5716C78.032 16.9871 80.0681 18.9513 81.9222 21.1715C82.5868 21.9689 83.3021 22.7328 83.7551 23.6855C83.9244 23.9331 83.9032 24.315 84.2757 24.4158L84.2419 24.399C84.3181 24.613 84.4662 24.7641 84.6567 24.8774L84.6525 24.869C83.9371 26.2457 83.2598 25.2426 82.6418 24.8019C80.4025 23.1944 78.2183 21.5115 75.8181 20.1306C78.8066 21.9395 80.8173 25.1293 84.407 26.0904C85.1816 28.0546 87.1796 28.8604 88.4792 30.3293C90.3756 32.6923 91.9629 35.2104 92.6614 38.2029C93.3387 41.0946 92.9111 43.894 92.0095 46.6557C91.6836 47.6503 91.3238 48.645 90.8454 49.5726C88.1744 54.7307 84.9573 59.5698 81.9222 64.5139C81.2999 65.5254 80.4237 66.3606 79.539 67.1664C76.1779 70.2218 71.4496 68.7109 70.4125 64.858C70.3279 64.5097 70.2009 64.1823 70.0908 63.8508Z" fill="#5B472E"/>
<path d="M12.5679 65.7856C11.7594 64.984 11.4758 64.6104 11.0059 64.0187C10.4133 63.4143 10.172 63.0282 9.81643 62.6085C7.46709 58.7221 5.04155 54.8776 2.80227 50.9282C1.13445 47.9903 0.0423258 44.8258 -4.65855e-06 41.3801C-0.033869 38.6562 0.639185 36.1464 2.06572 33.8129C4.69868 29.511 7.60678 25.4021 10.7858 21.4821C11.8483 20.1768 12.9616 18.9219 14.3712 17.9608C16.2591 16.6765 18.2106 16.2946 20.2975 17.4824C22.5706 21.0078 22.4182 24.9236 21.9314 28.8059C21.5377 31.941 21.6055 35.0594 21.7452 38.1778C21.9145 41.997 22.2489 45.8079 22.5156 49.6272C22.8246 50.177 22.5791 50.7897 22.7145 51.3605C22.7611 51.5494 22.7611 51.7383 22.7103 51.9271C22.6637 52.0069 22.6129 52.0866 22.5664 52.1663C22.4817 52.2041 22.397 52.2461 22.3124 52.2839C22.1304 52.2923 21.9568 52.2503 21.7917 52.1663C21.7198 52.1202 21.6478 52.0656 21.5758 52.0195C21.4446 51.9187 21.3218 51.8012 21.2076 51.6837C21.1525 51.6291 21.0975 51.5704 21.0425 51.5158C20.9366 51.4151 20.835 51.3018 20.7377 51.1968C20.6911 51.1507 20.6403 51.0961 20.5938 51.0499C20.5006 50.966 20.4117 50.8779 20.3186 50.7939C20.3186 50.8023 20.1789 50.6932 20.1747 50.6974C20.1705 50.7016 19.9927 50.6596 19.9927 50.6596C19.9927 50.6596 19.8107 50.689 19.8149 50.6974C19.8191 50.7058 19.6879 50.8275 19.6964 50.8317C19.7048 50.8359 19.671 51.0038 19.6794 51.0038C19.7133 51.1171 19.4508 50.3994 19.5228 50.4917C19.6075 50.5799 19.7175 50.1056 19.8022 50.1896C19.8064 50.1896 20.0435 50.1266 20.0477 50.1266C20.1493 50.2105 20.3948 50.3407 20.4879 50.433C20.4922 50.433 21.6266 49.7615 21.0848 51.285C21.1906 51.3815 22.5748 50.7771 22.6595 50.8863C22.7526 50.9996 22.4309 52.5441 22.5029 52.6658C22.6637 52.9218 22.5198 52.9722 22.7315 53.1946C22.8542 53.3079 22.4648 53.6689 22.5791 53.7906C22.7061 53.9165 22.3039 54.1179 22.4097 54.2648C22.4563 54.3446 22.4944 54.4285 22.5367 54.5083C22.5875 54.6971 22.5621 54.8776 22.469 55.0497C21.7663 55.6163 23.341 56.4137 22.6045 56.4725C22.5621 59.0368 21.8764 57.3538 23.0235 59.1921C24.0818 60.8835 23.231 61.1269 22.9135 63.2464C23.2479 63.5822 22.7315 63.9557 22.5071 64.3754C21.5039 68.6102 18.0031 69.9322 13.986 67.5903C13.8505 67.435 13.6643 67.2881 13.6219 67.0867C13.224 66.7173 13.3553 66.7635 13.0462 66.2976" fill="#5B472E"/>
<path d="M67.3139 66.6124C67.2885 67.7246 66.7086 68.6228 66.0525 69.4286C62.3697 73.9319 57.6499 76.6012 51.7617 76.8405C47.2112 77.0251 42.6225 77.3063 38.144 76.0388C36.6709 75.6191 35.13 75.3463 33.8728 74.3726C32.0992 72.5679 29.4535 71.8754 27.9127 69.7685L27.9381 69.7811C27.8407 69.5923 27.7095 69.437 27.5148 69.3362L27.5063 69.3404C27.3836 68.4801 28.0312 68.1905 28.6196 67.8589C28.8059 67.8295 28.9921 67.8505 29.1657 67.9219C29.5467 68.0981 29.1699 68.7067 29.6863 68.8032C29.8218 68.7487 29.9573 68.7445 30.097 68.7738C30.2324 68.8284 30.3509 68.8998 30.4652 68.9963C30.5795 69.1138 30.6642 69.2481 30.7277 69.395C30.7658 69.5335 30.7785 69.6804 30.7742 69.8105C30.9647 70.0455 31.1129 69.7517 31.2864 69.7559C31.7351 69.6594 32.1796 69.6678 32.6283 69.7392C34.9523 70.4736 37.2889 71.1409 39.7144 71.4809C44.2692 71.8083 48.8197 71.7411 53.3703 71.5103C57.9758 70.9605 62.412 69.9322 66.1329 66.944C66.4588 66.6753 66.8821 66.5956 67.3139 66.6124Z" fill="#45914C"/>
<path d="M29.2165 68.1359C29.1361 68.0478 29.0345 67.9974 28.916 67.9932C27.3667 67.5316 26.5116 66.3732 25.8724 65.0008C25.7285 64.7615 25.5846 64.5265 25.4407 64.2873C25.1063 63.9053 24.9623 63.3849 24.5348 63.0701C24.1073 62.7386 23.8829 61.8824 23.0786 62.5161C22.122 61.6893 22.9686 60.6443 22.7315 59.7293C22.7358 58.4828 21.2796 57.1944 22.4564 56.0402C22.2617 54.9699 22.2532 55.482 22.558 54.5167C22.4183 53.5765 22.2151 54.2942 22.4183 53.5765C22.541 52.7917 22.3548 52.0404 22.9813 51.3437C23.612 50.6428 25.5126 49.9084 26.2407 50.3113C27.2228 50.8527 28.3615 51.7341 29.1361 52.5818C29.3478 52.8253 28.6324 54.5502 28.7213 54.8608C28.9287 55.8723 28.4885 56.7788 28.2218 57.698C26.7995 62.6337 29.2716 66.583 33.6231 68.522C35.8074 69.4957 38.1102 70.0498 40.4553 70.4862C41.34 70.6499 42.4787 70.503 42.8173 71.7453C41.6702 72.3077 40.4934 72.0643 39.3166 71.8754C36.8106 71.8251 34.5163 70.9101 32.1797 70.1673C31.6886 69.7728 30.8928 69.928 30.5499 69.2733V69.2985C30.3679 69.1936 30.224 69.0509 30.097 68.8872L30.1012 68.883C29.7076 68.7403 29.3816 68.5304 29.2165 68.1359Z" fill="#D0AA7D"/>
<path d="M88.4834 30.3168C87.0314 29.725 85.8038 28.8142 84.7075 27.7146C84.4408 27.446 83.6492 27.3243 84.6059 26.8081C84.8683 26.6654 84.153 26.317 83.9625 26.3884C82.8619 26.8081 82.2608 26.1282 81.6131 25.4692C80.0892 23.9164 78.2098 22.8042 76.4996 21.4863C76.0001 21.1002 75.526 20.6889 75.0138 20.3195C74.6837 20.0803 74.5101 19.8159 74.7641 19.4591C74.9842 19.1528 75.3313 19.0143 75.6869 19.2199C76.47 19.6774 77.2954 20.0971 77.9939 20.6637C79.2342 21.6752 80.3856 22.7832 81.9222 23.3833C82.4597 23.5932 82.6756 24.1976 83.0778 24.5669C83.4884 24.9446 83.9752 25.6035 84.6525 24.8565C86.1975 26.4933 87.5182 28.2812 88.4834 30.3168Z" fill="#604E35"/>
<path d="M67.3139 66.6124C63.4999 70.0581 58.9367 71.6194 53.8571 71.8754C52.6845 72.0727 51.512 72.249 50.3521 71.7915C50.7373 70.4736 51.9691 70.7045 52.8962 70.524C55.872 69.9532 58.7843 69.2733 61.4977 67.8295C62.8777 67.095 63.5296 65.5002 65.1085 65.0763C65.299 65.5925 65.2016 66.4487 66.2472 65.8611C66.4377 65.7562 66.9414 66.2053 67.3012 66.3983C67.3054 66.4655 67.3097 66.541 67.3139 66.6124Z" fill="#CCAB7A"/>
<path d="M23.2479 59.7083C23.1887 60.6443 23.1294 61.5802 23.0701 62.5161C22.8458 63.1289 23.0278 63.855 22.5198 64.388C22.4437 63.9893 22.3675 63.5906 21.9484 63.3849C21.2415 62.6714 20.0901 62.0461 20.742 60.8499C21.2161 59.9895 21.9907 59.1627 23.2479 59.7083Z" fill="#69563C"/>
<path d="M25.8682 65.0007C26.8841 65.9996 27.8958 66.9985 28.9117 67.9932C28.4419 68.4423 27.9762 68.8913 27.5064 69.3404C26.1772 68.1821 25.6946 66.7131 25.8682 65.0007Z" fill="#4C9552"/>
<path d="M27.9169 69.7686C29.4705 70.7801 31.0198 71.8125 32.5902 72.7988C33.2082 73.1891 33.6442 73.6886 33.8771 74.3685C31.4896 73.3444 29.2122 72.1819 27.9169 69.7686Z" fill="#4C9552"/>
<path d="M24.5305 63.0702C25.1739 63.2254 25.4152 63.6745 25.4364 64.2873C24.8861 64.0607 24.6194 63.6284 24.5305 63.0702Z" fill="#C7BD8C"/>
<path d="M84.2758 24.4074C83.5858 24.5249 83.4927 24.2269 83.7551 23.6771C84.0599 23.8282 84.2292 24.0758 84.2758 24.4074Z" fill="#604E35"/>
<path d="M27.5148 69.3362C27.7392 69.4076 27.8831 69.5545 27.9381 69.7811C27.7011 69.7265 27.5699 69.567 27.5148 69.3362Z" fill="#4C9552"/>
<path d="M84.6524 24.8691C84.4239 24.7894 84.2842 24.6299 84.2376 24.3907C84.4916 24.4578 84.6186 24.6257 84.6524 24.8691Z" fill="#604E35"/>
<path d="M65.1085 65.0763C63.555 67.5945 61.1379 68.9124 58.4118 69.8063C55.8043 70.6625 53.0909 71.0277 50.3944 71.4516C47.8461 72.0601 45.3021 72.0685 42.758 71.4432C39.651 70.906 36.5185 70.4611 33.6189 69.1264C30.3256 67.6113 27.8704 65.4163 27.2989 61.639C27.0492 60.0064 27.4471 58.4577 27.8535 56.9132C28.0482 56.1745 28.3233 55.4568 28.5604 54.7307C28.8906 53.9711 29.1699 53.1904 29.5679 52.4602C29.716 52.3384 29.8218 51.9775 30.0039 51.9103C30.66 50.5883 30.4822 50.6932 30.8759 50.1182C31.3119 49.4845 31.3627 49.1151 32.3024 48.3723C32.3617 47.961 32.9035 47.8854 33.3099 47.705C33.9237 47.2055 32.7257 47.9652 33.6697 47.2055C33.331 46.6599 34.6814 47.2433 34.639 47.0754C34.5713 46.3409 35.02 45.9422 35.583 45.6149C35.7142 45.5645 35.8497 45.5057 35.9894 45.5099C37.4582 44.2005 37.6149 44.0871 38.2329 43.7556C38.9102 43.3904 39.342 43.231 40.9674 42.4209C41.213 42.2111 41.505 42.0978 41.8141 42.0348C42.7919 42.0264 43.6216 41.5773 44.4724 41.1744C46.8217 40.2301 48.9721 41.0947 51.1268 41.8837C54.0264 43.424 56.562 45.4386 58.7886 47.8351C58.9283 47.9694 59.051 48.1205 59.1611 48.2799C59.3177 48.6283 59.4955 48.9641 59.6394 49.3208C60.0627 49.8622 60.4352 50.454 60.922 50.9324C63.1952 53.1611 64.6048 55.8765 65.5614 58.8564C65.9382 60.5268 66.0313 62.1972 65.5657 63.8718L65.5784 63.8466C65.2186 64.195 65.5911 64.8077 65.117 65.1183L65.1085 65.0763Z" fill="#5B472E"/>
<path d="M55.4995 39.3823C55.8974 37.3636 56.5238 35.5001 58.3779 34.2578C61.2014 32.365 65.0026 32.9651 67.0049 35.6806C69.0494 38.4548 68.4526 42.4 65.6757 44.4145C65.227 44.7377 64.7487 45.0189 64.283 45.3211C60.5452 46.9999 56.617 45.2665 55.9185 41.6235V41.6319C55.3725 40.9604 55.9016 40.0874 55.4995 39.3823Z" fill="#020303"/>
<path d="M36.4127 40.0454C36.4127 40.0202 36.4127 39.9908 36.4127 39.9657C36.4169 39.5292 36.9122 39.3193 37.2678 39.5753C37.3313 39.6215 37.4032 39.6551 37.4921 39.6845C37.7631 39.7642 38.0678 39.6047 38.1271 39.3277C38.2118 38.9626 38.4149 39.7852 38.5123 39.4159C38.652 38.9038 39.6214 39.1976 39.7272 39.718C39.888 40.4903 39.3547 39.8188 40.4129 40.0958C40.578 40.1797 40.7304 40.2846 40.8786 40.3938C41.213 40.6959 41.6321 40.9016 41.958 41.2164C42.2205 41.9928 41.5813 42.0977 41.1241 42.3454C41.1072 42.3537 41.0945 42.3621 41.0775 42.3663C40.8278 42.4671 40.5738 42.5636 40.3241 42.6643C40.1547 42.7651 39.9727 42.7818 39.7865 42.7147C38.9187 41.5689 37.7842 40.8428 36.3662 40.5448C36.2603 40.3686 36.273 40.2049 36.4127 40.0454Z" fill="#CAA980"/>
<path d="M51.258 42.421C49.0483 41.6403 46.8345 40.8849 44.4343 41.5522C43.0671 41.3549 43.2829 42.0936 41.5305 42.3118C41.4627 42.2447 41.1791 39.1599 41.1114 39.0885C40.8786 38.2324 40.6966 38.3918 40.7643 37.863C40.5272 37.4979 40.65 37.8546 40.5865 37.6028C40.1463 37.4349 40.1844 37.3888 39.7907 36.3311C39.3885 35.2609 39.1388 34.1822 39.5494 33.091C39.9177 32.1131 40.777 31.8781 41.7802 32.3482C42.6945 32.7805 43.2872 33.5821 43.9729 34.262C45.8736 36.1422 46.644 36.1422 49.006 34.3669C49.5605 33.9514 50.0008 33.3932 50.5003 32.9064C51.0548 32.3691 51.5924 31.7774 52.4983 32.2181C53.4296 32.6713 53.8783 33.4646 53.7259 34.4257C53.565 35.4413 53.1798 36.4192 52.892 37.4139C52.2655 39.055 52.1766 40.8723 51.258 42.421Z" fill="#B1804D"/>
<path d="M51.258 42.4209C51.1183 40.5323 51.7575 38.8913 52.8877 37.4097C52.875 38.5849 53.438 39.7475 52.5914 40.9394C52.1596 41.548 52.93 42.6182 53.7385 42.8323C54.5428 43.0463 53.9798 42.2447 54.2042 42.1481C54.746 41.9131 55.4825 42.2615 55.9143 41.6235C56.109 41.9047 56.3164 42.1733 56.4942 42.4629C57.8911 44.7629 59.9611 45.7366 62.6279 45.5141C63.1824 45.468 63.7327 45.384 64.283 45.3211C64.4439 45.5435 64.6047 45.7618 64.9688 46.2612C63.3772 46.2612 61.9718 46.2738 60.5664 46.257C59.7071 46.2486 59.2372 46.4207 59.5674 47.4573C59.7452 48.0239 59.6225 48.6829 59.6352 49.304C59.2542 49.0858 58.9494 48.8046 58.8012 48.3849L58.8055 48.3891C56.3926 46.2738 54.1491 43.9445 51.258 42.4209Z" fill="#CFAA7A"/>
<path d="M30.3425 45.619C30.9182 45.5603 31.5701 45.2749 32.1881 45.405C32.8315 45.9338 35.1597 46.4836 33.6951 47.323C33.6824 47.5119 33.6062 47.6756 33.4623 47.8057C33.1744 48.0197 32.3617 48.2086 32.2939 48.5318C32.1754 48.7164 32.586 48.494 32.4463 48.3219C32.5733 47.1425 32.0188 46.9663 31.041 46.7145C30.4695 46.5676 29.8388 46.6263 29.2377 46.5927C29.0514 46.3619 29.1234 46.215 29.4028 46.1856C29.8091 46.1479 30.0885 46.0471 30.3425 45.619Z" fill="#C7A77F"/>
<path d="M27.5487 51.2976C28.3191 51.6669 30.5288 50.7394 29.716 52.4896C29.1827 53.2324 29.1065 54.0844 28.5562 54.7266C28.3615 54.5629 28.1667 54.3992 27.972 54.2355C29.2504 53.6605 29.2631 53.6185 28.3488 52.9386C27.7985 52.5315 27.2482 52.1202 26.6979 51.7131C27.045 51.7047 27.3625 51.6292 27.5487 51.2976Z" fill="#C8AA87"/>
<path d="M65.5614 63.8592C65.5614 62.1888 65.5614 60.5183 65.5571 58.8438C66.2725 60.468 66.2725 62.5203 65.5614 63.8592Z" fill="#CCAB7A"/>
<path d="M67.1784 65.0008C67.0684 64.9168 66.8694 64.8371 66.789 64.6944C66.6408 64.4342 66.8779 64.3335 67.0684 64.3586C67.2335 64.3796 67.4536 64.4845 67.5255 64.6188C67.6356 64.8287 67.462 64.9546 67.1784 65.0008Z" fill="#CCAB7A"/>
<path d="M22.977 51.3396C22.9389 51.4655 22.8966 51.5872 22.8585 51.7089C22.7569 51.8978 22.6511 51.902 22.541 51.7131C22.5325 51.0164 22.5283 50.3197 22.5198 49.623C23.049 50.1015 22.8034 50.7772 22.977 51.3396Z" fill="#928574"/>
<path d="M55.4995 39.3823C55.8381 40.0958 55.8762 40.8638 55.9143 41.6361C55.1185 41.0065 55.5503 40.1503 55.4995 39.3823Z" fill="#CFAA7A"/>
<path d="M65.1127 65.1057C65.1127 64.6272 65.1762 64.1698 65.5741 63.834C65.5868 64.3209 65.6927 64.8371 65.1127 65.1057Z" fill="#CCAB7A"/>
<path d="M30.0334 45.4932C30.0588 45.6023 30.0927 45.7114 30.1393 45.8163C29.6482 45.8373 29.1318 45.9338 28.827 45.3924" fill="#C7A77F"/>
<path d="M26.7021 51.7173C26.5497 51.583 26.393 51.4445 26.2407 51.3102C26.393 51.4445 26.5454 51.5788 26.7021 51.7173Z" fill="#C8AA87"/>
<path d="M22.0626 54.2229C22.1938 54.3866 22.3251 54.5461 22.4521 54.7098C22.3208 54.5503 22.1938 54.3866 22.0626 54.2229Z" fill="#928574"/>
<path d="M21.6732 53.799C21.8002 53.9375 21.9272 54.076 22.0542 54.2187C21.9272 54.076 21.8002 53.9375 21.6732 53.799Z" fill="#928574"/>
<path d="M42.7537 71.4432C45.2978 71.4474 47.8461 71.4474 50.3902 71.4516C51.4654 72.2238 52.7099 71.6195 53.8528 71.8755C53.5057 72.1567 53.0951 72.2028 52.6675 72.2112C48.608 72.3036 44.5528 72.3371 40.4933 72.2028C40.07 72.1902 39.6552 72.1567 39.308 71.8671C40.4467 71.6111 41.6912 72.228 42.7537 71.4432Z" fill="#C6AB76"/>
<path d="M29.2165 68.1359C29.6313 68.245 29.9192 68.5011 30.1012 68.8788C29.8261 69.1348 29.5467 69.395 29.2334 69.6888C28.9456 69.1054 28.9456 68.6186 29.2165 68.1359Z" fill="#4C9552"/>
<path d="M30.5499 69.2649C31.1891 69.395 31.7394 69.6762 32.1796 70.1589C31.6209 70.1589 31.0663 70.1547 30.5076 70.1547C30.5203 69.8609 30.533 69.5629 30.5499 69.2649Z" fill="#4C9552"/>
<path d="M30.5076 70.1547C30.4738 70.2135 30.4314 70.3226 30.4145 70.3184C30.2706 70.289 30.3044 70.2261 30.5076 70.1547Z" fill="#4C9552"/>
<path d="M30.0927 68.8788C30.3213 68.9334 30.4779 69.0635 30.5457 69.2901C30.3975 69.1558 30.2451 69.0173 30.0927 68.8788Z" fill="#4C9552"/>
<path d="M46.6693 47.088C48.5572 47.2727 50.5044 47.4406 52.3628 48.1079C53.5776 48.5444 54.4454 49.3964 54.5343 50.6765C54.6232 51.9062 54.0475 53.0646 53.0019 53.7109C48.9932 56.1955 44.8279 57.0098 40.2647 53.8494C39.0583 53.0142 38.3852 51.9859 38.5503 50.5296C38.7112 49.0732 39.8118 48.4059 41.0436 48.0114C42.8426 47.4322 44.7179 47.2098 46.6693 47.088Z" fill="#020203"/>
<path d="M57.4171 65.1266C53.9248 65.3785 50.877 64.1404 48.0282 62.4238C47.0165 61.8152 46.3096 61.8026 45.3656 62.386C42.0596 64.4299 38.47 65.3953 34.5459 65.1476C32.3659 65.0091 30.6558 64.0984 29.2927 62.4574C28.899 61.9831 28.662 61.4879 29.1234 60.9632C29.6568 60.3589 30.2579 60.4806 30.7701 61.001C33.4919 63.7668 36.7471 63.2758 40.015 62.4532C42.0088 61.9495 43.8925 61.0556 45.3995 59.6873C46.4196 58.764 47.0842 59.0074 47.9012 59.7167C49.696 61.2696 51.8337 62.1342 54.1068 62.6462C57.125 63.3219 60.1008 63.5947 62.5391 61.0556C62.9073 60.6694 63.5 60.3463 64.0164 60.9297C64.5074 61.4795 64.4524 62.1174 63.9995 62.642C62.7592 64.0732 61.1464 64.8706 59.2711 65.1099C58.6489 65.1938 58.0097 65.1266 57.4171 65.1266Z" fill="#060606"/>
<path d="M34.8084 47.0838C34.5163 47.109 33.6274 47.1971 33.4623 47.2013C32.9204 46.7313 31.587 46.299 31.9468 45.3924C31.9553 45.2875 33.4623 45.1112 33.475 45.0063C33.6104 45.0105 33.7374 44.9853 33.8602 44.9307C34.0295 44.8384 34.1904 44.7377 34.3427 44.6244C34.4486 44.5824 34.5544 44.532 34.6518 44.4733C34.8592 44.3683 35.0751 44.3432 35.3036 44.3935C35.782 44.6537 35.9174 45.0063 35.6 45.4805C35.6 45.6065 35.6084 45.7366 35.6296 45.8583C35.3544 46.2654 34.8253 46.5004 34.8084 47.0838Z" fill="#C6A97D"/>
<path d="M34.3469 44.6244C34.2581 44.8384 34.1057 44.956 33.8644 44.9308C33.9575 44.7251 34.1099 44.6118 34.3469 44.6244Z" fill="#5B5B5B"/>
<path d="M58.8055 48.389C58.8647 48.3303 58.924 48.2715 58.979 48.2127C58.9663 48.2463 58.9663 48.2925 58.9409 48.3135C58.9071 48.347 58.852 48.3596 58.8055 48.389C58.8055 48.389 58.8055 48.3848 58.8055 48.389Z" fill="#D3AB7D"/>
<path d="M23.3071 55.9143C22.9939 55.7044 22.9431 55.3939 22.9897 55.0539C23.2563 55.2805 23.3241 55.5785 23.3071 55.9143Z" fill="#D0AA7D"/>
<path d="M30.7193 50.7183C30.224 51.0751 29.8473 52.5818 29.2843 53.0141C29.225 52.5566 28.0059 52.926 27.6588 52.6741C26.5243 51.8473 27.1423 48.2379 27.9805 47.4111C29.4832 45.7365 31.9722 46.4836 32.9458 47.4825C33.0898 47.6294 32.404 48.6408 32.0357 49.0563C31.7691 49.3375 31.5024 49.6187 31.2357 49.8957C30.8124 50.4455 30.8717 50.3322 30.7193 50.7183Z" fill="#D1AB7F"/>
<path d="M41.5304 40.4274C41.7844 40.3602 42.0384 40.2343 42.2924 40.2385C43.1305 40.2511 43.4522 40.5449 42.7707 41.271C42.1908 41.229 41.5262 41.313 41.5304 40.4274Z" fill="#B2895B"/>
<path d="M23.1336 58.2478C23.0955 59.1837 22.6849 60.1364 21.7409 60.0735C20.8901 60.0147 19.9292 58.869 20.0266 58.0254C20.107 57.3035 21.1737 56.4179 21.9611 56.4179C22.9516 56.4221 23.1717 57.1944 23.1336 58.2478Z" fill="#5D4B33"/>
<path d="M37.5344 40.3098C38.8424 40.5952 40.0531 41.6361 41.1156 42.3496C40.9505 42.5048 40.2563 42.6979 40.0954 42.8574C39.1853 43.3652 39.2488 43.1638 38.4403 43.7304C38.2921 43.743 35.782 45.854 35.6338 45.8624C34.9523 45.7113 35.638 44.9475 35.3206 44.3599C36.1037 43.4743 37.2847 41.4388 37.5344 40.3098Z" fill="#CDAA7F"/>
<path d="M36.9926 44.7712C37.509 43.7975 38.3514 43.3107 39.4224 43.1764C39.0583 44.3809 38.2033 44.8426 36.9926 44.7712Z" fill="#756047"/>
<path d="M27.426 44.4733C26.9773 43.9445 26.4862 43.445 26.0925 42.8784C24.0522 39.9531 24.8565 36.0961 27.8958 34.1319C30.8336 32.2306 34.8888 33.1792 36.6794 36.2052C36.9969 36.7424 37.2466 37.3174 37.526 37.8714C37.9493 38.438 37.6318 39.1179 37.8096 39.7223C37.3313 40.5533 37.5218 41.4388 36.9926 42.2447C36.5524 42.912 36.0656 43.6423 35.3248 44.36C35.2359 44.5446 35.1089 44.7041 34.9523 44.8384C34.7026 45.0231 34.4274 45.1574 34.1269 45.2287C33.9279 45.2539 33.7332 45.2287 33.5427 45.1658C33.0559 44.9307 33.5681 45.1616 32.8654 45.2413C32.3236 45.3043 32.6876 45.2078 31.9511 45.3882C31.0367 45.6107 31.1002 45.7324 30.2198 45.6233C29.8346 45.5897 29.4155 45.7282 29.098 45.3882L29.1149 45.3966C28.8652 45.1784 28.4758 45.2455 28.2514 44.9811L28.2599 44.9853C28.0186 44.7545 27.5826 44.8384 27.426 44.4733Z" fill="#030303"/>
</g>
<defs>
<clipPath id="clip0">
<rect width="93" height="64" fill="white" transform="translate(0 13)"/>
</clipPath>
</defs>
</svg>
