<svg
  id="Capa_1"
  data-name="Capa 1"
  xmlns="http://www.w3.org/2000/svg"
  viewBox="0 0 192.97 71.16"
><defs><style
    >.cls-1,.cls-2,.cls-3{fill:#1d1d1b;}.cls-2,.cls-3{stroke:#1d1d1b;stroke-miterlimit:10;}.cls-2{stroke-width:1.42px;}.cls-3{stroke-width:0.28px;}</style></defs><polygon
    class="cls-1"
    points="10.37 30.32 14.35 30.32 14.35 55.49 21.71 55.49 21.71 24.36 10.37 24.36 10.37 30.32"
  /><path
    class="cls-1"
    d="M16.06,21.1A2.33,2.33,0,0,0,18,20a4.68,4.68,0,0,0,.4-.73h.05a3.49,3.49,0,0,0,2.52-1,3.36,3.36,0,0,0,0-4.88,3.65,3.65,0,0,0-5,0h0a2.35,2.35,0,0,0-1.78,1.12,4.66,4.66,0,0,0-.8,2.74,4.67,4.67,0,0,0,.8,2.75A2.33,2.33,0,0,0,16.06,21.1Z"
  /><path
    class="cls-1"
    d="M55.83,55.49l-3.11-8.63H38.13l-3,8.63h-8.4l17-43.16h3.31L64.17,55.49ZM45.4,25.35,40.28,41.08H50.51Z"
  /><path
    class="cls-1"
    d="M84.59,55.49V53.6a7.32,7.32,0,0,1-3,1.73,13.41,13.41,0,0,1-4.45.74q-6.51,0-10.24-4.12T63.11,40.44q0-7.38,4.29-12a14,14,0,0,1,10.74-4.64,14.22,14.22,0,0,1,6.45,1.46V12.77L91.86,11V55.49Zm0-23.69a7.68,7.68,0,0,0-4.85-1.86A8.51,8.51,0,0,0,73,32.6q-2.35,2.67-2.35,7.63,0,9.72,9.36,9.71a7.17,7.17,0,0,0,2.57-.62,4.67,4.67,0,0,0,2-1.27Z"
  /><path
    class="cls-1"
    d="M95.07,39.86q0-7.12,4.11-11.6A14,14,0,0,1,110,23.78c4.72,0,8.4,1.44,11,4.3S125,34.88,125,39.86s-1.34,8.9-4,11.83-6.31,4.38-10.94,4.38-8.41-1.47-11-4.43S95.07,44.76,95.07,39.86Zm7.55,0q0,10.29,7.42,10.29a6.39,6.39,0,0,0,5.39-2.68c1.32-1.78,2-4.32,2-7.61q0-10.15-7.38-10.15a6.4,6.4,0,0,0-5.41,2.68Q102.62,35.06,102.62,39.86Z"
  /><path
    class="cls-1"
    d="M135.57,54.71v13H128.3V24.36h7.27v2.1a9.2,9.2,0,0,1,6.71-2.68q14.88,0,14.88,16.4,0,7.64-4.11,11.77t-11.23,4.12A14.14,14.14,0,0,1,135.57,54.71Zm0-22.73V48.34a7.11,7.11,0,0,0,4.62,1.6q5,0,7.22-2.4c1.47-1.59,2.2-4.12,2.2-7.57q0-5.52-2.18-7.77c-1.46-1.5-3.86-2.26-7.21-2.26A6.37,6.37,0,0,0,135.57,32Z"
  /><path
    class="cls-1"
    d="M162.76,30.21h-3.61V24.36h3.61V18L170,15.35v9h8.54v5.85H170V43.84c0,2.23.35,3.8,1,4.72a4.33,4.33,0,0,0,3.66,1.38,9,9,0,0,0,4.89-1.42V55.2a23.22,23.22,0,0,1-7.21.87c-3.1,0-5.48-.87-7.15-2.63s-2.5-4.24-2.5-7.48Z"
  /><path
    class="cls-2"
    d="M22.58,15.54a8,8,0,0,0-4.07-3.37,4.06,4.06,0,0,0-5.14,1.52,7.71,7.71,0,0,0-.56,6.64,2.51,2.51,0,0,0,.86,1.14,1.85,1.85,0,0,0,2.3.25,4.35,4.35,0,0,0,1.35-1.28,2.78,2.78,0,0,1,2.57-1.2,5.5,5.5,0,0,0,1.46-.09A1.9,1.9,0,0,0,23,17.33,3,3,0,0,0,22.58,15.54Zm-1.49,2.65a4.44,4.44,0,0,1-1.15,0,3.78,3.78,0,0,0-3.42,1.6,3.29,3.29,0,0,1-1,1,.89.89,0,0,1-1.21-.13,2.55,2.55,0,0,1-.77-1.43,6.93,6.93,0,0,1,.54-4.84,3,3,0,0,1,3.14-1.57,7.09,7.09,0,0,1,4.62,3.38c0,.14.13.37.18.6A1,1,0,0,1,21.09,18.19Z"
  /><path
    class="cls-3"
    d="M11,14.16a3.79,3.79,0,0,0-1.54-1.79A1.56,1.56,0,0,0,7,13.44a4.17,4.17,0,0,0,2,4.16,1.55,1.55,0,0,0,2.37-1.19A3.72,3.72,0,0,0,11,14.16Zm-.66,2.13c-.12.53-.44.67-.93.42a3.21,3.21,0,0,1-1.43-3.08c.13-.52.46-.68.94-.42a3,3,0,0,1,1.27,1.57A2.45,2.45,0,0,1,10.3,16.29Z"
  /><path
    class="cls-3"
    d="M21.24,6.84A1.57,1.57,0,0,0,18.78,8a3.79,3.79,0,0,0,.39,2.36A3.61,3.61,0,0,0,20.61,12a1.58,1.58,0,0,0,2.53-1.16A4.25,4.25,0,0,0,21.24,6.84Zm.9,3.89c-.11.56-.44.71-.94.46a3.22,3.22,0,0,1-1.44-3c.13-.57.46-.73,1-.44a2.65,2.65,0,0,1,1.13,1.34A2.58,2.58,0,0,1,22.14,10.73Z"
  /><path
    class="cls-3"
    d="M12.86,8.74A3.58,3.58,0,0,0,11.21,7,1.54,1.54,0,0,0,8.92,8.08a4.11,4.11,0,0,0,1.93,4.17,1.55,1.55,0,0,0,2.38-1.15A3.79,3.79,0,0,0,12.86,8.74Zm-.61,2.18c-.12.56-.45.71-.95.45a3.16,3.16,0,0,1-1.41-3,.59.59,0,0,1,1-.42,3,3,0,0,1,1.2,1.47A2.58,2.58,0,0,1,12.25,10.92Z"
  /><path
    class="cls-3"
    d="M17.42,6.66a3.59,3.59,0,0,0-1.6-1.79A1.56,1.56,0,0,0,13.47,6a4.2,4.2,0,0,0,1.84,4.14,1.58,1.58,0,0,0,2.49-1.2A3.67,3.67,0,0,0,17.42,6.66Zm-.61,2.13c-.13.57-.47.73-1,.44a2.56,2.56,0,0,1-1.11-1.31,2.6,2.6,0,0,1-.3-1.62c.1-.63.47-.8,1-.51A3.25,3.25,0,0,1,16.81,8.79Z"
  /></svg>
