<svg id="Capa_1" data-name="Capa 1" xmlns="http://www.w3.org/2000/svg" viewBox="0 0 946.03 615.03"><defs><style>.cls-1{fill:#fff;stroke-width:19.84px;}.cls-1,.cls-4{stroke:#010101;stroke-miterlimit:10;}.cls-2{fill:#ededed;}.cls-3{fill:#010101;}.cls-4{fill:none;stroke-width:0.03px;}</style></defs><path class="cls-1" d="M269,458H250.58A40.7,40.7,0,0,1,210,417.42V141.58c0-22.32,18.26-40.58,50.58-40.58H659.42c12.32,0,30.58,18.26,30.58,40.58V148" transform="translate(0.01 0.01)"/><rect class="cls-1" x="266.01" y="142.01" width="480" height="357" rx="40.58"/><rect class="cls-2" x="290.01" y="170.01" width="306" height="306" rx="28.25"/><rect class="cls-2" x="605.01" y="170.01" width="117" height="306" rx="28.25"/><path class="cls-3" d="M485.54,332.78c-5.93-.14-7.2-1.67-6.28-6.76a9.33,9.33,0,0,0,0-2.11C478.41,309,468.89,295.8,456,291.57c-12.74-4.17-26.42.2-36.18,12.19-3,3.64-4.2,3.41-7.07,0-12.37-14.85-30.44-18-44.58-7.79-10.69,7.74-14.75,19-14.9,31.7-.05,3.73-.23,5.29-4.89,5.06-14.05-.71-25.91,8.71-29.36,22.44-5.15,20.49,6.8,43.79,26.58,51.05,3.76,1.39,4.2,3,3.07,6.26a52.73,52.73,0,0,0-2.92,20c0,1-.06,2.73,0,4.49.84,21.79,16,33.22,37.22,27.9,6-1.5,11.85-3.27,17.71-5.08a51.6,51.6,0,0,1,31.18,0c6.37,2,12.77,3.92,19.25,5.5,17.62,4.27,30.4-3.41,34.44-21a59.8,59.8,0,0,0-1.69-32.3c-.7-2.15-1.31-4.08,1.89-5.31,18-6.88,27.38-20.71,29.1-39.19C516.43,350.28,506.08,333.26,485.54,332.78ZM433.28,313c4.81-5.11,10.74-7.75,17.6-5.62,7.13,2.21,10.06,8.29,11.42,15.14a50.64,50.64,0,0,1,.49,6.3,33,33,0,0,1-7.3,20.49c-4.64,5.72-10.41,10-18.23,8.15-8.32-2-11.79-8.7-12.85-16.34A32.91,32.91,0,0,1,433.28,313Zm-62.09,6c3.69-12.7,16.63-16.24,26.55-7.43,7.4,6.57,10.56,15.1,10.45,24.87a24.93,24.93,0,0,1-.06,5.26c-1.58,7.16-4.52,13.54-12.34,15.65-7.38,2-13.17-1.56-17.68-6.85C370.27,341.33,367.82,330.6,371.19,319ZM349.32,390c-10.84-5.67-17.43-19.71-14.39-30.63,2.33-8.34,9.28-12,17.6-9.35,10.42,3.36,18.67,15.31,18.59,26.92C371,389.58,360.58,395.85,349.32,390Zm120.16,51.4c-1.34,6.81-6,9.63-13,8-7.18-1.68-14.33-3.55-21.34-5.8-14.76-4.74-29.16-3-43.55,1.56-5,1.6-10.11,3-15.25,4.15-7.59,1.71-11.9-1.05-13.44-8.62a56.56,56.56,0,0,1-.66-8.07c.54-28.68,24-57.93,49.65-63.55,7.88-1.73,14.83,1,21.12,4.78,21.1,12.53,35.12,30.08,37.27,55.47A43.22,43.22,0,0,1,469.48,441.35Zm14.11-51.58c-11.47,6.45-22.81-.43-22.12-13.55.54-10.21,5.15-18.52,14-24.12,5-3.2,10.59-4.38,16-1.35s7.1,8.41,7,15.84C497.45,375.74,493.09,384.43,483.59,389.77Z" transform="translate(0.01 0.01)"/><path class="cls-3" d="M674.54,219.78c-5.93-.14-7.2-1.67-6.28-6.76a9.33,9.33,0,0,0,0-2.11C667.41,196,657.89,182.8,645,178.57c-12.74-4.17-26.42.2-36.18,12.19-3,3.64-4.2,3.41-7.07,0-12.37-14.85-30.44-18-44.58-7.79-10.69,7.74-14.75,19-14.9,31.7,0,3.73-.23,5.29-4.89,5.06-14.05-.71-25.91,8.71-29.36,22.44-5.15,20.49,6.8,43.79,26.58,51.05,3.76,1.39,4.2,3,3.07,6.26a52.73,52.73,0,0,0-2.92,20c0,1-.06,2.73,0,4.49.84,21.79,16,33.22,37.22,27.9,5.95-1.5,11.85-3.27,17.71-5.08a51.6,51.6,0,0,1,31.18,0c6.37,2,12.77,3.92,19.25,5.5,17.62,4.27,30.4-3.41,34.44-21a59.8,59.8,0,0,0-1.69-32.3c-.7-2.15-1.31-4.08,1.89-5.31,18-6.88,27.38-20.71,29.1-39.19C705.43,237.28,695.08,220.26,674.54,219.78ZM622.28,200c4.81-5.11,10.74-7.75,17.6-5.62,7.13,2.21,10.06,8.29,11.42,15.14a50.64,50.64,0,0,1,.49,6.3,33,33,0,0,1-7.3,20.49c-4.64,5.72-10.41,10-18.23,8.15-8.32-2-11.79-8.7-12.85-16.34A32.91,32.91,0,0,1,622.28,200Zm-62.09,6c3.69-12.7,16.63-16.24,26.55-7.43,7.4,6.57,10.56,15.1,10.45,24.87a24.93,24.93,0,0,1-.06,5.26c-1.58,7.16-4.52,13.54-12.34,15.65-7.38,2-13.17-1.56-17.68-6.85C559.27,228.33,556.82,217.6,560.19,206ZM538.32,277c-10.84-5.67-17.43-19.71-14.39-30.63,2.33-8.34,9.28-12,17.6-9.35,10.42,3.36,18.67,15.31,18.59,26.92C560,276.58,549.58,282.85,538.32,277Zm120.16,51.4c-1.34,6.81-6,9.63-13,8-7.18-1.68-14.33-3.55-21.34-5.8-14.76-4.74-29.16-3-43.55,1.56-5,1.6-10.11,3-15.25,4.15-7.59,1.71-11.9-1.05-13.44-8.62a56.56,56.56,0,0,1-.66-8.07c.54-28.68,24-57.93,49.65-63.55,7.88-1.73,14.83,1,21.12,4.78,21.1,12.53,35.12,30.08,37.27,55.47A43.22,43.22,0,0,1,658.48,328.35Zm14.11-51.58c-11.47,6.45-22.81-.43-22.12-13.55.54-10.21,5.15-18.52,14-24.12,5-3.2,10.59-4.38,16-1.35s7.1,8.41,7,15.84C686.45,262.74,682.09,271.43,672.59,276.77Z" transform="translate(0.01 0.01)"/><rect class="cls-4" x="0.01" y="0.01" width="946" height="615"/></svg>